<svg xmlns="http://www.w3.org/2000/svg" height="2432" preserveAspectRatio="none" style="display: block;" version="1.1" viewBox="0 0 2432 2432" width="1792">
<defs>
	<linearGradient gradientUnits="userSpaceOnUse" id="Gradient1" x1="1883.84" x2="1227.1" y1="1429.48" y2="1195.31">
		<stop class="stop0" offset="0" stop-color="rgb(4,26,55)" stop-opacity="1"></stop>
		<stop class="stop1" offset="1" stop-color="rgb(4,79,105)" stop-opacity="1"></stop>
	</linearGradient>
</defs>
<path d="M 1061.92 0 L 1226.47 0 C 1239.33 9.22744 1260.54 6.71734 1274.69 10.9995 C 1279.37 13.8699 1298.03 17.1756 1304.91 18.9832 C 1423.8 50.2434 1550.32 125.748 1588.63 249.61 C 1594.54 268.736 1597.81 297.688 1595.97 317.577 C 1595.01 327.987 1591.34 336.912 1591.28 347.911 C 1590.16 349.7 1590.59 349.818 1589.27 350.232 C 1585.75 356.18 1584.88 365.875 1582.27 373.341 C 1580.18 379.28 1558.72 417.481 1563.66 419.763 C 1581.72 428.107 1597.56 437.207 1607.36 455.634 C 1609.93 460.728 1611.29 465.184 1615.21 469.483 C 1615.21 473.863 1615.41 498.98 1614.7 501.936 C 1609.3 524.271 1596.1 546.421 1579.92 562.606 C 1553.06 589.458 1519.08 605.055 1482.6 614.043 C 1471.64 616.743 1458.57 616.841 1447.88 618.811 C 1442.23 619.78 1436.17 620.146 1431.72 623.373 C 1425.83 631.71 1432.89 709.879 1436.74 722.293 C 1437.29 724.071 1452.07 725.267 1454.37 725.349 C 1542.69 728.505 1631.2 742.571 1716.86 764.248 C 1729.72 767.502 1743.83 769.006 1755.76 775.286 C 1762.71 778.974 1761.54 785.363 1764.87 790.971 L 1767.1 792.313 C 1769.15 802.495 1780.31 823.038 1784.72 833.38 C 1806.48 884.513 1828.19 935.734 1852 985.952 C 1854.07 990.303 1857.98 993.976 1857.55 998.496 C 1859.9 1015.68 1873.38 1012.56 1877.51 1020.85 C 1885.23 1020.22 1890.99 1025.04 1897.94 1028.4 C 1935.87 1046.78 1974.9 1063.45 2011.54 1084.34 C 2011.64 1084.44 2011.74 1084.54 2011.84 1084.64 L 2024.82 1093.48 C 2052.62 1105.42 2098.6 1160.63 2110.3 1190.22 C 2172.73 1344.8 2236.27 1498.92 2300.92 1652.59 C 2308.33 1670.25 2369.87 1813.42 2370.19 1818.26 C 2370.66 1825.37 2376.41 1833 2379.21 1839.68 C 2390.34 1866.21 2401.1 1892.64 2413.02 1918.85 C 2418.5 1930.91 2423.51 1944.01 2431.49 1954.63 C 2431.66 1954.86 2431.83 1955.11 2432 1955.34 L 2432 2027.84 C 2422.93 2036.57 2419.41 2048.84 2413.37 2060.11 C 2371.95 2137.46 2276.19 2177.46 2191.63 2178.45 C 2137.23 2179.09 2074.48 2155.42 2021.76 2142.81 C 1981.49 2133.19 1940.47 2121.02 1900.32 2110.63 C 1891.76 2108.32 1873.5 2100.62 1866.55 2106.7 C 1865.8 2119.85 1873.45 2136.82 1876.35 2150.33 C 1885.57 2193.31 1897.61 2235.9 1905.75 2278.89 C 1913.74 2321.11 1941.09 2390.89 1937.49 2432 L 1045.64 2432 L 1042.01 2432 L 977.072 2432 L 770.23 2432 L 700.31 2432 L 410.23 2432 C 406.115 2403.97 409.375 2405.11 415.772 2380.08 L 436.288 2300.12 L 508.862 2020.04 C 512.322 2006.31 527.144 1954.57 526.665 1943.83 C 535.87 1932.6 529.967 1933.9 534.363 1920.18 C 536.028 1914.99 538.435 1909.91 540.612 1904.98 L 541.577 1902.75 C 541.398 1900.1 542.256 1884.86 541.888 1884.52 C 541.232 1884.94 536.597 1889.3 534.561 1890.73 C 533.948 1892.19 532.142 1897.62 531.837 1898.24 C 526.065 1910 523.647 1909.61 521.342 1922.58 L 521.119 1923.78 C 512.853 1931.74 513.074 1937.46 508.386 1946.99 C 488.462 1985.91 470.894 2017.11 450.619 2056.8 C 417.682 2121.27 395.113 2155.79 322.552 2185.42 C 213.575 2229.92 53.1686 2192.05 8.33862 2072.35 C 5.67818 2065.24 7.11274 2061.65 0 2055.47 L 0 1994.37 C 7.89856 1987.14 6.83346 1979.21 10.2289 1970.29 C 11.3102 1967.44 15.4115 1959.88 16.9427 1957.04 C 22.6544 1946.29 29.4279 1936.15 37.1619 1926.76 C 38.9945 1924.55 48.7959 1913.17 50.2975 1911.85 C 60.945 1901.74 64.9797 1888.74 72.0673 1875.74 C 71.7226 1874.08 94.1009 1829.05 96.7305 1823.56 C 133.819 1746.21 170.202 1668.51 205.874 1590.49 C 247.515 1500.8 289.812 1411.42 332.762 1322.36 L 373.125 1235.24 C 379.691 1221.16 394.357 1189.81 402.888 1177.1 C 423.473 1148.55 450.927 1123.6 480.402 1104.45 C 487.181 1100.05 489.361 1098.91 496.3 1095.77 L 497.648 1095.14 C 505.845 1089.51 506.853 1088.77 516.609 1086 C 518.89 1082.04 608.364 1049.94 621.14 1044.35 C 636.167 1037.76 659.869 1032.88 674.062 1021.4 C 679.627 1016.9 677.289 1009.76 680.87 1004.02 C 701.026 967.729 718.932 930.362 737.081 893.053 C 739.754 887.558 750.397 859.261 753.033 857.276 C 761.609 847.618 793.672 839.21 807.741 834.468 L 926.211 794.173 C 936.878 790.599 977.729 779.747 983.55 773.226 C 982.406 768.104 943.314 757.521 934.666 751.384 C 930.426 750.976 928.017 750.229 924.184 748.591 C 847.715 714.917 782.062 657.5 749.414 579.313 C 720.334 509.669 734.447 447.08 747.755 375.819 C 748.164 373.63 753.922 354.551 753.952 354.761 C 751.847 340.141 780.472 295.44 776.666 286.314 C 771.34 284.509 763.777 285.153 757.911 285.224 C 722.285 262.61 738.509 250.177 751.969 221.749 L 752.4 220.819 C 762.175 207.383 770.651 196.692 783.953 186.198 C 785.289 185.144 784.367 183.784 783.813 182.172 C 768.413 177.244 751.721 190.189 742.66 168.157 L 741.996 166.506 C 753.544 143.429 781.978 127.274 803.077 113.463 C 810.302 108.733 865.429 80.6518 871.595 81.7403 C 879.041 79.1851 892.66 73.0657 898.725 68.4448 C 900.635 63.946 899.926 65.1215 898.379 59.1793 C 897.962 58.2633 897.38 56.2266 897.051 55.1916 C 903.141 41.4248 974.565 23.1355 990.148 17.7882 C 1007.34 11.8896 1048.55 9.86018 1061.92 0 z M 1008.15 200.316 L 992.894 208.307 C 965.323 222.797 836.186 293.735 814.007 263.254 C 813.511 259.401 813.33 257.019 812.127 253.264 C 806.722 251.381 799.272 266.267 796.072 270.959 C 783.188 289.288 772.737 309.211 764.98 330.229 C 751.648 366.338 736.706 448.433 736.11 487.494 C 736.02 501.815 737.189 516.117 739.603 530.233 C 756.228 629.464 844.126 715.723 936.348 749.976 C 994.607 779.612 1095.49 787.113 1160.34 777.157 C 1240.71 764.818 1320.48 730.462 1379.75 673.643 C 1398.11 656.054 1411.83 637.694 1426.85 617.642 C 1431.85 617.653 1437.28 617.413 1442.32 617.294 C 1479.68 613.203 1500.67 608.097 1535.51 591.012 C 1608.86 555.041 1656.88 449.984 1549.71 419.95 C 1499.45 405.864 1451.44 437.477 1414.33 468.106 C 1413.7 468.464 1413.07 468.823 1412.44 469.182 L 1412.93 466.704 C 1420.96 456.845 1443.43 441.116 1454.43 434.966 C 1487.77 416.317 1517.42 408.332 1554.53 418.313 C 1567.77 396.668 1579.02 376.094 1584.84 351.121 C 1586.36 346.033 1588.06 336.168 1589.17 330.599 C 1569.17 328.594 1528.56 320.29 1507.22 316.53 L 1328.37 284.685 L 1327.22 285.155 L 1325.49 283.275 C 1334.08 271.255 1344.23 261.674 1350.88 248.074 C 1354.94 242.697 1357.56 235.831 1359.61 229.482 L 1336.55 243.329 C 1303.13 259.806 1257.97 273.934 1221.65 258.204 C 1216.96 256.725 1213.12 253.885 1209.71 250.427 C 1196.1 236.455 1197.57 217.955 1199.11 200.085 C 1188.84 207.204 1178.33 213.979 1167.6 220.398 C 1125.2 246.053 1072.23 267.322 1021.93 256.2 C 998.789 251.082 999.213 233.299 1004.09 214.607 L 1008.15 200.316 z M 910.042 991.158 C 914.725 1001.93 915.778 1006.17 919.507 1016.54 C 926.221 1023.35 938.883 1103.15 940.304 1118.18 C 942.437 1140.73 941.699 1171.29 940.725 1194.3 C 940.49 1199.85 950.54 1210.43 952.668 1215.61 C 958.074 1231.6 954.03 1251.15 954.026 1267.67 C 954.022 1281.45 946.113 1300.2 945.815 1312.71 C 946.038 1333 941.869 1351.39 937.513 1371.09 C 935.589 1379.8 936.463 1392.38 934.341 1400.18 C 925.78 1431.64 927.697 1462.23 918.101 1493.35 C 916.13 1499.74 917.256 1512.68 915.71 1519.89 C 911.392 1543.07 907.685 1565.21 905.85 1588.75 C 905.16 1597.61 899.964 1610.78 898.534 1620.49 L 810.998 2199.75 C 809.615 2208.39 804.901 2219.68 804.183 2227.84 C 802.195 2250.44 799.129 2272.06 794.785 2294.34 C 792.641 2305.34 793.888 2317.41 790.329 2328.36 C 788.671 2334.96 783.043 2353.53 785.543 2359.04 C 794.473 2362.92 817.163 2361.75 827.91 2361.76 L 917.303 2362.01 C 932.851 2361.96 968.206 2360.74 982.079 2364.14 L 985.773 2362.08 C 985.231 2353.45 987.353 2337.64 988.312 2328.25 C 992.843 2283.87 1000.65 2239.33 1007.07 2195.19 L 1040.52 1959.51 C 1048.74 1903.4 1058.06 1849.64 1064.91 1793.09 L 1074.58 1718.71 C 1075.65 1710.05 1078.69 1697.47 1077.83 1689.27 C 1071.53 1683.6 1036.16 1686.89 1026.05 1681.3 C 1014.93 1675.15 1001.05 1665.53 998.42 1652.13 C 996.702 1643.37 1003.47 1636.86 1000.17 1628.12 C 996.773 1625.15 994.361 1625.04 989.957 1624.03 C 952.345 1581.58 994.972 1585.49 991.892 1563.64 C 988.869 1558.34 984.733 1559.82 981.653 1556.96 C 971.65 1547.7 970.72 1533.84 978.182 1523.84 C 1003.33 1490.14 1049.18 1504.17 1084.65 1500.19 C 1088.01 1499.81 1089.47 1499.26 1091.27 1496.69 L 1089.59 1494.4 C 1084.44 1491.21 1079.98 1491.92 1073.75 1491.86 C 1055.94 1479.15 1053.41 1480.63 1045.69 1459.77 C 1047.61 1455.39 1048.97 1451.09 1050.49 1446.57 C 1070.41 1427.42 1083.44 1429.54 1108.79 1430.55 C 1111.06 1426.85 1113.17 1423.74 1115.65 1420.17 C 1115.84 1408.61 1118.15 1400.5 1119.52 1389.6 C 1125.38 1342.82 1134.36 1295.24 1141.02 1248.64 C 1144.85 1226.93 1169.94 1159.79 1187.62 1147.82 C 1187.37 1138.55 1203.94 1125.58 1206.19 1114.38 C 1201.28 1108.23 1181.17 1113.78 1173.11 1114.98 C 1162.4 1118.25 1150.36 1115.03 1139.68 1116.47 C 1096.81 1122.21 975.685 1091.59 958.528 1048.66 C 947.286 1035.47 940.733 1015.55 948.827 999.151 C 949.821 995.981 950.441 990.72 953.009 988.63 C 955.091 986.935 958.997 982.556 957.175 979.594 C 953.462 978.031 949.442 979.874 945.816 980.735 C 935.46 984.365 924.746 984.362 913.943 988.241 L 910.042 991.158 z M 1883.22 1805.87 C 1851.55 1783.95 1833.94 1773.23 1795.27 1764.48 C 1802.74 1771.44 1811.51 1779.21 1818.04 1786.95 C 1846.2 1820.39 1855.09 1872.43 1839.08 1913.44 C 1832.68 1950.42 1795.88 1995.62 1765.29 2016.08 C 1752.64 2024.54 1738.7 2033.21 1723.62 2036.37 C 1717.25 2037.8 1710.52 2037.76 1705.15 2040.26 C 1701.62 2040.8 1700.1 2040.8 1696.92 2042.54 C 1694.68 2046.36 1694.83 2044.51 1695.61 2048.16 C 1696.26 2048.71 1731.98 2062.69 1735.27 2063.64 C 1749.51 2067.7 1774.38 2066.35 1788.92 2063.19 C 1827.32 2054.82 1859.63 2035.35 1884.74 2005.04 C 1904.89 1982.12 1912.57 1965.11 1921.31 1936.19 C 1921.71 1935.63 1922.11 1935.07 1922.51 1934.51 C 1925.05 1927.15 1925.72 1906.73 1925.83 1898.74 C 1926.36 1863.45 1908.3 1830.31 1883.22 1805.87 z M 1711.68 1846.74 C 1713.61 1842.78 1715.07 1839.07 1716.71 1835 C 1709.97 1823.05 1703.1 1810.49 1695.54 1799.08 C 1686.42 1785.31 1677.75 1766.77 1667.94 1753.8 C 1666.57 1757.24 1665.03 1761.4 1663.49 1764.7 C 1670.85 1781.66 1688.28 1803.31 1694.74 1818.13 C 1695.76 1819.56 1696.8 1820.98 1697.85 1822.39 C 1702.26 1830.24 1706.65 1839.3 1711.68 1846.74 z M 466.442 1953.77 C 458.85 1968.64 441.998 1979.63 426.526 1984.8 C 397.909 1998.07 372.767 2005.33 340.957 2004.46 C 333.572 2004.25 317.911 2004.15 311.809 2000.11 C 249.361 1992.43 190.994 1930.49 201.6 1865.72 C 206.772 1834.13 225.605 1808.45 250.892 1789.9 C 242.636 1792.57 233.772 1795.21 225.871 1798.69 C 186.299 1821.49 165.518 1841.62 148.142 1883.8 C 146.911 1887.65 147.092 1895.06 145.753 1900.62 C 136.343 1939.71 154.709 1981.7 181.867 2010.48 C 254.591 2087.53 409.347 2079.59 466.474 1987.29 C 468.932 1983.32 474.636 1973.36 475.84 1969.15 C 479.003 1963.52 478.515 1959.33 483.098 1955.73 C 485.14 1950.16 484.191 1947.66 484.675 1942.09 C 485.629 1931.1 478.631 1937.84 476.445 1942.78 C 473.28 1949.95 472.433 1949.25 466.442 1953.77 z M 1888.43 1782.17 C 1890.56 1783.61 1892.48 1785.39 1894.66 1786.94 C 1902.53 1782.68 1901.26 1782.42 1900.26 1773.39 C 1897.72 1770.15 1890.38 1763.14 1890.04 1759.52 C 1890.06 1756.82 1888.64 1754.39 1886.56 1752.24 C 1881.15 1746.68 1881.76 1743.61 1879.16 1737.92 C 1877.18 1733.6 1873.49 1728.75 1871.83 1724.11 C 1871.27 1722.8 1870.63 1720.64 1869.03 1720.09 C 1867.88 1719.72 1866.61 1719.83 1865.54 1720.4 C 1859.18 1723.78 1864.84 1744.41 1859.15 1750.68 C 1857.98 1751.97 1855.25 1766.95 1856.37 1769.4 C 1858.67 1774.46 1871.05 1775.56 1875.66 1776.59 C 1880.25 1777.62 1883.79 1780.44 1888.43 1782.17 z" fill="rgb(15,27,45)" transform="translate(0,0)"></path>
<path d="M 1863.81 1016.05 C 1868.78 1018.76 1872.46 1021.56 1877.51 1020.85 C 1885.23 1020.22 1890.99 1025.04 1897.94 1028.4 C 1935.87 1046.78 1974.9 1063.45 2011.54 1084.34 C 2011.64 1084.44 2011.74 1084.54 2011.84 1084.64 L 2011.44 1088.93 C 2009.71 1090.77 1995.91 1091.43 1992.51 1091.73 C 1955.33 1094.95 1922.75 1106.12 1889.6 1123.24 C 1769.59 1185.18 1685.98 1302.92 1729.27 1441.24 C 1735.82 1462.19 1740.44 1469.82 1750.77 1489.19 L 1775.2 1535.87 C 1765.02 1566.9 1756.43 1601.62 1747.98 1633.25 L 1720.54 1732.58 C 1665.92 1713.7 1635.43 1703.28 1579.44 1727.95 C 1559.77 1715.17 1553.75 1704.9 1541.73 1685.08 C 1520.11 1649.45 1498.46 1613.8 1476.78 1578.21 C 1466 1560.51 1457.43 1542.38 1443 1527.17 C 1434.69 1518.53 1425.22 1511.1 1414.85 1505.09 C 1408 1501.09 1398.92 1496.64 1391.46 1493.44 C 1343.4 1472.87 1295.83 1445.25 1246.43 1428.82 C 1234.37 1424.81 1202.12 1428.31 1187.37 1427.98 C 1187.99 1414.5 1193.11 1384.57 1195.13 1369.24 C 1201.77 1320.06 1208.92 1270.94 1216.59 1221.91 C 1266.26 1203.86 1333.15 1183.85 1383.98 1168 C 1450.29 1146.66 1516.72 1125.71 1583.28 1105.17 L 1787.21 1040.18 C 1812.62 1032.15 1838.24 1023.4 1863.81 1016.05 z" fill="url(#Gradient1)" transform="translate(0,0)"></path>
<path d="M 1442.66 1187.97 C 1447.7 1186.29 1462.45 1188.37 1469.35 1188.66 C 1529.59 1191.2 1611.25 1217.84 1623.98 1285.36 C 1628.83 1311.06 1622.92 1364.66 1604.43 1385.33 C 1579.6 1413.1 1531.02 1435.78 1495.04 1446.1 C 1480.09 1450.35 1468.71 1451.01 1454.07 1452.71 L 1452.61 1452.89 C 1411.74 1454 1329.91 1438.4 1303.3 1407.35 C 1204.48 1292.05 1329.45 1192.73 1442.66 1187.97 z" fill="rgb(37,111,130)" transform="translate(0,0)"></path>
<path d="M 1444.34 1219.61 C 1447.46 1219.05 1450.43 1218.83 1453.59 1219.22 C 1472.56 1221.54 1501.09 1232.18 1520.16 1237.75 C 1543.95 1244.71 1569.87 1250.37 1592.9 1259.32 C 1597.35 1261.05 1603.61 1263.77 1606.31 1267.88 C 1607.59 1269.82 1586.31 1373.6 1583.57 1386.25 C 1574.26 1396.53 1552.28 1400.89 1538.73 1404.94 L 1477.55 1423.36 C 1456.02 1429.92 1356.4 1392.73 1328.5 1385.5 C 1321.72 1383.75 1318.03 1372.72 1316.08 1366.51 C 1320.9 1347.23 1325.52 1327.89 1329.94 1308.51 C 1333.02 1294.58 1335.74 1280.4 1338.64 1266.53 C 1341.43 1253.2 1350.57 1247.75 1362.85 1244.42 C 1369.5 1242.62 1376.21 1240.41 1382.78 1238.42 C 1403.33 1232.26 1423.85 1225.99 1444.34 1219.61 z" fill="rgb(15,27,45)" transform="translate(0,0)"></path>
<path d="M 1355.89 1250.37 C 1362.36 1250.82 1390.92 1260.07 1399.42 1262.59 C 1434.53 1272.85 1469.56 1283.35 1504.52 1294.09 C 1495.86 1323.5 1485.9 1388.06 1474.41 1419.86 C 1473.27 1420.64 1472.13 1421.42 1470.99 1422.2 C 1467.46 1422.28 1462.91 1421.81 1459.48 1420.79 C 1418.46 1408.6 1376.7 1397.73 1336.09 1384.36 C 1328.03 1381.71 1320.19 1374.14 1321.73 1365.39 C 1327.67 1331.58 1336.88 1297.9 1344.54 1264.4 C 1346.63 1255.28 1348.03 1254.76 1355.89 1250.37 z" fill="rgb(34,211,238)" transform="translate(0,0)"></path>
<path d="M 1377.95 1280.28 C 1385.74 1280.77 1471.18 1304.78 1472.03 1312.07 C 1474.32 1331.8 1460.62 1370.04 1455.53 1390.73 C 1454.83 1393.56 1448.26 1395.19 1445.61 1396.04 C 1434.21 1394.55 1353.87 1371.13 1350.11 1365.3 C 1348.36 1351.28 1362.84 1303.51 1367.34 1287.58 C 1368.58 1283.21 1373.68 1281.91 1377.95 1280.28 z" fill="rgb(255,255,255)" transform="translate(0,0)"></path>
<path d="M 1386.59 1299.93 C 1403.92 1302.43 1422.48 1311.38 1439.27 1314.4 C 1458.57 1317.87 1447.48 1334.42 1444.27 1348.43 L 1443.05 1353.77 L 1441.88 1358.52 L 1440.57 1363.86 C 1436.51 1380.42 1430.84 1375.88 1416.87 1371.66 C 1411.04 1369.9 1405.02 1368.13 1399.17 1366.39 C 1392.31 1364.32 1356.98 1357.32 1364.24 1347.81 C 1369.83 1340.48 1408.11 1326.64 1417.96 1322.62 C 1411.8 1320.74 1405.14 1319.22 1399.11 1317.1 C 1387.4 1313 1372.8 1314.17 1386.59 1299.93 z" fill="rgb(34,211,238)" transform="translate(0,0)"></path>
<path d="M 1426.19 1336.13 C 1427.14 1336.12 1427.52 1335.91 1428.32 1336.3 C 1428.78 1337.17 1425.11 1350.83 1424.58 1353.1 L 1423.41 1358.14 C 1417.67 1356.65 1411.28 1354.84 1405.71 1352.81 C 1405.28 1352.67 1393.15 1349.21 1395.45 1347.87 C 1403.96 1342.92 1416.74 1338.56 1426.19 1336.13 z" fill="rgb(255,255,255)" transform="translate(0,0)"></path>
<path d="M 1596.86 1266.01 C 1600.87 1266.36 1599.3 1265.53 1601.88 1268.25 C 1602.46 1273.64 1579.85 1380.4 1577.35 1387.79 C 1566.74 1393.85 1501.81 1412.35 1485.87 1417.13 C 1483.05 1417.96 1484.04 1417.9 1481.26 1417.49 C 1482.44 1407.43 1487.81 1386.36 1490.21 1375.77 C 1496.35 1347.96 1502.87 1320.23 1509.78 1292.6 L 1596.86 1266.01 z" fill="rgb(34,211,238)" transform="translate(0,0)"></path>
<path d="M 1447.75 1222.19 C 1460.13 1221.71 1573.65 1257.23 1593.52 1263.33 C 1565.66 1272.22 1537.68 1280.74 1509.59 1288.89 C 1500.96 1291.41 1382.24 1253.47 1363.91 1248.12 C 1391.29 1239.03 1420.1 1230.47 1447.75 1222.19 z" fill="rgb(34,211,238)" transform="translate(0,0)"></path>
<path d="M 688.581 997.101 C 760.257 1056.58 837.816 1110.88 910.133 1169.81 C 960.686 1211 956.189 1231.64 947.423 1291.27 C 943.228 1320.77 938.683 1350.21 933.788 1379.6 L 912.898 1515 L 814.967 2150.56 C 806.431 2205.67 797.848 2263.41 788.667 2318.16 L 777.235 2387.82 C 774.991 2401.27 771.529 2418.72 770.23 2432 L 700.31 2432 C 706.953 2385.39 715.561 2338.17 723.139 2291.61 C 738.334 2194.76 754.101 2098 770.438 2001.34 L 899.259 1206.16 C 871.504 1186.22 838.161 1158.05 811.165 1136.4 L 674.56 1027.15 C 679.183 1017.23 683.812 1006.92 688.581 997.101 z" fill="rgb(245,158,11)" transform="translate(0,0)"></path>
<path d="M 1083.5 1686.59 C 1106.01 1686.96 1128 1684.83 1149.88 1689.28 C 1136.88 1770.55 1125.46 1852.9 1114.04 1934.44 C 1090.83 2100.25 1063.78 2266.07 1042.01 2432 L 977.072 2432 C 979.563 2408.65 983.39 2385.12 987.049 2361.9 C 989.496 2351.71 993.617 2306.77 995.32 2293.73 C 1001.21 2251.51 1007.44 2209.34 1014.03 2167.22 L 1083.5 1686.59 z" fill="rgb(245,158,11)" transform="translate(0,0)"></path>
<path d="M 1004.09 214.607 C 999.213 233.299 998.789 251.082 1021.93 256.2 C 1072.23 267.322 1125.2 246.053 1167.6 220.398 C 1178.33 213.979 1188.84 207.204 1199.11 200.085 C 1197.57 217.955 1196.1 236.455 1209.71 250.427 C 1213.12 253.885 1216.96 256.725 1221.65 258.204 C 1257.97 273.934 1303.13 259.806 1336.55 243.329 L 1359.61 229.482 C 1357.56 235.831 1354.94 242.697 1350.88 248.074 C 1344.23 261.674 1334.08 271.255 1325.49 283.275 L 1327.22 285.155 L 1328.37 284.685 L 1507.22 316.53 C 1528.56 320.29 1569.17 328.594 1589.17 330.599 C 1588.06 336.168 1586.36 346.033 1584.84 351.121 C 1579.02 376.094 1567.77 396.668 1554.53 418.313 C 1517.42 408.332 1487.77 416.317 1454.43 434.966 C 1443.43 441.116 1420.96 456.845 1412.93 466.704 L 1412.44 469.182 C 1413.07 468.823 1413.7 468.464 1414.33 468.106 C 1451.44 437.477 1499.45 405.864 1549.71 419.95 C 1656.88 449.984 1608.86 555.041 1535.51 591.012 C 1500.67 608.097 1479.68 613.203 1442.32 617.294 C 1437.28 617.413 1431.85 617.653 1426.85 617.642 C 1411.83 637.694 1398.11 656.054 1379.75 673.643 C 1320.48 730.462 1240.71 764.818 1160.34 777.157 C 1095.49 787.113 994.607 779.612 936.348 749.976 C 844.126 715.723 756.228 629.464 739.603 530.233 C 737.189 516.117 736.02 501.815 736.11 487.494 C 736.706 448.433 751.648 366.338 764.98 330.229 C 772.737 309.211 783.188 289.288 796.072 270.959 C 799.272 266.267 806.722 251.381 812.127 253.264 C 813.33 257.019 813.511 259.401 814.007 263.254 C 836.186 293.735 965.323 222.797 992.894 208.307 L 1008.15 200.316 L 1004.09 214.607 z M 968.965 625.133 C 1015.61 635.678 1094.41 635.417 1137.46 617.278 C 1116.64 596.508 1010.95 610.209 983.561 620.049 C 980.096 620.948 972.651 623.836 968.965 625.133 z M 967.067 423.517 C 967.399 426.338 967.822 428.343 968.387 431.144 C 970.803 426.817 970.107 426.057 970.366 420.849 L 969.786 418.779 L 969.37 420.218 C 968.92 422.525 969.185 423.01 967.067 423.517 z" fill="rgb(217,160,102)" transform="translate(0,0)"></path>
<path d="M 1076.07 419.988 C 1096.24 351.134 1224.87 347.296 1257.57 407.565 C 1263.79 419.013 1264.46 426.127 1265.31 438.431 L 1260.83 437.687 C 1251.79 417.504 1243.14 407.13 1224.79 394.82 C 1230.56 405.184 1233.54 414.341 1233.89 426.27 C 1234.27 444.305 1227.4 461.739 1214.8 474.65 C 1166.98 523.832 1095.45 445.248 1162.69 379.228 C 1125.35 385.41 1095.85 400.638 1078.67 435.847 C 1077.05 441.714 1075.55 446.716 1074.14 452.737 C 1073.29 439.565 1072.01 432.78 1076.07 419.988 z" fill="rgb(15,27,45)" transform="translate(0,0)"></path>
<path d="M 1076.07 419.988 L 1075.96 421.401 C 1075.37 428.509 1073.19 431.319 1078.67 435.847 C 1077.05 441.714 1075.55 446.716 1074.14 452.737 C 1073.29 439.565 1072.01 432.78 1076.07 419.988 z" fill="rgb(24,74,87)" transform="translate(0,0)"></path>
<path d="M 797.596 427.271 C 807.552 346.619 952.653 343.559 969.786 418.779 L 969.37 420.218 C 968.92 422.525 969.185 423.01 967.067 423.517 C 962.525 411.07 958.692 406.996 949.822 397.921 C 960.377 433.461 945.761 477.688 905.119 481.663 C 893.841 482.834 882.578 479.311 873.978 471.922 C 849.112 450.592 851.785 407.273 872.37 383.678 C 875.929 381.095 875.099 382.363 877.068 378.855 C 871.607 377.658 864.348 380.639 859.102 382.623 C 833.375 389.278 812.458 412.232 802.123 435.915 C 796.299 454.493 796.938 433.443 797.596 427.271 z" fill="rgb(15,27,45)" transform="translate(0,0)"></path>
<path d="M 797.596 427.271 L 798.011 429.665 C 798.743 434.031 797.23 435.771 802.123 435.915 C 796.299 454.493 796.938 433.443 797.596 427.271 z" fill="rgb(24,74,87)" transform="translate(0,0)"></path>
<path d="M 981.069 617.906 C 1017.81 603.757 1105.86 596.913 1140.54 614.06 C 1148.3 620.834 1151.87 630.129 1142.47 637.617 C 1112.39 661.583 1068.18 669.061 1030.61 668.285 C 1011.7 667.96 956.907 660.285 951.566 638.277 C 953.007 626.35 971.019 621.638 981.069 617.906 z M 968.965 625.133 C 1015.61 635.678 1094.41 635.417 1137.46 617.278 C 1116.64 596.508 1010.95 610.209 983.561 620.049 C 980.096 620.948 972.651 623.836 968.965 625.133 z" fill="rgb(15,27,45)" transform="translate(0,0)"></path>
<path d="M 983.561 620.049 C 1010.95 610.209 1116.64 596.508 1137.46 617.278 C 1094.41 635.417 1015.61 635.678 968.965 625.133 C 972.651 623.836 980.096 620.948 983.561 620.049 z M 1014.73 626.247 C 1034.47 628.648 1071.79 613.826 1026.38 615.606 C 1018.97 616.277 1008.41 617.477 1001.06 619.013 C 975.078 624.448 1009.97 626.099 1014.73 626.247 z" fill="rgb(255,255,255)" fill-opacity="0.341176" transform="translate(0,0)"></path>
<path d="M 1026.38 615.606 C 1071.79 613.826 1034.47 628.648 1014.73 626.247 C 1009.97 626.099 975.078 624.448 1001.06 619.013 C 1008.41 617.477 1018.97 616.277 1026.38 615.606 z M 1024.35 623.992 C 1038.7 617.384 998.35 620.491 998.247 620.499 C 986.499 626.37 1023.53 624.051 1024.35 623.992 z" fill="rgb(255,255,255)" fill-opacity="0.172549" transform="translate(0,0)"></path>
<path d="M 998.247 620.499 C 998.35 620.491 1038.7 617.384 1024.35 623.992 C 1023.53 624.051 986.499 626.37 998.247 620.499 z" fill="rgb(255,255,255)" fill-opacity="0.0235294" transform="translate(0,0)"></path>
<path d="M 1124.82 300.905 C 1183.01 297.459 1243.27 311.831 1281.55 358.531 C 1271.67 353.404 1264.37 350.176 1254.04 345.957 C 1217.09 332.672 1188.75 328.372 1148.91 330.395 C 1138.05 330.065 1110.11 341.502 1101.33 333.057 C 1078.52 311.138 1110.32 302.705 1124.82 300.905 z" fill="rgb(15,27,45)" transform="translate(0,0)"></path>
<path d="M 903.333 299.736 C 918.264 299.343 952.603 298.375 957.763 316.539 C 958.846 320.343 958.236 324.428 956.09 327.75 C 946.702 342.504 929.471 331.779 917.515 329.111 C 894.454 323.966 870.968 323.818 847.786 328.356 C 825.628 333.724 816.765 338.685 797.46 350.347 C 799.762 347.01 802.261 343.812 804.942 340.771 C 829.441 312.55 867.344 302.105 903.333 299.736 z" fill="rgb(15,27,45)" transform="translate(0,0)"></path>
<path d="M 973.694 422.78 C 980.354 426.852 983.494 436.802 985.265 444.19 C 995.238 485.801 970.707 509.451 950.247 539.844 C 960.907 550.821 971.327 558.658 985.765 564.291 C 992.031 566.736 1005.08 568.565 1009.39 572.369 C 1000.54 577.99 950.138 553.506 948.394 539.187 C 950.347 531.79 960.323 520.85 965.16 514.085 C 982.246 490.19 990.836 456.665 975.438 429.715 C 974.596 428.24 973.712 426.789 972.788 425.363 L 973.694 422.78 z" fill="rgb(15,27,45)" transform="translate(0,0)"></path>
<path d="M 1549.51 459.643 C 1553.84 463.684 1536.08 467.764 1532.21 469.484 C 1517.33 476.085 1506.26 483.623 1493.42 493.349 C 1500.22 503.746 1508.65 513.632 1516.93 522.886 C 1517.49 523.52 1516.67 524.865 1515.62 525.236 C 1512.18 524.443 1493.7 500.661 1490.13 496.345 C 1487.12 498.941 1484.65 501.167 1482.25 504.326 C 1474.94 513.102 1469.05 522.201 1464.36 532.629 C 1460.31 541.614 1457.92 537.88 1461.68 529.555 C 1478.92 491.454 1512.82 473.252 1549.51 459.643 z" fill="rgb(15,27,45)" transform="translate(0,0)"></path>
<path d="M 1265.31 438.431 C 1264.43 450.584 1263.06 445.591 1260.83 437.687 L 1265.31 438.431 z" fill="rgb(24,74,87)" transform="translate(0,0)"></path>
<path d="M 969.786 418.779 L 970.366 420.849 C 970.107 426.057 970.803 426.817 968.387 431.144 C 967.822 428.343 967.399 426.338 967.067 423.517 C 969.185 423.01 968.92 422.525 969.37 420.218 L 969.786 418.779 z" fill="rgb(90,71,62)" fill-opacity="0.980392" transform="translate(0,0)"></path>
<path d="M 1201.82 1431.07 C 1211.98 1430.93 1239.12 1429.26 1247.84 1432.53 C 1300.89 1452.41 1355.56 1481.28 1406.84 1504.8 C 1442.2 1521.02 1459.5 1557.46 1478.3 1588.51 L 1523.8 1663.67 C 1542.86 1695.13 1555.32 1723.95 1591.53 1736.8 C 1599.87 1739.76 1611.75 1743.6 1620.41 1744.52 C 1620.18 1749 1616.38 1756.76 1614.75 1761.55 C 1607.11 1783.91 1595.02 1806.5 1590.65 1829.73 C 1588.91 1838.99 1592.89 1845.39 1598.47 1852.19 C 1582.68 1886.32 1555.77 1910.45 1526.87 1932.97 C 1499.5 1925.73 1472.19 1918.31 1444.92 1910.71 C 1417.23 1903.11 1380.82 1895.13 1356.36 1881.04 C 1315.09 1855.88 1285.81 1805.71 1259.02 1765.93 C 1228.05 1719.93 1206.91 1704.3 1151.86 1687.09 C 1104.16 1674.91 1044.6 1698.93 1006.91 1662.55 C 1023.25 1663.21 1040.09 1662.91 1056.33 1660.95 C 1074.76 1658.73 1090.04 1644.36 1066.18 1632.45 L 1157.39 1625.74 C 1168 1625 1193.31 1622.16 1202.55 1624.28 C 1233.01 1631.27 1271.17 1661.57 1300.88 1667.26 C 1282.83 1655.43 1225.8 1629.27 1203.87 1621.37 C 1198.84 1619.56 1166.91 1622.11 1159.13 1622.63 C 1131.11 1624.48 1103.1 1626.53 1075.1 1628.78 C 1039.82 1631.52 1000.5 1637.84 978.77 1603.94 C 997.98 1614.7 1092.82 1613.62 1066.04 1580.25 C 1058.1 1570.35 1003.84 1578.37 986.843 1579.51 C 1014.28 1564.29 1027.48 1572.84 1057.67 1570.72 C 1090.29 1568.43 1121.53 1564.86 1154.51 1562.85 C 1174.64 1561.63 1202.93 1557.52 1223.51 1559.6 C 1250.52 1568.6 1285.48 1586.85 1312.34 1598.16 C 1320.35 1601.53 1334.21 1608.93 1342.31 1609.68 L 1342.83 1608.28 C 1330.83 1601.04 1232.12 1557.46 1221.17 1555.86 C 1207.78 1553.9 1190.83 1557.07 1177.19 1558.08 C 1143.72 1560.54 1110.26 1563.23 1076.81 1566.13 C 1055.99 1567.83 1029.05 1569.62 1008.44 1566.1 C 993.381 1563.52 974.634 1550.12 979.304 1532.11 C 983.924 1533.17 984.858 1545.82 998.618 1546.74 C 1019.55 1548.12 1055.38 1545.84 1073.49 1535.31 C 1086.55 1527.72 1076.44 1509.25 1061.17 1509.68 C 1037.92 1510.35 1014.18 1514.22 990.429 1515.96 C 994.55 1513.96 1005.14 1508.94 1009.19 1508.5 C 1036.84 1505.47 1065.49 1504.39 1093.28 1502.41 L 1174.32 1497.24 C 1194.24 1495.9 1228.57 1491.26 1247.3 1496.48 C 1256.42 1499.02 1275 1509.18 1284.43 1513.62 C 1307.71 1524.44 1330.9 1535.45 1354.01 1546.63 C 1362.95 1551.03 1385.57 1562.98 1394.5 1564.81 L 1394.78 1563.82 C 1385.26 1553.08 1274.68 1508.54 1254.98 1495.93 C 1236.07 1483.83 1151.47 1499.49 1123.49 1496.16 C 1099.76 1493.33 1050.11 1492.27 1052.7 1455.21 C 1052.96 1451.95 1053.71 1450.98 1056.11 1449.4 C 1059.79 1478.79 1092.29 1469.06 1113.88 1468.99 C 1126.7 1468.95 1153.78 1468.86 1155.24 1452.18 C 1156.02 1443.3 1148.2 1439.02 1141.23 1436.21 C 1127.68 1433.63 1088.24 1437.7 1069.54 1436.2 L 1070.84 1435.91 C 1094.99 1430.72 1128.34 1432.56 1153.75 1432.45 C 1169.76 1431.6 1185.29 1432.78 1201.82 1431.07 z" fill="rgb(245,158,11)" transform="translate(0,0)"></path>
<path d="M 262.412 1595.6 C 266.145 1583.65 267.426 1573.04 279.218 1565.6 C 324.676 1536.89 418.347 1472.55 461.156 1451.2 C 468.541 1447.51 621.145 1452.83 632.614 1454.59 C 659.875 1454.56 689.006 1452.93 713.831 1463.4 C 702.373 1462.8 651.036 1456.74 644.506 1457.72 C 621.177 1465.85 620.491 1481 643.765 1490.27 C 654.66 1494.61 669.359 1494.26 680.912 1496.08 C 691.829 1497.3 703.614 1497.32 713.73 1492.47 C 719.31 1489.8 721.328 1484.32 725.592 1479.65 C 731.54 1491.23 717.425 1505.61 707.616 1510.54 C 700.737 1513.99 693.306 1516.2 685.662 1517.07 C 672.367 1518.58 638.734 1516.97 624.205 1516.64 L 519.382 1514.45 C 510.598 1514.24 476.159 1512.79 470.254 1515.16 C 442.295 1526.41 410.506 1546.53 382.765 1560.02 C 373.316 1564.61 324.786 1589.96 320.196 1594.71 C 327.495 1594.34 421.145 1543.63 435.947 1535.46 C 480.636 1510.78 476.31 1516.46 528.36 1517.48 L 648.768 1520.11 C 653.276 1520.2 652.095 1519.33 654.903 1521.31 C 651.637 1522.93 651.528 1522.69 647.809 1522.96 C 627.828 1533.34 637.04 1548.73 653.69 1550 C 668.645 1551.13 716.74 1559.16 721.764 1540.95 L 723.404 1540.78 C 727.644 1559.41 699.674 1571.74 684.797 1574.06 C 663.109 1577.44 640.54 1575.96 618.638 1576.76 C 570.446 1577.64 521.511 1576.23 473.397 1577.18 C 458.031 1587.12 364.707 1647.21 357.996 1656.14 C 365.941 1653.63 388.439 1638.01 396.222 1632.87 C 422.553 1615.56 448.658 1597.92 474.53 1579.93 L 611.585 1579.61 C 584.879 1610.11 654.805 1603.55 667.665 1603.15 C 677.514 1602.84 686.331 1602.26 694.629 1596.98 C 695.664 1598.61 695.626 1597.85 695.281 1599.39 C 693.401 1607.78 688.335 1613.24 681.061 1617.64 C 648.937 1637.05 593.79 1632.73 557.391 1639.49 C 539.276 1642.85 503.566 1654.74 498.4 1674.69 C 491.66 1700.72 536.265 1760.98 522.163 1806.77 C 518.484 1818.72 509.555 1828.17 503.191 1838.7 C 497.939 1847.39 493.385 1856.55 488.811 1865.61 C 486.626 1869.66 484.054 1874.08 482.41 1878.33 C 480.825 1881.06 478.916 1884.14 477.539 1886.94 C 461.228 1918.51 430.688 1982.97 394.795 1995.57 C 371.647 2003.69 336.526 2003.89 312.342 1998.76 C 253.989 1988.4 205.978 1941.99 203.671 1881.23 C 210.75 1869.03 219.799 1858.17 227.427 1846.28 C 234.325 1836.97 241.348 1827.69 247.814 1818.08 C 258.766 1803.25 271.357 1785.48 283.103 1771.63 C 286.946 1783.96 288.9 1803.73 292.196 1816.7 C 292.926 1819.57 294.715 1821.29 297.207 1822.74 L 298.034 1821.6 C 294.679 1812.01 289.085 1780.99 286.704 1769.59 C 278.053 1726.57 273.09 1681.95 267.08 1638.48 C 265.134 1624.41 263.107 1609.75 262.412 1595.6 z" fill="rgb(245,158,11)" transform="translate(0,0)"></path>
<path d="M 1036.25 910.719 C 1164.78 883.448 1274.1 833.847 1356.06 727.391 C 1364.38 716.57 1371.81 705.085 1378.25 693.051 C 1380.41 689.017 1390.76 668.605 1392.84 665.997 C 1403.35 652.804 1414.74 639.214 1425.31 625.873 C 1426.14 660.968 1429.48 698.755 1431.6 734.201 C 1434.37 780.672 1433.98 832.877 1446.8 877.527 C 1453.69 901.522 1473.52 914.684 1494.4 925.48 L 1399.34 979.163 C 1366.22 996.659 1333.19 1015.9 1300.88 1034.88 C 1269.29 1053.44 1244.19 1079.52 1218.62 1105.12 C 1133.54 1122.12 1021.16 1116.52 960.364 1047.18 C 954.263 1036.92 948.989 1025.64 949.842 1013.03 C 953.322 961.596 991.971 980.311 1019.45 951.417 C 1031.33 938.928 1035.98 926.79 1036.25 910.719 z" fill="rgb(217,160,102)" transform="translate(0,0)"></path>
<path d="M 1141.8 1257.16 C 1152.99 1233.93 1181.81 1201.87 1205.24 1190.49 C 1222.77 1181.98 1249.41 1174.88 1268.35 1168.93 L 1383.87 1132.5 L 1847 985.614 C 1849.78 991.392 1852.44 997.221 1855 1003.1 L 1860.23 1013.54 L 1414.01 1155.31 L 1284.38 1196.3 C 1261.45 1203.56 1234.38 1211.51 1212.1 1219.73 C 1201.26 1287.94 1191.65 1360.38 1182.4 1428.97 L 1116.85 1429.98 C 1121.93 1392.88 1127.45 1355.84 1133.42 1318.87 C 1135.82 1303.44 1141.6 1271.25 1141.8 1257.16 z" fill="rgb(245,158,11)" transform="translate(0,0)"></path>
<path d="M 1770.23 1786.76 C 1788.7 1791.83 1807.09 1797.2 1825.38 1802.87 C 1868.88 1870.36 1828.57 1969.01 1767.31 2011.2 C 1744.9 2007.36 1702.16 1992.37 1677.71 1986.63 C 1667.79 1984.3 1608.44 1967.51 1603.3 1964.93 C 1643.55 1946.32 1673.4 1923.44 1699.32 1887.06 C 1737.6 1885.41 1738.3 1868.62 1750 1838.3 C 1756.64 1821.08 1763.39 1803.9 1770.23 1786.76 z" fill="rgb(245,158,11)" transform="translate(0,0)"></path>
<path d="M 624.662 1373.83 C 654.543 1401.09 596.988 1424.25 577.153 1428.2 C 556.606 1432.29 529.832 1444.1 509.51 1446.39 C 486.066 1449.02 465.413 1441.01 443.512 1456.51 C 389.746 1487.56 338.428 1525.94 285.006 1557.22 L 295.28 1545.99 L 372.35 1463.53 C 384.135 1450.81 416.259 1411.89 431.838 1410.16 C 449.945 1408.16 527.477 1381.35 538.213 1383.14 C 532.848 1393.52 533.097 1400.37 546.357 1403.15 C 567.495 1407.59 594.526 1398.04 613.372 1388.65 C 620.333 1385.19 622.888 1381.07 624.662 1373.83 z" fill="rgb(245,158,11)" transform="translate(0,0)"></path>
<path d="M 577.011 1640.43 L 591.388 1639.35 C 592.799 1680.99 575.725 1730.32 557.846 1768.09 C 554.526 1775.1 535.116 1805.91 527.608 1808.13 C 525.783 1804.85 527.029 1803.48 527.94 1798.65 C 530.429 1766.69 522.298 1743.24 510.97 1713.55 C 505.936 1700.36 495.734 1678.19 507.899 1665.97 C 525.257 1648.53 553.141 1642.06 577.011 1640.43 z" fill="rgb(168,107,60)" transform="translate(0,0)"></path>
<path d="M 1663.49 1764.7 C 1670.85 1781.66 1688.28 1803.31 1694.74 1818.13 C 1695.76 1819.56 1696.8 1820.98 1697.85 1822.39 C 1702.26 1830.24 1706.65 1839.3 1711.68 1846.74 C 1711.51 1849.11 1707.87 1861.27 1705.24 1860.51 C 1683.65 1854.28 1653.83 1844.26 1633.51 1835.68 C 1638.83 1823.38 1643.65 1812.35 1648.35 1799.68 C 1652.64 1788.12 1659.37 1776.53 1663.49 1764.7 z" fill="rgb(34,211,238)" transform="translate(0,0)"></path>
<path d="M 1671.98 1744.17 C 1691.01 1749.85 1726.82 1762.54 1744.34 1770.68 C 1734.94 1792.24 1726.92 1813.61 1716.71 1835 C 1709.97 1823.05 1703.1 1810.49 1695.54 1799.08 C 1686.42 1785.31 1677.75 1766.77 1667.94 1753.8 C 1669.17 1750.38 1670.51 1747.46 1671.98 1744.17 z" fill="rgb(34,211,238)" transform="translate(0,0)"></path>
<path d="M 643.614 1460.77 C 658.312 1459.08 697.328 1466.08 714.265 1466.41 C 716.131 1466.77 718.315 1469.06 719.099 1470.55 C 724.775 1481.35 715.768 1487.63 707.918 1492.03 C 691.978 1495.67 660.566 1491.72 644.253 1487.68 C 627.047 1483.43 626.921 1468.37 643.614 1460.77 z" fill="rgb(251,191,92)" transform="translate(0,0)"></path>
<path d="M 1114.78 1438.58 C 1121.53 1438.12 1141.96 1436.72 1146.66 1442.43 C 1168.2 1468.54 1107.54 1466.39 1095.03 1466.95 C 1085.72 1467.35 1075.22 1468.37 1066.76 1463.51 C 1058.08 1458.52 1058.33 1441.16 1069.32 1440.22 C 1084.37 1438.95 1099.58 1439.48 1114.78 1438.58 z" fill="rgb(251,191,92)" transform="translate(0,0)"></path>
<path d="M 1045.92 1513.36 C 1082.75 1507.97 1084.48 1534.44 1056.27 1538.83 L 1046.79 1540.36 C 1035.94 1542.12 1025.43 1543.24 1014.55 1544.45 C 1003.82 1545.73 988.713 1544.72 985.74 1531.86 C 984.548 1526.71 987.136 1519.39 993.296 1518.79 C 1010.79 1517.1 1028.49 1515.56 1045.92 1513.36 z" fill="rgb(251,191,92)" transform="translate(0,0)"></path>
<path d="M 1033.59 1578.66 C 1040.87 1577.8 1057.44 1576.73 1062.03 1581.27 C 1078.08 1597.12 1053.65 1603.52 1042.13 1604.24 C 1030.92 1604.94 1022.79 1606.4 1013.89 1607.05 C 1000.85 1608.26 964.901 1607.44 987.783 1583.48 C 989.57 1581.61 1026.62 1579.38 1033.59 1578.66 z" fill="rgb(251,191,92)" transform="translate(0,0)"></path>
<path d="M 606.085 1365.87 C 608.898 1365.63 612.98 1365.58 615.14 1367.79 C 636.434 1389.61 566.02 1401.61 554.76 1402.27 C 546.259 1400.72 534.192 1395.78 540.102 1387.52 C 545.866 1379.46 595.875 1368.27 606.085 1365.87 z" fill="rgb(251,191,92)" transform="translate(0,0)"></path>
<path d="M 225.871 1798.69 C 233.772 1795.21 242.636 1792.57 250.892 1789.9 C 225.605 1808.45 206.772 1834.13 201.6 1865.72 C 190.994 1930.49 249.361 1992.43 311.809 2000.11 C 317.911 2004.15 333.572 2004.25 340.957 2004.46 C 372.767 2005.33 397.909 1998.07 426.526 1984.8 C 425.953 1985.96 424.4 1988.45 423.372 1989 C 360.831 2022.59 269.283 2009.51 224.442 1953.33 C 196.039 1917.74 188.019 1872.58 208.215 1832.9 C 211.542 1826.37 224.201 1811.33 224.581 1805.66 C 208.7 1805.79 174.81 1841.67 165.033 1854.41 C 160.044 1860.92 154.166 1880.13 148.142 1883.8 C 165.518 1841.62 186.299 1821.49 225.871 1798.69 z" fill="rgb(255,255,255)" fill-opacity="0.219608" transform="translate(0,0)"></path>
<path d="M 665.303 1578.8 C 672.069 1578.31 701.681 1577.63 691.719 1594.74 C 687.664 1601.71 644.346 1600.59 633.828 1600.85 C 627.575 1600.95 616.019 1600.48 612.16 1596 C 593.769 1574.67 659.423 1578.76 665.303 1578.8 z" fill="rgb(251,191,92)" transform="translate(0,0)"></path>
<path d="M 650.51 1525.05 C 665.896 1524.34 682.727 1527.32 697.067 1526.48 C 715.5 1525.39 730.744 1535.44 710.475 1548.38 C 698.91 1549.47 649.113 1552.56 641.75 1539.73 C 637.788 1532.82 644.788 1527.94 650.51 1525.05 z" fill="rgb(251,191,92)" transform="translate(0,0)"></path>
<path d="M 1057.76 1634.57 C 1077.27 1632.93 1080.38 1654.3 1059.72 1657.12 C 1046.06 1658.99 1032.69 1659.81 1018.88 1660.2 C 989.404 1659.57 1001.94 1630.33 1026.81 1636.48 C 1027.55 1636.66 1054.6 1634.79 1057.76 1634.57 z" fill="rgb(251,191,92)" transform="translate(0,0)"></path>
<path d="M 1795.27 1764.48 C 1833.94 1773.23 1851.55 1783.95 1883.22 1805.87 C 1908.3 1830.31 1926.36 1863.45 1925.83 1898.74 C 1925.72 1906.73 1925.05 1927.15 1922.51 1934.51 C 1920.24 1912.48 1925.03 1891.95 1918.82 1868.41 C 1913.44 1846.42 1896.48 1820.2 1879.12 1805.88 C 1870.61 1798.86 1827.76 1773.9 1817.14 1776.7 L 1816.31 1778.86 C 1817.32 1781.19 1817.45 1780.97 1819.05 1782.82 C 1843.84 1811.52 1854.3 1852.72 1848.78 1890.19 C 1847.59 1898.28 1844.65 1909.29 1839.08 1913.44 C 1855.09 1872.43 1846.2 1820.39 1818.04 1786.95 C 1811.51 1779.21 1802.74 1771.44 1795.27 1764.48 z" fill="rgb(255,255,255)" fill-opacity="0.270588" transform="translate(0,0)"></path>
<path d="M 1667.94 1753.8 C 1677.75 1766.77 1686.42 1785.31 1695.54 1799.08 C 1703.1 1810.49 1709.97 1823.05 1716.71 1835 C 1715.07 1839.07 1713.61 1842.78 1711.68 1846.74 C 1706.65 1839.3 1702.26 1830.24 1697.85 1822.39 C 1712.1 1824.14 1701.46 1807.68 1695.93 1816.37 L 1694.74 1818.13 C 1688.28 1803.31 1670.85 1781.66 1663.49 1764.7 C 1665.03 1761.4 1666.57 1757.24 1667.94 1753.8 z" fill="rgb(255,255,255)" fill-opacity="0.87451" transform="translate(0,0)"></path>
<path d="M 466.442 1953.77 C 472.433 1949.25 473.28 1949.95 476.445 1942.78 C 478.631 1937.84 485.629 1931.1 484.675 1942.09 C 484.191 1947.66 485.14 1950.16 483.098 1955.73 C 478.515 1959.33 479.003 1963.52 475.84 1969.15 L 475.807 1968.35 C 475.05 1953 481.372 1954.39 466.442 1953.77 z" fill="rgb(255,255,255)" fill-opacity="0.0352941" transform="translate(0,0)"></path>
<path d="M 945.816 980.735 C 949.442 979.874 953.462 978.031 957.175 979.594 C 958.997 982.556 955.091 986.935 953.009 988.63 C 950.441 990.72 949.821 995.981 948.827 999.151 C 948.715 998.082 948.082 986.064 948.198 986.201 C 941.727 983.759 922.898 988.841 913.943 988.241 C 924.746 984.362 935.46 984.365 945.816 980.735 z" fill="rgb(255,255,255)" fill-opacity="0.0862745" transform="translate(0,0)"></path>
<path d="M 694.233 1519.29 C 699.671 1517.05 707.098 1521.51 712.164 1523.79 C 703.267 1523.68 694.371 1523.49 685.478 1523.21 C 681.523 1522.53 673.466 1523.64 670.893 1521.78 C 671.402 1520.14 690.76 1519.78 694.233 1519.29 z" fill="rgb(245,158,11)" transform="translate(0,0)"></path>
<path d="M 1694.74 1818.13 L 1695.93 1816.37 C 1701.46 1807.68 1712.1 1824.14 1697.85 1822.39 C 1696.8 1820.98 1695.76 1819.56 1694.74 1818.13 z" fill="rgb(255,255,255)" fill-opacity="0.768627" transform="translate(0,0)"></path>
<path d="M 534.561 1890.73 C 536.597 1889.3 541.232 1884.94 541.888 1884.52 C 542.256 1884.86 541.398 1900.1 541.577 1902.75 L 540.612 1904.98 C 538.435 1909.91 536.028 1914.99 534.363 1920.18 C 529.967 1933.9 535.87 1932.6 526.665 1943.83 C 526.834 1938.65 529.052 1937.97 529.144 1933.84 C 529.337 1925.24 533.041 1902.83 522.258 1922.74 C 521.878 1923.09 521.498 1923.43 521.119 1923.78 L 521.342 1922.58 C 523.647 1909.61 526.065 1910 531.837 1898.24 C 532.142 1897.62 533.948 1892.19 534.561 1890.73 z" fill="rgb(255,255,255)" fill-opacity="0.0901961" transform="translate(0,0)"></path>
<path d="M 1226.47 0 L 1269.63 0 C 1270.35 3.59862 1269.01 3.20136 1269.34 5.20693 C 1271.96 8.26292 1270.86 3.62895 1274.69 10.9995 C 1260.54 6.71734 1239.33 9.22744 1226.47 0 z" fill="rgb(255,255,255)" fill-opacity="0.0431373" transform="translate(0,0)"></path>
<metadata><recraft-signature>{"signed_by": "recraft", "signature_b64": "+CpyK8LVOVb801MAvajbIOK4gKQBl/OvhASUAlUpgk+NcOQakVUt7NSMPPUeJLz6ZUuU/Tmp/mVG43trhn4ADg==", "signing_algo": "Ed25519", "generation_timestamp": 1783863800, "identifier": "8e44b427-94b2-46e4-b878-ef96f28e239e"}</recraft-signature></metadata></svg>