<svg xmlns="http://www.w3.org/2000/svg" height="2432" preserveAspectRatio="none" style="display: block;" version="1.1" viewBox="0 0 2432 2432" width="1792">
<path d="M 598.757 957.542 C 593.338 948.453 589.871 936.266 601.271 932.558 C 623.233 925.415 669.044 928.354 691.057 928.353 L 833.516 928.387 L 958.606 928.242 C 984.523 928.231 1017.09 926.481 1042.2 931.406 C 1049.99 932.935 1056.74 945.393 1060.45 951.91 C 1071.04 970.511 1081.54 992.956 1093.14 1010.78 C 1068.57 1014.87 1040.58 1017.44 1017.72 1026.54 C 1008.26 1030.31 987.416 1038.42 982.117 1046.25 C 972.977 1059.77 989.25 1065.92 998.161 1068.55 C 985.933 1074.23 956.491 1084.29 970.065 1101.65 C 973.479 1106.02 980.734 1104.09 986.096 1108.34 C 985.88 1142.89 1005.85 1124.72 1016.97 1129.84 C 1021.09 1131.73 1025.36 1153.16 1044.1 1148.59 C 1058.77 1147.93 1083.64 1133.28 1096.89 1130.05 C 1112.21 1126.32 1174.12 1132.11 1185.71 1138.53 L 1186.45 1140.59 L 1187.12 1140.81 C 1187.67 1137.8 1187.64 1138.02 1189.68 1135.71 C 1193.61 1136.57 1219.22 1141.96 1221.49 1143.15 C 1227.18 1149.69 1257.86 1151.85 1266.48 1149.63 C 1273.09 1149.4 1380.49 1186.56 1393.2 1191.29 C 1411.23 1198.01 1525.28 1233.82 1533.42 1241.56 C 1534.03 1242.15 1534.63 1242.74 1535.22 1243.35 C 1547.56 1249.43 1549.51 1267.16 1549.03 1279.24 C 1542.97 1285.04 1529.05 1294.99 1520.72 1295.51 C 1518.1 1297.34 1515.46 1298.46 1515.28 1302.1 C 1513.91 1328.42 1517.1 1356.8 1515.19 1382.96 C 1517.41 1458.26 1512.26 1538.19 1517.9 1613.6 C 1518.43 1620.71 1528.28 1640.24 1531.78 1647.76 C 1540.83 1667.72 1550.25 1687.5 1560.01 1707.12 C 1592.12 1771.23 1591.4 1771.26 1591.48 1844.56 C 1591.27 1868.08 1591.62 1891.59 1592.52 1915.1 C 1589.35 1939.07 1600.33 1999.94 1594 2023.7 C 1593.6 2033.62 1594.67 2043.16 1594.54 2052.99 C 1555.61 2051.33 1512.02 2061.98 1502.17 2105.93 C 1475.27 2095.8 1487.62 2083.68 1476.66 2060.77 C 1475.12 2057.54 1474.31 2054.93 1472.31 2051.92 C 1468.84 2048.08 1450.8 1999.01 1447.57 1990.98 C 1445.77 1988.59 1445.83 1988.6 1444.84 1985.85 C 1427.4 1937.07 1407.91 1888.85 1389.72 1840.37 C 1385.43 1828.94 1367.54 1788.82 1367.94 1779.25 C 1358.02 1771.47 1352.43 1701 1346.19 1685.67 C 1312.06 1601.74 1272.15 1519.53 1234.78 1436.92 C 1231.04 1428.65 1226.31 1409.97 1219.7 1406.84 L 1217.3 1407.99 C 1215.11 1412.99 1215.96 1433.91 1215.9 1440.67 C 1215.89 1461.86 1212.31 1480.93 1211.46 1501.57 C 1210.52 1524.1 1212.44 1546.83 1211.14 1569.33 C 1209.55 1596.67 1198.77 1654.51 1210.49 1678.23 C 1211.32 1679.9 1210.99 1679.16 1211.6 1681.34 C 1231.02 1710.35 1244.71 1751.92 1263.53 1781.02 C 1264.47 1793.55 1262.13 1800.62 1260.22 1812.71 L 1250.22 1872.54 L 1231.06 1996.8 C 1228.98 2010.5 1233.58 2016.02 1226.08 2030.19 C 1224.37 2033.41 1224.82 2060.43 1223.16 2065.92 C 1222.72 2070.08 1218.27 2072.92 1217.49 2077.74 C 1214.46 2084.5 1210.98 2094.58 1204.58 2098.06 C 1188.62 2113.19 1178.21 2112.46 1157.35 2112.09 C 1160 2075.55 1140.18 2061.29 1106.11 2056.77 C 1100.75 2056.05 1092.04 2057.01 1087.34 2055.02 L 1089.57 2047.64 C 1089.5 2046.82 1089.87 2043.59 1089.98 2042.49 C 1091.04 2032 1086.33 2020.52 1082.93 2010.81 C 1083.2 2001.19 1077.34 1984.77 1075.32 1974 C 1064.19 1911.68 1051.55 1849.63 1037.4 1787.92 C 1032.32 1764.77 1029.16 1739.71 1024.21 1717.55 C 1002.06 1619.02 981.586 1520.12 962.806 1420.89 C 957.393 1391.84 950.521 1363.47 945.317 1334.43 C 943.167 1322.42 950.776 1311.7 942.481 1301.17 C 941.147 1301.34 939.81 1301.47 938.47 1301.56 C 920.355 1302.79 892.704 1281.49 904.18 1262.49 C 913.575 1246.93 929.888 1197.32 939.957 1187.48 C 939.62 1183.85 937.763 1182 935.605 1178.98 C 922.652 1176.75 905.81 1179.62 892.399 1177.72 C 886.171 1176.84 881.38 1174.93 875.283 1173.88 C 869.578 1172.89 857.365 1174.53 852.941 1171.27 C 842.465 1169.26 839.967 1168.93 829.236 1168.55 C 813.138 1168.98 806.874 1163.94 795.532 1154.19 C 769.305 1154.57 735.025 1155.6 708.604 1153.17 C 706.838 1153 698.174 1148.93 696.082 1147.93 C 689.642 1138.94 673.597 1108.99 673.586 1098.1 L 674.937 1098.17 L 673.057 1092.61 C 679.819 1084.27 705.167 1091.76 715.372 1079.17 C 717.889 1076.08 719.004 1072.09 718.449 1068.14 C 717.465 1060.78 712.465 1057.04 707.118 1052.65 L 706.874 1050.54 C 744.356 1022.47 694.911 1013.71 694.657 1010.04 C 705.662 1001.69 705.768 994.948 698.588 983.514 C 692.957 974.546 676.984 974.396 667.34 972.665 C 642.523 971.344 622.503 965.148 598.757 957.542 z" fill="rgb(37,111,130)" transform="translate(0,0)"></path>
<path d="M 598.757 957.542 C 593.338 948.453 589.871 936.266 601.271 932.558 C 623.233 925.415 669.044 928.354 691.057 928.353 L 833.516 928.387 L 958.606 928.242 C 984.523 928.231 1017.09 926.481 1042.2 931.406 C 1049.99 932.935 1056.74 945.393 1060.45 951.91 C 1071.04 970.511 1081.54 992.956 1093.14 1010.78 C 1068.57 1014.87 1040.58 1017.44 1017.72 1026.54 C 1008.26 1030.31 987.416 1038.42 982.117 1046.25 C 972.977 1059.77 989.25 1065.92 998.161 1068.55 C 985.933 1074.23 956.491 1084.29 970.065 1101.65 C 973.479 1106.02 980.734 1104.09 986.096 1108.34 C 985.88 1142.89 1005.85 1124.72 1016.97 1129.84 C 1021.09 1131.73 1025.36 1153.16 1044.1 1148.59 C 1058.77 1147.93 1083.64 1133.28 1096.89 1130.05 C 1112.21 1126.32 1174.12 1132.11 1185.71 1138.53 L 1186.45 1140.59 L 1187.12 1140.81 L 1187.79 1142.13 C 1199.47 1125.28 1195.7 1169.27 1196.15 1174.29 L 1195.5 1175.75 L 1144.63 1175.78 C 1141.48 1207.54 1136.55 1240.26 1136.28 1271.93 C 1136.18 1283.99 1144.83 1292.85 1154.77 1297.3 C 1157.68 1298.61 1167.92 1301.68 1167.8 1303.79 C 1155.06 1306.32 1133.24 1288.28 1133.22 1273.91 C 1133.19 1242.06 1137.42 1207.6 1141.35 1175.79 C 1124.2 1175.76 1106.78 1175.89 1089.66 1175.66 C 1081.1 1202.64 1075.88 1231.92 1067.19 1258.09 C 1063.97 1273.92 1053.27 1287.29 1039.27 1297.2 C 1020.23 1310.67 989.371 1307.74 967.008 1306.03 C 966.578 1305.88 966.149 1305.73 965.72 1305.58 C 967.146 1305.02 966.301 1305.47 968.001 1303.84 C 962.57 1301.55 948.621 1300.93 942.481 1301.17 C 941.147 1301.34 939.81 1301.47 938.47 1301.56 C 920.355 1302.79 892.704 1281.49 904.18 1262.49 C 913.575 1246.93 929.888 1197.32 939.957 1187.48 C 939.62 1183.85 937.763 1182 935.605 1178.98 C 922.652 1176.75 905.81 1179.62 892.399 1177.72 C 886.171 1176.84 881.38 1174.93 875.283 1173.88 C 869.578 1172.89 857.365 1174.53 852.941 1171.27 C 842.465 1169.26 839.967 1168.93 829.236 1168.55 C 813.138 1168.98 806.874 1163.94 795.532 1154.19 C 769.305 1154.57 735.025 1155.6 708.604 1153.17 C 706.838 1153 698.174 1148.93 696.082 1147.93 C 689.642 1138.94 673.597 1108.99 673.586 1098.1 L 674.937 1098.17 L 673.057 1092.61 C 679.819 1084.27 705.167 1091.76 715.372 1079.17 C 717.889 1076.08 719.004 1072.09 718.449 1068.14 C 717.465 1060.78 712.465 1057.04 707.118 1052.65 L 706.874 1050.54 C 744.356 1022.47 694.911 1013.71 694.657 1010.04 C 705.662 1001.69 705.768 994.948 698.588 983.514 C 692.957 974.546 676.984 974.396 667.34 972.665 C 642.523 971.344 622.503 965.148 598.757 957.542 z" fill="rgb(245,158,11)" transform="translate(0,0)"></path>
<path d="M 956.657 1156.02 C 1001.5 1155.8 1045.4 1154.75 1090.53 1154.83 C 1083.63 1187.37 1073.1 1218.9 1065.65 1251.26 C 1065.11 1253.59 1066.28 1256 1067.19 1258.09 C 1063.97 1273.92 1053.27 1287.29 1039.27 1297.2 C 1020.23 1310.67 989.371 1307.74 967.008 1306.03 C 966.578 1305.88 966.149 1305.73 965.72 1305.58 C 967.146 1305.02 966.301 1305.47 968.001 1303.84 C 962.57 1301.55 948.621 1300.93 942.481 1301.17 C 941.147 1301.34 939.81 1301.47 938.47 1301.56 C 920.355 1302.79 892.704 1281.49 904.18 1262.49 C 913.575 1246.93 929.888 1197.32 939.957 1187.48 C 945.111 1185.56 953.392 1162.28 956.657 1156.02 z" fill="rgb(24,74,87)" transform="translate(0,0)"></path>
<path d="M 673.586 1098.1 L 674.937 1098.17 C 680.109 1110.4 692.955 1145.67 704.064 1148.79 C 726.192 1155.01 763.673 1152.74 786.722 1152.87 L 933.981 1152.86 L 1074.59 1152.9 C 1100.53 1152.94 1126.5 1153.17 1152.43 1152.71 C 1166.61 1152.46 1176.49 1151.78 1186.45 1140.59 L 1187.12 1140.81 L 1187.79 1142.13 C 1199.47 1125.28 1195.7 1169.27 1196.15 1174.29 L 1195.5 1175.75 L 1144.63 1175.78 C 1141.48 1207.54 1136.55 1240.26 1136.28 1271.93 C 1136.18 1283.99 1144.83 1292.85 1154.77 1297.3 C 1157.68 1298.61 1167.92 1301.68 1167.8 1303.79 C 1155.06 1306.32 1133.24 1288.28 1133.22 1273.91 C 1133.19 1242.06 1137.42 1207.6 1141.35 1175.79 C 1124.2 1175.76 1106.78 1175.89 1089.66 1175.66 C 1081.1 1202.64 1075.88 1231.92 1067.19 1258.09 C 1066.28 1256 1065.11 1253.59 1065.65 1251.26 C 1073.1 1218.9 1083.63 1187.37 1090.53 1154.83 C 1045.4 1154.75 1001.5 1155.8 956.657 1156.02 C 953.392 1162.28 945.111 1185.56 939.957 1187.48 C 939.62 1183.85 937.763 1182 935.605 1178.98 C 922.652 1176.75 905.81 1179.62 892.399 1177.72 C 886.171 1176.84 881.38 1174.93 875.283 1173.88 C 869.578 1172.89 857.365 1174.53 852.941 1171.27 C 842.465 1169.26 839.967 1168.93 829.236 1168.55 C 813.138 1168.98 806.874 1163.94 795.532 1154.19 C 769.305 1154.57 735.025 1155.6 708.604 1153.17 C 706.838 1153 698.174 1148.93 696.082 1147.93 C 689.642 1138.94 673.597 1108.99 673.586 1098.1 z" fill="rgb(15,27,45)" transform="translate(0,0)"></path>
<path d="M 937.658 1156.7 C 941.846 1157.62 947.871 1157.2 952.318 1157.21 C 948.986 1163.82 945.485 1172.71 941.186 1178.45 C 939.326 1178.63 937.465 1178.8 935.605 1178.98 C 922.652 1176.75 905.81 1179.62 892.399 1177.72 C 886.171 1176.84 881.38 1174.93 875.283 1173.88 C 869.578 1172.89 857.365 1174.53 852.941 1171.27 C 856.803 1170.17 863.096 1172.74 864.626 1171.27 C 863.275 1169.74 858.408 1169.94 857.81 1168.02 C 869.505 1164.38 890.938 1162.19 903.694 1160.31 L 914.367 1158.67 C 922.375 1157.42 929.613 1157.28 937.658 1156.7 z" fill="rgb(24,74,87)" transform="translate(0,0)"></path>
<path d="M 1187.79 1142.13 C 1199.47 1125.28 1195.7 1169.27 1196.15 1174.29 C 1186.98 1172.79 1156.35 1173.62 1145.05 1173.56 C 1145.59 1167.52 1146.18 1161.48 1146.83 1155.44 C 1161.22 1154.54 1178.7 1155.59 1187.79 1142.13 z" fill="rgb(37,111,130)" transform="translate(0,0)"></path>
<path d="M 1093.97 1154.83 L 1142.94 1154.83 C 1142.63 1159.52 1143.34 1170.51 1140 1173.41 L 1089.92 1173.41 C 1091.64 1166.68 1092.93 1161.79 1093.97 1154.83 z" fill="rgb(37,111,130)" transform="translate(0,0)"></path>
<path d="M 1189.68 1135.71 C 1193.61 1136.57 1219.22 1141.96 1221.49 1143.15 C 1227.18 1149.69 1257.86 1151.85 1266.48 1149.63 C 1273.09 1149.4 1380.49 1186.56 1393.2 1191.29 C 1411.23 1198.01 1525.28 1233.82 1533.42 1241.56 C 1534.03 1242.15 1534.63 1242.74 1535.22 1243.35 C 1547.56 1249.43 1549.51 1267.16 1549.03 1279.24 C 1542.97 1285.04 1529.05 1294.99 1520.72 1295.51 C 1514.55 1292.64 1502.48 1294.5 1496.73 1297.48 L 1497.18 1299.9 C 1485.38 1302.67 1433.55 1308 1421.53 1307.21 C 1409.09 1304.06 1381.89 1306.13 1367.42 1306.43 C 1345.37 1306.9 1323.31 1307.2 1301.25 1307.33 C 1288.44 1307.33 1226.32 1304.09 1218.29 1307.23 C 1210.46 1306.41 1196.98 1302.2 1196.38 1292.59 C 1193.98 1254.01 1197.47 1214.37 1195.5 1175.75 L 1196.15 1174.29 C 1195.7 1169.27 1199.47 1125.28 1187.79 1142.13 L 1187.12 1140.81 C 1187.67 1137.8 1187.64 1138.02 1189.68 1135.71 z" fill="rgb(24,74,87)" transform="translate(0,0)"></path>
<path d="M 942.481 1301.17 C 948.621 1300.93 962.57 1301.55 968.001 1303.84 C 966.301 1305.47 967.146 1305.02 965.72 1305.58 C 960.655 1305.12 954.724 1304.74 949.769 1304 C 944.588 1338.46 962.201 1402.16 969.598 1438.37 L 1011.59 1642.3 L 1090.01 2028.27 C 1130.9 2013.57 1182.39 2012.84 1222.06 2031.53 L 1223.44 2032.19 C 1233.09 1978.84 1240.13 1922.18 1248.56 1868.4 C 1252.18 1845.26 1259.61 1806.8 1261.39 1784.52 L 1226.76 1715.77 C 1222.32 1707.01 1214.81 1690.79 1210.07 1683.28 C 1198.34 1659.15 1202.41 1647.98 1203.87 1622.16 L 1208.34 1539.42 C 1209.19 1521.48 1212.78 1492.09 1203.76 1476.64 C 1175.31 1427.94 1140.22 1382.79 1104.67 1339.1 C 1099.53 1332.77 1090.35 1327.69 1084.06 1322.45 L 1084.58 1321.2 C 1090.49 1321.38 1106.73 1334.58 1114.73 1337.82 C 1144.28 1349.75 1174.7 1356.83 1205.34 1365.35 C 1207.34 1371.46 1212.37 1381.1 1215.12 1388.19 C 1228.59 1414.87 1240.96 1443.47 1253.31 1470.83 L 1301.47 1576.87 L 1329.9 1639.85 C 1333.14 1646.92 1344.27 1669.61 1345.96 1676.22 C 1354.53 1709.83 1360.27 1745.16 1367.94 1779.25 C 1358.02 1771.47 1352.43 1701 1346.19 1685.67 C 1312.06 1601.74 1272.15 1519.53 1234.78 1436.92 C 1231.04 1428.65 1226.31 1409.97 1219.7 1406.84 L 1217.3 1407.99 C 1215.11 1412.99 1215.96 1433.91 1215.9 1440.67 C 1215.89 1461.86 1212.31 1480.93 1211.46 1501.57 C 1210.52 1524.1 1212.44 1546.83 1211.14 1569.33 C 1209.55 1596.67 1198.77 1654.51 1210.49 1678.23 C 1211.32 1679.9 1210.99 1679.16 1211.6 1681.34 C 1231.02 1710.35 1244.71 1751.92 1263.53 1781.02 C 1264.47 1793.55 1262.13 1800.62 1260.22 1812.71 L 1250.22 1872.54 L 1231.06 1996.8 C 1228.98 2010.5 1233.58 2016.02 1226.08 2030.19 C 1224.37 2033.41 1224.82 2060.43 1223.16 2065.92 C 1222.72 2070.08 1218.27 2072.92 1217.49 2077.74 C 1214.46 2084.5 1210.98 2094.58 1204.58 2098.06 C 1188.62 2113.19 1178.21 2112.46 1157.35 2112.09 C 1160 2075.55 1140.18 2061.29 1106.11 2056.77 C 1100.75 2056.05 1092.04 2057.01 1087.34 2055.02 L 1089.57 2047.64 C 1089.5 2046.82 1089.87 2043.59 1089.98 2042.49 C 1091.04 2032 1086.33 2020.52 1082.93 2010.81 C 1083.2 2001.19 1077.34 1984.77 1075.32 1974 C 1064.19 1911.68 1051.55 1849.63 1037.4 1787.92 C 1032.32 1764.77 1029.16 1739.71 1024.21 1717.55 C 1002.06 1619.02 981.586 1520.12 962.806 1420.89 C 957.393 1391.84 950.521 1363.47 945.317 1334.43 C 943.167 1322.42 950.776 1311.7 942.481 1301.17 z" fill="rgb(15,27,45)" transform="translate(0,0)"></path>
<path d="M 1089.57 2047.64 C 1097.06 2040.22 1117.83 2034.59 1128.05 2032.59 C 1159.28 2026.45 1192.81 2028.94 1220.34 2046 C 1216.33 2066.25 1215.33 2080.36 1204.58 2098.06 C 1188.62 2113.19 1178.21 2112.46 1157.35 2112.09 C 1160 2075.55 1140.18 2061.29 1106.11 2056.77 C 1100.75 2056.05 1092.04 2057.01 1087.34 2055.02 L 1089.57 2047.64 z" fill="rgb(217,160,102)" transform="translate(0,0)"></path>
<path d="M 1568.01 2022.44 C 1578.14 2022.38 1583.93 2022.65 1594 2023.7 C 1593.6 2033.62 1594.67 2043.16 1594.54 2052.99 C 1555.61 2051.33 1512.02 2061.98 1502.17 2105.93 C 1475.27 2095.8 1487.62 2083.68 1476.66 2060.77 C 1475.12 2057.54 1474.31 2054.93 1472.31 2051.92 C 1471.95 2048.89 1471.91 2049.79 1472.31 2046.98 C 1480.69 2039.11 1496.56 2034.95 1507.69 2031.89 C 1527.95 2025.4 1546.91 2023.12 1568.01 2022.44 z" fill="rgb(217,160,102)" transform="translate(0,0)"></path>
<path d="M 1497.18 1299.9 L 1496.73 1297.48 C 1502.48 1294.5 1514.55 1292.64 1520.72 1295.51 C 1518.1 1297.34 1515.46 1298.46 1515.28 1302.1 C 1513.91 1328.42 1517.1 1356.8 1515.19 1382.96 C 1517.41 1458.26 1512.26 1538.19 1517.9 1613.6 C 1518.43 1620.71 1528.28 1640.24 1531.78 1647.76 C 1540.83 1667.72 1550.25 1687.5 1560.01 1707.12 C 1592.12 1771.23 1591.4 1771.26 1591.48 1844.56 C 1591.27 1868.08 1591.62 1891.59 1592.52 1915.1 C 1589.35 1939.07 1600.33 1999.94 1594 2023.7 C 1583.93 2022.65 1578.14 2022.38 1568.01 2022.44 C 1546.91 2023.12 1527.95 2025.4 1507.69 2031.89 C 1496.56 2034.95 1480.69 2039.11 1472.31 2046.98 C 1471.91 2049.79 1471.95 2048.89 1472.31 2051.92 C 1468.84 2048.08 1450.8 1999.01 1447.57 1990.98 C 1445.77 1988.59 1445.83 1988.6 1444.84 1985.85 C 1427.4 1937.07 1407.91 1888.85 1389.72 1840.37 C 1385.43 1828.94 1367.54 1788.82 1367.94 1779.25 C 1373.02 1788.49 1378.85 1804.91 1382.9 1815.4 L 1404.7 1872.23 L 1464.55 2029.27 C 1504.83 2016.08 1552.05 2009.81 1593.96 2018.2 C 1593.35 1970.93 1589.81 1923.31 1589.3 1875.34 C 1588.95 1842.83 1587.88 1801.29 1584.38 1769.35 C 1581.04 1750.18 1568.22 1733.82 1561.51 1716.55 C 1550.49 1688.18 1517.62 1637.56 1514.33 1609.21 C 1511.57 1585.49 1513.54 1549.83 1513.29 1525.92 C 1512.91 1489.81 1511.08 1451.37 1512.55 1416.13 C 1511.34 1410.13 1511.57 1384.89 1511.52 1377.89 C 1511.58 1351.22 1511.22 1324.55 1510.46 1297.89 L 1497.18 1299.9 z" fill="rgb(15,27,45)" transform="translate(0,0)"></path>
<path d="M 1218.29 1307.23 C 1226.32 1304.09 1288.44 1307.33 1301.25 1307.33 C 1323.31 1307.2 1345.37 1306.9 1367.42 1306.43 C 1381.89 1306.13 1409.09 1304.06 1421.53 1307.21 C 1402.39 1308.24 1383.23 1308.9 1364.07 1309.18 L 1502.52 1837.64 L 1531.11 1946.11 C 1533 1953.22 1541.7 1983.04 1541.89 1988.56 L 1540.59 1989.38 C 1535.96 1984.66 1534.46 1969.65 1532.62 1962.94 C 1516.59 1904.6 1501.35 1845.48 1485.95 1786.97 L 1360.74 1309.23 C 1313.25 1311.14 1265.7 1310.47 1218.29 1307.23 z" fill="rgb(15,27,45)" transform="translate(0,0)"></path>
<path d="M 987.421 1337.96 L 989.709 1339.72 C 992.853 1351.68 995.289 1369.41 997.602 1382.25 C 1003.09 1411.6 1008.29 1441.01 1013.19 1470.47 L 1052.58 1695.43 L 1086.64 1891.68 L 1096.25 1948.71 C 1098.28 1960.25 1102.12 1978.84 1102.9 1989.96 C 1098.59 1986.37 1098 1977.87 1096.99 1972.3 L 1024.42 1552.69 L 999.738 1412 C 995.844 1389.78 989.083 1359.81 987.421 1337.96 z" fill="rgb(15,27,45)" transform="translate(0,0)"></path>
<path d="M 997.67 306.31 L 1066.9 257.621 C 1079.39 248.872 1092.53 238.11 1106.35 231.67 C 1123.32 223.762 1202.44 216.281 1226.64 212.965 C 1243.32 210.679 1260.36 206.716 1277.2 206.166 C 1281.4 206.029 1285.7 206.959 1289.76 207.985 C 1329.14 217.943 1358.83 241.165 1401.53 241.75 C 1408.51 246.107 1414.16 250.5 1419.94 256.397 C 1436.92 273.692 1453.98 289.818 1472.32 305.663 C 1474.19 333.596 1468.84 328.311 1467.61 349.517 C 1469.04 365.061 1458.33 395.027 1457.6 411.646 C 1455.73 405.559 1457.56 405.685 1456.78 400.361 C 1455.43 402.984 1454.4 412.641 1453.97 415.837 C 1450.26 416.156 1446.98 416.628 1443.27 416.655 C 1433.33 419.149 1417.5 423.228 1411.16 432.639 C 1407.25 438.429 1416.48 431.106 1416.2 431.349 C 1438.89 411.355 1480.36 415.527 1496.85 441.353 C 1497.66 442.615 1498.31 443.527 1499.24 444.743 L 1500.44 440.711 C 1509.43 453.21 1505.97 465.107 1505.7 480.776 C 1488.43 507.023 1477.35 518.759 1445.07 526.179 C 1433.35 528.257 1418.64 528.404 1407.12 526.609 C 1402.28 525.856 1390.76 519.448 1387.51 525.432 C 1382.03 535.515 1344.24 563.712 1343.92 571.314 C 1343.61 578.901 1344.95 593.603 1344.35 601.489 C 1344.66 601.567 1344.98 601.646 1345.29 601.724 C 1381.82 605.131 1418.87 600.474 1455.67 602.155 C 1471.65 602.885 1494.77 600.496 1504.43 617.23 C 1517.1 639.187 1524.42 664.558 1533.3 688.181 C 1535.59 694.366 1535.24 699.376 1538.12 705.417 L 1536.95 707.826 C 1532.84 716.749 1531.16 720.624 1539.89 727.125 C 1549.72 725.652 1581.08 729.301 1587.62 733.607 C 1594.25 735.832 1603.76 736.442 1607.66 738.37 C 1611.16 740.007 1617.19 743.191 1618.25 747.028 C 1628.39 783.853 1641.72 819.467 1654.42 855.487 L 1708.47 1007.82 C 1719.28 1037.93 1730.16 1068.15 1740.78 1098.34 C 1742.13 1102.17 1743.74 1105.48 1741.51 1108.63 C 1734.34 1118.79 1717.24 1126.89 1707.85 1134.37 C 1691.26 1147.61 1680.54 1157.84 1662.13 1168.41 C 1655.22 1172.3 1647.79 1175.17 1640.06 1176.94 C 1624.95 1180.26 1598.26 1178.03 1582.95 1175.43 C 1561.34 1171.76 1541.16 1174.86 1519.59 1172.63 C 1511.56 1171.77 1509.12 1169.97 1501.94 1167.91 C 1495.84 1168.81 1495.96 1167.78 1492.14 1171.17 C 1491.15 1179.72 1533.75 1230.25 1535.22 1243.35 C 1534.63 1242.74 1534.03 1242.15 1533.42 1241.56 C 1525.28 1233.82 1411.23 1198.01 1393.2 1191.29 C 1380.49 1186.56 1273.09 1149.4 1266.48 1149.63 C 1257.86 1151.85 1227.18 1149.69 1221.49 1143.15 C 1234.23 1145.3 1245.89 1147.59 1258.88 1147.72 C 1280.21 1146.74 1296.78 1140.84 1314.05 1128.69 C 1322.54 1122.07 1340.97 1095.94 1335.54 1085.1 C 1324.55 1080.28 1322.34 1074.33 1315.01 1064.08 C 1311.89 1061.31 1311.67 1060.4 1309.86 1056.76 C 1284.61 1052.39 1234.56 1037.57 1208.48 1030.68 L 1208.06 1028.06 C 1203.17 1026.1 1190.73 1023.14 1185.09 1021.64 C 1191.67 993.53 1258.46 735.579 1262.97 729.441 C 1268.27 722.213 1285.95 715.037 1294.61 714.057 C 1296.61 713.659 1297.47 712.994 1299.38 712.052 C 1297.95 711.464 1295.11 710.715 1293.52 710.238 C 1283.05 714.72 1259.35 727.681 1251.08 728.716 C 1229.61 731.4 1197.3 731.554 1176.14 727.907 L 1172.01 729.614 C 1167.1 728.464 1166.37 728.23 1161.41 728.301 L 1159.17 728.205 L 1091.19 975.534 C 1087.58 969.633 1075.73 950.876 1074.07 945.435 L 1071.57 947.63 C 1067.24 940.346 1064.23 935.276 1059.13 928.555 L 1061.39 928.238 C 1065.4 931.345 1069.33 937.626 1072.41 941.943 C 1078.46 919.63 1078.51 883.781 1079.7 859.354 L 1085.58 734.135 C 1078.09 730.686 1076.58 729.354 1069.83 725.277 C 1061.59 720.297 1059.2 716.659 1050.57 718.573 L 1048.5 719.046 L 1046.62 717.759 L 1047.96 716.408 C 1049.08 711.924 1046.35 706.86 1044.67 701.607 C 1044.27 697.584 1043.76 695.597 1046.74 692.12 C 1048.96 689.522 1051.8 685.503 1054.25 682.765 C 1056.55 679.427 1058.53 677.565 1060.93 674.116 C 1065.45 667.63 1063.65 663.832 1072.78 658.284 C 1070.22 659.84 1081.21 650.692 1078.63 653.485 C 1082.82 648.946 1087.91 652.514 1091.92 648.942 C 1094.17 645.957 1107.02 641.92 1110.56 641.637 C 1126.19 640.201 1155.07 629.258 1172.57 630.098 C 1175.38 624.639 1176.13 623.112 1177.74 617.221 C 1168.94 611.786 1163.49 611.932 1153.66 609.838 C 1152.85 609.69 1152.04 609.542 1151.23 609.394 C 1124.34 606.845 1093.3 595.128 1069.81 582.498 C 1053.86 573.923 1032.86 557.847 1021.91 543.281 C 1018.12 538.247 1012.06 524.488 1007.94 520.793 C 993.795 508.102 980.494 503.245 975.316 482.458 C 968.255 454.104 985.435 444.403 997.306 424.078 C 997.39 411.861 996.959 399.909 997.234 387.588 C 997.075 362.584 996.334 331.009 997.67 306.31 z M 1504.01 1046.42 C 1511.28 1045.24 1513.02 1045.44 1515.31 1038.61 C 1506.57 1027.94 1513.65 1031.36 1508.3 1021.02 C 1505.07 1014.76 1505.28 1011.69 1503.3 1005.28 C 1501.17 998.373 1498.36 981.976 1497.97 975.287 C 1492.39 973.765 1493.34 974.246 1487.96 976.638 C 1485.49 981.687 1481.89 982.131 1482.18 988.592 C 1482.41 993.723 1474.32 997.365 1473.13 1003.11 C 1472.23 1007.52 1464.53 1013.42 1463.2 1018.29 C 1461.31 1022.61 1456.4 1027.32 1453.63 1031.87 C 1450.25 1037.45 1448.75 1034.65 1446.64 1042.61 C 1447.08 1047.05 1447.97 1046.75 1451.96 1048.36 C 1462.7 1046.91 1494.21 1044.34 1504.01 1046.42 z M 1224.3 330.282 L 1208.11 341.077 L 1194.94 350.015 C 1186.69 354.602 1185.42 354.774 1176.03 353.953 C 1169.09 355.007 1117.31 354.941 1114.12 352.794 C 1115.05 350.405 1115.3 350.14 1116.6 347.91 L 1124.09 333.732 C 1126.76 330.91 1130.03 324.772 1132.12 321.204 C 1125.91 324.123 1120.35 326.528 1114.65 330.433 L 1107.92 333.24 C 1102.47 336.717 1096.89 339.258 1091.97 342.386 L 1069.36 354.244 C 1062.99 353.735 1059.26 353.631 1052.88 353.834 C 1045.77 358.444 1029.61 368.395 1023.61 373.425 C 1015.66 378.315 1007.74 383.27 999.871 388.288 L 999.738 447.598 C 999.71 468.891 998.157 487.459 1005.97 507.651 C 1028.87 566.861 1094.37 598.43 1153.66 607.368 C 1245.82 623.043 1328.89 587.344 1389.82 519.157 C 1417.76 525.987 1435.19 529.584 1462.99 517.096 C 1490.92 504.552 1514.96 476.437 1499.24 444.743 C 1498.31 443.527 1497.66 442.615 1496.85 441.353 C 1480.36 415.527 1438.89 411.355 1416.2 431.349 C 1416.48 431.106 1407.25 438.429 1411.16 432.639 C 1417.5 423.228 1433.33 419.149 1443.27 416.655 C 1446.98 416.628 1450.26 416.156 1453.97 415.837 C 1454.4 412.641 1455.43 402.984 1456.78 400.361 L 1457.02 394.538 C 1460.19 383.383 1461.17 373.313 1461.62 361.833 C 1441.9 362.004 1422.17 362.862 1402.44 362.209 C 1392.96 361.896 1384.52 361.844 1375.09 362.66 C 1374.56 357.529 1373.49 350.025 1373.91 345.091 C 1373.51 342.358 1373.13 339.785 1372.63 337.068 C 1367.82 338.302 1359.9 345.975 1356.23 349.451 L 1349.36 354.178 C 1323.84 353.931 1298.32 353.914 1272.79 354.127 C 1262.13 354.216 1244.04 353.982 1233.94 355.035 L 1233.87 354.34 C 1231.89 354.298 1230.31 354.052 1228.35 353.822 L 1227.37 351.985 L 1230.04 345.441 C 1232.8 339.493 1238.43 328.968 1238.54 322.893 L 1236.93 322.281 L 1232.31 325.344 C 1229.33 326.995 1227.15 328.349 1224.3 330.282 z" fill="rgb(15,27,45)" transform="translate(0,0)"></path>
<path d="M 1487.96 976.638 C 1493.34 974.246 1492.39 973.765 1497.97 975.287 C 1498.36 981.976 1501.17 998.373 1503.3 1005.28 C 1505.28 1011.69 1505.07 1014.76 1508.3 1021.02 C 1513.65 1031.36 1506.57 1027.94 1515.31 1038.61 C 1513.02 1045.44 1511.28 1045.24 1504.01 1046.42 C 1494.21 1044.34 1462.7 1046.91 1451.96 1048.36 C 1447.97 1046.75 1447.08 1047.05 1446.64 1042.61 C 1448.75 1034.65 1450.25 1037.45 1453.63 1031.87 C 1456.4 1027.32 1461.31 1022.61 1463.2 1018.29 C 1464.53 1013.42 1472.23 1007.52 1473.13 1003.11 C 1474.32 997.365 1482.41 993.723 1482.18 988.592 C 1481.89 982.131 1485.49 981.687 1487.96 976.638 z" fill="rgb(255,255,255)" fill-opacity="0.00784314" transform="translate(0,0)"></path>
<path d="M 1232.31 325.344 L 1236.93 322.281 L 1238.54 322.893 C 1238.43 328.968 1232.8 339.493 1230.04 345.441 L 1227.37 351.985 L 1228.35 353.822 C 1230.31 354.052 1231.89 354.298 1233.87 354.34 L 1233.94 355.035 C 1244.04 353.982 1262.13 354.216 1272.79 354.127 C 1298.32 353.914 1323.84 353.931 1349.36 354.178 L 1356.23 349.451 C 1359.9 345.975 1367.82 338.302 1372.63 337.068 C 1373.13 339.785 1373.51 342.358 1373.91 345.091 C 1373.49 350.025 1374.56 357.529 1375.09 362.66 C 1384.52 361.844 1392.96 361.896 1402.44 362.209 C 1422.17 362.862 1441.9 362.004 1461.62 361.833 C 1461.17 373.313 1460.19 383.383 1457.02 394.538 L 1456.78 400.361 C 1455.43 402.984 1454.4 412.641 1453.97 415.837 C 1450.26 416.156 1446.98 416.628 1443.27 416.655 C 1433.33 419.149 1417.5 423.228 1411.16 432.639 C 1407.25 438.429 1416.48 431.106 1416.2 431.349 C 1438.89 411.355 1480.36 415.527 1496.85 441.353 C 1497.66 442.615 1498.31 443.527 1499.24 444.743 C 1514.96 476.437 1490.92 504.552 1462.99 517.096 C 1435.19 529.584 1417.76 525.987 1389.82 519.157 C 1328.89 587.344 1245.82 623.043 1153.66 607.368 C 1094.37 598.43 1028.87 566.861 1005.97 507.651 C 998.157 487.459 999.71 468.891 999.738 447.598 L 999.871 388.288 C 1007.74 383.27 1015.66 378.315 1023.61 373.425 C 1029.61 368.395 1045.77 358.444 1052.88 353.834 C 1059.26 353.631 1062.99 353.735 1069.36 354.244 L 1091.97 342.386 C 1096.89 339.258 1102.47 336.717 1107.92 333.24 L 1114.65 330.433 C 1120.35 326.528 1125.91 324.123 1132.12 321.204 C 1130.03 324.772 1126.76 330.91 1124.09 333.732 L 1116.6 347.91 C 1115.3 350.14 1115.05 350.405 1114.12 352.794 C 1117.31 354.941 1169.09 355.007 1176.03 353.953 C 1185.42 354.774 1186.69 354.602 1194.94 350.015 L 1208.11 341.077 L 1224.3 330.282 C 1227.15 328.349 1229.33 326.995 1232.31 325.344 z M 1024.6 442.837 C 1027.35 452.614 1026.18 452.239 1030.99 461.349 C 1036.28 471.337 1043.21 471.231 1047.32 476.615 C 1061.99 494.884 1137.72 495.675 1146.73 481.579 C 1157.84 469.273 1157.76 476.033 1158.57 459.268 C 1154.46 454.946 1154.24 452.919 1148.36 451.924 C 1147.4 459.303 1142.71 468.749 1137.61 474.991 C 1137.64 474.962 1131.7 476.722 1129.84 477.788 C 1113.69 485.176 1099.97 483.21 1084.54 475.49 C 1073.91 468.529 1072.75 461.453 1067.85 450.795 C 1072.57 438.366 1071.96 434.943 1082.04 426.032 C 1090.68 421.602 1097.85 417.62 1107.94 417.982 C 1111.69 418.116 1112.67 418.523 1111.54 415.504 C 1096.96 413.537 1086.39 410.263 1070.74 413.097 C 1063.67 413.689 1057.87 417.964 1050.24 418.432 C 1046.08 418.687 1042.85 426.776 1036.75 428.649 C 1036.3 428.787 1025.59 440.137 1024.6 442.837 z M 1263.32 491.897 C 1279.19 495.792 1304.54 493.117 1320.5 490.815 C 1337.51 488.362 1364.46 474.523 1369.85 456.64 C 1372.33 448.405 1375.38 448.493 1374.42 439.35 C 1372.94 439.049 1371.45 438.733 1369.98 438.402 L 1369.45 438.021 C 1350.26 413.051 1303.16 405.173 1275.29 417.739 C 1274.72 417.917 1274.15 418.096 1273.59 418.274 L 1269.17 419.863 C 1253.51 425.571 1244.88 440.488 1234.29 450.8 C 1231.46 458.834 1217.45 469.554 1231.98 478.721 C 1240.5 484.092 1254.02 488.421 1263.32 491.897 z M 1263.94 436.877 C 1272.32 426.4 1279.81 419.218 1293.78 418.246 C 1359.11 413.699 1347.99 498.846 1283.87 479.32 C 1282.34 478.092 1281.16 477.381 1279.42 476.4 C 1259.58 465.188 1262.57 454.297 1263.94 436.877 z" fill="rgb(217,160,102)" transform="translate(0,0)"></path>
<path d="M 1356.23 349.451 C 1359.9 345.975 1367.82 338.302 1372.63 337.068 C 1373.13 339.785 1373.51 342.358 1373.91 345.091 C 1373.49 350.025 1374.56 357.529 1375.09 362.66 C 1384.52 361.844 1392.96 361.896 1402.44 362.209 C 1422.17 362.862 1441.9 362.004 1461.62 361.833 C 1461.17 373.313 1460.19 383.383 1457.02 394.538 C 1456.65 391.171 1455.99 388.714 1456.78 385.447 C 1453.73 381.828 1415.7 389.019 1412.13 383.287 C 1412.42 382.176 1413.07 382.347 1414.17 381.954 C 1414.5 382.142 1395.94 383.543 1395.77 381.087 C 1397.87 378.722 1403.85 381.532 1404.16 378.243 C 1402.47 378.304 1387.45 378.814 1387.25 379.283 C 1388.13 380.905 1399.56 383.444 1397.24 387.767 C 1387.01 382.55 1385.66 381.268 1374.44 377.028 C 1373.38 367.255 1372.58 358.453 1372.26 348.621 C 1366.23 353.618 1364.27 352.186 1356.23 349.451 z" fill="rgb(168,107,60)" transform="translate(0,0)"></path>
<path d="M 1232.31 325.344 C 1237.22 333.45 1230.97 334.991 1224.3 330.282 C 1227.15 328.349 1229.33 326.995 1232.31 325.344 z" fill="rgb(168,107,60)" transform="translate(0,0)"></path>
<path d="M 1015.06 436.128 C 1053.6 382.634 1138.7 393.107 1158.57 459.268 C 1154.46 454.946 1154.24 452.919 1148.36 451.924 C 1147.4 459.303 1142.71 468.749 1137.61 474.991 C 1137.64 474.962 1131.7 476.722 1129.84 477.788 C 1113.69 485.176 1099.97 483.21 1084.54 475.49 C 1073.91 468.529 1072.75 461.453 1067.85 450.795 C 1072.57 438.366 1071.96 434.943 1082.04 426.032 C 1090.68 421.602 1097.85 417.62 1107.94 417.982 C 1111.69 418.116 1112.67 418.523 1111.54 415.504 C 1096.96 413.537 1086.39 410.263 1070.74 413.097 C 1063.67 413.689 1057.87 417.964 1050.24 418.432 C 1046.08 418.687 1042.85 426.776 1036.75 428.649 C 1036.3 428.787 1025.59 440.137 1024.6 442.837 C 1022.46 439.423 1018.77 438.097 1015.06 436.128 z" fill="rgb(15,27,45)" transform="translate(0,0)"></path>
<path d="M 1263.94 436.877 C 1272.32 426.4 1279.81 419.218 1293.78 418.246 C 1359.11 413.699 1347.99 498.846 1283.87 479.32 C 1282.34 478.092 1281.16 477.381 1279.42 476.4 C 1259.58 465.188 1262.57 454.297 1263.94 436.877 z" fill="rgb(15,27,45)" transform="translate(0,0)"></path>
<path d="M 1070.74 413.097 C 1085.34 415.712 1088.12 412.479 1082.04 426.032 C 1071.96 434.943 1072.57 438.366 1067.85 450.795 C 1072.75 461.453 1073.91 468.529 1084.54 475.49 C 1086.62 477.463 1091.11 481.455 1091.55 483.899 C 1092.26 487.877 1077.21 488.845 1076.48 488.247 C 1069.85 482.83 1061 484.269 1054.41 480.169 C 1051.2 478.171 1049.5 477.603 1047.32 476.615 C 1043.21 471.231 1036.28 471.337 1030.99 461.349 C 1026.18 452.239 1027.35 452.614 1024.6 442.837 C 1025.59 440.137 1036.3 428.787 1036.75 428.649 C 1042.85 426.776 1046.08 418.687 1050.24 418.432 C 1057.87 417.964 1063.67 413.689 1070.74 413.097 z" fill="rgb(255,255,255)" fill-opacity="0.027451" transform="translate(0,0)"></path>
<path d="M 1234.29 450.8 C 1244.88 440.488 1253.51 425.571 1269.17 419.863 L 1273.59 418.274 C 1271.07 430.776 1264.52 425.8 1263.94 436.877 C 1262.57 454.297 1259.58 465.188 1279.42 476.4 C 1281.16 477.381 1282.34 478.092 1283.87 479.32 C 1285.93 484.134 1292.61 485.399 1292.87 487.613 C 1293.31 491.473 1266.44 491.609 1263.32 491.897 C 1254.02 488.421 1240.5 484.092 1231.98 478.721 C 1217.45 469.554 1231.46 458.834 1234.29 450.8 z M 1286.95 486.906 C 1279.32 479.724 1271.3 474.889 1264.36 467.881 L 1262.87 466.406 L 1262.32 464.301 C 1261.43 460.765 1262.41 459.087 1259.74 456.312 C 1255.38 443.292 1265.52 432.434 1259.38 429.365 C 1257.05 428.204 1250.08 437.388 1247.2 440.335 C 1246.87 440.651 1239.09 449.389 1239.07 449.423 C 1230.86 462.888 1221.55 470.574 1240.33 478.75 C 1261.91 488.143 1261.02 489.916 1286.95 486.906 z" fill="rgb(255,255,255)" fill-opacity="0.368627" transform="translate(0,0)"></path>
<path d="M 1247.2 440.335 C 1251.88 439.662 1255.28 436.505 1255.72 441.441 C 1256.42 449.466 1253.39 451.598 1259.74 456.312 C 1262.41 459.087 1261.43 460.765 1262.32 464.301 L 1262.87 466.406 L 1264.36 467.881 C 1271.3 474.889 1279.32 479.724 1286.95 486.906 C 1261.02 489.916 1261.91 488.143 1240.33 478.75 C 1221.55 470.574 1230.86 462.888 1239.07 449.423 C 1239.09 449.389 1246.87 440.651 1247.2 440.335 z" fill="rgb(255,255,255)" fill-opacity="0.0196078" transform="translate(0,0)"></path>
<path d="M 1247.2 440.335 C 1250.08 437.388 1257.05 428.204 1259.38 429.365 C 1265.52 432.434 1255.38 443.292 1259.74 456.312 C 1253.39 451.598 1256.42 449.466 1255.72 441.441 C 1255.28 436.505 1251.88 439.662 1247.2 440.335 z" fill="rgb(255,255,255)" fill-opacity="0.0627451" transform="translate(0,0)"></path>
<path d="M 1234.29 450.8 C 1252.02 399.522 1324.33 387.853 1365.39 417.072 L 1365.76 417.553 C 1372.15 422.308 1379.16 426.744 1378.71 435.494 L 1374.42 439.35 C 1372.94 439.049 1371.45 438.733 1369.98 438.402 L 1369.45 438.021 C 1350.26 413.051 1303.16 405.173 1275.29 417.739 C 1274.72 417.917 1274.15 418.096 1273.59 418.274 L 1269.17 419.863 C 1253.51 425.571 1244.88 440.488 1234.29 450.8 z" fill="rgb(15,27,45)" transform="translate(0,0)"></path>
<path d="M 1273.59 418.274 C 1274.15 418.096 1274.72 417.917 1275.29 417.739 C 1303.16 405.173 1350.26 413.051 1369.45 438.021 C 1364.16 436.561 1360.52 434.875 1357.7 430.157 C 1346.38 420.104 1333.66 419.107 1319.41 416.712 L 1320.28 417.427 C 1336.26 430.355 1327.65 424.379 1339.89 440.487 C 1340.42 451.202 1339.87 452.463 1339.5 462.249 C 1337.41 464.618 1336.77 465.391 1334.29 467.349 C 1333.23 468.659 1329.92 474.677 1329.72 474.797 C 1305.67 489.574 1330.44 486.832 1341.97 480.893 C 1343.52 479.819 1349.95 475.037 1351.19 474.622 C 1358 472.347 1357.31 467.33 1363.39 463.788 C 1366.14 460.197 1372.41 444.426 1370.24 439.805 L 1369.98 438.402 C 1371.45 438.733 1372.94 439.049 1374.42 439.35 C 1375.38 448.493 1372.33 448.405 1369.85 456.64 C 1364.46 474.523 1337.51 488.362 1320.5 490.815 C 1304.54 493.117 1279.19 495.792 1263.32 491.897 C 1266.44 491.609 1293.31 491.473 1292.87 487.613 C 1292.61 485.399 1285.93 484.134 1283.87 479.32 C 1347.99 498.846 1359.11 413.699 1293.78 418.246 C 1279.81 419.218 1272.32 426.4 1263.94 436.877 C 1264.52 425.8 1271.07 430.776 1273.59 418.274 z" fill="rgb(255,255,255)" fill-opacity="0.6" transform="translate(0,0)"></path>
<path d="M 1357.7 430.157 C 1360.52 434.875 1364.16 436.561 1369.45 438.021 L 1369.98 438.402 L 1370.24 439.805 C 1349.83 440.636 1359.75 435.95 1359.43 453.316 C 1359.27 461.887 1354 461.838 1363.39 463.788 C 1357.31 467.33 1358 472.347 1351.19 474.622 C 1349.95 475.037 1343.52 479.819 1341.97 480.893 C 1342.25 474.612 1340.38 475.617 1340.49 471.332 C 1340.51 470.491 1343.31 468.344 1338.26 467.77 L 1334.29 467.349 C 1336.77 465.391 1337.41 464.618 1339.5 462.249 C 1343.2 462.754 1342.15 456.332 1342.38 453.627 C 1343.09 444.995 1342.05 438.757 1348.12 431.779 C 1350.08 429.525 1354.64 430.368 1357.7 430.157 z" fill="rgb(255,255,255)" fill-opacity="0.0431373" transform="translate(0,0)"></path>
<path d="M 1084.54 475.49 C 1099.97 483.21 1113.69 485.176 1129.84 477.788 C 1129.51 478.202 1124.94 482.844 1126.71 483.46 C 1133.18 485.705 1140.47 482.864 1146.73 481.579 C 1137.72 495.675 1061.99 494.884 1047.32 476.615 C 1049.5 477.603 1051.2 478.171 1054.41 480.169 C 1061 484.269 1069.85 482.83 1076.48 488.247 C 1077.21 488.845 1092.26 487.877 1091.55 483.899 C 1091.11 481.455 1086.62 477.463 1084.54 475.49 z" fill="rgb(255,255,255)" fill-opacity="0.65098" transform="translate(0,0)"></path>
<path d="M 1148.36 451.924 C 1154.24 452.919 1154.46 454.946 1158.57 459.268 C 1157.76 476.033 1157.84 469.273 1146.73 481.579 C 1140.47 482.864 1133.18 485.705 1126.71 483.46 C 1124.94 482.844 1129.51 478.202 1129.84 477.788 C 1131.7 476.722 1137.64 474.962 1137.61 474.991 C 1142.71 468.749 1147.4 459.303 1148.36 451.924 z" fill="rgb(255,255,255)" fill-opacity="0.0156863" transform="translate(0,0)"></path>
<path d="M 1319.41 416.712 C 1333.66 419.107 1346.38 420.104 1357.7 430.157 C 1354.64 430.368 1350.08 429.525 1348.12 431.779 C 1342.05 438.757 1343.09 444.995 1342.38 453.627 C 1342.15 456.332 1343.2 462.754 1339.5 462.249 C 1339.87 452.463 1340.42 451.202 1339.89 440.487 C 1327.65 424.379 1336.26 430.355 1320.28 417.427 L 1319.41 416.712 z" fill="rgb(255,255,255)" fill-opacity="0.117647" transform="translate(0,0)"></path>
<path d="M 1469.95 442.872 C 1472.08 446.119 1469.73 445.676 1466.13 448.099 C 1458.8 453.032 1452.95 458.574 1446.54 464.545 C 1447.44 467.828 1448.36 471.019 1448.87 474.404 C 1449.18 476.423 1449.81 478.264 1450.19 480.342 C 1450.62 482.706 1451.77 485.466 1450.84 487.877 C 1450.63 488.337 1450.05 488.382 1449.91 488.336 C 1446.18 487.127 1445.74 471.757 1443.69 468.56 C 1443.49 468.232 1443.09 468.013 1442.84 468.091 C 1441.08 468.634 1437.66 472.327 1436.42 473.498 C 1433.81 476.113 1427.14 484.29 1423.98 485.209 L 1423.4 484.948 L 1423.76 485.18 C 1420.97 479.553 1463.24 446.655 1469.95 442.872 z" fill="rgb(15,27,45)" transform="translate(0,0)"></path>
<path d="M 1151.43 531.95 C 1153.33 532.297 1154.72 532.467 1156.34 533.575 C 1170.33 543.142 1187.51 547.079 1204.21 544.123 C 1211.19 543.05 1217.65 540.902 1224.19 538.346 C 1229.38 536.319 1233.11 531.794 1238.48 533.086 C 1221.78 545.34 1198.98 550.35 1178.62 545.961 C 1169.95 544.093 1156.42 539.837 1151.43 531.95 z" fill="rgb(15,27,45)" transform="translate(0,0)"></path>
<path d="M 1341.97 480.893 C 1330.44 486.832 1305.67 489.574 1329.72 474.797 C 1329.92 474.677 1333.23 468.659 1334.29 467.349 L 1338.26 467.77 C 1343.31 468.344 1340.51 470.491 1340.49 471.332 C 1340.38 475.617 1342.25 474.612 1341.97 480.893 z" fill="rgb(255,255,255)" fill-opacity="0.0196078" transform="translate(0,0)"></path>
<path d="M 1363.39 463.788 C 1354 461.838 1359.27 461.887 1359.43 453.316 C 1359.75 435.95 1349.83 440.636 1370.24 439.805 C 1372.41 444.426 1366.14 460.197 1363.39 463.788 z" fill="rgb(255,255,255)" fill-opacity="0.0156863" transform="translate(0,0)"></path>
<path d="M 1070.74 413.097 C 1086.39 410.263 1096.96 413.537 1111.54 415.504 C 1112.67 418.523 1111.69 418.116 1107.94 417.982 C 1097.85 417.62 1090.68 421.602 1082.04 426.032 C 1088.12 412.479 1085.34 415.712 1070.74 413.097 z" fill="rgb(154,158,162)" fill-opacity="0.972549" transform="translate(0,0)"></path>
<path d="M 1196.24 477.444 C 1200.94 479.573 1190.05 483.257 1188.6 483.933 L 1184.59 485.815 C 1186.52 489.062 1191.33 495.255 1189.8 498.49 C 1186.9 498.315 1181.71 487.723 1179.77 484.456 C 1186.72 481.947 1189.46 480.723 1196.24 477.444 z" fill="rgb(15,27,45)" transform="translate(0,0)"></path>
<path d="M 1587.62 733.607 C 1594.25 735.832 1603.76 736.442 1607.66 738.37 C 1611.16 740.007 1617.19 743.191 1618.25 747.028 C 1628.39 783.853 1641.72 819.467 1654.42 855.487 L 1708.47 1007.82 C 1719.28 1037.93 1730.16 1068.15 1740.78 1098.34 C 1742.13 1102.17 1743.74 1105.48 1741.51 1108.63 C 1734.34 1118.79 1717.24 1126.89 1707.85 1134.37 C 1691.26 1147.61 1680.54 1157.84 1662.13 1168.41 C 1655.22 1172.3 1647.79 1175.17 1640.06 1176.94 C 1624.95 1180.26 1598.26 1178.03 1582.95 1175.43 C 1561.34 1171.76 1541.16 1174.86 1519.59 1172.63 C 1511.56 1171.77 1509.12 1169.97 1501.94 1167.91 C 1486.47 1164.56 1426.43 1169.5 1420.18 1154.26 C 1427.45 1148.86 1430.72 1160.03 1439.94 1157.96 C 1443.31 1155.57 1443.43 1154.37 1444.95 1150.54 L 1445.44 1149.28 C 1447.05 1142.96 1446.62 1141.57 1445.47 1135.16 C 1438.46 1105.34 1422.73 1084.8 1406.19 1059.66 C 1405.17 1057.73 1404.06 1055.78 1403 1053.86 C 1408.37 1048.49 1472.18 1054.44 1479.71 1048.6 C 1478.69 1048.3 1455.76 1048.49 1451.96 1048.36 C 1462.7 1046.91 1494.21 1044.34 1504.01 1046.42 C 1511.28 1045.24 1513.02 1045.44 1515.31 1038.61 C 1506.57 1027.94 1513.65 1031.36 1508.3 1021.02 C 1505.07 1014.76 1505.28 1011.69 1503.3 1005.28 C 1501.17 998.373 1498.36 981.976 1497.97 975.287 C 1492.39 973.765 1493.34 974.246 1487.96 976.638 C 1495.44 961.576 1487.7 950.164 1485.45 934.919 C 1482.56 915.311 1471.7 862.699 1477.73 845.574 C 1494.29 798.582 1546.52 760.644 1588.55 738.05 L 1587.43 735.728 L 1587.62 733.607 z" fill="rgb(24,74,87)" transform="translate(0,0)"></path>
<path d="M 1527.8 1041.84 C 1539.02 1034.3 1579.01 1023.55 1593.59 1020.4 C 1598.24 1019.4 1613.36 1020.43 1618.55 1021.88 C 1628.2 1024.59 1659.61 1037.65 1665.04 1043.1 C 1672.59 1047.71 1678.93 1051.22 1686.79 1055.31 C 1632.71 1044.91 1612.24 1045.76 1557.48 1047.61 C 1551.09 1049.02 1535.5 1049.64 1529.17 1048.44 C 1520.44 1048.04 1493.7 1050.09 1487.75 1048.08 C 1493.94 1047.91 1497.92 1047.91 1504.01 1046.42 C 1511.28 1045.24 1513.02 1045.44 1515.31 1038.61 C 1516.38 1041.14 1516.64 1041.66 1518.12 1043.97 C 1522.09 1045.09 1522.89 1043.73 1527.8 1041.84 z" fill="rgb(15,27,45)" transform="translate(0,0)"></path>
<path d="M 1587.62 733.607 C 1594.25 735.832 1603.76 736.442 1607.66 738.37 C 1599.27 739.432 1594.68 738.25 1586.36 742.66 C 1545.45 764.353 1478.92 812.753 1479.85 864.154 C 1480.31 889.837 1485.44 916.546 1489.94 941.614 C 1491.41 948.867 1497.92 970.311 1497.97 975.287 C 1492.39 973.765 1493.34 974.246 1487.96 976.638 C 1495.44 961.576 1487.7 950.164 1485.45 934.919 C 1482.56 915.311 1471.7 862.699 1477.73 845.574 C 1494.29 798.582 1546.52 760.644 1588.55 738.05 L 1587.43 735.728 L 1587.62 733.607 z" fill="rgb(15,27,45)" transform="translate(0,0)"></path>
<path d="M 1353.75 744.601 C 1399.6 736.871 1449.65 727.798 1495.84 720.667 C 1502.98 719.565 1529.72 726.534 1539.89 727.125 C 1549.72 725.652 1581.08 729.301 1587.62 733.607 L 1587.43 735.728 L 1588.55 738.05 C 1546.52 760.644 1494.29 798.582 1477.73 845.574 C 1471.7 862.699 1482.56 915.311 1485.45 934.919 C 1487.7 950.164 1495.44 961.576 1487.96 976.638 C 1485.49 981.687 1481.89 982.131 1482.18 988.592 C 1482.41 993.723 1474.32 997.365 1473.13 1003.11 C 1472.23 1007.52 1464.53 1013.42 1463.2 1018.29 C 1461.31 1022.61 1456.4 1027.32 1453.63 1031.87 C 1450.25 1037.45 1448.75 1034.65 1446.64 1042.61 L 1444.76 1040.48 C 1441.63 1041.71 1438.71 1046.49 1436.5 1049.45 C 1414.7 1049.91 1396.08 1051.04 1374.51 1052.03 C 1369.41 1045.4 1365.65 1040.22 1359.6 1034.42 C 1346.51 1032.43 1316.79 1029.36 1304.52 1031.02 C 1301.22 1032.33 1298.77 1032.92 1297.04 1036.39 C 1294.69 1041.81 1296.67 1045.58 1293.54 1050.19 C 1266.89 1043.88 1238.66 1035.77 1212.02 1028.69 C 1218.32 998.821 1228.14 964.111 1235.81 934.09 L 1281.03 759.721 C 1299.78 756.384 1318.48 752.86 1337.16 749.15 C 1337.41 765.388 1336.99 781.356 1336.62 797.588 C 1326.78 800.997 1311.83 805.692 1302.77 809.937 L 1302.87 811.626 C 1315.31 808.435 1335.47 800.731 1347.81 796.224 C 1349.37 795.783 1349.19 795.741 1350.4 794.436 C 1357.47 796.509 1363.82 798.661 1370.78 801.073 L 1372.57 800.046 L 1371.62 799.032 C 1341.44 791.373 1359.86 768.322 1353.75 744.601 z" fill="rgb(24,74,87)" transform="translate(0,0)"></path>
<path d="M 1418.32 820.049 C 1417.04 840.92 1418.32 863.798 1417.72 884.755 C 1410.65 885.992 1361.76 903.148 1352.94 906.593 C 1353.13 885.768 1353.16 864.942 1353.03 844.116 C 1365.74 838.67 1405.69 823.516 1418.32 820.049 z" fill="rgb(34,211,238)" transform="translate(0,0)"></path>
<path d="M 1285.56 820.768 C 1294.16 821.292 1337.95 840.227 1349.72 844.418 C 1349.72 864.078 1350.31 886.701 1349.56 905.944 C 1329.79 899.451 1309.28 891.263 1289.72 885.388 C 1281.39 880.566 1288.26 835.255 1285.56 820.768 z" fill="rgb(34,211,238)" transform="translate(0,0)"></path>
<path d="M 1350.4 794.436 C 1357.47 796.509 1363.82 798.661 1370.78 801.073 C 1376.36 803.279 1400.22 812.274 1405.69 813.125 C 1408.26 814.165 1413.68 816.036 1415.45 817.661 C 1405.07 822.875 1363.95 837.113 1351.17 841.975 C 1332.58 835.189 1313.64 827.518 1295.15 820.369 C 1290.65 818.629 1290.97 819.067 1289.74 815.944 C 1295.78 814.616 1297.34 814.294 1302.87 811.626 C 1315.31 808.435 1335.47 800.731 1347.81 796.224 C 1349.37 795.783 1349.19 795.741 1350.4 794.436 z" fill="rgb(34,211,238)" transform="translate(0,0)"></path>
<path d="M 1405.69 813.125 C 1410.55 812.799 1416.95 813.781 1420.69 817.035 C 1421.51 824.603 1421.49 876.026 1420.32 882.447 L 1419.47 882.071 C 1419.01 871.22 1420.51 825.587 1418.32 820.049 C 1405.69 823.516 1365.74 838.67 1353.03 844.116 C 1353.16 864.942 1353.13 885.768 1352.94 906.593 C 1361.76 903.148 1410.65 885.992 1417.72 884.755 C 1412.75 891.664 1361.43 904.055 1356.09 908.307 C 1357.66 913.834 1365.43 917.675 1365.84 919.185 C 1368.62 929.502 1368.56 952.747 1368.6 963.259 C 1359.81 963.199 1346.09 963.544 1337.7 962.885 C 1338.1 956.471 1339.48 922.406 1341.11 918.858 C 1344.4 916.217 1345.71 915.518 1347.31 911.403 C 1346.96 909.556 1347.19 908.558 1345.77 907.821 C 1333.91 901.647 1298.77 893.179 1289.6 887.016 L 1289.72 885.388 C 1309.28 891.263 1329.79 899.451 1349.56 905.944 C 1350.31 886.701 1349.72 864.078 1349.72 844.418 C 1337.95 840.227 1294.16 821.292 1285.56 820.768 L 1282.84 820.307 L 1282.23 818.237 L 1284.32 815.631 C 1288.39 814.673 1286.7 814.232 1289.74 815.944 C 1290.97 819.067 1290.65 818.629 1295.15 820.369 C 1313.64 827.518 1332.58 835.189 1351.17 841.975 C 1363.95 837.113 1405.07 822.875 1415.45 817.661 C 1413.68 816.036 1408.26 814.165 1405.69 813.125 z" fill="rgb(15,27,45)" transform="translate(0,0)"></path>
<path d="M 1361.42 920.057 C 1363.38 923.405 1363.87 942.575 1364.18 947.509 C 1355.91 947.161 1351.31 947.694 1342.6 946.801 C 1342.68 944.841 1343.62 927.766 1343.98 927.37 C 1346.13 927.179 1348.61 930.523 1350.8 930.976 C 1359.71 932.819 1358.68 927.083 1361.42 920.057 z" fill="rgb(24,74,87)" transform="translate(0,0)"></path>
<path d="M 1349.54 913.12 C 1360.22 914.729 1357.68 917.654 1356.49 929.514 C 1346.79 928.229 1349.07 922.758 1349.54 913.12 z" fill="rgb(24,74,87)" transform="translate(0,0)"></path>
<path d="M 1346.71 950.517 C 1354.2 949.77 1356.54 948.067 1360.14 954.246 C 1356.17 954.553 1349.34 956.44 1347.44 952.067 L 1346.71 950.517 z" fill="rgb(24,74,87)" transform="translate(0,0)"></path>
<path d="M 1344.35 601.489 C 1344.66 601.567 1344.98 601.646 1345.29 601.724 C 1381.82 605.131 1418.87 600.474 1455.67 602.155 C 1471.65 602.885 1494.77 600.496 1504.43 617.23 C 1517.1 639.187 1524.42 664.558 1533.3 688.181 C 1535.59 694.366 1535.24 699.376 1538.12 705.417 L 1536.95 707.826 C 1530.44 710.881 1530.81 716.304 1525.32 722.222 C 1511.7 720.352 1494.48 716.793 1481.48 715.603 C 1473.97 714.915 1449.59 720.827 1440.64 722.732 L 1376.7 736.334 C 1370.4 737.654 1357.48 742.246 1354.2 737.913 C 1355.13 732.528 1356.18 730.525 1360.56 727.198 L 1362.31 726.256 C 1374.33 707.461 1346.07 698.265 1335.38 710.068 C 1332.21 713.559 1334.18 723.255 1335.79 727.174 C 1338.22 733.107 1337.74 736.121 1337.01 742.347 L 1336.76 744.422 C 1317.76 749.309 1300.14 752.954 1280.9 756.732 C 1284.95 739.748 1288.49 725.343 1300.51 712.364 C 1307.24 705.997 1318.66 701.966 1327.06 697.593 C 1371.65 674.355 1421.4 662.57 1464.76 636.853 C 1471.71 632.726 1478.19 627.48 1479.92 619.371 C 1474.11 596.325 1381.39 608.058 1360.78 606.933 L 1368.64 605.682 C 1358.77 604.822 1352.29 605.711 1342.58 606.58 L 1344.35 601.489 z" fill="rgb(24,74,87)" transform="translate(0,0)"></path>
<path d="M 1306.03 622.521 C 1307.8 620.019 1332.79 600.555 1338.68 594.441 L 1340.13 595.589 L 1340.3 601.975 C 1340.39 612.886 1340.91 630.088 1339.7 640.486 C 1340.13 656.621 1339.45 672.903 1340.16 688.928 C 1325.88 695.542 1307.83 704.522 1293.52 710.238 C 1283.05 714.72 1259.35 727.681 1251.08 728.716 C 1229.61 731.4 1197.3 731.554 1176.14 727.907 C 1177.65 721.09 1177.66 719.072 1177.69 712.029 C 1178.25 695.785 1178.03 678.777 1178.03 662.462 C 1229.17 659.743 1262.18 647.42 1306.03 622.521 z" fill="rgb(217,160,102)" transform="translate(0,0)"></path>
<path d="M 1185.09 1021.64 C 1191.67 993.53 1258.46 735.579 1262.97 729.441 C 1268.27 722.213 1285.95 715.037 1294.61 714.057 C 1281.17 733.542 1272.54 779.823 1266.14 804.84 L 1228.4 950.92 C 1223.57 969.735 1214.29 1011 1208.06 1028.06 C 1203.17 1026.1 1190.73 1023.14 1185.09 1021.64 z" fill="rgb(248,88,28)" transform="translate(0,0)"></path>
<path d="M 1141.49 712.778 C 1148.23 717.378 1155.05 721.238 1159.17 728.205 L 1091.19 975.534 C 1087.58 969.633 1075.73 950.876 1074.07 945.435 C 1081.54 921.607 1088.44 895.158 1095.26 871.064 C 1105.52 835.441 1115.49 799.734 1125.17 763.948 C 1130.74 741.671 1134.11 733.417 1141.49 712.778 z" fill="rgb(248,88,28)" transform="translate(0,0)"></path>
<path d="M 1044.67 701.607 C 1044.27 697.584 1043.76 695.597 1046.74 692.12 C 1048.96 689.522 1051.8 685.503 1054.25 682.765 C 1056.55 679.427 1058.53 677.565 1060.93 674.116 C 1065.45 667.63 1063.65 663.832 1072.78 658.284 C 1070.22 659.84 1081.21 650.692 1078.63 653.485 C 1082.82 648.946 1087.91 652.514 1091.92 648.942 C 1094.17 645.957 1107.02 641.92 1110.56 641.637 C 1111.16 645.309 1113.58 644.265 1116.88 643.757 L 1116.48 643.845 L 1118.15 644.166 L 1118.15 644.25 C 1114.99 644.561 1114.73 645.261 1111.77 646.348 C 1075.83 659.543 1102.85 672.156 1117.71 689.259 C 1124.76 697.378 1131.79 704.026 1139.52 710.295 C 1135.88 719.06 1132.12 727.805 1129.35 736.876 C 1127.54 742.806 1125.9 748.785 1124.41 754.804 C 1116.53 749.453 1111.07 746.744 1102.49 742.335 C 1102.62 738.49 1101.98 731.878 1105.51 728.562 C 1122.5 712.618 1106.83 706.829 1095.72 703.913 C 1094.23 704.451 1085.08 706.874 1085.04 708.433 C 1085.36 708.802 1085.1 708.572 1086 709.132 C 1094.39 707.264 1114.6 704.373 1108.22 721.902 C 1107.22 724.647 1102.7 718.346 1103.25 717.387 C 1098.59 709.593 1091.13 712.186 1087.77 718.544 C 1088.08 726.746 1086.29 722.046 1084.09 725.132 C 1084.01 726.465 1085.46 727.254 1085.9 728.628 C 1086.23 729.651 1084.69 730.304 1084.47 730.205 C 1076.14 726.418 1068.39 720.62 1060.54 715.848 C 1056.88 713.621 1053.39 711.312 1050.66 707.984 C 1047.85 704.664 1047.28 704.113 1044.67 701.607 z" fill="rgb(24,74,87)" transform="translate(0,0)"></path>
<path d="M 1342.42 717.395 C 1349.12 715.208 1353.04 714.537 1352.59 722.993 C 1349.92 734.061 1352.32 790.402 1349.92 793.469 C 1349.88 793.986 1349.92 793.87 1350.4 794.436 C 1349.19 795.741 1349.37 795.783 1347.81 796.224 C 1346.6 795.687 1345.59 794.972 1344.58 795.139 C 1336.31 796.508 1342.61 769.941 1340.8 759.74 C 1338.99 749.517 1342.64 729.531 1342.42 717.395 z" fill="rgb(24,74,87)" transform="translate(0,0)"></path>
<path d="M 1374.98 1053.57 C 1385.24 1054.52 1397.35 1051.71 1403.26 1059.83 L 1404.64 1061.62 C 1415.59 1081.55 1431.9 1099.16 1438.79 1121.29 C 1441.21 1129.02 1446.36 1152.16 1440.85 1152.51 C 1432.78 1153.04 1379.36 1145.48 1371.57 1144.57 L 1356.71 1142.71 C 1352.73 1142.19 1347.14 1142.71 1344.6 1139.49 C 1362.14 1123.88 1376.59 1113.59 1380.37 1089.69 C 1380.53 1088.68 1382.66 1087.84 1383.66 1087.64 L 1385.81 1087.12 C 1393.04 1082.22 1393.22 1081.18 1390.09 1073.38 C 1389.38 1072.53 1388.67 1071.69 1387.97 1070.84 C 1383.77 1063.59 1379.88 1060.14 1374.98 1053.57 z" fill="rgb(217,160,102)" transform="translate(0,0)"></path>
<path d="M 1091.12 715.83 C 1096.31 715.939 1095.91 715.156 1099.77 717.433 C 1103.65 728.467 1094.64 804.846 1096.08 822.474 C 1098.07 846.77 1090.32 878.8 1083.95 902.259 L 1082.12 906.449 C 1078.88 900.764 1089.26 733.594 1091.12 715.83 z" fill="rgb(24,74,87)" transform="translate(0,0)"></path>
<path d="M 1351.76 1084.32 C 1354.43 1085.87 1374.25 1086.92 1378.42 1087.2 C 1372.75 1107.55 1366.84 1117.72 1350.29 1131.12 C 1348.16 1132.85 1344.64 1135.67 1342.83 1137.68 C 1337.73 1141.89 1315.62 1137.51 1307.51 1136.98 C 1310.28 1134.82 1312.91 1132.65 1315.78 1130.61 C 1328.14 1120.62 1334.49 1109.12 1338.11 1093.67 C 1340.9 1081.74 1338.97 1084.49 1351.76 1084.32 z" fill="rgb(24,74,87)" transform="translate(0,0)"></path>
<path d="M 1311.31 1039 C 1316.81 1039.05 1352.18 1040.29 1355.44 1042.81 C 1360.48 1050.39 1371.43 1067.38 1378.24 1072.85 C 1381.03 1079.59 1372.82 1076.48 1368 1075.99 C 1357.95 1074.97 1348.34 1073.92 1338.25 1073.31 C 1333.01 1066.99 1324.7 1055.75 1319.64 1048.77 C 1317.11 1046.71 1313.22 1041.66 1311.31 1039 z" fill="rgb(34,211,238)" transform="translate(0,0)"></path>
<path d="M 1102.27 745.592 L 1124.04 756.764 C 1123.53 758.892 1122.96 760.894 1122.42 762.991 L 1121.06 768.336 C 1116.69 786.143 1109.94 804.278 1105.52 821.754 L 1104.2 826.987 C 1102.51 831.32 1101.2 837.007 1099.6 841.811 L 1099.24 842.913 C 1099.75 811.44 1101.17 777.305 1102.27 745.592 z" fill="rgb(24,74,87)" transform="translate(0,0)"></path>
<path d="M 995.876 435.477 C 997.419 440.574 996.607 445.866 996.803 451.246 C 997.796 478.529 993.824 487.042 1005 512.778 C 1000.62 510.245 998.632 509.01 994.567 505.946 C 974.663 485.39 970.985 456.944 994.084 437.052 L 995.876 435.477 z" fill="rgb(217,160,102)" transform="translate(0,0)"></path>
<path d="M 1044.6 1147.48 C 1042.54 1147.06 1040.49 1146.58 1038.46 1146.05 C 1029.92 1143.77 1018.65 1137.05 1022.22 1126.78 C 1027.01 1123.04 1070.66 1103.75 1077.29 1101.67 C 1099.59 1094.65 1131.42 1095.11 1154.82 1089.18 L 1155.33 1087.79 C 1151.45 1086.86 1080.97 1096.65 1075.1 1099.02 C 1055.33 1107.01 1029.51 1122.25 1007.52 1127.19 C 991.512 1130.44 979.22 1114 997.522 1104.4 C 1019.63 1092.8 1042.38 1081.76 1065.35 1071.98 C 1076.39 1067.29 1131.98 1063.19 1137.82 1057.01 C 1131.64 1055.22 1066.13 1068.82 1056.45 1072.61 C 1044.79 1077.18 993.153 1106.44 984.099 1104.42 C 930.2 1092.38 1041.77 1050.8 1052.44 1046.09 C 1062.07 1041.78 1113.61 1037.16 1121.3 1031.79 L 1120.3 1030.34 C 1112.01 1029.45 1079.38 1039.79 1068 1040.02 C 1040.9 1040.37 1021.09 1063.04 997.106 1064.85 C 985.131 1065.75 975.626 1050.67 992.315 1041.25 C 1031.56 1019.11 1089.35 1011.73 1133.33 1009.76 C 1138.07 1009.54 1197.35 1027.96 1208.48 1030.68 C 1234.56 1037.57 1284.61 1052.39 1309.86 1056.76 C 1311.67 1060.4 1311.89 1061.31 1315.01 1064.08 C 1322.34 1074.33 1324.55 1080.28 1335.54 1085.1 C 1340.97 1095.94 1322.54 1122.07 1314.05 1128.69 C 1296.78 1140.84 1280.21 1146.74 1258.88 1147.72 C 1245.89 1147.59 1234.23 1145.3 1221.49 1143.15 C 1219.22 1141.96 1193.61 1136.57 1189.68 1135.71 C 1169.67 1128.7 1115.93 1123.64 1095.05 1128.17 C 1081.92 1131.02 1059.74 1143.09 1044.6 1147.48 z" fill="rgb(217,160,102)" transform="translate(0,0)"></path>
<path d="M 1046.62 717.759 L 1048.5 719.046 L 1050.57 718.573 C 1059.2 716.659 1061.59 720.297 1069.83 725.277 C 1076.58 729.354 1078.09 730.686 1085.58 734.135 L 1079.7 859.354 C 1078.51 883.781 1078.46 919.63 1072.41 941.943 C 1069.33 937.626 1065.4 931.345 1061.39 928.238 L 1059.13 928.555 C 1064.23 935.276 1067.24 940.346 1071.57 947.63 C 1076.21 959.73 1104.32 999.818 1103.09 1008.57 C 1097.18 1010.94 1093.8 1009.32 1091.44 1003.41 C 1086.16 990.222 1076.92 977.62 1070.45 965.379 C 1060.18 945.935 1057.29 928.434 1031.06 926.727 C 1013.83 925.377 997.059 926.023 979.932 926.029 L 882.723 926.078 L 761.547 925.949 L 662.018 925.964 C 636.949 925.932 614.604 922.356 592.051 934.529 C 596.932 930.149 605.29 922.469 611.625 921.324 C 629.646 918.066 653.844 919.221 672.448 919.212 C 702.919 919.104 733.391 919.185 763.862 919.454 C 800.759 919.401 840.856 918.558 877.492 919.55 L 878.752 919.096 L 879.46 917.207 C 885.537 912.387 886.653 904.689 893.149 897.259 C 892.576 892.238 940.468 795.177 945.125 783.268 C 948.379 774.947 957.283 757.931 960.781 748.278 C 961.526 746.223 970.956 737.638 973.452 736.998 C 978.913 735.528 980.816 734.587 985.943 732.095 C 987.588 731.209 1044.25 717.808 1046.62 717.759 z" fill="rgb(24,74,87)" transform="translate(0,0)"></path>
<path d="M 985.943 732.095 C 986.342 733.273 990.903 806.239 990.435 809.472 C 985.716 842.135 979.979 885.05 972.068 916.974 C 986.079 916.843 1050.04 912.415 1055.69 925.69 L 1059.13 928.555 C 1064.23 935.276 1067.24 940.346 1071.57 947.63 C 1076.21 959.73 1104.32 999.818 1103.09 1008.57 C 1097.18 1010.94 1093.8 1009.32 1091.44 1003.41 C 1086.16 990.222 1076.92 977.62 1070.45 965.379 C 1060.18 945.935 1057.29 928.434 1031.06 926.727 C 1013.83 925.377 997.059 926.023 979.932 926.029 L 882.723 926.078 L 761.547 925.949 L 662.018 925.964 C 636.949 925.932 614.604 922.356 592.051 934.529 C 596.932 930.149 605.29 922.469 611.625 921.324 C 629.646 918.066 653.844 919.221 672.448 919.212 C 702.919 919.104 733.391 919.185 763.862 919.454 C 800.759 919.401 840.856 918.558 877.492 919.55 L 878.752 919.096 L 879.46 917.207 C 885.537 912.387 886.653 904.689 893.149 897.259 C 892.576 892.238 940.468 795.177 945.125 783.268 C 948.379 774.947 957.283 757.931 960.781 748.278 C 961.526 746.223 970.956 737.638 973.452 736.998 C 978.913 735.528 980.816 734.587 985.943 732.095 z" fill="rgb(24,74,87)" transform="translate(0,0)"></path>
<path d="M 878.752 919.096 L 982.822 919.053 C 1005.05 919.047 1036.19 915.977 1055.69 925.69 L 1059.13 928.555 C 1064.23 935.276 1067.24 940.346 1071.57 947.63 C 1076.21 959.73 1104.32 999.818 1103.09 1008.57 C 1097.18 1010.94 1093.8 1009.32 1091.44 1003.41 C 1086.16 990.222 1076.92 977.62 1070.45 965.379 C 1060.18 945.935 1057.29 928.434 1031.06 926.727 C 1013.83 925.377 997.059 926.023 979.932 926.029 L 882.723 926.078 L 761.547 925.949 L 662.018 925.964 C 636.949 925.932 614.604 922.356 592.051 934.529 C 596.932 930.149 605.29 922.469 611.625 921.324 C 629.646 918.066 653.844 919.221 672.448 919.212 C 702.919 919.104 733.391 919.185 763.862 919.454 C 800.759 919.401 840.856 918.558 877.492 919.55 L 878.752 919.096 z" fill="rgb(245,158,11)" transform="translate(0,0)"></path>
<path d="M 985.943 732.095 C 986.342 733.273 990.903 806.239 990.435 809.472 C 985.716 842.135 979.979 885.05 972.068 916.974 C 986.079 916.843 1050.04 912.415 1055.69 925.69 C 1036.19 915.977 1005.05 919.047 982.822 919.053 L 878.752 919.096 L 879.46 917.207 C 885.537 912.387 886.653 904.689 893.149 897.259 C 894.115 902.161 888.893 911.999 886.693 916.878 L 969.849 916.923 C 972.869 895.174 977.154 868.113 981.713 846.552 C 990.331 805.787 987.324 779.921 981.66 739.061 C 979.418 736.807 977.552 737.436 973.452 736.998 C 978.913 735.528 980.816 734.587 985.943 732.095 z" fill="rgb(15,27,45)" transform="translate(0,0)"></path>
<path d="M 1176.14 727.907 C 1197.3 731.554 1229.61 731.4 1251.08 728.716 C 1259.35 727.681 1283.05 714.72 1293.52 710.238 C 1295.11 710.715 1297.95 711.464 1299.38 712.052 C 1297.47 712.994 1296.61 713.659 1294.61 714.057 C 1285.95 715.037 1268.27 722.213 1262.97 729.441 C 1258.46 735.579 1191.67 993.53 1185.09 1021.64 C 1190.73 1023.14 1203.17 1026.1 1208.06 1028.06 L 1208.48 1030.68 C 1197.35 1027.96 1138.07 1009.54 1133.33 1009.76 C 1089.35 1011.73 1031.56 1019.11 992.315 1041.25 C 975.626 1050.67 985.131 1065.75 997.106 1064.85 C 1021.09 1063.04 1040.9 1040.37 1068 1040.02 C 1079.38 1039.79 1112.01 1029.45 1120.3 1030.34 L 1121.3 1031.79 C 1113.61 1037.16 1062.07 1041.78 1052.44 1046.09 C 1041.77 1050.8 930.2 1092.38 984.099 1104.42 C 993.153 1106.44 1044.79 1077.18 1056.45 1072.61 C 1066.13 1068.82 1131.64 1055.22 1137.82 1057.01 C 1131.98 1063.19 1076.39 1067.29 1065.35 1071.98 C 1042.38 1081.76 1019.63 1092.8 997.522 1104.4 C 979.22 1114 991.512 1130.44 1007.52 1127.19 C 1029.51 1122.25 1055.33 1107.01 1075.1 1099.02 C 1080.97 1096.65 1151.45 1086.86 1155.33 1087.79 L 1154.82 1089.18 C 1131.42 1095.11 1099.59 1094.65 1077.29 1101.67 C 1070.66 1103.75 1027.01 1123.04 1022.22 1126.78 C 1018.65 1137.05 1029.92 1143.77 1038.46 1146.05 C 1040.49 1146.58 1042.54 1147.06 1044.6 1147.48 C 1059.74 1143.09 1081.92 1131.02 1095.05 1128.17 C 1115.93 1123.64 1169.67 1128.7 1189.68 1135.71 C 1187.64 1138.02 1187.67 1137.8 1187.12 1140.81 L 1186.45 1140.59 L 1185.71 1138.53 C 1174.12 1132.11 1112.21 1126.32 1096.89 1130.05 C 1083.64 1133.28 1058.77 1147.93 1044.1 1148.59 C 1025.36 1153.16 1021.09 1131.73 1016.97 1129.84 C 1005.85 1124.72 985.88 1142.89 986.096 1108.34 C 980.734 1104.09 973.479 1106.02 970.065 1101.65 C 956.491 1084.29 985.933 1074.23 998.161 1068.55 C 989.25 1065.92 972.977 1059.77 982.117 1046.25 C 987.416 1038.42 1008.26 1030.31 1017.72 1026.54 C 1040.58 1017.44 1068.57 1014.87 1093.14 1010.78 C 1081.54 992.956 1071.04 970.511 1060.45 951.91 C 1056.74 945.393 1049.99 932.935 1042.2 931.406 C 1017.09 926.481 984.523 928.231 958.606 928.242 L 833.516 928.387 L 691.057 928.353 C 669.044 928.354 623.233 925.415 601.271 932.558 C 589.871 936.266 593.338 948.453 598.757 957.542 C 622.503 965.148 642.523 971.344 667.34 972.665 C 676.984 974.396 692.957 974.546 698.588 983.514 C 705.768 994.948 705.662 1001.69 694.657 1010.04 C 694.911 1013.71 744.356 1022.47 706.874 1050.54 L 707.118 1052.65 C 712.465 1057.04 717.465 1060.78 718.449 1068.14 C 719.004 1072.09 717.889 1076.08 715.372 1079.17 C 705.167 1091.76 679.819 1084.27 673.057 1092.61 L 674.937 1098.17 L 673.586 1098.1 L 665.001 1092.55 C 658.14 1092.21 651.383 1092.96 644.337 1092.59 C 630.37 1091.86 616.457 1086.94 603.222 1083.24 C 575.98 1075.63 568.589 1065.44 569.875 1036.72 C 564.746 1032.07 560.286 1027.23 555.532 1022.22 C 555.453 1016.8 555.318 1010.24 556.645 1005 C 560.023 991.652 559.064 990.423 550.798 981.409 L 550.929 965.689 C 565.936 947.566 560.326 954.513 581.323 944.581 C 592.872 939.119 590.023 924.841 609.821 917.877 C 625.599 912.326 666.784 920.719 675.64 913.464 C 678.15 908.88 677.119 903.571 677.648 898.346 C 679.592 879.144 701.685 881.054 715.962 883.314 C 724.129 889.931 756.591 915.198 764.586 915.888 C 795.9 918.587 846.842 913.578 877.442 916.973 L 879.46 917.207 L 878.752 919.096 L 877.492 919.55 C 840.856 918.558 800.759 919.401 763.862 919.454 C 733.391 919.185 702.919 919.104 672.448 919.212 C 653.844 919.221 629.646 918.066 611.625 921.324 C 605.29 922.469 596.932 930.149 592.051 934.529 C 614.604 922.356 636.949 925.932 662.018 925.964 L 761.547 925.949 L 882.723 926.078 L 979.932 926.029 C 997.059 926.023 1013.83 925.377 1031.06 926.727 C 1057.29 928.434 1060.18 945.935 1070.45 965.379 C 1076.92 977.62 1086.16 990.222 1091.44 1003.41 C 1093.8 1009.32 1097.18 1010.94 1103.09 1008.57 C 1104.32 999.818 1076.21 959.73 1071.57 947.63 L 1074.07 945.435 C 1075.73 950.876 1087.58 969.633 1091.19 975.534 L 1159.17 728.205 L 1161.41 728.301 C 1153.75 766.631 1137.86 816.919 1127.32 855.529 C 1116.7 894.447 1105.39 941.223 1093.08 979.099 C 1096.48 987.054 1104.33 999.93 1108.9 1008.03 C 1139.73 1002.3 1152.65 1013.95 1182.34 1020.83 C 1201.05 946.943 1220.33 873.202 1240.17 799.614 C 1246.18 776.913 1251.5 752.514 1257.72 730.267 C 1229.27 734.31 1200.39 734.09 1172.01 729.614 L 1176.14 727.907 z" fill="rgb(95,54,29)" fill-opacity="0.988235" transform="translate(0,0)"></path>
<path d="M 583.921 947.943 C 591.215 946.544 592.881 953.613 595.936 959.55 C 608.471 964.125 631.333 970.89 644.182 973.16 C 663.307 976.538 715.603 971.458 695.135 1007.7 C 685.643 1012.87 683.496 1012.81 673.049 1013.13 C 667.577 1013.79 647.312 1014.84 641.892 1013.68 C 618.1 1008.48 594.14 1000.52 571.088 992.652 C 561.055 989.226 548.314 977.536 555.296 965.999 C 562.897 953.44 570.725 951.292 583.921 947.943 z" fill="rgb(217,160,102)" transform="translate(0,0)"></path>
<path d="M 566.901 993.92 C 579.108 999.601 634.947 1016.39 648.859 1016.73 C 664.53 1017.41 682.794 1013.15 698.16 1015.53 C 718.053 1018.6 723.76 1037.54 704.502 1049.01 C 692.395 1053.1 673.465 1051.36 660.73 1053.21 C 636.883 1056.66 619.391 1048.53 597.216 1042.32 C 573.661 1035.72 543.15 1021.73 566.901 993.92 z" fill="rgb(217,160,102)" transform="translate(0,0)"></path>
<path d="M 574.363 1037.05 C 586.661 1041.31 627.113 1055.74 638.493 1056.78 C 661.276 1057.81 689.725 1048.36 710.626 1058.92 C 719.733 1063.52 715.546 1074.27 709.904 1080.65 C 706.424 1082.48 703.02 1083.9 699.159 1084.45 C 665.518 1089.28 641.391 1094.54 608.792 1081.39 C 597.332 1076.76 592.379 1076.48 581.077 1069.06 C 574.063 1057.94 574.45 1049.62 574.363 1037.05 z" fill="rgb(217,160,102)" transform="translate(0,0)"></path>
<path d="M 700.034 885.166 L 702.149 885.196 C 715.063 885.317 716.669 889.882 726.623 896.601 C 736.428 903.219 746.049 910.337 755.905 916.83 C 749.46 916.814 743.015 916.748 736.571 916.629 L 684.994 916.621 C 679.812 902.02 676.082 889.197 697.653 885.631 L 700.034 885.166 z" fill="rgb(217,160,102)" transform="translate(0,0)"></path>
<path d="M 1161.41 728.301 C 1166.37 728.23 1167.1 728.464 1172.01 729.614 C 1200.39 734.09 1229.27 734.31 1257.72 730.267 C 1251.5 752.514 1246.18 776.913 1240.17 799.614 C 1220.33 873.202 1201.05 946.943 1182.34 1020.83 C 1152.65 1013.95 1139.73 1002.3 1108.9 1008.03 C 1104.33 999.93 1096.48 987.054 1093.08 979.099 C 1105.39 941.223 1116.7 894.447 1127.32 855.529 C 1137.86 816.919 1153.75 766.631 1161.41 728.301 z" fill="rgb(245,200,169)" transform="translate(0,0)"></path>
<path d="M 1248.88 2080.44 C 1257.15 2099.78 1260.64 2106.1 1259.95 2127.35 C 1259.91 2127.75 1259.66 2146.72 1260.54 2145.21 C 1260.03 2145.22 1260.06 2145.1 1259.52 2144.62 C 1257.32 2146.61 1258.67 2156.29 1259 2158.88 C 1259.9 2166.16 1256.39 2161.98 1261.9 2168.61 C 1263.13 2168.38 1262.98 2168.28 1264.29 2167.34 C 1265.83 2178.72 1265.21 2184.65 1264.45 2196.27 C 1257.51 2204.52 1253.97 2209.9 1243.97 2215.17 C 1214.74 2230.56 1183.27 2228.51 1151.65 2228.42 L 1069.27 2228.28 L 912.134 2228.36 C 868.03 2228.36 786.489 2242.25 787.017 2179.58 C 792.19 2171.39 795.427 2168.62 802.426 2162.13 C 805.02 2162.04 805.573 2161.74 808.322 2161.07 L 809.971 2162.72 C 805.587 2165.79 803.333 2167.56 799.364 2171.15 C 820.23 2191.03 840.301 2186.13 867.051 2185.79 C 887.612 2185.6 908.173 2185.59 928.734 2185.76 C 957.863 2185.89 1196.2 2187.49 1201.16 2183.73 C 1204.64 2182.61 1210.59 2182.28 1213.42 2181.74 C 1221.3 2180.24 1249.38 2169.51 1252.12 2162.33 C 1255.22 2154.19 1252.91 2119.03 1251.33 2109.08 C 1250.7 2105.06 1245.63 2093.75 1243.99 2090.05 C 1244.8 2090.64 1246.56 2092.06 1247.3 2092.47 C 1248.62 2091.01 1248.74 2082.38 1248.88 2080.44 z M 1247.27 2173.07 C 1244.89 2174.43 1242.71 2175.66 1240.29 2176.95 C 1242.31 2178.5 1245.24 2182.54 1246.21 2182.59 C 1254.42 2182.99 1249.36 2175.49 1247.27 2173.07 z" fill="rgb(67,65,65)" fill-opacity="0.596078" transform="translate(0,0)"></path>
<path d="M 1247.27 2173.07 L 1258.84 2166.2 C 1277.14 2228.69 1187.79 2223.84 1150.05 2223.96 C 1136.21 2224.01 1122.31 2223.94 1108.46 2223.92 L 987.031 2223.71 L 892.87 2224.04 C 871.994 2224.1 849.626 2225.2 829.067 2222.28 C 802.315 2218.47 781.606 2198.95 798.251 2172.04 C 807.459 2182.95 814.622 2186.93 829.446 2187.64 C 850.51 2188.66 872.862 2188.23 893.979 2188.2 L 1011.48 2188.04 L 1131.45 2188.09 C 1167.11 2188.11 1207.42 2191.93 1240.29 2176.95 C 1242.31 2178.5 1245.24 2182.54 1246.21 2182.59 C 1254.42 2182.99 1249.36 2175.49 1247.27 2173.07 z" fill="rgb(34,211,238)" transform="translate(0,0)"></path>
<path d="M 1240.29 2176.95 C 1242.71 2175.66 1244.89 2174.43 1247.27 2173.07 C 1249.36 2175.49 1254.42 2182.99 1246.21 2182.59 C 1245.24 2182.54 1242.31 2178.5 1240.29 2176.95 z" fill="rgb(9,245,253)" fill-opacity="0.756863" transform="translate(0,0)"></path>
<path d="M 1439.32 2154.08 C 1443.85 2155.19 1444.43 2163.52 1445.27 2167.38 C 1446.66 2168.94 1449.39 2172 1451.32 2172.23 C 1467.17 2174.08 1487.14 2180.07 1501.92 2182.36 C 1518.48 2184.92 1528.95 2182.75 1545.71 2188.25 L 1546.09 2189.26 C 1566.03 2191.48 1599.21 2194.4 1617.98 2191.41 C 1673.06 2182.63 1724.71 2158.82 1781.56 2165.14 C 1788.23 2165.89 1793.19 2153.83 1798.98 2161.21 C 1805.67 2173.68 1804.78 2191.58 1805.15 2204.88 C 1795.95 2218.9 1776.66 2228.07 1759.93 2228.28 C 1726.82 2228.35 1692.88 2228.71 1659.86 2228.38 C 1616.92 2227.94 1575.94 2231.12 1533.64 2222.15 C 1516.71 2218.56 1498.33 2218.74 1480.97 2213.66 C 1465.11 2209.03 1444.72 2208.46 1431.3 2197.03 C 1424.54 2191.07 1438.09 2163.86 1439.32 2154.08 z" fill="rgb(15,27,45)" fill-opacity="0.690196" transform="translate(0,0)"></path>
<path d="M 1735.41 2168.68 C 1755.01 2166.95 1808.23 2163.54 1803.11 2194.88 C 1795.06 2228.5 1752.14 2224.39 1725.69 2224.21 C 1648.01 2223.71 1572.61 2228.28 1495.95 2212.81 C 1483.29 2211.08 1444.76 2202.98 1435.95 2195.47 C 1432.91 2188.48 1436.94 2180.49 1439.46 2173.13 C 1476.81 2185.67 1584.8 2201.26 1622.85 2193.96 C 1654.83 2187.82 1699.95 2174.7 1735.41 2168.68 z" fill="rgb(34,211,238)" transform="translate(0,0)"></path>
<path d="M 1082.93 2010.81 C 1086.33 2020.52 1091.04 2032 1089.98 2042.49 C 1089.87 2043.59 1089.5 2046.82 1089.57 2047.64 L 1087.34 2055.02 C 1092.04 2057.01 1100.75 2056.05 1106.11 2056.77 C 1140.18 2061.29 1160 2075.55 1157.35 2112.09 C 1178.21 2112.46 1188.62 2113.19 1204.58 2098.06 C 1210.98 2094.58 1214.46 2084.5 1217.49 2077.74 C 1218.24 2090.24 1210.92 2097.3 1204.06 2107.59 C 1185.04 2116.57 1175.45 2116.99 1154.35 2116.71 C 1152.18 2102.74 1153.95 2084.31 1141.18 2075.25 C 1101.47 2047.1 1071.61 2062.45 1037.87 2084.72 L 1036.05 2083.92 C 1031.79 2081.96 1029.72 2085.38 1027.58 2088.67 L 1025.8 2089.67 C 1023.95 2090.69 1009.49 2096.31 1008.05 2097.79 C 1008.39 2097.64 1008.72 2097.48 1009.06 2097.33 L 1009.69 2098.47 C 1013.36 2099.31 1021.87 2095.71 1027.38 2094.87 C 1020.07 2100.33 946.47 2127.96 936.638 2128.71 C 942.697 2124.03 947.793 2123.89 954.704 2120.64 C 955.014 2120.11 954.984 2120.37 954.89 2119.86 C 954.112 2119.43 949.5 2119.34 948.088 2119.22 C 943.27 2118.8 943.668 2122.37 940.479 2123.67 C 936.086 2125.45 932.778 2124.52 928.45 2126.34 C 937.453 2118.11 1002.99 2098.29 1018 2090.28 C 1031.51 2083.08 1037.01 2073.39 1050.68 2064.74 C 1058.17 2058.03 1073.86 2059.08 1081.1 2052.91 C 1092.91 2042.84 1081.15 2024.62 1082.93 2010.81 z" fill="rgb(67,65,65)" fill-opacity="0.52549" transform="translate(0,0)"></path>
<path d="M 1592.52 1915.1 C 1597.5 1924.37 1597.16 2012.24 1598.35 2028.91 C 1598.85 2035.95 1600.28 2042.67 1601.75 2049.9 C 1607.08 2051.32 1630.64 2061.95 1634.33 2065.28 C 1632.91 2068.66 1629.67 2070.7 1626.12 2071.11 C 1613.85 2058.27 1591.56 2057.18 1574.51 2057.57 C 1562.98 2057.83 1553.73 2062.24 1543.11 2063.3 C 1533.43 2071.95 1524.09 2072.65 1517.59 2084.14 C 1506 2104.65 1504.7 2121.3 1480.79 2098.35 C 1481.45 2092.18 1482.62 2086.65 1478.09 2081.57 C 1472.93 2081.94 1472.64 2084.94 1471.1 2089.49 C 1461.15 2089.03 1474.87 2077.62 1475.8 2073.37 C 1475.69 2073.2 1475.58 2073.02 1475.48 2072.84 C 1474.15 2072.61 1473.31 2072.47 1472.05 2072.02 C 1473.2 2047.64 1446.08 2006.95 1447.57 1990.98 C 1450.8 1999.01 1468.84 2048.08 1472.31 2051.92 C 1474.31 2054.93 1475.12 2057.54 1476.66 2060.77 C 1487.62 2083.68 1475.27 2095.8 1502.17 2105.93 C 1512.02 2061.98 1555.61 2051.33 1594.54 2052.99 C 1594.67 2043.16 1593.6 2033.62 1594 2023.7 C 1600.33 1999.94 1589.35 1939.07 1592.52 1915.1 z" fill="rgb(72,70,70)" fill-opacity="0.733333" transform="translate(0,0)"></path>
<path d="M 1720.89 2122.07 C 1725.5 2122.93 1758.66 2136.91 1760.93 2140.29 C 1754.02 2138.57 1732.19 2128.45 1728.22 2128.69 L 1726.8 2130.09 C 1728.29 2137.89 1735.5 2136.99 1741.69 2140.45 C 1749 2144.55 1750.29 2146.51 1758.57 2147.1 C 1759.01 2147.1 1771.18 2147.62 1766.78 2144.43 C 1765.08 2143.02 1763.7 2141.81 1761.87 2140.55 C 1768.63 2139.72 1771.47 2143.62 1777.36 2146.41 C 1785.13 2150.05 1793.16 2153.13 1801.37 2155.61 C 1805.02 2169.26 1811.71 2191.47 1805.15 2204.88 C 1804.78 2191.58 1805.67 2173.68 1798.98 2161.21 C 1793.19 2153.83 1788.23 2165.89 1781.56 2165.14 C 1724.71 2158.82 1673.06 2182.63 1617.98 2191.41 C 1599.21 2194.4 1566.03 2191.48 1546.09 2189.26 L 1545.71 2188.25 C 1568.14 2186.49 1601.21 2192.42 1621.54 2188.33 C 1655.63 2181.47 1691.88 2170.22 1726.36 2162.91 C 1738.58 2160.32 1756.4 2160.71 1765.87 2157.96 C 1765.99 2156.9 1765.81 2151.28 1764.56 2150.92 C 1746.98 2145.84 1733.17 2145.28 1720.39 2130.05 L 1722.76 2128.46 C 1727.46 2126.14 1723.52 2124.38 1720.63 2122.63 L 1720.89 2122.07 z" fill="rgb(255,255,255)" fill-opacity="0.160784" transform="translate(0,0)"></path>
<path d="M 858.631 2149.08 C 850.642 2166.05 834.176 2151.1 825.757 2162.04 C 822.276 2166.57 812.255 2165.79 807.087 2166.68 C 807.029 2171.06 806.682 2171.54 808.653 2175.52 C 818.731 2185.34 932.685 2183.19 954.387 2183.13 L 1141.91 2183.52 C 1154.55 2183.51 1190.62 2182.59 1201.16 2183.73 C 1196.2 2187.49 957.863 2185.89 928.734 2185.76 C 908.173 2185.59 887.612 2185.6 867.051 2185.79 C 840.301 2186.13 820.23 2191.03 799.364 2171.15 C 803.333 2167.56 805.587 2165.79 809.971 2162.72 C 813.649 2161.61 816.344 2160.34 819.837 2158.76 C 826.987 2157.38 834.331 2154.33 842.052 2152.54 C 847.653 2151.21 853.002 2150.23 858.631 2149.08 z" fill="rgb(255,255,255)" fill-opacity="0.580392" transform="translate(0,0)"></path>
<path d="M 1634.33 2065.28 C 1638.73 2070.11 1641.86 2070.24 1644.33 2076.95 C 1644.72 2078.01 1649.39 2082.65 1651.37 2085.72 C 1656.92 2092.25 1668.74 2094.73 1676.79 2098.46 C 1682.02 2100.89 1685.58 2103.17 1690.33 2106.06 C 1696.27 2109.66 1701.4 2109.92 1707.22 2115.64 C 1709.22 2117.6 1714.85 2118.11 1719.23 2121.02 C 1719.78 2121.38 1720.33 2121.73 1720.89 2122.07 L 1720.63 2122.63 C 1716.97 2121.23 1713.41 2120.08 1709.63 2119.04 C 1707.47 2118.21 1705.84 2116.43 1703.48 2117.28 C 1699.56 2118.7 1697.9 2116.54 1693.97 2115.48 L 1689.6 2114.31 C 1682.9 2108.15 1676.97 2109.38 1669.06 2103.57 C 1664.19 2100 1654.91 2099.78 1649.46 2095.57 C 1646.89 2093.59 1635.51 2079.24 1633.51 2076.44 C 1628.46 2069.37 1631.24 2074.64 1626.12 2071.11 C 1629.67 2070.7 1632.91 2068.66 1634.33 2065.28 z" fill="rgb(72,70,70)" fill-opacity="0.505882" transform="translate(0,0)"></path>
<path d="M 928.45 2126.34 C 932.778 2124.52 936.086 2125.45 940.479 2123.67 C 943.668 2122.37 943.27 2118.8 948.088 2119.22 C 949.5 2119.34 954.112 2119.43 954.89 2119.86 C 954.984 2120.37 955.014 2120.11 954.704 2120.64 C 947.793 2123.89 942.697 2124.03 936.638 2128.71 C 930.607 2128.22 929.806 2135.79 919.12 2137.2 C 912.398 2138.09 904.382 2137.74 900.195 2142.31 C 897.043 2146.17 888.453 2147.3 883.476 2147.73 C 885.489 2146.91 907.965 2138.28 892.405 2140.62 C 887.229 2141.4 882.059 2143.71 876.63 2142.88 L 876.591 2142.75 C 876.972 2142.39 877.353 2142.02 877.735 2141.65 L 877.608 2141.35 C 875.725 2140.62 870.389 2141.17 867.461 2140.84 C 881.161 2138.63 889.857 2137.67 901.849 2131.84 C 907.651 2129.01 922.355 2126.59 928.45 2126.34 z" fill="rgb(72,70,70)" fill-opacity="0.466667" transform="translate(0,0)"></path>
<path d="M 1459.74 2091.55 C 1463.81 2098.97 1463.41 2099.6 1463.91 2107.75 C 1455.78 2120.08 1453.81 2140.62 1448.57 2154.53 C 1442.56 2151.7 1449.73 2150.48 1442.29 2147.35 C 1444.04 2137.54 1455.3 2100.72 1459.74 2091.55 z" fill="rgb(67,65,65)" fill-opacity="0.635294" transform="translate(0,0)"></path>
<path d="M 867.461 2140.84 C 870.389 2141.17 875.725 2140.62 877.608 2141.35 L 877.735 2141.65 C 877.353 2142.02 876.972 2142.39 876.591 2142.75 L 876.63 2142.88 C 882.059 2143.71 887.229 2141.4 892.405 2140.62 C 907.965 2138.28 885.489 2146.91 883.476 2147.73 C 878.041 2148.23 872.236 2149.05 866.794 2149.77 C 861.981 2154.45 859.338 2158.15 852.011 2159.15 C 848.504 2159.62 847.28 2160.77 844.542 2162.73 C 838.593 2166.98 834.582 2159.59 828.065 2165.23 C 824.951 2167.92 811.232 2166.93 807.087 2166.68 C 812.255 2165.79 822.276 2166.57 825.757 2162.04 C 834.176 2151.1 850.642 2166.05 858.631 2149.08 C 859.906 2148.48 864.414 2147.19 864.872 2146.38 C 863.881 2145.42 859.114 2146.28 858.998 2144.95 C 859.617 2143.71 865.959 2141.46 867.461 2140.84 z" fill="rgb(93,92,91)" fill-opacity="0.580392" transform="translate(0,0)"></path>
<path d="M 1453.97 415.837 C 1454.4 412.641 1455.43 402.984 1456.78 400.361 C 1457.56 405.685 1455.73 405.559 1457.6 411.646 C 1457.6 411.649 1458.98 414.197 1459.06 414.467 C 1461.29 421.741 1471.98 414.89 1477.27 420.448 C 1478.21 421.437 1485.01 423.388 1486.19 425.174 C 1489.32 427.596 1489.69 427.022 1492.84 430.384 L 1494.02 431.617 C 1496.03 433.757 1500.19 437.814 1500.44 440.711 L 1499.24 444.743 C 1498.31 443.527 1497.66 442.615 1496.85 441.353 C 1480.36 415.527 1438.89 411.355 1416.2 431.349 C 1416.48 431.106 1407.25 438.429 1411.16 432.639 C 1417.5 423.228 1433.33 419.149 1443.27 416.655 C 1446.98 416.628 1450.26 416.156 1453.97 415.837 z" fill="rgb(95,54,29)" fill-opacity="0.984314" transform="translate(0,0)"></path>
<path d="M 1758.57 2147.1 C 1750.29 2146.51 1749 2144.55 1741.69 2140.45 C 1735.5 2136.99 1728.29 2137.89 1726.8 2130.09 L 1728.22 2128.69 C 1732.19 2128.45 1754.02 2138.57 1760.93 2140.29 L 1761.87 2140.55 C 1763.7 2141.81 1765.08 2143.02 1766.78 2144.43 C 1761.38 2144.16 1759.33 2141.83 1758.57 2147.1 z" fill="rgb(72,70,70)" fill-opacity="0.72549" transform="translate(0,0)"></path>
<path d="M 1243.99 2090.05 C 1242.19 2080.24 1243.34 2084.11 1235.67 2080.6 C 1232.53 2078.57 1231.21 2074 1233.98 2071.3 C 1239.23 2066.2 1245.97 2077.6 1248.88 2080.44 C 1248.74 2082.38 1248.62 2091.01 1247.3 2092.47 C 1246.56 2092.06 1244.8 2090.64 1243.99 2090.05 z" fill="rgb(72,70,70)" fill-opacity="0.658824" transform="translate(0,0)"></path>
<path d="M 818.99 2154.47 C 825.419 2149.29 839.018 2147.26 847.286 2146.09 C 857.345 2144.66 857.027 2141.01 867.461 2140.84 C 865.959 2141.46 859.617 2143.71 858.998 2144.95 C 859.114 2146.28 863.881 2145.42 864.872 2146.38 C 864.414 2147.19 859.906 2148.48 858.631 2149.08 C 853.002 2150.23 847.653 2151.21 842.052 2152.54 C 840.338 2146.2 824.596 2153.33 818.99 2154.47 z" fill="rgb(67,65,65)" fill-opacity="0.364706" transform="translate(0,0)"></path>
<path d="M 1459.74 2091.55 C 1463.77 2088.88 1463.73 2076.96 1472.05 2072.02 C 1473.31 2072.47 1474.15 2072.61 1475.48 2072.84 C 1475.58 2073.02 1475.69 2073.2 1475.8 2073.37 C 1474.87 2077.62 1461.15 2089.03 1471.1 2089.49 C 1462.34 2099.11 1465.37 2084.91 1463.91 2107.75 C 1463.41 2099.6 1463.81 2098.97 1459.74 2091.55 z" fill="rgb(15,27,45)" fill-opacity="0.478431" transform="translate(0,0)"></path>
<path d="M 1259.95 2127.35 C 1263.37 2143.56 1263.59 2150.97 1264.29 2167.34 C 1262.98 2168.28 1263.13 2168.38 1261.9 2168.61 C 1256.39 2161.98 1259.9 2166.16 1259 2158.88 C 1258.67 2156.29 1257.32 2146.61 1259.52 2144.62 C 1260.06 2145.1 1260.03 2145.22 1260.54 2145.21 C 1259.66 2146.72 1259.91 2127.75 1259.95 2127.35 z" fill="rgb(67,65,65)" fill-opacity="0.4" transform="translate(0,0)"></path>
<path d="M 818.99 2154.47 C 824.596 2153.33 840.338 2146.2 842.052 2152.54 C 834.331 2154.33 826.987 2157.38 819.837 2158.76 C 815.036 2157.49 811.51 2156.27 808.322 2161.07 C 805.573 2161.74 805.02 2162.04 802.426 2162.13 C 813.665 2153.06 806.387 2157.47 818.99 2154.47 z" fill="rgb(93,92,91)" fill-opacity="0.545098" transform="translate(0,0)"></path>
<path d="M 1689.6 2114.31 L 1693.97 2115.48 C 1697.9 2116.54 1699.56 2118.7 1703.48 2117.28 C 1705.84 2116.43 1707.47 2118.21 1709.63 2119.04 L 1709.77 2120.61 C 1710.06 2124.63 1719.48 2127.06 1722.76 2128.46 L 1720.39 2130.05 C 1709.5 2128.66 1712.42 2127.84 1704.12 2122.56 C 1697.63 2118.44 1696.44 2120.14 1689.6 2114.31 z" fill="rgb(93,92,91)" fill-opacity="0.368627" transform="translate(0,0)"></path>
<path d="M 1027.38 2094.87 C 1021.87 2095.71 1013.36 2099.31 1009.69 2098.47 L 1009.06 2097.33 C 1008.72 2097.48 1008.39 2097.64 1008.05 2097.79 C 1009.49 2096.31 1023.95 2090.69 1025.8 2089.67 L 1027.58 2088.67 C 1029.31 2089.2 1030.56 2089.71 1032.27 2090.38 C 1030.27 2092.04 1029.24 2093.01 1027.38 2094.87 z" fill="rgb(67,65,65)" fill-opacity="0.54902" transform="translate(0,0)"></path>
<path d="M 1439.32 2154.08 C 1439.67 2152.16 1439.89 2150.88 1441.05 2149.23 L 1442.29 2147.35 C 1449.73 2150.48 1442.56 2151.7 1448.57 2154.53 C 1444.63 2160.16 1446.03 2160.64 1445.27 2167.38 C 1444.43 2163.52 1443.85 2155.19 1439.32 2154.08 z" fill="rgb(15,27,45)" fill-opacity="0.509804" transform="translate(0,0)"></path>
<path d="M 1709.63 2119.04 C 1713.41 2120.08 1716.97 2121.23 1720.63 2122.63 C 1723.52 2124.38 1727.46 2126.14 1722.76 2128.46 C 1719.48 2127.06 1710.06 2124.63 1709.77 2120.61 L 1709.63 2119.04 z" fill="rgb(93,92,91)" fill-opacity="0.611765" transform="translate(0,0)"></path>
<path d="M 1027.58 2088.67 C 1029.72 2085.38 1031.79 2081.96 1036.05 2083.92 L 1037.87 2084.72 L 1036.86 2086.23 C 1035.47 2088.63 1035.09 2089.74 1032.27 2090.38 C 1030.56 2089.71 1029.31 2089.2 1027.58 2088.67 z" fill="rgb(67,65,65)" fill-opacity="0.690196" transform="translate(0,0)"></path>
<path d="M 808.322 2161.07 C 811.51 2156.27 815.036 2157.49 819.837 2158.76 C 816.344 2160.34 813.649 2161.61 809.971 2162.72 L 808.322 2161.07 z" fill="rgb(24,74,87)" transform="translate(0,0)"></path>
<path d="M 1766.78 2144.43 C 1771.18 2147.62 1759.01 2147.1 1758.57 2147.1 C 1759.33 2141.83 1761.38 2144.16 1766.78 2144.43 z" fill="rgb(72,70,70)" fill-opacity="0.639216" transform="translate(0,0)"></path>
<metadata><recraft-signature>{"signed_by": "recraft", "signature_b64": "DuJrqHIwLyAODNS/QJt7MRHpYbHMkDFdNxxLsFuJko0+UHh70YqsxCTouLu0xYSgIRgPxggY8IB+3+N81OG+AA==", "signing_algo": "Ed25519", "generation_timestamp": 1783920581, "identifier": "428c8ffd-73d2-42ee-b905-0dd19e9a609b"}</recraft-signature></metadata></svg>