<svg xmlns="http://www.w3.org/2000/svg" height="2432" preserveAspectRatio="none" style="display: block;" version="1.1" viewBox="0 0 2432 2432" width="1792">
<defs>
	<linearGradient gradientUnits="userSpaceOnUse" id="Gradient1" x1="1436.6" x2="1431.21" y1="2083.32" y2="2090.74">
		<stop class="stop0" offset="0" stop-color="rgb(254,254,253)" stop-opacity="0.054902"></stop>
		<stop class="stop1" offset="1" stop-color="rgb(254,254,253)" stop-opacity="0.109804"></stop>
	</linearGradient>
	<linearGradient gradientUnits="userSpaceOnUse" id="Gradient2" x1="1080.12" x2="1077.68" y1="2332.98" y2="2350.86">
		<stop class="stop0" offset="0" stop-color="rgb(255,254,255)" stop-opacity="0.741176"></stop>
		<stop class="stop1" offset="1" stop-color="rgb(255,255,254)" stop-opacity="0.831373"></stop>
	</linearGradient>
	<linearGradient gradientUnits="userSpaceOnUse" id="Gradient3" x1="1164.99" x2="1143.78" y1="2349.19" y2="2347.84">
		<stop class="stop0" offset="0" stop-color="rgb(255,255,254)" stop-opacity="0.431373"></stop>
		<stop class="stop1" offset="1" stop-color="rgb(255,255,254)" stop-opacity="0.517647"></stop>
	</linearGradient>
	<linearGradient gradientUnits="userSpaceOnUse" id="Gradient4" x1="1077.52" x2="1073.27" y1="2342.89" y2="2372.17">
		<stop class="stop0" offset="0" stop-color="rgb(255,255,255)" stop-opacity="0.545098"></stop>
		<stop class="stop1" offset="1" stop-color="rgb(254,254,254)" stop-opacity="0.639216"></stop>
	</linearGradient>
	<linearGradient gradientUnits="userSpaceOnUse" id="Gradient5" x1="1471.81" x2="1497.69" y1="1970.46" y2="2069.36">
		<stop class="stop0" offset="0" stop-color="rgb(255,255,255)" stop-opacity="0"></stop>
		<stop class="stop1" offset="1" stop-color="rgb(255,255,255)" stop-opacity="0.0588235"></stop>
	</linearGradient>
	<linearGradient gradientUnits="userSpaceOnUse" id="Gradient6" x1="1408.31" x2="1447.05" y1="2118.25" y2="2125.33">
		<stop class="stop0" offset="0" stop-color="rgb(255,254,254)" stop-opacity="0.0509804"></stop>
		<stop class="stop1" offset="1" stop-color="rgb(254,253,253)" stop-opacity="0.203922"></stop>
	</linearGradient>
	<linearGradient gradientUnits="userSpaceOnUse" id="Gradient7" x1="683.949" x2="686.82" y1="812.551" y2="797.195">
		<stop class="stop0" offset="0" stop-color="rgb(7,47,98)" stop-opacity="1"></stop>
		<stop class="stop1" offset="1" stop-color="rgb(4,8,16)" stop-opacity="1"></stop>
	</linearGradient>
	<linearGradient gradientUnits="userSpaceOnUse" id="Gradient8" x1="1252.76" x2="1238.59" y1="239.218" y2="195.096">
		<stop class="stop0" offset="0" stop-color="rgb(252,183,88)" stop-opacity="1"></stop>
		<stop class="stop1" offset="1" stop-color="rgb(171,126,80)" stop-opacity="1"></stop>
	</linearGradient>
	<linearGradient gradientUnits="userSpaceOnUse" id="Gradient9" x1="1214.51" x2="1227.39" y1="158.503" y2="196.643">
		<stop class="stop0" offset="0" stop-color="rgb(92,78,67)" stop-opacity="1"></stop>
		<stop class="stop1" offset="1" stop-color="rgb(169,123,78)" stop-opacity="1"></stop>
	</linearGradient>
</defs>
<path d="M 1011.34 35.9206 C 1047.23 23.9024 1063.23 19.0949 1102.61 26.8089 C 1110.28 28.3116 1128.44 30.8586 1135.45 30.6159 C 1145.47 29.6753 1148.71 30.7028 1158.46 33.0173 C 1173.39 30.5924 1187.69 49.6787 1197.88 53.6092 C 1233.56 67.3632 1249.55 72.1809 1271.77 104.956 C 1284.5 117.348 1304.02 149.127 1312.98 164.647 C 1326.1 187.401 1312.54 191.032 1343.14 199.609 C 1352.39 201.772 1365.88 217.97 1372.5 225.185 C 1373.3 233.69 1373.17 236.159 1378.48 242.823 C 1390.61 247.343 1394.67 247.018 1407.56 246.949 C 1427.89 245.893 1443.09 250.468 1463.38 252.292 C 1481.49 257.612 1510.48 263.768 1522.83 280.522 C 1534.27 291.5 1542.96 312.109 1544.22 327.887 L 1544.35 329.599 C 1546.49 331.165 1551.09 334.341 1552.84 335.98 L 1554.72 336.306 C 1560.49 337.279 1562.03 335.678 1566.76 338.944 L 1567.5 340.182 C 1594.81 347.79 1596.97 368.165 1612.78 383.663 C 1635.15 405.596 1599.52 416.291 1613.65 430.251 L 1615.2 431.763 C 1632.74 430.125 1707.16 467.372 1722.58 479.8 C 1796.06 539.025 1761.56 609.32 1737.59 681.347 L 1736.7 681.756 C 1735.02 685.861 1734.84 686.438 1733.81 690.455 C 1731.77 698.423 1728.41 705.278 1726.27 713.538 C 1721.09 733.511 1725.78 751.026 1728.8 770.743 C 1729.71 776.676 1728.16 785.516 1730.94 790.699 C 1736.32 802.135 1734.17 835.916 1739.73 844.532 C 1765.55 884.483 1803.44 918.063 1832.33 955.917 C 1839.36 965.124 1855.09 977.93 1850.18 990.039 C 1843.11 1008.52 1817.63 1031.14 1802.58 1042.84 C 1790.93 1051.32 1795.91 1067.01 1795.48 1080.55 C 1794.21 1120.21 1777.72 1155.68 1762.94 1191.63 L 1724.21 1285.53 L 1621.62 1535.08 C 1606.48 1571.53 1590.92 1608.01 1576.17 1644.65 C 1567.53 1666.09 1568.93 1678.97 1566.99 1701.55 C 1565.91 1714.77 1563.79 1727.86 1562.07 1741.01 C 1561.24 1748.99 1556.69 1756.85 1555.11 1764.54 C 1544.07 1818.36 1522.73 1869.53 1501.95 1920.2 C 1499.16 1926.99 1491.96 1951.15 1490.05 1954.47 C 1489.31 1955.16 1487.51 1956.82 1487.24 1957.74 C 1483.76 1969.38 1452.04 2040.75 1451.76 2048.72 C 1447.65 2054.33 1448.44 2056.56 1445.54 2062.28 C 1443.37 2067.6 1441.63 2075.51 1436.17 2078.66 C 1431.41 2081.41 1416.91 2077.7 1415.8 2082.28 C 1413.41 2086.84 1411.14 2091.1 1408.56 2095.55 C 1405.38 2102.74 1403.63 2110.3 1398.91 2117.84 C 1395.79 2122.81 1397.56 2126.03 1392.38 2132.39 C 1388.31 2140.11 1386.5 2148.48 1379.91 2151.15 C 1346.67 2167.34 1369.51 2210.41 1327.86 2202.76 C 1293.63 2196.46 1314.71 2163.11 1297.92 2134.95 C 1282.72 2109.46 1231.2 2105.18 1226.71 2100.61 L 1226.28 2102 L 1223.77 2102.55 C 1227.98 2093.11 1229.79 2089.9 1233.13 2079.73 C 1231.67 2072.65 1232.49 2080.83 1227.14 2073.9 C 1225.9 2068.69 1227.66 2064.39 1229.02 2059.05 C 1232.55 2053.2 1241.53 1999.85 1243.28 1990.75 C 1243.71 1988.49 1228.07 1967.86 1224.83 1965.12 C 1224.57 1963.83 1180.35 1900.78 1175.38 1893.61 L 1028.09 1676.93 C 1004.69 1642.02 979.93 1607.26 957.833 1571.53 C 954.033 1565.38 945.152 1548.91 945.319 1541.78 C 945.469 1535.38 944.264 1522.68 945.927 1516.94 C 956.321 1481.12 975.523 1444.26 992.238 1411.15 C 1019.97 1357.05 1047.43 1302.8 1074.61 1248.42 C 1090.04 1217.86 1106.47 1186.4 1119.93 1154.88 C 1121.41 1151.4 1119.58 1148.07 1118.1 1144.81 C 1113.89 1143.19 1108.55 1141.89 1104.12 1140.66 C 1092.25 1140.53 1065 1120.28 1060.06 1109.13 C 1058.52 1105.66 1057.66 1097.48 1054.35 1090.9 C 1061.09 1077.79 1068.13 1036.15 1075.29 1026.97 C 1078.04 1019.57 1086.63 994.65 1086.11 988.299 C 1082.91 982.747 1078.9 983.749 1072.79 983.857 C 1058.99 984.101 1049.89 982.334 1038.12 974.098 C 1024.94 974.11 996.263 974.544 984.026 973.295 C 961.257 970.97 922.431 948.601 902.515 935.561 C 874.471 935.041 836.208 956.752 813.456 971.967 C 807.708 975.81 796.391 983.003 790.045 984.465 C 784.982 989.043 752.898 1006.23 746.865 1008.15 C 742.525 1013.89 714.949 1020.94 709.094 1025.59 L 706.721 1025.35 C 704.123 1026.06 702.976 1026.88 700.581 1027.75 C 635.023 1051.37 584.74 1039.75 556.527 970.064 C 555.584 960.968 551.376 956.186 551.022 951.238 C 550.431 942.981 551.652 934.195 550.573 924.733 C 546.858 919.259 526.363 922.298 518.32 920.755 C 492.436 915.79 437.249 888.883 416.428 873.895 C 408.273 873.266 398.945 873.747 390.691 873.972 C 367.327 893.908 324.043 944.085 294.314 908.245 C 294.587 902.716 295.174 898.823 293.737 893.476 C 285.601 884.179 275.452 898.038 261.649 889.515 C 255.808 885.909 249.869 879.447 247.998 872.689 C 243.802 857.53 269.556 850.568 273.428 841.82 C 276.494 834.894 251.32 831.235 248.018 816.793 C 242.537 792.826 318.772 775.459 328.345 758.33 C 327.43 750.335 312.255 741.41 320.143 731.348 C 332.345 715.781 356.121 716.773 373.745 717.213 C 399.485 717.856 424.923 715.402 450.519 717.293 C 478.462 724.254 504.493 741.523 530.604 752.356 C 557.483 763.507 583.937 774.571 609.927 787.242 C 614.809 789.622 642.692 783.404 649.603 782.102 C 651.288 779.151 668.827 776.611 673.183 775.907 C 707.399 770.376 744.726 757.421 778.875 754.265 C 782.487 752.492 787.339 750.645 791.143 749.065 L 798.501 739.862 L 798.653 736.981 C 811.688 721.563 828.122 697.418 839.967 680.939 L 916.002 574.832 C 922.077 566.441 941.531 537.205 947.323 531.853 C 953.288 523.704 950.802 523.167 960.269 514.524 C 958.251 494.744 960.689 482.482 963.479 462.858 C 956.546 455.851 933.518 453.1 922.514 438.479 C 915.63 431.092 896.905 412.836 893.543 403.68 C 877.768 360.709 839.496 332.687 823.349 289.508 C 815.712 269.085 821.918 252.764 802.638 238.982 C 802.435 233.532 802.424 228.087 802.514 223.22 C 802.656 215.45 807.17 207.356 803.841 200.803 C 796.817 186.978 814.214 168.954 818.269 156.234 C 818.115 156.716 817.045 147.951 816.973 147.317 C 821.313 135.564 843.296 119.621 853.189 111.886 C 862.549 104.568 868.527 104.805 868.602 91.8273 L 871.45 90.0392 C 879.941 82.4436 915.021 67.2181 926.259 65.7786 L 927.156 65.468 C 936.684 57.9942 937.921 65.0861 948.119 55.4963 C 955.195 48.3999 957.234 48.3214 966.746 45.7761 C 972.024 40.689 999.517 37.0529 1007.36 37.5259 L 1011.34 35.9206 z M 1131.35 191.992 C 1132.17 193.424 1132.98 194.709 1133.85 196.108 C 1137.96 194.969 1143.04 192.859 1145.47 189.211 C 1137.82 189.219 1137.59 191.611 1131.35 191.992 z M 1301.12 1642.34 L 1301.81 1646 C 1306.37 1648.69 1308.42 1650.07 1313.27 1649.3 C 1316.27 1645.35 1318.02 1621.43 1319.42 1614.4 C 1329.68 1562.94 1336.8 1510.56 1345.15 1458.75 C 1347.85 1442 1350.08 1425.14 1352.9 1408.42 C 1354.07 1401.51 1356.66 1393.9 1356.8 1386.91 C 1356.85 1384.29 1356.93 1384.07 1355.02 1382.15 C 1346.76 1384.23 1330.09 1402.24 1322.58 1410.99 C 1292.04 1446.54 1255.58 1482.73 1229.23 1521.15 C 1228.19 1522.67 1233.28 1528.4 1234.5 1529.99 C 1244.83 1543.34 1244.6 1546.95 1245.28 1562.9 C 1259.57 1581.98 1290.83 1622.42 1301.12 1642.34 z M 1114.94 530.354 C 1115.17 536.867 1114.55 538.709 1120.4 543.54 C 1152.1 569.719 1204.59 572.3 1243.38 574.603 C 1244.8 567.022 1246.54 561.742 1248.87 554.404 L 1253.75 540.5 C 1252.3 540.693 1250.84 540.862 1249.38 541.007 C 1208.16 545.181 1159.26 541.687 1125.9 514.589 C 1124.48 512.721 1122.72 511.144 1121.23 509.32 L 1119.7 507.533 C 1118.09 513.322 1117.09 518.989 1115.87 524.84 L 1114.94 530.354 z M 1143.23 1036.99 C 1139.88 1053.75 1134.75 1070.73 1131.56 1087.14 C 1128.05 1105.14 1121.48 1125.59 1120.42 1143.38 C 1125.93 1143.78 1135.7 1147.12 1141.4 1148.84 C 1146.25 1124.68 1153.65 1098.09 1159.83 1074.03 L 1161.17 1068.74 C 1161.97 1065.48 1162.73 1062.88 1163.64 1059.67 C 1165.19 1053.4 1166.67 1047.11 1168.07 1040.8 C 1163.59 1036.19 1160.17 1032.27 1156.03 1027.4 C 1149.7 1032.47 1152.67 1037.32 1143.23 1036.99 z M 1601.12 423.861 C 1609.52 415.612 1619.6 400.728 1611.97 389.017 C 1611.06 387.626 1609.62 385.198 1607.88 384.729 C 1605.92 385.217 1605.55 394.155 1604.3 397.848 C 1601.27 406.821 1597 409.539 1591.98 416.939 C 1598.3 414.461 1599.79 411.987 1603.64 406.524 L 1603.93 406.593 C 1604.84 408.111 1601.25 420.541 1601.12 423.861 z M 1049.76 799.367 L 1048.91 798.898 C 1047.07 797.905 1047.1 798.124 1045.96 796.602 C 1041.25 792.572 1032.75 780.005 1026.68 787.342 C 1015.46 800.904 999.016 816.652 985.79 828.15 C 984.004 833.957 982.354 830.843 988.481 834.408 C 989.852 834.764 991.393 835.106 992.702 835.608 C 1012.43 840.202 1002.67 840.933 1008.67 825.707 C 1014.56 814.489 1023.39 816.057 1032.53 814.723 C 1051.24 811.992 1065.01 819.905 1049.76 799.367 z" fill="rgb(15,27,45)" transform="translate(0,0)"></path>
<path d="M 1236.82 2077.61 C 1301.6 2090.69 1341.7 2090.83 1406.62 2083.29 L 1408.56 2084.02 C 1402.58 2104.16 1385.49 2133.21 1379.91 2151.15 C 1346.67 2167.34 1369.51 2210.41 1327.86 2202.76 C 1293.63 2196.46 1314.71 2163.11 1297.92 2134.95 C 1282.72 2109.46 1231.2 2105.18 1226.71 2100.61 C 1231.33 2091.93 1233.34 2086.9 1236.82 2077.61 z" fill="rgb(245,158,11)" transform="translate(0,0)"></path>
<path d="M 948.119 55.4963 C 955.177 55.5413 961.568 55.913 968.607 56.3402 C 965.367 57.3319 962.106 58.2548 958.826 59.1084 C 951.103 61.1202 935.249 64.0997 927.156 65.468 C 936.684 57.9942 937.921 65.0861 948.119 55.4963 z" fill="rgb(110,110,111)" transform="translate(0,0)"></path>
<path d="M 1157.48 1097.18 C 1204.01 1123.96 1280.99 1146.6 1333.1 1158.74 C 1351.49 1163.02 1372.4 1165.26 1391.09 1169.36 C 1377.33 1232.73 1354.57 1296.14 1335.01 1357.96 C 1332.62 1365.51 1319.83 1408.39 1316.95 1411.59 C 1283.48 1448.67 1251.92 1486.87 1219.68 1524.97 C 1244.54 1536.8 1238.38 1539.33 1240.51 1557.94 C 1241.47 1566.41 1295.71 1638.38 1301.12 1642.34 L 1301.81 1646 C 1304.28 1649.62 1308.58 1654.6 1311.44 1658.14 C 1306.09 1694.03 1296.01 1736.76 1288.64 1772.57 C 1274.31 1843.63 1259.38 1914.56 1243.87 1985.37 C 1230.34 1968.56 1211.12 1939.2 1198.62 1920.94 L 1122.91 1810.34 C 1089.24 1761.16 1055.88 1711.77 1022.84 1662.17 C 1001.8 1631.03 980.301 1600.17 960.382 1568.31 C 946.11 1545.48 946.461 1526.97 954.798 1502.21 C 963.968 1474.99 976.633 1450.45 989.408 1424.87 L 1040.23 1324.86 L 1096.87 1212.22 C 1106.93 1191.98 1117.94 1167.73 1128.86 1148.37 L 1144.74 1152.32 C 1148 1134.25 1153.04 1115.12 1157.48 1097.18 z" fill="rgb(24,74,87)" transform="translate(0,0)"></path>
<path d="M 1219.24 1542.62 C 1223.42 1542.37 1223.63 1544.43 1220.78 1545.75 C 1194.6 1557.89 1163.01 1558.44 1135.55 1550.56 C 1134.52 1549.94 1133.39 1549.51 1133.11 1548.26 C 1134.04 1546.61 1137.1 1547.3 1138.52 1547.76 C 1165.38 1556.42 1193.66 1554.21 1219.24 1542.62 z" fill="rgb(15,27,45)" transform="translate(0,0)"></path>
<path d="M 1225.57 1559.04 C 1233.9 1565.02 1187.5 1582.92 1181.54 1582.78 C 1178.99 1582.72 1164.68 1585.32 1161.35 1585.68 C 1153.8 1582.06 1176.21 1580.67 1178.49 1580.26 C 1197.22 1576.84 1210.46 1570.01 1225.57 1559.04 z" fill="rgb(15,27,45)" transform="translate(0,0)"></path>
<path d="M 1475.68 1198.36 C 1491.73 1193.66 1508.77 1190.19 1524.51 1185.38 C 1560.7 1174.3 1603.38 1160.65 1637.72 1144.76 C 1646.24 1153.49 1654.52 1162.24 1664.17 1169.76 C 1633.92 1273.81 1599.93 1379.56 1568.39 1483.48 L 1388.76 2077.53 C 1386.33 2078.7 1386.36 2078.65 1383.68 2079.09 C 1345.43 2078.18 1305.86 2081 1267.04 2077.12 C 1255.54 2075.97 1241.29 2076.36 1230.14 2073.78 C 1228.55 2070.23 1229.58 2069.06 1230.28 2064.44 C 1248.2 1985.62 1265.22 1906.6 1281.33 1827.39 C 1294.09 1766.62 1307.95 1701.91 1318.55 1641.03 C 1332.58 1559.44 1345.92 1477.73 1358.54 1395.9 C 1369.72 1321.35 1380.15 1243.53 1392.97 1169.28 C 1416.72 1172.17 1440.55 1174.36 1464.43 1175.85 C 1467.87 1182.82 1471.95 1191.74 1475.68 1198.36 z" fill="rgb(37,111,130)" transform="translate(0,0)"></path>
<path d="M 1186.62 144.738 C 1198.4 140.509 1271.01 116.193 1277.2 117.24 C 1279.14 120.827 1284.34 128.735 1287.07 131.834 L 1291.97 138.481 L 1292.89 140.131 C 1293.8 141.539 1294.65 142.794 1295.6 144.169 C 1301.29 152.287 1304.89 159.191 1309.62 167.947 C 1312.95 176.047 1317.2 185.66 1319.79 193.86 C 1281.32 193.239 1253.05 203.806 1245.35 245.858 C 1246.03 248.928 1245.44 247.552 1247.5 249.844 C 1250.28 247.163 1250.09 241.298 1251.19 237.079 C 1261.08 198.957 1301.88 191.676 1334.75 200.366 C 1386.54 218.686 1379.82 270.691 1343.86 301.435 C 1321.23 314.464 1310.8 315.942 1285.11 320.304 C 1284.16 322.124 1280.38 341.296 1279.4 345.281 C 1254.8 402.568 1197.96 442.399 1141.55 465 L 1140.48 465.42 C 1086.18 487.023 982.643 476.689 934.679 443.268 C 900.952 419.768 900.488 399.731 880.909 370.446 C 850.78 325.382 829.098 309.756 819.409 253.664 C 846.684 252.317 860.739 245.552 884.838 234.197 C 877.892 241.064 872.075 245.269 864.231 251.167 C 910.789 248.455 931.187 241.761 971.269 218.526 L 970.587 219.387 L 969.433 220.809 C 963.535 228.219 959.33 231.952 952.369 238.513 C 979.982 237.178 994.178 230.484 1018.85 218.03 C 1028.24 212.031 1031.41 210.233 1039.49 202.864 C 1036.4 210.092 1035.39 212.683 1030.94 219.228 C 1040.58 221.05 1058.31 213.106 1067.15 208.971 C 1088.06 199.184 1103.76 185.208 1118.46 167.714 C 1120.39 164.959 1120.45 163.709 1121.5 160.447 L 1122.46 166.757 C 1125.08 166.625 1124.55 166.772 1126.33 165.306 C 1135.08 158.084 1162.81 151.469 1174.53 148.747 L 1186.62 144.738 z M 1133.85 196.108 C 1137.96 194.969 1143.04 192.859 1145.47 189.211 C 1137.82 189.219 1137.59 191.611 1131.35 191.992 C 1132.17 193.424 1132.98 194.709 1133.85 196.108 z" fill="rgb(245,158,11)" transform="translate(0,0)"></path>
<path d="M 1131.35 191.992 C 1137.59 191.611 1137.82 189.219 1145.47 189.211 C 1143.04 192.859 1137.96 194.969 1133.85 196.108 C 1132.98 194.709 1132.17 193.424 1131.35 191.992 z" fill="rgb(104,86,71)" fill-opacity="0.988235" transform="translate(0,0)"></path>
<path d="M 1186.62 144.738 C 1198.4 140.509 1271.01 116.193 1277.2 117.24 C 1279.14 120.827 1284.34 128.735 1287.07 131.834 L 1291.97 138.481 L 1292.89 140.131 C 1293.8 141.539 1294.65 142.794 1295.6 144.169 C 1301.29 152.287 1304.89 159.191 1309.62 167.947 C 1312.95 176.047 1317.2 185.66 1319.79 193.86 C 1281.32 193.239 1253.05 203.806 1245.35 245.858 C 1220.1 244.05 1202.01 240.705 1179.09 230.024 C 1175.63 228.646 1172.9 227.223 1169.6 225.492 C 1162.81 221.662 1160.56 220.4 1154.48 215.361 C 1148.36 212.217 1138.98 201.576 1133.85 196.108 C 1137.96 194.969 1143.04 192.859 1145.47 189.211 C 1137.82 189.219 1137.59 191.611 1131.35 191.992 C 1130.52 190.908 1129.7 189.825 1128.88 188.741 C 1124.51 181.63 1122.37 175.049 1118.46 167.714 C 1120.39 164.959 1120.45 163.709 1121.5 160.447 L 1122.46 166.757 C 1125.08 166.625 1124.55 166.772 1126.33 165.306 C 1135.08 158.084 1162.81 151.469 1174.53 148.747 L 1186.62 144.738 z" fill="url(#Gradient9)" transform="translate(0,0)"></path>
<path d="M 1309.62 167.947 C 1312.95 176.047 1317.2 185.66 1319.79 193.86 C 1281.32 193.239 1253.05 203.806 1245.35 245.858 C 1220.1 244.05 1202.01 240.705 1179.09 230.024 C 1175.63 228.646 1172.9 227.223 1169.6 225.492 C 1162.81 221.662 1160.56 220.4 1154.48 215.361 C 1156.36 215.664 1158.75 215.774 1160.18 216.722 C 1173.21 212.368 1191.02 208.059 1204.65 204.14 C 1223.87 198.475 1242.96 192.39 1261.91 185.889 C 1271.37 182.709 1283.63 179.365 1292.26 175.021 C 1298.23 172.013 1299.56 171.561 1305.92 169.433 L 1308.21 171.194 L 1309.62 167.947 z" fill="url(#Gradient8)" transform="translate(0,0)"></path>
<path d="M 1160.18 216.722 C 1173.21 212.368 1191.02 208.059 1204.65 204.14 C 1223.87 198.475 1242.96 192.39 1261.91 185.889 C 1271.37 182.709 1283.63 179.365 1292.26 175.021 C 1298.23 172.013 1299.56 171.561 1305.92 169.433 L 1308.21 171.194 L 1308.48 173.064 C 1290.3 179.507 1172.14 222.81 1161.97 217.717 C 1161.36 217.411 1160.77 217.054 1160.18 216.722 z" fill="rgb(168,107,60)" transform="translate(0,0)"></path>
<path d="M 1176.59 225.902 C 1178.38 225.093 1180.34 224.1 1182.23 223.401 C 1182.93 223.14 1186.96 221.903 1188.05 222.366 C 1188.42 222.524 1188.61 223.852 1188.61 223.857 C 1190.01 228.047 1183.53 228.29 1179.09 230.024 C 1175.63 228.646 1172.9 227.223 1169.6 225.492 C 1171.94 225.584 1174.27 225.721 1176.59 225.902 z" fill="rgb(217,160,102)" transform="translate(0,0)"></path>
<path d="M 1186.62 144.738 C 1198.4 140.509 1271.01 116.193 1277.2 117.24 C 1279.14 120.827 1284.34 128.735 1287.07 131.834 L 1291.97 138.481 L 1286.9 135.973 C 1286.06 137.51 1286.14 136.826 1286.16 137.902 C 1281.22 140.636 1279.57 141.719 1273.91 140.312 C 1270.59 140.005 1262.45 140.699 1260.47 143.46 C 1252.47 140.877 1241.49 145.557 1234.01 149.103 C 1226.61 155.686 1189.11 173.214 1179.3 173.93 C 1180.54 174.838 1181.39 175.547 1182.56 176.546 C 1177.1 176.948 1170.45 178.158 1166.9 182.656 L 1166.17 182.652 C 1159.83 185.098 1151.13 186.742 1145.47 189.211 C 1137.82 189.219 1137.59 191.611 1131.35 191.992 C 1130.52 190.908 1129.7 189.825 1128.88 188.741 C 1124.51 181.63 1122.37 175.049 1118.46 167.714 C 1120.39 164.959 1120.45 163.709 1121.5 160.447 L 1122.46 166.757 C 1125.08 166.625 1124.55 166.772 1126.33 165.306 C 1135.08 158.084 1162.81 151.469 1174.53 148.747 L 1186.62 144.738 z" fill="rgb(24,74,87)" transform="translate(0,0)"></path>
<path d="M 1151.23 182.833 C 1151.41 183.906 1151.26 183.619 1151.54 183.974 C 1158.43 183.162 1158.95 182.007 1166.17 182.652 C 1159.83 185.098 1151.13 186.742 1145.47 189.211 C 1137.82 189.219 1137.59 191.611 1131.35 191.992 C 1130.52 190.908 1129.7 189.825 1128.88 188.741 C 1136.26 187.523 1142.61 183.905 1151.23 182.833 z" fill="rgb(104,86,71)" transform="translate(0,0)"></path>
<path d="M 1151.23 182.833 C 1152.94 181.439 1176.99 173.685 1179.3 173.93 C 1180.54 174.838 1181.39 175.547 1182.56 176.546 C 1177.1 176.948 1170.45 178.158 1166.9 182.656 L 1166.17 182.652 C 1158.95 182.007 1158.43 183.162 1151.54 183.974 C 1151.26 183.619 1151.41 183.906 1151.23 182.833 z" fill="rgb(92,79,69)" transform="translate(0,0)"></path>
<path d="M 1166.9 182.656 C 1170.45 178.158 1177.1 176.948 1182.56 176.546 C 1183.83 176.634 1185.74 176.367 1186.68 177.427 C 1186.68 178.21 1176.84 180.425 1175.65 180.726 C 1172.38 181.558 1170.28 182.26 1166.9 182.656 z" fill="rgb(104,86,71)" transform="translate(0,0)"></path>
<path d="M 1295.6 144.169 C 1293 144.082 1281.51 147.032 1282.64 144.653 C 1283.29 143.291 1291.11 140.672 1292.89 140.131 C 1293.8 141.539 1294.65 142.794 1295.6 144.169 z" fill="rgb(104,86,71)" transform="translate(0,0)"></path>
<path d="M 1260.47 143.46 C 1262.45 140.699 1270.59 140.005 1273.91 140.312 C 1271.07 142.434 1263.07 146.314 1260.47 143.46 z" fill="rgb(92,79,69)" transform="translate(0,0)"></path>
<path d="M 914.07 331.443 C 959.123 328.47 998.881 385.924 959.876 401.617 C 917.97 402.972 875.793 349.69 914.07 331.443 z" fill="rgb(15,27,45)" transform="translate(0,0)"></path>
<path d="M 1069.82 297.164 C 1116.31 294.122 1149.77 353.579 1115.42 366.524 L 1113.17 367.429 C 1070.95 370.412 1030.69 312.183 1069.82 297.164 z" fill="rgb(15,27,45)" transform="translate(0,0)"></path>
<path d="M 1064.34 267.539 C 1076.17 266.909 1094.05 268.153 1104.5 273.727 C 1108.61 275.923 1104.89 283.233 1096.76 279.629 C 1085.95 274.84 1069.97 275.297 1058.4 276.86 C 1052.83 278.396 1039.9 282.416 1036.91 286.523 C 1031.79 293.552 1022.27 287.374 1025.83 283.692 C 1035.66 273.511 1050.54 269.356 1064.34 267.539 z" fill="rgb(15,27,45)" transform="translate(0,0)"></path>
<path d="M 863.902 319.136 C 878.728 306.88 893.516 304.89 912.589 306.456 C 914.939 306.649 919.309 307.306 920.889 309.354 C 921.531 310.197 921.767 311.281 921.533 312.314 C 920.456 316.955 914.693 315.346 911.985 315.04 C 899.367 313.614 887.488 314.87 876.603 321.832 L 875.78 321.857 C 872.282 325.287 869.975 327.479 866.728 331.267 C 855.386 331 858.408 325.358 863.902 319.136 z" fill="rgb(15,27,45)" transform="translate(0,0)"></path>
<path d="M 1112.35 402.977 C 1117.37 402.642 1121.43 402.272 1126.33 403.948 C 1127.57 404.374 1133.12 405.958 1131.18 408.181 C 1129.4 410.217 1125.11 405.743 1122.84 406.515 C 1108.71 428.636 1095.23 438.389 1066.66 442.687 C 1064.16 442.875 1056.03 443.792 1054.21 442.339 C 1052.32 440.33 1057.7 440.158 1058.06 440.161 C 1082.35 440.348 1105.61 428.714 1117.71 407.316 C 1118.8 405.4 1113.53 406.689 1112.39 405.146 C 1112.12 404.785 1112.02 404.328 1112.11 403.888 C 1112.19 403.584 1112.27 403.281 1112.35 402.977 z" fill="rgb(15,27,45)" transform="translate(0,0)"></path>
<path d="M 1294.4 273.042 C 1292.01 271.708 1291.36 271.54 1291.22 268.445 C 1290.2 245.515 1291.47 221.244 1320.99 221.437 C 1328.6 221.487 1341.62 226.835 1339.5 236.788 C 1333.82 232.106 1333.89 225.836 1324.65 224.706 C 1306.95 222.541 1298.29 230.445 1295.86 247.592 C 1294.78 255.195 1296.13 266.954 1294.4 273.042 z" fill="rgb(15,27,45)" transform="translate(0,0)"></path>
<path d="M 1015.73 391.437 C 1021.09 397.248 1008.81 400.352 1009.72 405.031 C 1011.24 412.807 1023.93 405.692 1028.87 412.255 C 1023.99 412.323 1010.72 412.895 1007.22 409.496 C 1006.18 408.477 1005.64 407.052 1005.74 405.599 C 1006.05 400.84 1012.47 394.478 1015.73 391.437 z" fill="rgb(15,27,45)" transform="translate(0,0)"></path>
<path d="M 1680.2 1124.69 C 1724.94 1099.94 1751.41 1083.79 1791.86 1052.35 C 1796.65 1112.86 1772.56 1159.93 1750.27 1214.23 C 1743.38 1231.01 1736.37 1247.79 1729.5 1264.57 L 1616.49 1538.72 L 1586.76 1610.65 C 1580.82 1624.81 1574.8 1638.87 1569.07 1653.11 C 1562.57 1669.26 1566.62 1683.56 1564.43 1700.21 C 1549.45 1813.73 1498.44 1918.52 1457.18 2024.18 C 1450.75 2040.65 1443.12 2060.25 1435.19 2075.71 C 1424.66 2076.65 1414.11 2077.41 1403.56 2078.01 L 1396.19 2078.63 L 1393.16 2077.43 C 1393.51 2073.09 1407.58 2028.15 1409.61 2021.46 C 1424.15 1972.31 1439.04 1923.25 1454.26 1874.31 L 1592.15 1418.56 L 1643.88 1249.79 C 1656.63 1208.21 1670.2 1166.99 1680.2 1124.69 z" fill="rgb(37,111,130)" transform="translate(0,0)"></path>
<path d="M 612.749 897.588 C 609.68 892.583 606.952 887.923 608.511 881.87 C 610.251 875.114 616.771 870.944 622.559 867.917 C 649.395 853.882 787.826 783.388 811.987 785.129 C 828.084 786.29 845.487 793.483 860.854 798.355 L 927.466 819.49 C 945.555 825.195 963.677 830.798 981.829 836.299 C 991.324 839.254 1008.11 845.134 1017.45 846.502 C 1036.06 866.222 1050.07 884.147 1079.07 885.356 C 1079.65 915.263 1075.63 938.954 1054.51 961.273 L 1053 961.733 C 1046.39 963.789 1047.78 963.571 1042.46 966.037 C 1023.71 974.724 987.361 972.822 968.485 966.032 C 949.825 959.32 912.629 940.054 896.901 928.79 C 879.27 936.188 856.845 943.308 840.548 951.218 C 824.907 958.81 805.057 973.027 789.313 982.273 C 770.407 995.576 744.505 1004.49 729.534 980.953 C 729.723 978.212 729.766 975.031 730.701 972.434 C 734.899 960.761 804.099 919.985 818.368 913.226 C 839.22 903.348 861.924 896.745 882.551 886.672 C 884.791 885.578 885.703 885.611 886.524 883.134 C 869.572 880.512 722.21 955.177 726.384 977.35 C 724.7 978.702 722.859 979.845 720.9 980.755 C 703.33 988.759 671.883 981.029 683.267 954.65 C 689.569 950.967 697.095 943.564 703.279 938.858 C 722.27 924.404 742.647 904.336 762.153 891.354 C 777.749 880.975 837.445 858.85 849.826 848.425 L 849.306 847.66 C 832.081 852.751 770.911 882.143 754.799 892.175 C 733.941 905.163 703.916 935.585 682.7 951.35 L 680.764 952.774 C 665.998 956.2 642.563 955.109 642.799 933.114 C 644.463 924.488 661.04 911.423 667.611 906.582 C 686.729 892.5 707.912 869.581 728.171 858.47 C 747.554 847.839 770.694 841.326 790.445 831.39 C 798.474 827.351 809.885 824.395 816.748 819.21 L 816.752 817.632 C 815.78 817.384 729.103 853.012 722.27 858.234 C 697.887 876.87 646.074 917.142 612.749 897.588 z" fill="rgb(245,158,11)" transform="translate(0,0)"></path>
<path d="M 338.988 760.813 L 340.755 760.97 C 369.408 763.391 401.005 760.123 429.788 762.625 C 438.032 763.341 455.42 778.723 464.915 777.135 C 458.796 771.131 437.565 761.227 428.762 760.152 C 410.844 757.963 393.419 759.428 374.996 758.957 C 359.693 758.566 325.304 762.957 323.963 739.988 C 323.391 730.192 334.995 723.767 343.543 722.668 C 377.66 721.088 412.633 719.972 446.812 720.427 C 466.154 724.272 490.331 738.119 507.851 745.139 C 544.614 759.869 580.558 779.846 617.192 793.869 C 646.912 805.244 675.706 808.701 706.183 822.422 L 645.919 852.853 C 634.979 858.376 624.3 863.286 613.83 869.747 C 599.672 878.484 607.28 886.438 604.637 895.381 L 602.897 894.93 C 553.744 899.921 525.03 882.612 490.886 851.061 C 478.642 839.747 440.029 829.342 435.149 809.961 C 432.344 796.366 451.104 786.051 462.006 787.774 C 479.677 788.159 493.51 799.446 508.616 806.318 C 517.993 810.583 536.605 823.084 545.181 824.687 L 546.739 823.202 C 544.462 820.597 530.727 813.58 526.975 811.957 C 499.451 800.053 472.227 774.124 441.475 790.434 C 431.18 789.473 389.34 783.554 382.582 786.098 C 350.735 798.087 322.21 817.088 289.767 829.665 C 259.972 841.215 242.326 812.334 261.051 801.192 C 283.62 787.761 314.855 772.867 338.988 760.813 z" fill="rgb(245,158,11)" transform="translate(0,0)"></path>
<path d="M 1112.91 544.871 C 1113.53 540.024 1114.21 535.185 1114.94 530.354 C 1115.17 536.867 1114.55 538.709 1120.4 543.54 C 1152.1 569.719 1204.59 572.3 1243.38 574.603 L 1241.68 580.44 C 1238.18 592.831 1236.5 601.637 1234.34 614.405 C 1213.87 636.526 1224.13 656.463 1233.56 680.23 C 1237.21 689.409 1240.91 698.691 1244.53 707.874 C 1259.7 746.712 1275.22 785.413 1291.09 823.971 C 1249.89 825.639 1208.71 827.698 1167.55 830.147 L 1157.68 762.987 C 1155.61 748.525 1153.66 731.631 1150.14 717.606 C 1148.96 712.891 1140.83 705.565 1138.39 698.431 C 1121.17 648.141 1109.42 598.182 1112.91 544.871 z" fill="rgb(255,255,255)" transform="translate(0,0)"></path>
<path d="M 1112.91 544.871 C 1113.53 540.024 1114.21 535.185 1114.94 530.354 C 1115.17 536.867 1114.55 538.709 1120.4 543.54 C 1152.1 569.719 1204.59 572.3 1243.38 574.603 L 1241.68 580.44 C 1239.82 575.512 1221.32 576.428 1215.15 576.042 C 1186.28 574.237 1156.99 568.616 1131.26 555.003 C 1126.25 552.349 1118.34 544.724 1112.91 544.871 z" fill="rgb(217,160,102)" transform="translate(0,0)"></path>
<path d="M 1381.97 1033.88 C 1386.47 1033.19 1392.06 1032.16 1396.47 1031.67 C 1406.44 1054.01 1416.88 1075.91 1427.47 1097.94 C 1435.32 1114.29 1442.86 1132.37 1451.63 1148.24 C 1405.91 1146.49 1360.52 1139.65 1316.32 1127.85 C 1305.44 1125.06 1277.07 1114.93 1269.55 1113.81 L 1268.73 1115.04 C 1274.12 1118.97 1289.14 1123.14 1296.15 1125.27 C 1348.32 1141.14 1398.61 1148.44 1452.8 1151.36 C 1456.13 1158.31 1459.56 1165.8 1463.19 1172.54 C 1382.6 1168.88 1303.07 1152.69 1227.46 1124.56 C 1202.32 1115.02 1182.28 1105.3 1158.26 1094.55 L 1166.61 1061.9 L 1170.79 1043.6 C 1173.25 1045.59 1175.77 1047.51 1178.34 1049.37 C 1203.87 1067.43 1235.17 1059.33 1263.38 1054.49 C 1286.19 1050.58 1309.01 1046.47 1331.8 1042.37 C 1337.32 1042.56 1374.86 1035.28 1381.97 1033.88 z" fill="rgb(37,111,130)" transform="translate(0,0)"></path>
<path d="M 1280.97 350.232 L 1282.49 349.242 C 1300.55 360.914 1334.96 390.125 1353.72 404.64 C 1320.06 436.735 1267.62 496.055 1253.75 540.5 C 1252.3 540.693 1250.84 540.862 1249.38 541.007 C 1208.16 545.181 1159.26 541.687 1125.9 514.589 C 1124.48 512.721 1122.72 511.144 1121.23 509.32 L 1119.7 507.533 C 1122.62 495.885 1127.3 483.83 1131.39 472.466 C 1134.61 470.915 1138.73 469.415 1142.12 468.075 C 1151.28 476.823 1164.88 486.624 1175.13 494.75 C 1180.34 499.054 1183.5 502.235 1189.77 504.827 L 1190.92 503.943 C 1187.61 498.712 1182.97 495.977 1177.92 492.25 C 1214.43 459.421 1237.28 428.091 1261.58 385.912 C 1268.23 374.37 1276.2 362.745 1280.97 350.232 z" fill="rgb(245,158,11)" transform="translate(0,0)"></path>
<path d="M 1591.98 416.939 C 1598.3 414.461 1599.79 411.987 1603.64 406.524 L 1603.93 406.593 C 1604.84 408.111 1601.25 420.541 1601.12 423.861 C 1577.97 452.555 1517.38 465.913 1483.91 479.594 C 1459.88 489.419 1436.9 501.426 1414.4 514.355 C 1386.15 530.588 1261.89 609.128 1252.36 634.308 C 1250.13 640.218 1251.81 646.379 1253.45 652.237 C 1258.61 670.617 1267.92 688.869 1275.2 706.565 C 1290.94 745.191 1306.99 783.691 1323.34 822.062 L 1294.35 823.789 C 1289.34 809.125 1282.08 792.814 1276.24 778.149 L 1245.2 699.379 C 1238.36 682.152 1229.85 663.583 1226.12 645.522 C 1224.34 636.87 1232.28 620.74 1238.7 614.947 C 1253.14 601.919 1269.88 590.412 1285.76 579.064 C 1336.26 542.99 1387.76 507.266 1443.43 479.578 C 1479.14 462.01 1521.86 451.32 1558.97 436.04 C 1570.6 431.25 1583.17 420.966 1591.98 416.939 z" fill="rgb(249,108,53)" transform="translate(0,0)"></path>
<path d="M 378.422 832.158 C 396.882 832.052 435.022 834.116 451.709 831.841 C 476.323 846.239 491.82 855.087 513.289 874.301 C 535.773 894.423 568.361 897.259 597.579 899.265 C 595.673 900.443 591.397 902.891 589.927 904.245 C 524.222 938.625 473.244 902.568 415.48 869.57 C 406.388 869.428 399.015 869.742 389.916 870.27 C 371.686 884.245 336.548 922.296 314.594 916.379 C 259.522 901.537 362.112 842.467 378.422 832.158 z" fill="rgb(245,158,11)" transform="translate(0,0)"></path>
<path d="M 971.669 465.288 L 984.809 469.261 C 978.766 505.508 991.924 537.353 1013.53 566.177 C 1050.76 615.826 1096.16 659.755 1138.13 705.371 C 1150.48 718.783 1150.77 744.312 1153.32 762.129 L 1163.69 829.989 C 1156.25 830.433 1147.88 831.111 1140.5 831.184 C 1137.18 813.776 1134.11 796.758 1130.86 779.028 C 1127.61 761.247 1125.97 736.666 1120.02 719.938 C 1117.95 714.092 1104.36 700.479 1099.65 695.342 C 1082.53 678.211 1065.99 659.676 1049.76 641.669 C 1011.21 598.921 973.735 561.378 964.198 502.277 C 964.377 487.888 964.508 478.367 971.669 465.288 z" fill="rgb(249,108,53)" transform="translate(0,0)"></path>
<path d="M 381.795 788.495 C 391.755 787.048 425.719 791.719 438.029 792.842 L 437.31 793.769 C 423.799 811.471 433.354 819.75 448.618 830.002 C 424.994 830.213 401.369 829.912 377.759 829.098 C 357.313 840.876 329.807 859.391 310.254 872.598 C 298.496 880.421 285.324 890.928 270.301 887.939 C 264.536 886.793 258.461 883.716 255.398 878.499 C 253.365 875.035 253.118 871.2 254.463 867.432 C 263.152 843.097 356.631 801.32 381.795 788.495 z" fill="rgb(245,158,11)" transform="translate(0,0)"></path>
<path d="M 1227.01 951.912 C 1195.46 951.027 1161.59 955.473 1129.91 954.757 C 1129.56 954.817 1125.58 953.1 1126 952.437 C 1140.22 930.168 1152.21 906.994 1157.61 880.517 C 1158.77 874.846 1158.56 876.121 1163.14 871.835 C 1169.6 865.801 1166.63 858.877 1167.64 852.666 C 1168.57 852.618 1169.56 853.276 1170.36 853.676 C 1187.21 862.171 1195.78 870.152 1206.28 885.859 L 1207.42 887.988 C 1220.54 911.951 1224.19 924.654 1227.01 951.912 z" fill="rgb(245,158,11)" transform="translate(0,0)"></path>
<path d="M 1359.76 606.7 C 1372.4 609.47 1423.42 636.226 1437.57 642.979 L 1361.26 678.448 C 1355.76 678.268 1292.78 646.917 1283.02 642.062 C 1307.21 632.159 1335.82 617.937 1359.76 606.7 z" fill="rgb(34,211,238)" transform="translate(0,0)"></path>
<path d="M 1438.16 646.186 C 1441.13 648.848 1439.6 700.203 1439.95 709.116 C 1416.76 721.591 1388.33 733.255 1364.15 744.723 C 1363.99 744.673 1362.26 744.204 1362.23 743.858 C 1361.07 728.995 1361.86 695.058 1361.9 681.886 C 1386.8 669.59 1413.23 658.492 1438.16 646.186 z" fill="rgb(34,211,238)" transform="translate(0,0)"></path>
<path d="M 1281.38 645.069 C 1306.19 657.068 1333.03 670.045 1357.99 681.647 C 1357.78 702.956 1357.82 724.267 1358.1 745.575 C 1343.7 739.44 1330.64 732.08 1316.88 726.226 C 1315.8 725.253 1315.96 725.287 1314.55 725.031 C 1304.93 720.076 1291.08 713.467 1281.07 709.106 C 1280.84 687.76 1280.95 666.412 1281.38 645.069 z" fill="rgb(34,211,238)" transform="translate(0,0)"></path>
<path d="M 1418.64 1027.5 C 1421.81 1026.79 1421.7 1026.58 1424.75 1027.51 C 1432.31 1039.98 1445.87 1070.44 1452.83 1084.89 C 1469.2 1118.91 1486.7 1153.57 1502.53 1187.73 C 1496.38 1189.2 1489.65 1191.12 1483.49 1192.75 C 1480.37 1193.69 1480.54 1193.86 1477.43 1193.08 C 1474.22 1188.86 1462.06 1162.28 1459.11 1156.23 L 1399.47 1031.04 L 1418.64 1027.5 z" fill="rgb(249,108,53)" transform="translate(0,0)"></path>
<path d="M 1125.9 514.589 C 1159.26 541.687 1208.16 545.181 1249.38 541.007 C 1250.84 540.862 1252.3 540.693 1253.75 540.5 L 1248.87 554.404 C 1246.54 561.742 1244.8 567.022 1243.38 574.603 C 1204.59 572.3 1152.1 569.719 1120.4 543.54 C 1114.55 538.709 1115.17 536.867 1114.94 530.354 L 1115.87 524.84 C 1127.91 523.514 1120.58 519.924 1125.9 514.589 z" fill="rgb(250,229,201)" fill-opacity="0.972549" transform="translate(0,0)"></path>
<path d="M 1156.03 1027.4 C 1160.17 1032.27 1163.59 1036.19 1168.07 1040.8 C 1166.67 1047.11 1165.19 1053.4 1163.64 1059.67 C 1162.73 1062.88 1161.97 1065.48 1161.17 1068.74 L 1159.83 1074.03 C 1153.65 1098.09 1146.25 1124.68 1141.4 1148.84 C 1135.7 1147.12 1125.93 1143.78 1120.42 1143.38 C 1121.48 1125.59 1128.05 1105.14 1131.56 1087.14 C 1134.75 1070.73 1139.88 1053.75 1143.23 1036.99 C 1152.67 1037.32 1149.7 1032.47 1156.03 1027.4 z" fill="rgb(249,108,53)" fill-opacity="0.988235" transform="translate(0,0)"></path>
<path d="M 1032.34 825.505 C 1035.97 821.597 1034.62 821.966 1039.1 820.594 C 1046.18 822.313 1078.15 854.2 1085.53 861.323 C 1099.71 862.794 1145.98 856.055 1155.46 859.427 C 1153.68 870.846 1088.72 869.103 1077.69 869.278 L 1074.27 864.941 C 1066.67 859.549 1039.72 832.945 1032.34 825.505 z" fill="rgb(34,211,238)" transform="translate(0,0)"></path>
<path d="M 985.79 828.15 C 999.016 816.652 1015.46 800.904 1026.68 787.342 C 1032.75 780.005 1041.25 792.572 1045.96 796.602 C 1047.1 798.124 1047.07 797.905 1048.91 798.898 L 1049.76 799.367 C 1065.01 819.905 1051.24 811.992 1032.53 814.723 C 1023.39 816.057 1014.56 814.489 1008.67 825.707 C 1002.67 840.933 1012.43 840.202 992.702 835.608 C 994.695 835.518 996.689 835.465 998.684 835.449 C 1008.08 835.436 1002.31 831.888 1004.08 824.116 C 1005.3 819.078 1002.49 818.322 999.141 821.296 C 990.712 828.781 988.946 821.374 988.481 834.408 C 982.354 830.843 984.004 833.957 985.79 828.15 z M 1050.04 808.872 C 1051.17 802.24 1035.85 788.478 1029.32 786.957 C 1027.43 802.496 1028.15 791.281 1034.29 803.275 C 1037.84 810.21 1041.59 809.812 1050.04 808.872 z" fill="rgb(255,255,255)" fill-opacity="0.0784314" transform="translate(0,0)"></path>
<path d="M 639.995 792.935 C 660.784 793.08 715.274 799.131 732.775 809.697 C 730.655 809.764 729.566 809.472 728.104 811.061 L 728.217 811.232 C 728.362 811.305 728.508 811.377 728.654 811.45 C 726.414 813.542 714.177 818.695 710.654 820.136 C 690.615 811.229 672.099 805.096 650.749 799.882 C 649.448 799.565 642.215 798.438 641.738 796.708 C 642.264 795.68 643.789 796.014 644.69 795.378 L 644.709 795.259 C 644.596 795.065 640.392 793.153 639.995 792.935 z" fill="url(#Gradient7)" transform="translate(0,0)"></path>
<path d="M 1673.61 1128.3 C 1676.43 1130.9 1666.87 1161.66 1665.24 1166.78 C 1661.74 1163.52 1658.73 1160.51 1655.05 1157.38 C 1650.26 1152.48 1645.53 1148.19 1640.74 1143.42 L 1673.61 1128.3 z" fill="rgb(37,111,130)" transform="translate(0,0)"></path>
<path d="M 1449.74 644.615 C 1443.85 646.281 1449.18 647.032 1451.43 654.401 C 1455.32 667.186 1455.34 684.742 1451.27 697.564 C 1448.7 705.678 1448.44 707.512 1446.62 714.954 C 1445.85 718.083 1440.11 715.679 1442.86 713.133 L 1443.06 713.101 C 1446.4 702.259 1442.23 658.177 1444.72 641.629 C 1443.9 639.413 1440.29 640.123 1439.34 638.274 C 1439.92 637.389 1442.84 636.677 1444.5 635.526 C 1445.75 638.533 1448.01 641.321 1449.74 644.615 z" fill="rgb(24,74,87)" transform="translate(0,0)"></path>
<path d="M 1316.88 726.226 C 1315.77 730.689 1320.74 728.866 1324.72 732.786 C 1329.32 737.316 1341.1 740.02 1345.98 742.9 C 1353.99 747.635 1340.38 750.613 1337.07 747.687 C 1322.03 743.909 1309.53 734.873 1296.07 727.571 C 1293.32 726.076 1287.51 724.846 1285.38 721.771 C 1278.02 711.179 1288.44 715.652 1293.83 718.903 C 1298.14 721.35 1303.61 721.474 1306.69 725.956 C 1310.41 726.042 1311.36 726.822 1314.55 725.031 C 1315.96 725.287 1315.8 725.253 1316.88 726.226 z" fill="rgb(24,74,87)" transform="translate(0,0)"></path>
<path d="M 1269.31 654.242 C 1269.52 654.957 1269.72 655.671 1269.93 656.386 L 1269.88 656.218 C 1270.19 655.386 1272.12 634.586 1276.76 641.719 C 1277.91 643.489 1276.55 661.61 1277.02 664.634 C 1277.19 677.466 1277.35 690.371 1276.83 703.201 C 1275.28 699.067 1270.07 685.644 1268.97 681.791 C 1267.75 676.55 1266.89 673.56 1265.14 668.56 C 1265.97 665.909 1266.73 663.238 1267.43 660.549 C 1268.23 657.422 1268.21 657.216 1269.31 654.242 z" fill="rgb(24,74,87)" transform="translate(0,0)"></path>
<path d="M 1591.98 416.939 C 1597 409.539 1601.27 406.821 1604.3 397.848 C 1605.55 394.155 1605.92 385.217 1607.88 384.729 C 1609.62 385.198 1611.06 387.626 1611.97 389.017 C 1619.6 400.728 1609.52 415.612 1601.12 423.861 C 1601.25 420.541 1604.84 408.111 1603.93 406.593 L 1603.64 406.524 C 1599.79 411.987 1598.3 414.461 1591.98 416.939 z" fill="rgb(249,108,53)" fill-opacity="0.980392" transform="translate(0,0)"></path>
<path d="M 1341.29 605.274 C 1343.15 605.121 1347.78 604.74 1348 607.508 C 1346.99 609.33 1309.1 626.505 1304.55 629.1 C 1302.16 629.753 1299.8 630.5 1298.67 626.953 C 1299.63 623.676 1335.34 607.473 1341.29 605.274 z" fill="rgb(24,74,87)" transform="translate(0,0)"></path>
<path d="M 988.481 834.408 C 988.946 821.374 990.712 828.781 999.141 821.296 C 1002.49 818.322 1005.3 819.078 1004.08 824.116 C 1002.31 831.888 1008.08 835.436 998.684 835.449 C 996.689 835.465 994.695 835.518 992.702 835.608 C 991.393 835.106 989.852 834.764 988.481 834.408 z" fill="rgb(255,255,255)" fill-opacity="0.0117647" transform="translate(0,0)"></path>
<path d="M 1148.24 1015.95 C 1150.94 1019.69 1153.54 1023.51 1156.03 1027.4 C 1149.7 1032.47 1152.67 1037.32 1143.23 1036.99 C 1144.73 1030.18 1146.64 1022.89 1148.24 1015.95 z" fill="rgb(168,107,60)" transform="translate(0,0)"></path>
<path d="M 1119.7 507.533 L 1121.23 509.32 C 1122.72 511.144 1124.48 512.721 1125.9 514.589 C 1120.58 519.924 1127.91 523.514 1115.87 524.84 C 1117.09 518.989 1118.09 513.322 1119.7 507.533 z" fill="rgb(250,229,201)" fill-opacity="0.894118" transform="translate(0,0)"></path>
<path d="M 1579.38 2008.78 C 1609.54 2028.97 1627.17 2046.91 1601.2 2081.41 C 1580.14 2109.38 1556.76 2133.76 1533.1 2159.49 C 1511.07 2183.92 1490.83 2207.21 1467.64 2230.67 C 1457.78 2240.6 1447.74 2250.34 1437.52 2259.89 C 1435.4 2261.87 1420.77 2275.1 1420.05 2276.08 C 1409.68 2290.14 1424.26 2318.53 1401.21 2330.71 C 1368.95 2347.76 1318.72 2358.1 1283.28 2369.6 C 1247.15 2381.32 1212.63 2391.58 1176.2 2401.17 C 1166.38 2403.75 1128.64 2411.31 1118.26 2412.01 C 1067.48 2415.44 977.615 2421.78 934.62 2391.48 C 933.53 2390.72 931.277 2388.66 930.401 2387.85 C 928.839 2382.74 928.435 2382.58 928.064 2377.41 C 926.956 2371.51 924.858 2369.11 923.962 2361.33 C 923.189 2354.51 920.484 2346.45 928.492 2345.24 L 928.987 2346.25 C 928.707 2350.59 940.481 2355.05 943.807 2355.87 C 997.321 2378.51 1065.79 2378.69 1122.95 2371.01 C 1135.11 2369.37 1156.29 2366.16 1167.7 2362.72 C 1212.13 2353.93 1242.3 2334.98 1282.97 2318.81 C 1323.93 2302.54 1369.5 2289.04 1411.82 2275.85 C 1411.29 2267.52 1411.68 2258.86 1411.89 2250.48 C 1414.85 2245.71 1409.89 2239.29 1409.96 2229.87 L 1410 2227.53 C 1410.21 2218.01 1409.41 2213.92 1406.56 2204.69 C 1405.75 2200.64 1405.56 2192.9 1405.33 2188.52 C 1407.45 2189.08 1406.28 2189.06 1408.81 2188.16 C 1411.38 2184.03 1408.52 2180.35 1409.97 2173.67 C 1413.16 2171.09 1411.42 2171.56 1415.28 2171.96 C 1413.08 2176.02 1411.38 2177.97 1412.01 2182.48 C 1413.04 2184.29 1414.08 2186.22 1415.14 2188 C 1417.49 2195.37 1413.75 2205.05 1418.09 2212.55 L 1420.67 2213.11 C 1425.56 2211.65 1444.74 2191.17 1449.31 2186.48 C 1458.09 2177.48 1465.46 2166.17 1473.56 2156.47 C 1482.28 2146.03 1492.07 2136.54 1500.73 2126.03 C 1511.92 2112.46 1567.47 2042.44 1567.2 2027.52 C 1571.17 2026.27 1573.77 2022.83 1573.97 2018.75 C 1574.48 2008.45 1575.79 2013.4 1579.38 2008.78 z M 953.728 2363.19 L 941.41 2358.86 C 937.198 2356.64 931.779 2352.75 927.395 2352.67 C 924.04 2355.5 925.03 2355.71 923.962 2361.33 C 924.858 2369.11 926.956 2371.51 928.064 2377.41 C 934.814 2386.36 936.915 2389.39 947.171 2394.73 C 973.794 2406.94 1033.12 2411.32 1063.09 2410.93 C 1092.01 2410.4 1120.83 2407.36 1149.22 2401.83 C 1226.47 2386.84 1309.93 2355.75 1386.19 2334.17 C 1409.04 2327.7 1413.54 2309.61 1412.49 2288.01 C 1411.62 2282.78 1412.57 2283.11 1409.52 2280.24 C 1404.04 2279.86 1395.21 2284.12 1389.47 2286.06 C 1353.74 2297.18 1317.08 2308.65 1282.17 2322.31 C 1253.45 2333.56 1226.16 2349.32 1196.25 2357.92 C 1123.44 2379.97 1026.13 2387.22 953.728 2363.19 z" fill="rgb(15,27,45)" transform="translate(0,0)"></path>
<path d="M 1389.47 2286.06 C 1395.21 2284.12 1404.04 2279.86 1409.52 2280.24 C 1412.57 2283.11 1411.62 2282.78 1412.49 2288.01 C 1413.54 2309.61 1409.04 2327.7 1386.19 2334.17 C 1309.93 2355.75 1226.47 2386.84 1149.22 2401.83 C 1120.83 2407.36 1092.01 2410.4 1063.09 2410.93 C 1033.12 2411.32 973.794 2406.94 947.171 2394.73 C 936.915 2389.39 934.814 2386.36 928.064 2377.41 C 926.956 2371.51 924.858 2369.11 923.962 2361.33 C 925.03 2355.71 924.04 2355.5 927.395 2352.67 C 931.779 2352.75 937.198 2356.64 941.41 2358.86 L 953.728 2363.19 C 1026.13 2387.22 1123.44 2379.97 1196.25 2357.92 C 1226.16 2349.32 1253.45 2333.56 1282.17 2322.31 C 1317.08 2308.65 1353.74 2297.18 1389.47 2286.06 z M 939.323 2374 C 940.754 2372.87 941.463 2371.06 941.175 2369.26 C 940.887 2367.46 939.646 2365.95 937.934 2365.33 C 936.221 2364.7 934.305 2365.05 932.925 2366.25 C 930.856 2368.03 930.593 2371.14 932.332 2373.25 C 934.072 2375.36 937.176 2375.69 939.323 2374 z M 1405.63 2295.24 C 1406.2 2293.28 1405.46 2291.16 1403.78 2289.99 C 1402.09 2288.82 1399.85 2288.86 1398.21 2290.08 C 1396.57 2291.31 1395.89 2293.45 1396.54 2295.4 C 1397.19 2297.37 1399.05 2298.7 1401.14 2298.66 C 1403.22 2298.63 1405.04 2297.24 1405.63 2295.24 z" fill="rgb(34,211,238)" transform="translate(0,0)"></path>
<path d="M 932.925 2366.25 C 934.305 2365.05 936.221 2364.7 937.934 2365.33 C 939.646 2365.95 940.887 2367.46 941.175 2369.26 C 941.463 2371.06 940.754 2372.87 939.323 2374 C 937.176 2375.69 934.072 2375.36 932.332 2373.25 C 930.593 2371.14 930.856 2368.03 932.925 2366.25 z" fill="rgb(8,234,254)" fill-opacity="0.027451" transform="translate(0,0)"></path>
<path d="M 1396.54 2295.4 C 1395.89 2293.45 1396.57 2291.31 1398.21 2290.08 C 1399.85 2288.86 1402.09 2288.82 1403.78 2289.99 C 1405.46 2291.16 1406.2 2293.28 1405.63 2295.24 C 1405.04 2297.24 1403.22 2298.63 1401.14 2298.66 C 1399.05 2298.7 1397.19 2297.37 1396.54 2295.4 z" fill="rgb(8,234,254)" fill-opacity="0.258824" transform="translate(0,0)"></path>
<path d="M 1578.71 2014.9 C 1584.55 2017.62 1590.05 2022 1594.83 2026.34 C 1619.46 2044.28 1609.3 2065.36 1593.49 2084.32 C 1558.46 2126.35 1521.81 2166.86 1484 2206.41 C 1466.31 2224.82 1434.99 2258.03 1415.76 2272.53 C 1415.58 2256.57 1415.59 2240.6 1415.8 2224.63 C 1428.95 2212.37 1441.27 2199.74 1453.68 2186.74 C 1456.02 2184.28 1463.6 2175.72 1465.81 2174.18 C 1470.09 2168.59 1476.01 2162.16 1480.72 2156.77 C 1481.31 2155.71 1483.05 2154.13 1484 2153.16 L 1484.69 2151.87 C 1515.05 2115.19 1556.05 2066.51 1576.16 2023.28 L 1577.9 2017.4 L 1578.71 2014.9 z" fill="rgb(34,211,238)" transform="translate(0,0)"></path>
<path d="M 1529.69 1998.9 C 1533.31 1994.82 1530.31 1994.99 1537.04 1994.78 C 1542.25 1995.91 1545.68 1994.56 1548.88 1999.67 C 1554.6 2008.8 1564.16 2003.05 1569.81 2014.06 C 1573.28 2020.83 1570.78 2021.36 1567.2 2027.52 C 1567.47 2042.44 1511.92 2112.46 1500.73 2126.03 C 1492.07 2136.54 1482.28 2146.03 1473.56 2156.47 C 1465.46 2166.17 1458.09 2177.48 1449.31 2186.48 C 1444.74 2191.17 1425.56 2211.65 1420.67 2213.11 L 1418.09 2212.55 C 1413.75 2205.05 1417.49 2195.37 1415.14 2188 C 1414.08 2186.22 1413.04 2184.29 1412.01 2182.48 C 1411.38 2177.97 1413.08 2176.02 1415.28 2171.96 C 1416.68 2168.73 1415.82 2170.05 1417.94 2167.99 C 1442.41 2144.29 1467.21 2115.95 1480.85 2084.53 C 1487.57 2069.04 1491.44 2052.25 1500.77 2039.65 C 1500.88 2039.29 1501 2038.93 1501.12 2038.57 L 1501.64 2037.09 C 1503.1 2032.84 1505.67 2029.38 1507.57 2025.03 C 1511.82 2019.9 1510.3 2018.18 1514.05 2015.44 C 1514.83 2014.95 1515.61 2014.47 1516.4 2013.99 C 1520.71 2012.07 1518.9 2006.27 1521.86 2004.85 C 1525.41 2003.15 1526.83 2001.28 1529.69 1998.9 z" fill="rgb(255,255,255)" fill-opacity="0.00784314" transform="translate(0,0)"></path>
<path d="M 1370.74 2253.99 C 1376.03 2255.81 1375.04 2255.23 1380.47 2255.66 C 1384.68 2255.99 1389.02 2255.16 1392.64 2256.8 C 1393.19 2257.05 1391.22 2265.76 1391.13 2266.26 C 1390.04 2267.55 1386.87 2266.42 1386.3 2267.78 C 1385.3 2270.18 1390.38 2269.04 1391.32 2268.63 C 1393.88 2267.97 1394.76 2259.02 1395.21 2256.87 C 1395.58 2255.1 1400.03 2245.9 1402.06 2248.22 C 1404.16 2250.61 1404.06 2258.62 1407.32 2263.85 C 1407.79 2274.18 1394.77 2276.85 1386.56 2279 C 1366.57 2284.24 1350.75 2290.27 1331.99 2298.4 C 1324.58 2300.37 1319.58 2302.81 1312.61 2305.94 C 1301.96 2305.61 1277.82 2313.99 1263.69 2316.72 C 1261.02 2319.54 1258.24 2323.12 1254.27 2322.38 C 1256.72 2314.43 1256.36 2310.9 1257.58 2306.42 L 1258.16 2304.37 L 1256.57 2302.03 L 1256.91 2300.94 C 1259.79 2301.58 1265.7 2303.83 1267.84 2305.89 C 1264.54 2306.58 1263.86 2306.8 1260.71 2308.03 L 1260 2310.33 L 1261.41 2311.47 C 1265.2 2309.83 1270.83 2307.7 1271.86 2303.53 C 1265.82 2300.25 1260.76 2301.57 1257.05 2297.82 L 1257.16 2295.29 C 1263.17 2288.08 1265.41 2294.64 1273.06 2289.37 C 1274.22 2286.11 1274.4 2285.44 1276.13 2282.5 C 1287.59 2279.57 1287.74 2284.65 1294.03 2273.42 C 1298.94 2269.99 1305.28 2272.15 1310.49 2270.23 C 1314.11 2268.9 1319.38 2263.16 1323.67 2262.62 C 1328.84 2261.56 1341.95 2262.54 1346.21 2260.69 C 1358.66 2255.29 1355.81 2252.3 1370.74 2253.99 z M 1272.25 2295.27 C 1269.22 2291.38 1265.25 2293.13 1260.49 2293.63 C 1266.05 2296.44 1266.2 2296.49 1272.25 2295.27 z" fill="rgb(255,255,255)" fill-opacity="0.0470588" transform="translate(0,0)"></path>
<path d="M 1260.49 2293.63 C 1265.25 2293.13 1269.22 2291.38 1272.25 2295.27 C 1266.2 2296.49 1266.05 2296.44 1260.49 2293.63 z" fill="rgb(255,255,255)" fill-opacity="0.0156863" transform="translate(0,0)"></path>
<path d="M 1224.83 1965.12 C 1228.07 1967.86 1243.71 1988.49 1243.28 1990.75 C 1241.53 1999.85 1232.55 2053.2 1229.02 2059.05 C 1227.66 2064.39 1225.9 2068.69 1227.14 2073.9 C 1232.49 2080.83 1231.67 2072.65 1233.13 2079.73 C 1229.79 2089.9 1227.98 2093.11 1223.77 2102.55 L 1226.28 2102 L 1226.71 2100.61 C 1231.2 2105.18 1282.72 2109.46 1297.92 2134.95 C 1314.71 2163.11 1293.63 2196.46 1327.86 2202.76 C 1369.51 2210.41 1346.67 2167.34 1379.91 2151.15 C 1386.5 2148.48 1388.31 2140.11 1392.38 2132.39 C 1393.89 2140.75 1390.56 2144.15 1399.07 2144.04 C 1410.87 2148.28 1403.76 2156.69 1409.56 2162.95 C 1413.55 2163.43 1414.28 2163.31 1417.09 2160.03 C 1421.62 2156.88 1434.44 2144.93 1435.87 2140.65 C 1469.73 2111.32 1477.08 2072.13 1494.45 2037.73 L 1495.53 2035.62 C 1497.15 2039.27 1496.95 2038.68 1500.77 2039.65 C 1491.44 2052.25 1487.57 2069.04 1480.85 2084.53 C 1467.21 2115.95 1442.41 2144.29 1417.94 2167.99 C 1415.82 2170.05 1416.68 2168.73 1415.28 2171.96 C 1411.42 2171.56 1413.16 2171.09 1409.97 2173.67 C 1408.52 2180.35 1411.38 2184.03 1408.81 2188.16 C 1406.28 2189.06 1407.45 2189.08 1405.33 2188.52 C 1404.81 2181.56 1402.6 2163.15 1398.65 2157.09 C 1392.15 2147.09 1376.94 2157.44 1371.37 2164.1 C 1367.51 2168.72 1363.94 2178.02 1363.5 2184.7 C 1363.12 2190.54 1358.84 2197.22 1356.01 2202.08 C 1336.09 2211.78 1335.83 2209.5 1314.1 2203.79 C 1309.85 2198.87 1305.55 2193.99 1301.22 2189.15 C 1299.75 2174.74 1301.27 2160.16 1299.6 2145.09 C 1272.34 2111.04 1245.64 2105.33 1203.92 2109.35 C 1202.99 2109.06 1202.1 2108.81 1201.25 2108.36 L 1201.19 2108.14 C 1202.1 2106.76 1207.89 2107.41 1208.79 2105.42 C 1210.11 2102.48 1205.65 2103.2 1204.4 2103.86 C 1203.53 2104.05 1202.66 2104.23 1201.8 2104.42 C 1200.49 2104.67 1192.97 2107.31 1192.49 2108.45 C 1193.19 2109.26 1194.51 2108.64 1197.41 2112.37 L 1191.78 2115.72 C 1171.37 2127.88 1161.83 2163.08 1144.11 2176.64 C 1142.87 2174.9 1141.74 2173.37 1139.94 2172.18 L 1138.54 2171.21 C 1143.5 2162.99 1151.61 2155.37 1157.32 2145.17 C 1175.97 2111.86 1186.71 2105.65 1222.85 2096.95 C 1233.45 2084.68 1222.02 2079.54 1222.99 2073.84 C 1227.6 2046.71 1240.01 2017.24 1238.72 1989.75 C 1238.65 1988.22 1227.26 1969.91 1225.47 1966.39 L 1224.83 1965.12 z" fill="rgb(36,36,37)" fill-opacity="0.709804" transform="translate(0,0)"></path>
<path d="M 1451.76 2048.72 C 1452.04 2040.75 1483.76 1969.38 1487.24 1957.74 C 1487.51 1956.82 1489.31 1955.16 1490.05 1954.47 C 1493.47 1958.16 1493.78 1958.68 1498.06 1961.12 C 1502.66 1965.22 1506.27 1967.46 1511.16 1971.05 C 1513.5 1972.83 1516.1 1974.36 1518.6 1975.92 C 1520.77 1977.54 1522.96 1979.01 1525.33 1980.33 L 1526.23 1981.03 C 1531.68 1985.19 1534.59 1984.43 1531.84 1990.5 C 1529.1 1991.51 1528.8 1991.51 1526.69 1993.73 C 1518.53 2002.34 1506.81 2015.56 1501.22 2025.78 C 1499.3 2029.39 1497.74 2032.18 1495.53 2035.62 L 1494.45 2037.73 C 1477.08 2072.13 1469.73 2111.32 1435.87 2140.65 C 1438.38 2134.66 1441.15 2133.85 1441.07 2129.2 C 1441.04 2126.21 1441.06 2123.22 1441.11 2120.23 C 1441.17 2114.47 1437.18 2119.44 1436.88 2115.64 C 1436.74 2113.97 1440.16 2110.68 1438.7 2108.54 C 1435.64 2107.64 1433.27 2118.74 1429.26 2119.78 C 1426.66 2120.45 1426.09 2126.86 1425.86 2129.19 C 1425.66 2131.53 1424.47 2133.67 1422.59 2135.08 C 1421.15 2136.17 1416.6 2138.31 1416.99 2139.86 C 1418.92 2147.48 1417.46 2152.49 1417.09 2160.03 C 1414.28 2163.31 1413.55 2163.43 1409.56 2162.95 C 1403.76 2156.69 1410.87 2148.28 1399.07 2144.04 C 1405.7 2134.16 1395.63 2143.76 1405.89 2136.88 C 1406.66 2134.58 1406.01 2130.1 1406.31 2129.8 C 1408.47 2129.99 1409.78 2133.56 1410.14 2135.33 C 1410.24 2135.32 1410.35 2135.31 1410.45 2135.3 C 1410.45 2134.95 1410.45 2134.6 1410.44 2134.25 C 1411.3 2133.56 1412.71 2130.44 1412.5 2129.63 C 1411.95 2127.52 1407.88 2126.8 1408.58 2123.42 C 1409.75 2119.57 1413.71 2125.23 1414.88 2128.39 C 1416.93 2133.94 1418.43 2120.33 1414.33 2119.68 C 1413.49 2119.34 1408.74 2116.03 1408.72 2115.65 C 1408.46 2110.95 1408.89 2099.9 1408.56 2095.55 C 1411.14 2091.1 1413.41 2086.84 1415.8 2082.28 C 1423.43 2082.23 1428.09 2083.53 1435.94 2083.38 C 1433.81 2085.06 1426.76 2088.25 1427.55 2087.44 C 1429.36 2094.06 1427.12 2087.93 1425.8 2092.25 C 1427.37 2095.24 1431.25 2089.79 1432.14 2089.94 C 1439.77 2091.25 1439.93 2093.09 1443.83 2085.73 C 1445.34 2081.1 1454.34 2082.68 1455.48 2085.51 C 1456.54 2088.12 1451.95 2092.08 1451.64 2094.09 C 1451.34 2096.09 1450.74 2099.68 1452.16 2101.57 C 1458.87 2106.71 1458.86 2091.95 1460.91 2090.11 C 1463.48 2087.79 1466.08 2087.72 1467.16 2086.43 C 1469.63 2083.49 1469.45 2076.21 1470.06 2072.35 C 1475.21 2068.37 1478.66 2067.59 1479.65 2060.72 L 1479.96 2058.79 C 1480.59 2039.17 1489.35 2048.64 1490.44 2031.25 C 1490.75 2026.29 1501.77 2025.92 1500.4 2017.15 C 1500.02 2014.71 1505.9 2012.5 1507.25 2012.21 C 1510.41 2010.41 1507.87 2003.58 1513.23 2002.76 C 1520.92 2001.67 1516.31 1993.47 1525.62 1991.87 C 1527.37 1990.83 1525.77 1988.14 1524.85 1987.74 C 1519.02 1985.26 1520.98 1977.61 1515.26 1977.57 C 1507.32 1977.5 1505.82 1967.37 1496.4 1965.07 C 1494.16 1964.52 1492.16 1961.4 1490.86 1959.99 C 1488.85 1961.84 1484.8 1981.48 1479.73 1985.48 C 1479.98 1985.29 1475.16 1996.36 1474.93 1997.33 L 1474.63 1998.56 C 1472.99 2005.37 1469.79 2003.1 1469.14 2012.21 C 1468.94 2014.98 1454.11 2047.85 1451.76 2048.72 z M 1449.35 2113.38 C 1450.25 2111.99 1450.05 2110.16 1448.86 2109 C 1447.68 2107.84 1445.84 2107.68 1444.47 2108.61 C 1443.3 2109.4 1442.73 2110.82 1443.02 2112.2 C 1443.31 2113.58 1444.41 2114.65 1445.79 2114.91 C 1447.18 2115.17 1448.58 2114.56 1449.35 2113.38 z M 1451.82 2090.09 C 1452.7 2089.27 1453.05 2088.03 1452.72 2086.87 C 1452.39 2085.72 1451.43 2084.85 1450.25 2084.62 C 1449.07 2084.4 1447.87 2084.85 1447.13 2085.81 C 1446.12 2087.12 1446.29 2088.98 1447.51 2090.1 C 1448.73 2091.22 1450.6 2091.21 1451.82 2090.09 z M 1423.78 2089.07 C 1423.09 2085.58 1420.57 2086.92 1417.08 2086.83 C 1419.43 2090.36 1419.89 2091.18 1423.78 2089.07 z" fill="url(#Gradient6)" transform="translate(0,0)"></path>
<path d="M 1444.47 2108.61 C 1445.84 2107.68 1447.68 2107.84 1448.86 2109 C 1450.05 2110.16 1450.25 2111.99 1449.35 2113.38 C 1448.58 2114.56 1447.18 2115.17 1445.79 2114.91 C 1444.41 2114.65 1443.31 2113.58 1443.02 2112.2 C 1442.73 2110.82 1443.3 2109.4 1444.47 2108.61 z" fill="rgb(255,255,255)" fill-opacity="0.129412" transform="translate(0,0)"></path>
<path d="M 1447.13 2085.81 C 1447.87 2084.85 1449.07 2084.4 1450.25 2084.62 C 1451.43 2084.85 1452.39 2085.72 1452.72 2086.87 C 1453.05 2088.03 1452.7 2089.27 1451.82 2090.09 C 1450.6 2091.21 1448.73 2091.22 1447.51 2090.1 C 1446.29 2088.98 1446.12 2087.12 1447.13 2085.81 z" fill="rgb(255,255,255)" fill-opacity="0.25098" transform="translate(0,0)"></path>
<path d="M 1417.08 2086.83 C 1420.57 2086.92 1423.09 2085.58 1423.78 2089.07 C 1419.89 2091.18 1419.43 2090.36 1417.08 2086.83 z" fill="rgb(255,255,255)" fill-opacity="0.0509804" transform="translate(0,0)"></path>
<path d="M 1451.76 2048.72 C 1454.11 2047.85 1468.94 2014.98 1469.14 2012.21 C 1469.79 2003.1 1472.99 2005.37 1474.63 1998.56 L 1474.93 1997.33 C 1475.16 1996.36 1479.98 1985.29 1479.73 1985.48 C 1484.8 1981.48 1488.85 1961.84 1490.86 1959.99 C 1492.16 1961.4 1494.16 1964.52 1496.4 1965.07 C 1505.82 1967.37 1507.32 1977.5 1515.26 1977.57 C 1520.98 1977.61 1519.02 1985.26 1524.85 1987.74 C 1525.77 1988.14 1527.37 1990.83 1525.62 1991.87 C 1516.31 1993.47 1520.92 2001.67 1513.23 2002.76 C 1507.87 2003.58 1510.41 2010.41 1507.25 2012.21 C 1505.9 2012.5 1500.02 2014.71 1500.4 2017.15 C 1501.77 2025.92 1490.75 2026.29 1490.44 2031.25 C 1489.35 2048.64 1480.59 2039.17 1479.96 2058.79 C 1475.55 2065.95 1472.84 2065.73 1467.56 2070.4 C 1466.77 2071.1 1466.06 2077.27 1465.33 2078.63 C 1465.15 2078.7 1464.96 2078.77 1464.77 2078.83 C 1461.07 2073.12 1474.39 2068.91 1457.87 2064.52 C 1446.72 2066.25 1451.74 2058.93 1451.76 2048.72 z" fill="url(#Gradient5)" transform="translate(0,0)"></path>
<path d="M 968.306 2328.31 L 968.683 2328.33 C 974.364 2330.17 980.918 2331.71 986.784 2333.08 C 995.929 2335.09 1005.09 2337.02 1014.27 2338.86 L 1012.16 2341.3 C 1014.09 2351.28 1060.61 2364.26 1071.77 2360.37 C 1081.31 2357.04 1091.47 2352.82 1101.51 2351.68 C 1109.32 2351.18 1124.1 2355.83 1128.46 2354.22 L 1129.32 2351.93 L 1135.55 2351.5 L 1137.46 2352.49 L 1137.64 2354.39 C 1157.22 2366.94 1154.3 2357.67 1167.7 2362.72 C 1156.29 2366.16 1135.11 2369.37 1122.95 2371.01 C 1065.79 2378.69 997.321 2378.51 943.807 2355.87 C 960.554 2355.5 965.839 2359.7 981.459 2362.59 C 986.385 2363.5 998.938 2362.82 1004.12 2361.56 C 1007.27 2360.79 1008.64 2357.65 1006.92 2354.86 C 1004.19 2352.77 1004.41 2344.05 1003.32 2342.95 C 996.701 2336.26 978.793 2340.75 972.175 2332.58 C 970.333 2330.31 970.374 2330.17 968.306 2328.31 z" fill="url(#Gradient4)" transform="translate(0,0)"></path>
<path d="M 1277.51 2273.2 C 1280.13 2270.13 1284.43 2268.83 1288.4 2266.67 C 1313.51 2253.02 1347.14 2246.46 1375.13 2240.54 C 1382.6 2238.95 1391.03 2236.45 1398.35 2235.55 C 1406.1 2234.6 1404.28 2235.12 1409.96 2229.87 C 1409.89 2239.29 1414.85 2245.71 1411.89 2250.48 C 1406.8 2258.2 1412.04 2268.17 1408.56 2270.91 C 1398.02 2279.22 1342.68 2298.32 1331.99 2298.4 C 1350.75 2290.27 1366.57 2284.24 1386.56 2279 C 1394.77 2276.85 1407.79 2274.18 1407.32 2263.85 C 1406.44 2252.45 1412.18 2243.41 1403.06 2243.93 C 1394.4 2244.42 1395.63 2247.2 1390.23 2253.4 C 1382.72 2253.35 1378.38 2253.16 1370.74 2253.99 C 1355.81 2252.3 1358.66 2255.29 1346.21 2260.69 C 1341.95 2262.54 1328.84 2261.56 1323.67 2262.62 C 1319.38 2263.16 1314.11 2268.9 1310.49 2270.23 C 1305.28 2272.15 1298.94 2269.99 1294.03 2273.42 C 1287.74 2284.65 1287.59 2279.57 1276.13 2282.5 C 1274.4 2285.44 1274.22 2286.11 1273.06 2289.37 C 1265.41 2294.64 1263.17 2288.08 1257.16 2295.29 L 1257.05 2297.82 C 1260.76 2301.57 1265.82 2300.25 1271.86 2303.53 C 1270.83 2307.7 1265.2 2309.83 1261.41 2311.47 L 1260 2310.33 L 1260.71 2308.03 C 1263.86 2306.8 1264.54 2306.58 1267.84 2305.89 C 1265.7 2303.83 1259.79 2301.58 1256.91 2300.94 L 1256.57 2302.03 C 1250.18 2300.9 1243.06 2299.37 1241.39 2306.66 C 1249 2309.32 1254.91 2311.73 1256.57 2302.03 L 1258.16 2304.37 L 1257.58 2306.42 C 1256.36 2310.9 1256.72 2314.43 1254.27 2322.38 C 1258.24 2323.12 1261.02 2319.54 1263.69 2316.72 C 1277.82 2313.99 1301.96 2305.61 1312.61 2305.94 C 1297.4 2310.62 1260.91 2325.91 1248.44 2327.27 C 1244.61 2331.07 1242.56 2334.54 1236.96 2334.32 C 1229.87 2332.28 1228.46 2332.53 1221.83 2335.18 C 1217.55 2336.89 1218.69 2329.23 1219.25 2328.45 C 1220.15 2327.19 1237.32 2330.11 1233.28 2322.19 C 1229.51 2316.43 1217.78 2324.29 1221.97 2310.63 C 1226.54 2310.47 1229.96 2310.76 1234.1 2308.88 C 1237.17 2306.11 1237.15 2303.9 1238.03 2299.81 C 1247.91 2293.91 1260.68 2287.97 1270.56 2282.31 C 1277.45 2278.37 1282.39 2276.67 1289.31 2273.27 C 1292.83 2270.47 1311.17 2264.92 1311.05 2263.03 C 1308.37 2258.83 1289.42 2270.33 1286.36 2271.31 L 1284.44 2272.25 C 1281.89 2273.55 1280.34 2273.45 1277.51 2273.2 z M 1364.13 2249.65 C 1370.76 2248.37 1377.37 2247.09 1383.98 2245.72 C 1380.78 2245.36 1371.45 2244.19 1368.6 2244.72 C 1366.6 2245.03 1350.63 2247.28 1351.77 2249.78 C 1354.54 2251.64 1357.94 2250.98 1360.88 2250.27 C 1361.96 2250.05 1363.05 2249.84 1364.13 2249.65 z M 1235.91 2317.45 C 1235.41 2310.54 1233.16 2311.76 1226.47 2312.42 L 1224.53 2312.6 C 1224.28 2319.55 1230.02 2317.63 1235.91 2317.45 z M 1241.65 2331.47 C 1243.45 2324.91 1239.32 2326.86 1234.12 2327.61 L 1234.23 2328.85 C 1234.44 2333.05 1238.64 2331.64 1241.65 2331.47 z" fill="rgb(186,185,185)" fill-opacity="0.258824" transform="translate(0,0)"></path>
<path d="M 1368.6 2244.72 C 1371.45 2244.19 1380.78 2245.36 1383.98 2245.72 C 1377.37 2247.09 1370.76 2248.37 1364.13 2249.65 C 1363.05 2249.84 1361.96 2250.05 1360.88 2250.27 C 1357.94 2250.98 1354.54 2251.64 1351.77 2249.78 C 1350.63 2247.28 1366.6 2245.03 1368.6 2244.72 z" fill="rgb(36,36,37)" fill-opacity="0.419608" transform="translate(0,0)"></path>
<path d="M 1224.53 2312.6 L 1226.47 2312.42 C 1233.16 2311.76 1235.41 2310.54 1235.91 2317.45 C 1230.02 2317.63 1224.28 2319.55 1224.53 2312.6 z" fill="rgb(255,255,255)" fill-opacity="0.152941" transform="translate(0,0)"></path>
<path d="M 1234.12 2327.61 C 1239.32 2326.86 1243.45 2324.91 1241.65 2331.47 C 1238.64 2331.64 1234.44 2333.05 1234.23 2328.85 L 1234.12 2327.61 z" fill="rgb(255,255,255)" fill-opacity="0.156863" transform="translate(0,0)"></path>
<path d="M 1411.89 2250.48 C 1411.68 2258.86 1411.29 2267.52 1411.82 2275.85 C 1369.5 2289.04 1323.93 2302.54 1282.97 2318.81 C 1242.3 2334.98 1212.13 2353.93 1167.7 2362.72 C 1154.3 2357.67 1157.22 2366.94 1137.64 2354.39 L 1137.46 2352.49 L 1135.55 2351.5 C 1139.85 2345.53 1168.37 2336.82 1176.01 2332.77 C 1179.02 2331.18 1190.65 2331.97 1194.43 2328.98 C 1196.47 2327.37 1196.67 2323.61 1197.27 2321.12 C 1203.99 2316.85 1212.13 2322.05 1214.94 2315.11 L 1213.48 2311.82 L 1213.4 2311.31 L 1215.69 2310.32 C 1222.85 2307.31 1230.93 2303.22 1238.03 2299.81 C 1237.15 2303.9 1237.17 2306.11 1234.1 2308.88 C 1229.96 2310.76 1226.54 2310.47 1221.97 2310.63 C 1214.55 2312.43 1220.23 2315.5 1216.3 2319.7 C 1213.22 2321.97 1207.08 2321.26 1204.32 2323.62 C 1202.12 2325.5 1209.73 2328.06 1210.12 2328.08 C 1217.46 2328.3 1207.62 2343.95 1219.55 2339.92 C 1227.71 2337.16 1228.27 2335.52 1236.96 2334.32 C 1242.56 2334.54 1244.61 2331.07 1248.44 2327.27 C 1260.91 2325.91 1297.4 2310.62 1312.61 2305.94 C 1319.58 2302.81 1324.58 2300.37 1331.99 2298.4 C 1342.68 2298.32 1398.02 2279.22 1408.56 2270.91 C 1412.04 2268.17 1406.8 2258.2 1411.89 2250.48 z M 1155.67 2352.79 L 1157.6 2353.31 C 1169.27 2357.24 1173.77 2343.67 1153.95 2344.69 C 1151.58 2345.99 1135.04 2350.96 1140.52 2353.35 C 1145.19 2355.39 1150.62 2350.98 1155.67 2352.79 z" fill="rgb(255,255,255)" fill-opacity="0.501961" transform="translate(0,0)"></path>
<path d="M 1153.95 2344.69 C 1173.77 2343.67 1169.27 2357.24 1157.6 2353.31 L 1155.67 2352.79 C 1150.62 2350.98 1145.19 2355.39 1140.52 2353.35 C 1135.04 2350.96 1151.58 2345.99 1153.95 2344.69 z" fill="url(#Gradient3)" transform="translate(0,0)"></path>
<path d="M 1156.66 2330.15 C 1178.58 2325.2 1192.81 2318.91 1213.48 2311.82 L 1214.94 2315.11 C 1212.13 2322.05 1203.99 2316.85 1197.27 2321.12 C 1196.67 2323.61 1196.47 2327.37 1194.43 2328.98 C 1190.65 2331.97 1179.02 2331.18 1176.01 2332.77 C 1168.37 2336.82 1139.85 2345.53 1135.55 2351.5 L 1129.32 2351.93 L 1128.46 2354.22 C 1124.1 2355.83 1109.32 2351.18 1101.51 2351.68 C 1091.47 2352.82 1081.31 2357.04 1071.77 2360.37 C 1060.61 2364.26 1014.09 2351.28 1012.16 2341.3 L 1014.27 2338.86 C 1022.67 2339.78 1034.22 2340.43 1042.05 2341.58 C 1037.82 2341.83 1025.79 2340.69 1023.59 2343.14 C 1020.14 2346.98 1041.38 2351.36 1043.83 2352.23 C 1054.23 2355.89 1069.63 2356.82 1080.07 2353.03 C 1091.52 2344.88 1095.24 2348.33 1109.59 2347.21 C 1129.42 2346.27 1139.33 2344.48 1157.09 2336.51 C 1159.69 2334.93 1163.32 2332.68 1158.35 2330.84 L 1156.66 2330.15 z" fill="rgb(255,255,255)" fill-opacity="0.658824" transform="translate(0,0)"></path>
<path d="M 944.014 2308.53 C 945.846 2309.6 951.907 2312.97 952.514 2314.57 C 949.987 2315.93 950.239 2315.91 948.728 2318.56 C 944.306 2330.3 956.355 2329.93 963.302 2330.94 C 965.615 2333.74 967.729 2336.64 969.881 2339.56 C 973.361 2339.91 976.837 2340.3 980.308 2340.73 C 983.599 2341.16 991.337 2345.89 987.1 2346.29 C 976.282 2347.31 969.083 2354.98 958.317 2353.17 C 952.436 2352.19 947.06 2355.66 942.147 2351.69 C 942.046 2351.62 928.971 2346.24 928.987 2346.25 L 928.492 2345.24 C 925.536 2339.08 927.842 2341 929.945 2336.19 C 932.616 2328.95 931.774 2328.88 932.089 2322.67 C 932.515 2314.31 945.135 2322.84 944.014 2308.53 z M 951.584 2345.15 C 952.582 2338.91 952.908 2338.8 947.191 2335.28 C 945.957 2340.96 944.685 2344.64 951.584 2345.15 z" fill="rgb(255,255,255)" fill-opacity="0.0627451" transform="translate(0,0)"></path>
<path d="M 947.191 2335.28 C 952.908 2338.8 952.582 2338.91 951.584 2345.15 C 944.685 2344.64 945.957 2340.96 947.191 2335.28 z" fill="rgb(255,255,255)" fill-opacity="0.133333" transform="translate(0,0)"></path>
<path d="M 999.438 2331.09 C 1009.8 2331.15 1015.94 2334.68 1024.57 2335.41 C 1081.25 2340.17 1137.75 2332.79 1191.29 2313.69 C 1199.18 2310.87 1201.84 2307.84 1210.76 2308.32 L 1213.4 2311.31 L 1213.48 2311.82 C 1192.81 2318.91 1178.58 2325.2 1156.66 2330.15 C 1144.02 2333.58 1136.43 2334.43 1124.04 2336.93 C 1106.3 2339.32 1089.93 2341.35 1071.95 2342.09 C 1065.2 2341.64 1049.3 2341.51 1042.05 2341.58 C 1034.22 2340.43 1022.67 2339.78 1014.27 2338.86 C 1005.09 2337.02 995.929 2335.09 986.784 2333.08 C 988.692 2332.2 988.376 2332.52 989.637 2331.39 L 989.624 2331.27 C 990.961 2329.91 997.061 2331.03 999.438 2331.09 z" fill="rgb(54,53,54)" fill-opacity="0.764706" transform="translate(0,0)"></path>
<path d="M 963.302 2330.94 C 956.355 2329.93 944.306 2330.3 948.728 2318.56 C 956.374 2324.65 959.57 2324.82 968.306 2328.31 C 970.374 2330.17 970.333 2330.31 972.175 2332.58 C 978.793 2340.75 996.701 2336.26 1003.32 2342.95 C 1004.41 2344.05 1004.19 2352.77 1006.92 2354.86 C 1008.64 2357.65 1007.27 2360.79 1004.12 2361.56 C 998.938 2362.82 986.385 2363.5 981.459 2362.59 C 965.839 2359.7 960.554 2355.5 943.807 2355.87 C 940.481 2355.05 928.707 2350.59 928.987 2346.25 C 928.971 2346.24 942.046 2351.62 942.147 2351.69 C 947.06 2355.66 952.436 2352.19 958.317 2353.17 C 969.083 2354.98 976.282 2347.31 987.1 2346.29 C 991.337 2345.89 983.599 2341.16 980.308 2340.73 C 976.837 2340.3 973.361 2339.91 969.881 2339.56 C 967.729 2336.64 965.615 2333.74 963.302 2330.94 z" fill="rgb(255,255,255)" fill-opacity="0.219608" transform="translate(0,0)"></path>
<path d="M 989.219 2261.22 C 991.93 2259.1 994.926 2259.58 999.163 2257.9 C 1004.38 2256.42 1008.23 2249.83 1013.53 2250.01 C 1022.81 2250.32 1030.04 2241.25 1038.48 2240.65 C 1045.26 2240.16 1051.44 2232.17 1057.47 2231.15 C 1063.23 2230.18 1061.98 2230.66 1067.1 2226.84 C 1068.47 2226.04 1072.41 2223.35 1073.16 2223.04 C 1072.54 2227.59 1073.89 2226.12 1077.77 2229.04 L 1078.76 2229.8 C 1071.84 2231.53 1065.76 2237.61 1058.64 2239.98 C 1055.65 2240.97 1049.74 2244.08 1047.48 2246.07 C 1045.9 2247.25 1032.89 2251.57 1030.16 2252.86 C 1025.77 2254.94 1024.55 2257 1020.63 2256.77 C 1017.45 2256.44 1013.23 2263.97 1007.56 2262.29 C 1006.09 2261.86 1001.82 2265.91 998.613 2266.94 C 999.39 2259.49 994.075 2261.3 989.219 2261.22 z M 1009.41 2259.76 C 1014.05 2257.46 1016.25 2256.02 1021.16 2255.06 L 1021.35 2254.72 C 1020.8 2253.24 1019.51 2254.29 1017.92 2251.08 L 1016.27 2252.52 C 1015.18 2253.46 1000.83 2258.7 1009.41 2259.76 z M 1039.92 2244.26 L 1041.51 2244.68 C 1042.36 2244.72 1043.3 2245.36 1043.83 2244.43 C 1043.48 2243.13 1041.14 2242.04 1040.17 2241.39 C 1039.59 2241.86 1036.14 2244.14 1036.02 2244.85 C 1036.88 2245.68 1038.99 2244.54 1039.92 2244.26 z M 1061.02 2237.3 C 1065.81 2233.87 1061.93 2233.69 1058.11 2233.48 L 1056.7 2233.39 C 1055.22 2238.34 1056.51 2238 1061.02 2237.3 z" fill="rgb(36,36,37)" fill-opacity="0.470588" transform="translate(0,0)"></path>
<path d="M 1017.92 2251.08 C 1019.51 2254.29 1020.8 2253.24 1021.35 2254.72 L 1021.16 2255.06 C 1016.25 2256.02 1014.05 2257.46 1009.41 2259.76 C 1000.83 2258.7 1015.18 2253.46 1016.27 2252.52 L 1017.92 2251.08 z" fill="rgb(36,36,37)" fill-opacity="0.713725" transform="translate(0,0)"></path>
<path d="M 1040.17 2241.39 C 1041.14 2242.04 1043.48 2243.13 1043.83 2244.43 C 1043.3 2245.36 1042.36 2244.72 1041.51 2244.68 L 1039.92 2244.26 C 1038.99 2244.54 1036.88 2245.68 1036.02 2244.85 C 1036.14 2244.14 1039.59 2241.86 1040.17 2241.39 z" fill="rgb(36,36,37)" fill-opacity="0.701961" transform="translate(0,0)"></path>
<path d="M 1056.7 2233.39 L 1058.11 2233.48 C 1061.93 2233.69 1065.81 2233.87 1061.02 2237.3 C 1056.51 2238 1055.22 2238.34 1056.7 2233.39 z" fill="rgb(25,24,25)" fill-opacity="0.701961" transform="translate(0,0)"></path>
<path d="M 1124.04 2336.93 C 1140.81 2342.11 1140.94 2337.72 1157.09 2336.51 C 1139.33 2344.48 1129.42 2346.27 1109.59 2347.21 C 1104.34 2345.71 1086.65 2345.09 1082.44 2346.25 C 1067.19 2350.56 1049.74 2347.38 1034.24 2345.87 C 1033.86 2345.83 1029.31 2344.87 1029.26 2344.05 C 1031.99 2340.7 1067.87 2346.28 1071.95 2342.09 C 1089.93 2341.35 1106.3 2339.32 1124.04 2336.93 z" fill="url(#Gradient2)" transform="translate(0,0)"></path>
<path d="M 1457.87 2064.52 C 1474.39 2068.91 1461.07 2073.12 1464.77 2078.83 C 1464.96 2078.77 1465.15 2078.7 1465.33 2078.63 C 1466.06 2077.27 1466.77 2071.1 1467.56 2070.4 C 1472.84 2065.73 1475.55 2065.95 1479.96 2058.79 L 1479.65 2060.72 C 1478.66 2067.59 1475.21 2068.37 1470.06 2072.35 C 1469.45 2076.21 1469.63 2083.49 1467.16 2086.43 C 1466.08 2087.72 1463.48 2087.79 1460.91 2090.11 C 1458.86 2091.95 1458.87 2106.71 1452.16 2101.57 C 1450.74 2099.68 1451.34 2096.09 1451.64 2094.09 C 1451.95 2092.08 1456.54 2088.12 1455.48 2085.51 C 1454.34 2082.68 1445.34 2081.1 1443.83 2085.73 C 1440.29 2083.01 1440.63 2083.29 1435.94 2083.38 C 1428.09 2083.53 1423.43 2082.23 1415.8 2082.28 C 1416.91 2077.7 1431.41 2081.41 1436.17 2078.66 C 1441.63 2075.51 1443.37 2067.6 1445.54 2062.28 C 1445.81 2068.94 1445.64 2073.58 1444.55 2080.13 C 1444.28 2081.73 1452.89 2081.66 1454.51 2079.19 C 1459.59 2071.46 1448.68 2071.48 1457.87 2064.52 z" fill="rgb(255,255,255)" fill-opacity="0.145098" transform="translate(0,0)"></path>
<path d="M 1417.09 2160.03 C 1417.46 2152.49 1418.92 2147.48 1416.99 2139.86 C 1416.6 2138.31 1421.15 2136.17 1422.59 2135.08 C 1424.47 2133.67 1425.66 2131.53 1425.86 2129.19 C 1426.09 2126.86 1426.66 2120.45 1429.26 2119.78 C 1433.27 2118.74 1435.64 2107.64 1438.7 2108.54 C 1440.16 2110.68 1436.74 2113.97 1436.88 2115.64 C 1437.18 2119.44 1441.17 2114.47 1441.11 2120.23 C 1441.06 2123.22 1441.04 2126.21 1441.07 2129.2 C 1441.15 2133.85 1438.38 2134.66 1435.87 2140.65 C 1434.44 2144.93 1421.62 2156.88 1417.09 2160.03 z" fill="rgb(255,255,255)" fill-opacity="0.172549" transform="translate(0,0)"></path>
<path d="M 951.624 2285.82 C 958.157 2275.8 962.01 2282.25 969.715 2271.77 C 971.59 2269.22 981.343 2267.75 980.506 2274.01 C 978.781 2282.36 967.386 2277.93 963.556 2284.64 C 961.679 2287.93 957.517 2290.02 953.812 2290.3 C 950.614 2293.5 948.253 2299.03 943.925 2299.28 C 938.014 2299.62 940.97 2305.62 944.014 2308.53 C 945.135 2322.84 932.515 2314.31 932.089 2322.67 C 931.774 2328.88 932.616 2328.95 929.945 2336.19 C 922.541 2332.71 929.467 2326.77 927.225 2319.49 C 928.251 2318.71 931.006 2316.89 930.927 2316.76 C 930.27 2315.7 934.683 2304.27 934.665 2305.46 C 934.711 2302.48 939.619 2299.87 939.84 2297.84 C 940.556 2291.27 946.63 2290.23 951.624 2285.82 z" fill="rgb(15,27,45)" transform="translate(0,0)"></path>
<path d="M 1392.38 2132.39 C 1397.56 2126.03 1395.79 2122.81 1398.91 2117.84 C 1403.63 2110.3 1405.38 2102.74 1408.56 2095.55 C 1408.89 2099.9 1408.46 2110.95 1408.72 2115.65 C 1408.74 2116.03 1413.49 2119.34 1414.33 2119.68 C 1418.43 2120.33 1416.93 2133.94 1414.88 2128.39 C 1413.71 2125.23 1409.75 2119.57 1408.58 2123.42 C 1407.88 2126.8 1411.95 2127.52 1412.5 2129.63 C 1412.71 2130.44 1411.3 2133.56 1410.44 2134.25 C 1410.45 2134.6 1410.45 2134.95 1410.45 2135.3 C 1410.35 2135.31 1410.24 2135.32 1410.14 2135.33 C 1409.78 2133.56 1408.47 2129.99 1406.31 2129.8 C 1406.01 2130.1 1406.66 2134.58 1405.89 2136.88 C 1395.63 2143.76 1405.7 2134.16 1399.07 2144.04 C 1390.56 2144.15 1393.89 2140.75 1392.38 2132.39 z M 1403.75 2137.02 C 1405.23 2131.44 1405 2129.54 1399.99 2127.16 C 1398.6 2133.46 1396.93 2135.78 1403.75 2137.02 z" fill="rgb(255,255,255)" fill-opacity="0.0588235" transform="translate(0,0)"></path>
<path d="M 1042.05 2341.58 C 1049.3 2341.51 1065.2 2341.64 1071.95 2342.09 C 1067.87 2346.28 1031.99 2340.7 1029.26 2344.05 C 1029.31 2344.87 1033.86 2345.83 1034.24 2345.87 C 1049.74 2347.38 1067.19 2350.56 1082.44 2346.25 C 1086.65 2345.09 1104.34 2345.71 1109.59 2347.21 C 1095.24 2348.33 1091.52 2344.88 1080.07 2353.03 C 1069.63 2356.82 1054.23 2355.89 1043.83 2352.23 C 1041.38 2351.36 1020.14 2346.98 1023.59 2343.14 C 1025.79 2340.69 1037.82 2341.83 1042.05 2341.58 z" fill="rgb(255,255,255)" fill-opacity="0.780392" transform="translate(0,0)"></path>
<path d="M 1286.36 2271.31 L 1289.31 2273.27 C 1282.39 2276.67 1277.45 2278.37 1270.56 2282.31 C 1260.68 2287.97 1247.91 2293.91 1238.03 2299.81 C 1230.93 2303.22 1222.85 2307.31 1215.69 2310.32 L 1213.4 2311.31 L 1210.76 2308.32 C 1215.87 2306.02 1222.02 2299 1227.91 2298.7 C 1235.36 2298.32 1235.56 2293.51 1242.46 2291.12 C 1250.71 2288.27 1253.23 2286.67 1260.32 2281.61 C 1259.01 2282.56 1280.06 2272.71 1277.51 2273.2 C 1280.34 2273.45 1281.89 2273.55 1284.44 2272.25 L 1286.36 2271.31 z" fill="rgb(25,24,25)" fill-opacity="0.627451" transform="translate(0,0)"></path>
<path d="M 1535.65 1993.2 C 1538.19 1993.27 1541.94 1993.75 1544.28 1992.87 C 1545.88 1990.22 1549.22 1991.43 1551.68 1991.63 C 1555.08 1994.19 1561.63 1996.69 1565.66 1998.55 C 1570.25 2000.67 1575.37 2005.55 1579.38 2008.78 C 1575.79 2013.4 1574.48 2008.45 1573.97 2018.75 C 1573.77 2022.83 1571.17 2026.27 1567.2 2027.52 C 1570.78 2021.36 1573.28 2020.83 1569.81 2014.06 C 1564.16 2003.05 1554.6 2008.8 1548.88 1999.67 C 1545.68 1994.56 1542.25 1995.91 1537.04 1994.78 L 1535.65 1993.2 z" fill="rgb(36,36,37)" fill-opacity="0.545098" transform="translate(0,0)"></path>
<path d="M 1555.03 1997.39 C 1558.62 1995.53 1564.75 2002.37 1566.76 2004.62 C 1563.33 2004.51 1553.81 2002.01 1555.03 1997.39 z" fill="rgb(15,27,45)" transform="translate(0,0)"></path>
<path d="M 1236.96 2334.32 C 1228.27 2335.52 1227.71 2337.16 1219.55 2339.92 C 1207.62 2343.95 1217.46 2328.3 1210.12 2328.08 C 1209.73 2328.06 1202.12 2325.5 1204.32 2323.62 C 1207.08 2321.26 1213.22 2321.97 1216.3 2319.7 C 1220.23 2315.5 1214.55 2312.43 1221.97 2310.63 C 1217.78 2324.29 1229.51 2316.43 1233.28 2322.19 C 1237.32 2330.11 1220.15 2327.19 1219.25 2328.45 C 1218.69 2329.23 1217.55 2336.89 1221.83 2335.18 C 1228.46 2332.53 1229.87 2332.28 1236.96 2334.32 z" fill="rgb(255,255,255)" fill-opacity="0.337255" transform="translate(0,0)"></path>
<path d="M 930.401 2387.85 C 926.584 2384.25 922.19 2375.32 920.445 2370.26 C 920.135 2365.31 916.766 2362.04 918.307 2357.21 C 920.718 2349.66 922.322 2325.98 927.225 2319.49 C 929.467 2326.77 922.541 2332.71 929.945 2336.19 C 927.842 2341 925.536 2339.08 928.492 2345.24 C 920.484 2346.45 923.189 2354.51 923.962 2361.33 C 924.858 2369.11 926.956 2371.51 928.064 2377.41 C 928.435 2382.58 928.839 2382.74 930.401 2387.85 z" fill="rgb(36,36,37)" fill-opacity="0.6" transform="translate(0,0)"></path>
<path d="M 1113.3 2194.51 C 1122.54 2190.53 1117.75 2190.88 1125.66 2184.61 C 1127.59 2183.08 1138.39 2171.92 1138.54 2171.21 L 1139.94 2172.18 C 1141.74 2173.37 1142.87 2174.9 1144.11 2176.64 C 1139.88 2179.05 1140.47 2184.32 1134.66 2186.82 C 1135.79 2186.34 1121.12 2199.41 1121.66 2198.73 C 1119.73 2195.32 1117.03 2194.36 1113.3 2194.51 z M 1134.01 2184.84 C 1139.4 2179.77 1141.05 2180.54 1136.68 2175.48 L 1135.28 2176.96 C 1133.41 2178.89 1129.49 2183.53 1134.01 2184.84 z" fill="rgb(25,24,25)" fill-opacity="0.458824" transform="translate(0,0)"></path>
<path d="M 1136.68 2175.48 C 1141.05 2180.54 1139.4 2179.77 1134.01 2184.84 C 1129.49 2183.53 1133.41 2178.89 1135.28 2176.96 L 1136.68 2175.48 z" fill="rgb(25,24,25)" fill-opacity="0.631373" transform="translate(0,0)"></path>
<path d="M 1390.23 2253.4 C 1395.63 2247.2 1394.4 2244.42 1403.06 2243.93 C 1412.18 2243.41 1406.44 2252.45 1407.32 2263.85 C 1404.06 2258.62 1404.16 2250.61 1402.06 2248.22 C 1400.03 2245.9 1395.58 2255.1 1395.21 2256.87 C 1394.76 2259.02 1393.88 2267.97 1391.32 2268.63 C 1390.38 2269.04 1385.3 2270.18 1386.3 2267.78 C 1386.87 2266.42 1390.04 2267.55 1391.13 2266.26 C 1391.22 2265.76 1393.19 2257.05 1392.64 2256.8 C 1389.02 2255.16 1384.68 2255.99 1380.47 2255.66 C 1375.04 2255.23 1376.03 2255.81 1370.74 2253.99 C 1378.38 2253.16 1382.72 2253.35 1390.23 2253.4 z" fill="rgb(255,255,255)" fill-opacity="0.0745098" transform="translate(0,0)"></path>
<path d="M 1451.76 2048.72 C 1451.74 2058.93 1446.72 2066.25 1457.87 2064.52 C 1448.68 2071.48 1459.59 2071.46 1454.51 2079.19 C 1452.89 2081.66 1444.28 2081.73 1444.55 2080.13 C 1445.64 2073.58 1445.81 2068.94 1445.54 2062.28 C 1448.44 2056.56 1447.65 2054.33 1451.76 2048.72 z M 1450.72 2079.36 C 1452.82 2074.1 1452.22 2072.83 1448.71 2068.24 C 1446.06 2074.56 1444.55 2076.64 1450.72 2079.36 z" fill="rgb(255,255,255)" fill-opacity="0.054902" transform="translate(0,0)"></path>
<path d="M 1526.69 1993.73 C 1528.4 1996.08 1528.38 1996.17 1529.69 1998.9 C 1526.83 2001.28 1525.41 2003.15 1521.86 2004.85 C 1518.9 2006.27 1520.71 2012.07 1516.4 2013.99 C 1515.61 2014.47 1514.83 2014.95 1514.05 2015.44 C 1510.3 2018.18 1511.82 2019.9 1507.57 2025.03 C 1505.46 2025.27 1503.34 2025.52 1501.22 2025.78 C 1506.81 2015.56 1518.53 2002.34 1526.69 1993.73 z" fill="rgb(15,27,45)" transform="translate(0,0)"></path>
<path d="M 1124.04 2336.93 C 1136.43 2334.43 1144.02 2333.58 1156.66 2330.15 L 1158.35 2330.84 C 1163.32 2332.68 1159.69 2334.93 1157.09 2336.51 C 1140.94 2337.72 1140.81 2342.11 1124.04 2336.93 z" fill="rgb(255,255,255)" fill-opacity="0.815686" transform="translate(0,0)"></path>
<path d="M 1081.51 2218.94 C 1087.41 2212.3 1086.59 2214.19 1094.23 2210.4 C 1097.04 2209 1100.13 2205.1 1104.1 2203.55 C 1102.58 2206.67 1099.49 2209.57 1098.81 2211.31 C 1099.55 2214.11 1108.05 2208.57 1110.25 2208.04 C 1107.7 2211.38 1092.54 2222.32 1090.08 2222.61 C 1094.3 2211.18 1091.53 2214.88 1081.51 2218.94 z" fill="rgb(54,53,54)" fill-opacity="0.345098" transform="translate(0,0)"></path>
<path d="M 1113.3 2194.51 C 1117.03 2194.36 1119.73 2195.32 1121.66 2198.73 L 1120.11 2200.23 C 1116.19 2204.17 1114.49 2203.37 1110.25 2208.04 C 1108.05 2208.57 1099.55 2214.11 1098.81 2211.31 C 1099.49 2209.57 1102.58 2206.67 1104.1 2203.55 C 1110.1 2200.88 1109.35 2199.79 1113.3 2194.51 z" fill="rgb(36,36,37)" fill-opacity="0.603922" transform="translate(0,0)"></path>
<path d="M 966.93 2322.1 C 974.578 2322.16 991.761 2328.33 999.438 2331.09 C 997.061 2331.03 990.961 2329.91 989.624 2331.27 L 989.637 2331.39 C 988.376 2332.52 988.692 2332.2 986.784 2333.08 C 980.918 2331.71 974.364 2330.17 968.683 2328.33 C 972.091 2324.59 971.706 2327.11 974.11 2325.59 L 974.025 2325.35 C 972.097 2324.44 966.923 2323.74 966.343 2323.13 C 966.416 2322.64 966.305 2322.96 966.93 2322.1 z" fill="rgb(54,53,54)" fill-opacity="0.47451" transform="translate(0,0)"></path>
<path d="M 1525.33 1980.33 C 1529.1 1981.17 1532.86 1981.65 1536.74 1982.47 C 1541.9 1985.48 1546.76 1988.17 1551.68 1991.63 C 1549.22 1991.43 1545.88 1990.22 1544.28 1992.87 C 1541.94 1993.75 1538.19 1993.27 1535.65 1993.2 C 1533.26 1992.2 1533.35 1992.42 1531.84 1990.5 C 1534.59 1984.43 1531.68 1985.19 1526.23 1981.03 L 1525.33 1980.33 z" fill="rgb(15,27,45)" transform="translate(0,0)"></path>
<path d="M 1081.51 2218.94 C 1091.53 2214.88 1094.3 2211.18 1090.08 2222.61 C 1082.57 2224.92 1084.87 2226.16 1078.76 2229.8 L 1077.77 2229.04 C 1073.89 2226.12 1072.54 2227.59 1073.16 2223.04 L 1075.09 2222.37 C 1078.41 2221.25 1078.98 2221.22 1081.51 2218.94 z" fill="rgb(36,36,37)" fill-opacity="0.666667" transform="translate(0,0)"></path>
<path d="M 948.728 2318.56 C 950.239 2315.91 949.987 2315.93 952.514 2314.57 L 954.229 2315.79 C 958.241 2318.76 962.387 2320.39 966.93 2322.1 C 966.305 2322.96 966.416 2322.64 966.343 2323.13 C 966.923 2323.74 972.097 2324.44 974.025 2325.35 L 974.11 2325.59 C 971.706 2327.11 972.091 2324.59 968.683 2328.33 L 968.306 2328.31 C 959.57 2324.82 956.374 2324.65 948.728 2318.56 z" fill="rgb(36,36,37)" fill-opacity="0.647059" transform="translate(0,0)"></path>
<path d="M 989.219 2261.22 C 994.075 2261.3 999.39 2259.49 998.613 2266.94 C 993.298 2269.96 989.715 2272.63 983.793 2269.39 C 983.76 2269.37 981.035 2268.78 981.451 2268.27 C 983.216 2266.07 987 2263.61 989.219 2261.22 z" fill="rgb(36,36,37)" fill-opacity="0.756863" transform="translate(0,0)"></path>
<path d="M 1435.94 2083.38 C 1440.63 2083.29 1440.29 2083.01 1443.83 2085.73 C 1439.93 2093.09 1439.77 2091.25 1432.14 2089.94 C 1431.25 2089.79 1427.37 2095.24 1425.8 2092.25 C 1427.12 2087.93 1429.36 2094.06 1427.55 2087.44 C 1426.76 2088.25 1433.81 2085.06 1435.94 2083.38 z" fill="url(#Gradient1)" transform="translate(0,0)"></path>
<path d="M 1241.39 2306.66 C 1243.06 2299.37 1250.18 2300.9 1256.57 2302.03 C 1254.91 2311.73 1249 2309.32 1241.39 2306.66 z" fill="rgb(255,255,255)" fill-opacity="0.054902" transform="translate(0,0)"></path>
<path d="M 1501.22 2025.78 C 1503.34 2025.52 1505.46 2025.27 1507.57 2025.03 C 1505.67 2029.38 1503.1 2032.84 1501.64 2037.09 L 1501.12 2038.57 C 1501 2038.93 1500.88 2039.29 1500.77 2039.65 C 1496.95 2038.68 1497.15 2039.27 1495.53 2035.62 C 1497.74 2032.18 1499.3 2029.39 1501.22 2025.78 z" fill="rgb(36,36,37)" fill-opacity="0.560784" transform="translate(0,0)"></path>
<path d="M 1286.36 2271.31 C 1289.42 2270.33 1308.37 2258.83 1311.05 2263.03 C 1311.17 2264.92 1292.83 2270.47 1289.31 2273.27 L 1286.36 2271.31 z" fill="rgb(36,36,37)" fill-opacity="0.45098" transform="translate(0,0)"></path>
<path d="M 1521.66 1971.54 C 1521.71 1971.56 1535.49 1981.54 1536.74 1982.47 C 1532.86 1981.65 1529.1 1981.17 1525.33 1980.33 C 1522.96 1979.01 1520.77 1977.54 1518.6 1975.92 C 1520.77 1974.07 1520.62 1974.21 1521.66 1971.54 z" fill="rgb(36,36,37)" fill-opacity="0.533333" transform="translate(0,0)"></path>
<path d="M 1498.06 1961.12 L 1499.58 1960.16 C 1505.05 1956.59 1507.34 1964.31 1513.84 1967.24 L 1511.16 1971.05 C 1506.27 1967.46 1502.66 1965.22 1498.06 1961.12 z" fill="rgb(25,24,25)" fill-opacity="0.631373" transform="translate(0,0)"></path>
<path d="M 1197.41 2112.37 C 1194.51 2108.64 1193.19 2109.26 1192.49 2108.45 C 1192.97 2107.31 1200.49 2104.67 1201.8 2104.42 C 1202.66 2104.23 1203.53 2104.05 1204.4 2103.86 C 1205.65 2103.2 1210.11 2102.48 1208.79 2105.42 C 1207.89 2107.41 1202.1 2106.76 1201.19 2108.14 L 1201.25 2108.36 C 1202.1 2108.81 1202.99 2109.06 1203.92 2109.35 C 1200.56 2110.11 1199.63 2109.38 1197.41 2112.37 z" fill="rgb(36,36,37)" fill-opacity="0.52549" transform="translate(0,0)"></path>
<path d="M 1526.69 1993.73 C 1528.8 1991.51 1529.1 1991.51 1531.84 1990.5 C 1533.35 1992.42 1533.26 1992.2 1535.65 1993.2 L 1537.04 1994.78 C 1530.31 1994.99 1533.31 1994.82 1529.69 1998.9 C 1528.38 1996.17 1528.4 1996.08 1526.69 1993.73 z" fill="rgb(25,24,25)" fill-opacity="0.380392" transform="translate(0,0)"></path>
<path d="M 1513.84 1967.24 C 1516.46 1968.66 1519.02 1970.14 1521.66 1971.54 C 1520.62 1974.21 1520.77 1974.07 1518.6 1975.92 C 1516.1 1974.36 1513.5 1972.83 1511.16 1971.05 L 1513.84 1967.24 z" fill="rgb(15,27,45)" transform="translate(0,0)"></path>
<metadata><recraft-signature>{"signed_by": "recraft", "signature_b64": "ln2kDwpUC52wC+OaXYnxgswWVFAYexxzbLZ8Yq/EAkS8TiQv8zgOlO2xKo8TT93heZGe7bAeDHaZ6U6eAbpmDA==", "signing_algo": "Ed25519", "generation_timestamp": 1783920255, "identifier": "2271acdc-28b6-436b-b430-060edc3c6f87"}</recraft-signature></metadata></svg>