<svg xmlns="http://www.w3.org/2000/svg" height="2432" preserveAspectRatio="none" style="display: block;" version="1.1" viewBox="0 0 2432 2432" width="1792">
<defs>
	<linearGradient gradientUnits="userSpaceOnUse" id="Gradient1" x1="1608.36" x2="1601.67" y1="2262.14" y2="2303.64">
		<stop class="stop0" offset="0" stop-color="rgb(255,255,255)" stop-opacity="0.360784"></stop>
		<stop class="stop1" offset="1" stop-color="rgb(255,255,254)" stop-opacity="0.67451"></stop>
	</linearGradient>
	<linearGradient gradientUnits="userSpaceOnUse" id="Gradient2" x1="1627.61" x2="1533.7" y1="2331.86" y2="2185.33">
		<stop class="stop0" offset="0" stop-color="rgb(255,255,255)" stop-opacity="0.576471"></stop>
		<stop class="stop1" offset="1" stop-color="rgb(255,255,254)" stop-opacity="0.74902"></stop>
	</linearGradient>
	<linearGradient gradientUnits="userSpaceOnUse" id="Gradient3" x1="1032.57" x2="1056.01" y1="2205.27" y2="2324.85">
		<stop class="stop0" offset="0" stop-color="rgb(255,255,255)" stop-opacity="0.584314"></stop>
		<stop class="stop1" offset="1" stop-color="rgb(255,255,255)" stop-opacity="0.901961"></stop>
	</linearGradient>
	<linearGradient gradientUnits="userSpaceOnUse" id="Gradient4" x1="1294.42" x2="1277.38" y1="421.698" y2="376.746">
		<stop class="stop0" offset="0" stop-color="rgb(31,52,73)" stop-opacity="0.819608"></stop>
		<stop class="stop1" offset="1" stop-color="rgb(26,51,71)" stop-opacity="0.964706"></stop>
	</linearGradient>
</defs>
<path d="M 450.239 531.444 L 472.057 531.862 C 481.17 536.907 480.303 539.357 487.535 544.858 C 488.878 545.879 498.332 540.878 500.993 539.84 C 514.02 534.756 521.046 537.558 533.011 542.524 C 545.009 558.19 628.441 682.634 631.845 684.165 C 641.838 681.247 640.001 631.899 652.387 621.277 C 669.608 606.51 721.401 607.744 706.528 640.952 C 689.396 679.206 707.424 700.169 711.698 737.936 C 712.95 748.71 687.532 784.294 680.066 792.729 C 680.581 812.597 687.775 805.08 689.163 821.831 C 704.793 839.964 693.33 837.714 704.253 852.519 C 711.039 853.998 714.354 854.896 721.229 854.181 C 725.674 849.856 735.406 846.119 741.568 845.86 C 742.348 846.277 743.129 846.694 743.91 847.111 C 755.732 877.664 767.753 908.27 778.714 939.134 C 779.306 940.803 779.38 945.809 779.399 947.274 C 782.582 948.649 785.89 950.268 789.234 951.057 C 799.678 941.086 824.093 928.729 838.004 920.25 L 950.471 851.719 C 954.656 849.187 980.316 831.978 981.896 831.822 C 996.912 828.155 999.554 821.502 1002.27 808.016 C 1001.12 782.027 1025.55 763.641 1040.2 746.123 L 1041.16 744.952 C 1046.53 739.374 1059.71 739.451 1061.26 729.252 C 1059.27 726.895 1057.78 727.03 1054.66 726.349 L 1060.89 724.255 C 1063.39 724.821 1077.53 727.874 1079.03 728.6 C 1105.19 732.668 1127.86 736.271 1154.47 736.177 C 1173.05 736.111 1188.55 733.5 1206.33 732.407 C 1207.51 731.974 1228.28 728.151 1231.1 727.604 C 1244.37 725.031 1257.24 721.728 1270.39 718.915 C 1309.9 706.029 1336.94 694.105 1373.44 674.086 C 1364.09 684.554 1345.03 689.536 1340.15 698.178 L 1340.5 700.326 C 1347.46 705.355 1413.07 702.602 1427.79 703.147 C 1444.49 702.871 1466.5 707.149 1482.79 711.926 C 1485.63 712.759 1485.26 712.752 1488.32 713.033 C 1496.85 711.621 1527.45 726.248 1534.86 732.073 C 1564.89 755.681 1582.18 802.277 1567.51 838.921 C 1564.18 847.255 1560.64 860.294 1553.41 864.839 C 1552.69 870.315 1552.84 874.032 1555.11 879.296 C 1560.09 878.482 1561.67 877.757 1566.19 879.427 L 1568.88 882.143 C 1577.51 884.439 1580.41 884.603 1586.61 891.136 C 1588.78 894.176 1589.54 896.404 1591.27 899.44 C 1633.33 973.161 1675.2 1047.05 1716.76 1121.09 C 1726.03 1137.62 1761.11 1195.21 1764.77 1209.41 C 1766.86 1217.54 1720.58 1339.7 1716.68 1350.94 L 1696.41 1410.34 C 1693.33 1419.44 1688 1441.78 1681.47 1447.04 C 1682.08 1493.8 1649.75 1455.26 1633.83 1476.8 L 1634.44 1484.11 L 1632.06 1490.39 C 1629.25 1497.68 1630.93 1501.23 1633.18 1508.53 C 1634.56 1518.04 1634.23 1524.3 1633.66 1533.77 C 1628.68 1539.49 1621.58 1546.7 1614.55 1549.67 C 1609.47 1558.37 1605.54 1596.07 1605.3 1607.87 C 1604.75 1635.13 1607.69 1658.81 1592.58 1683.68 C 1589.23 1689.18 1586.05 1698.18 1580.76 1702.79 C 1565.12 1716.39 1544.8 1730.25 1525.15 1737.3 C 1518.3 1739.75 1515.22 1736.83 1510.59 1743.9 C 1517.42 1752.21 1518.54 1766.2 1523.48 1775.92 C 1546.07 1820.36 1549.75 1863.03 1558.98 1911.24 L 1592.94 2091.85 C 1596.65 2112.69 1610.62 2129.8 1591.09 2145.55 C 1589.78 2149.06 1590.5 2149.97 1591.48 2153.65 C 1590.82 2158 1591 2157.92 1592.1 2161.96 C 1596.43 2166.84 1596.3 2164.59 1600.5 2166.88 C 1572.07 2167.23 1560.24 2169.83 1534.43 2181.95 L 1530.86 2181.55 C 1517.48 2188.09 1509.02 2198.77 1509.53 2213.5 C 1512.01 2217.56 1505.71 2227.87 1501.7 2222.62 C 1488.79 2205.73 1502.08 2203.35 1477.2 2194.36 C 1475.64 2188.43 1474.4 2182.58 1472.88 2176.67 L 1471.5 2171.33 L 1470.32 2166.58 C 1468.22 2157.85 1466.23 2152.91 1465.15 2143.83 L 1462.05 2139.01 L 1460.59 2137.38 L 1455.97 2136.08 C 1452.43 2130.61 1443.9 2109.2 1441.09 2102.4 L 1413.44 2035.19 L 1351.02 1884.71 C 1335.15 1846.22 1319.18 1805.95 1302.2 1768.08 C 1298.99 1766.38 1297.11 1761.76 1295.21 1758.5 C 1294.51 1754.44 1211.17 1552 1206.75 1545.39 C 1206.87 1536.47 1199.47 1519.06 1194.28 1512.41 L 1192.38 1512.49 C 1191.01 1514.04 1189.89 1516.03 1189.94 1518.13 C 1190.55 1542.35 1190.7 1567.1 1190.87 1591.28 C 1191.19 1603.94 1188.47 1616.14 1188.22 1628.68 C 1187.4 1670.13 1187.18 1711.68 1186.79 1753.13 C 1186.67 1766.65 1185.07 1785.82 1188.7 1798.36 C 1194.21 1808.17 1215 1849.99 1220.56 1856.57 C 1222.73 1897.33 1220.81 1939.09 1217.01 1979.67 C 1215.48 1997.83 1217.13 2017.18 1215.6 2035.17 C 1212.72 2069.03 1210.45 2102.97 1211.32 2137 C 1211.6 2148.16 1208.69 2183.45 1214.64 2190.61 C 1221.81 2194.7 1226.67 2192.59 1234.81 2194.44 C 1237.22 2197.09 1236.75 2195.96 1237.83 2199.11 L 1236 2200.97 C 1240.69 2208.28 1240.1 2209.19 1241.48 2218.01 C 1240.61 2219.55 1240.19 2221.2 1239.3 2222.62 L 1239.06 2222.61 C 1237.44 2220.65 1240.79 2215.28 1236.19 2217.65 C 1229.42 2204.19 1236.27 2210.4 1223.84 2206.1 L 1222 2205.5 C 1218.74 2204.41 1214.24 2203.04 1210.9 2202.03 C 1207.78 2205.33 1202.94 2216.56 1199.78 2221.75 L 1195.99 2225.61 L 1194.17 2223.96 C 1185.62 2228.1 1185.14 2232.12 1173.19 2233.14 C 1159.9 2234.28 1143.98 2228.52 1142.43 2213.65 C 1141.41 2214.47 1140.38 2215.21 1139.34 2215.99 C 1141.02 2202.14 1144.06 2202.26 1139.03 2188.33 C 1125.98 2171.43 1099.16 2164.17 1078.52 2166.07 C 1075.14 2155.56 1082.31 2149.97 1074.97 2141.03 C 1070.18 2141.11 1064.25 2138.62 1059.54 2137.02 C 1056.33 2113.71 1047.83 2077.13 1042.83 2053.61 L 1019.71 1941.05 L 946.477 1573.71 C 937.776 1530.14 928.347 1487.07 920.48 1443.35 C 916.529 1421.39 912.994 1413.67 911.183 1390.71 C 904.07 1385.12 899.274 1386.47 890.148 1386.8 C 881.916 1387.62 853.8 1387.98 846.847 1385.88 C 844.033 1372.47 896.248 1182.96 902.032 1149.77 C 903.28 1142.61 902.516 1134.6 903.107 1127.24 C 899.214 1125.63 897.889 1124.14 894.372 1125.94 C 887.484 1129.48 879.917 1135.24 873.207 1138.65 L 756.713 1196.76 C 749.121 1200.53 739.875 1205.95 732.135 1209.68 C 731.195 1210.13 725.792 1208.99 724.334 1208.59 C 707.83 1203.78 650.819 1187.42 636.541 1187.55 C 620.892 1171.36 608.206 1140.01 596.985 1118.38 C 574.914 1076.21 553.161 1033.88 531.73 991.384 C 523.466 975.065 515.056 958.82 506.502 942.651 C 503.644 937.122 494.253 919.578 493.358 914.883 C 489.885 911.742 488.957 909.802 489.677 905.297 C 497.402 898.117 511.805 905.547 519.938 900.043 C 523.584 897.574 527.777 897.722 529.693 896.139 C 536.907 890.178 549.683 894.724 555.594 889.1 C 555.778 881.873 550.502 869.15 549.338 863.04 C 541.07 819.63 510.838 824.363 487.961 798.294 C 481.536 790.973 461.658 757.963 455.081 747.829 L 417.252 689.323 C 410.707 679.297 389.713 650.732 389.153 639.23 C 388.362 622.987 413.503 623.805 420.555 618.077 C 421.892 608.83 412.673 605.013 409.622 598.075 C 401.442 579.468 423.682 574.559 435.565 568.709 C 443.143 564.978 435.002 554.224 436.453 547.368 C 438.339 538.452 443.367 536.285 450.239 531.444 z M 1551.03 1539.33 C 1556.01 1545.18 1558.64 1546.99 1565.77 1550.19 C 1568.72 1541.49 1559.01 1537.45 1551.03 1539.33 z M 1483.18 1273.74 C 1496.61 1269.52 1487.19 1261.86 1495.47 1249.98 C 1499.55 1244.12 1500.42 1228.15 1500.44 1220.81 C 1492.07 1209.03 1487.87 1195.94 1479.37 1184.05 C 1478.45 1197.56 1482.04 1214.18 1481.97 1228.48 C 1481.9 1243.18 1483.3 1259.03 1483.18 1273.74 z M 1477.79 1495.83 C 1479.57 1490.38 1481.56 1485.01 1483.12 1479.52 C 1487.37 1469.91 1490.78 1459.33 1493.88 1449.29 C 1476.34 1441.24 1479.07 1439.68 1459.03 1436.02 C 1463.59 1454.29 1471.24 1478.06 1477.79 1495.83 z" fill="rgb(15,27,45)" transform="translate(0,0)"></path>
<path d="M 1551.03 1539.33 C 1559.01 1537.45 1568.72 1541.49 1565.77 1550.19 C 1558.64 1546.99 1556.01 1545.18 1551.03 1539.33 z" fill="rgb(8,243,254)" fill-opacity="0.737255" transform="translate(0,0)"></path>
<path d="M 1053.46 1302.21 L 1140.15 1302.44 C 1137.89 1328.66 1136.38 1360.88 1133.1 1386.29 L 1433.8 1385.96 C 1436.58 1391.92 1438.57 1396.33 1442.1 1401.96 C 1438.62 1411.78 1435.35 1421.66 1432.29 1431.61 L 1454.97 1435.48 C 1462.7 1453.82 1469.11 1479.21 1476.07 1498.84 C 1474.85 1502.37 1470.36 1515.94 1468.4 1517.62 C 1448.64 1534.54 1406.76 1565.28 1385.34 1578.79 C 1378.06 1602.64 1371.01 1626.57 1364.2 1650.56 C 1358.94 1668.92 1349.45 1685.4 1375.17 1693.78 C 1416.33 1707.17 1415.37 1633.9 1431.18 1626.86 C 1435.27 1633.27 1426.63 1679.03 1425.77 1691.19 C 1417.87 1698 1379.8 1727.23 1381.77 1736.75 C 1386.85 1761.31 1408.54 1753.61 1424.36 1744.84 C 1430.6 1750.54 1434.34 1753.46 1443.34 1753.56 C 1451.32 1753.65 1463.78 1744.4 1467.77 1743.89 C 1487.87 1760.01 1499.68 1741.56 1507.5 1743.43 L 1508.25 1745.34 C 1517.04 1770.4 1528.02 1794.65 1537.38 1819.46 C 1542.93 1834.16 1545.34 1853.16 1548.19 1868.86 L 1562.39 1947.38 C 1571.4 1992.79 1580.15 2038.26 1588.65 2083.77 C 1591.86 2100.62 1596.36 2119.84 1598.87 2136.49 C 1551.84 2135.95 1502.44 2137.23 1455.97 2136.08 C 1452.43 2130.61 1443.9 2109.2 1441.09 2102.4 L 1413.44 2035.19 L 1351.02 1884.71 C 1335.15 1846.22 1319.18 1805.95 1302.2 1768.08 C 1292.28 1741.23 1278.91 1710.81 1267.88 1684.12 L 1216.74 1559.38 C 1208.65 1539.85 1201.62 1516.68 1192.01 1497.52 C 1190.85 1495.2 1187.03 1495.16 1184.11 1494.59 C 1169.26 1490.74 1147.09 1487.69 1131.58 1484.77 C 1095.3 1477.95 1058.6 1472.08 1022.33 1465.12 C 1076.23 1497.2 1132.82 1528.01 1187.21 1559.47 C 1187.51 1615.54 1184.09 1673.24 1184.38 1729.51 C 1184.45 1744.42 1181.62 1780.31 1183.86 1792.78 C 1185.25 1800.49 1215.13 1855.59 1218.77 1859.58 C 1219.47 1871.79 1218.73 1884.17 1218.15 1896.37 C 1214.89 1965.8 1211.07 2035.18 1207.75 2104.6 C 1207.24 2115.2 1206.6 2126.04 1206.54 2136.64 C 1197.02 2135.47 1171.06 2136.1 1160.37 2136.13 C 1127.94 2136.4 1095.5 2136.4 1063.07 2136.1 L 952.689 1590.19 L 926.857 1458.75 C 923.088 1439.69 917.712 1407.84 912.242 1390.1 L 912.967 1386.7 C 916.682 1385.2 1027.55 1386.18 1040.32 1386.33 L 1053.46 1302.21 z" fill="rgb(37,111,130)" transform="translate(0,0)"></path>
<path d="M 1387.83 1580.66 C 1405.62 1567.75 1423.51 1554.99 1441.51 1542.38 C 1452.47 1534.59 1468.59 1525.27 1474.28 1513.28 C 1496.78 1519.23 1521.89 1522.63 1545.05 1528.18 C 1546.27 1531.45 1548.53 1536.84 1551.03 1539.33 C 1556.01 1545.18 1558.64 1546.99 1565.77 1550.19 L 1567.76 1550.83 C 1578.95 1554.65 1591.1 1555.84 1602.62 1552.93 L 1604.09 1552.57 L 1602.58 1610.34 C 1602.34 1623.34 1602.65 1643.63 1600.54 1655.83 C 1599.6 1661.29 1581.05 1697.85 1578.03 1699.92 C 1567.82 1706.95 1529.05 1737.76 1518.42 1734.7 C 1522.09 1728.93 1549.78 1713.19 1554.14 1708.03 C 1562.1 1698.62 1576.48 1673.36 1581.67 1662.44 L 1580.34 1661.36 C 1574.26 1666.72 1560.43 1696.37 1554.93 1701.94 C 1544.18 1712.8 1499.77 1746.67 1483.84 1748.65 C 1480.31 1749.09 1471.97 1743.96 1468.76 1742.07 C 1487.02 1729.12 1506.12 1715.09 1524.63 1702.68 C 1527.82 1694.7 1537.29 1671.15 1536.98 1663.82 L 1535.99 1663.02 C 1531.65 1670.02 1525.5 1691.51 1522.19 1700.47 C 1507 1711.23 1478.32 1730.28 1465.37 1741.24 C 1451.21 1750.51 1440.88 1756.33 1426.38 1743.36 C 1429.9 1739.47 1470.28 1710.43 1476.43 1706.01 C 1481.95 1691.28 1494.61 1671.2 1495.93 1657.31 C 1492.52 1660.55 1476.2 1698.14 1473.38 1704.8 C 1460.1 1713.42 1437.72 1731 1424.57 1740.84 C 1411.63 1750.06 1389.37 1759.11 1384.69 1737.68 C 1382.72 1728.64 1421.14 1699.04 1428.56 1691.72 C 1431.02 1668.77 1434.89 1644.17 1437.83 1621.06 L 1423.54 1628.14 C 1414.35 1651 1408.21 1698.5 1376.69 1691.68 C 1350.64 1686.04 1365.54 1656.69 1370.52 1639.64 L 1387.83 1580.66 z" fill="rgb(217,160,102)" transform="translate(0,0)"></path>
<path d="M 1488.32 713.033 C 1496.85 711.621 1527.45 726.248 1534.86 732.073 C 1564.89 755.681 1582.18 802.277 1567.51 838.921 C 1564.18 847.255 1560.64 860.294 1553.41 864.839 C 1550.75 865.966 1547.95 871.001 1545.95 873.852 C 1523.91 864.372 1496.68 855.225 1474.03 847.168 C 1467.34 844.791 1434.05 847.78 1423.98 848.199 L 1308.18 853.718 C 1290.87 854.574 1258.54 856.962 1242.28 855.571 C 1270.07 844.738 1299.25 833.84 1326.56 822.222 C 1346.49 812.659 1503.06 754.668 1507.99 747.511 C 1508.51 726.199 1483.88 720.936 1482.37 714.465 L 1488.32 713.033 z" fill="rgb(24,74,87)" transform="translate(0,0)"></path>
<path d="M 1060.89 724.255 C 1063.39 724.821 1077.53 727.874 1079.03 728.6 L 1085.07 732.022 C 1069.35 739.072 1068.34 739.932 1054.79 750.606 C 1052.15 753.517 1049.47 756.394 1046.75 759.236 L 1105.17 829.007 C 1110.34 835.063 1123.95 851.956 1129.37 856.106 C 1122.13 859.06 1018.75 832.611 1002.77 828.949 C 1002.84 821.362 1002.77 815.592 1002.27 808.016 C 1001.12 782.027 1025.55 763.641 1040.2 746.123 L 1041.16 744.952 C 1046.53 739.374 1059.71 739.451 1061.26 729.252 C 1059.27 726.895 1057.78 727.03 1054.66 726.349 L 1060.89 724.255 z" fill="rgb(24,74,87)" transform="translate(0,0)"></path>
<path d="M 1083.69 2140.9 C 1095.1 2143.66 1110.86 2149.05 1122.42 2152.53 L 1125.56 2154.08 C 1150.28 2160.8 1174.97 2170.68 1199.47 2177.61 C 1201.33 2178.42 1204.45 2179.15 1205.16 2180.96 C 1210.39 2194.36 1203.73 2214.03 1194.17 2223.96 C 1185.62 2228.1 1185.14 2232.12 1173.19 2233.14 C 1159.9 2234.28 1143.98 2228.52 1142.43 2213.65 C 1150.88 2180.38 1128.67 2172.46 1100.65 2165.8 C 1096.18 2164.74 1088.62 2164.11 1084.74 2162.04 L 1083.86 2158.48 L 1083.69 2140.9 z" fill="rgb(217,160,102)" transform="translate(0,0)"></path>
<path d="M 1563.62 1493.21 L 1564.56 1492.72 C 1581.35 1483.71 1596.1 1485.57 1613.55 1491.41 C 1618.76 1494.15 1619.71 1494.74 1623.84 1498.66 C 1626.54 1501.03 1626.06 1499.64 1628.62 1498.53 C 1629.57 1499.7 1627.77 1502.58 1633.18 1508.53 C 1634.56 1518.04 1634.23 1524.3 1633.66 1533.77 C 1628.68 1539.49 1621.58 1546.7 1614.55 1549.67 L 1612.96 1550.95 C 1604.1 1558.12 1612.44 1550.5 1604.09 1552.57 L 1602.62 1552.93 C 1591.1 1555.84 1578.95 1554.65 1567.76 1550.83 L 1565.77 1550.19 C 1568.72 1541.49 1559.01 1537.45 1551.03 1539.33 C 1548.53 1536.84 1546.27 1531.45 1545.05 1528.18 L 1545.52 1524.88 C 1544.89 1520.96 1544.94 1519.39 1545.12 1515.36 C 1548.47 1505.72 1550.75 1501.58 1559.7 1495.83 C 1561.05 1494.95 1562.3 1494.13 1563.62 1493.21 z" fill="rgb(34,211,238)" transform="translate(0,0)"></path>
<path d="M 1553.48 1517.57 C 1564.11 1492.36 1590.12 1488.57 1613.05 1499.41 C 1618.04 1504 1625.36 1510.68 1625.63 1518.21 C 1626.72 1549.13 1578.85 1555.3 1560.84 1536.96 C 1553.57 1529.59 1554.96 1525.98 1553.48 1517.57 z" fill="rgb(15,27,45)" transform="translate(0,0)"></path>
<path d="M 1487.94 1475.75 C 1498.99 1442.3 1497.01 1441.99 1531.31 1451.17 C 1556.16 1458.58 1608.1 1473.49 1630.09 1483.46 C 1627.25 1489.39 1625.91 1492.3 1623.84 1498.66 C 1619.71 1494.74 1618.76 1494.15 1613.55 1491.41 C 1596.1 1485.57 1581.35 1483.71 1564.56 1492.72 L 1563.62 1493.21 C 1538.43 1487.24 1513.2 1481.42 1487.94 1475.75 z" fill="rgb(217,160,102)" transform="translate(0,0)"></path>
<path d="M 1465.15 2143.83 C 1474.01 2146.04 1482.56 2147.84 1491.49 2149.69 L 1508.71 2153.16 C 1529.92 2157.6 1550.92 2162.17 1572.29 2165.83 C 1558.28 2169.66 1543.26 2173.73 1530.86 2181.55 C 1517.48 2188.09 1509.02 2198.77 1509.53 2213.5 C 1512.01 2217.56 1505.71 2227.87 1501.7 2222.62 C 1488.79 2205.73 1502.08 2203.35 1477.2 2194.36 C 1475.64 2188.43 1474.4 2182.58 1472.88 2176.67 L 1471.5 2171.33 L 1470.32 2166.58 C 1468.22 2157.85 1466.23 2152.91 1465.15 2143.83 z" fill="rgb(217,160,102)" transform="translate(0,0)"></path>
<path d="M 1210.9 2202.03 C 1220.15 2195.88 1225.94 2195.98 1236 2200.97 C 1240.69 2208.28 1240.1 2209.19 1241.48 2218.01 C 1240.61 2219.55 1240.19 2221.2 1239.3 2222.62 L 1239.06 2222.61 C 1237.44 2220.65 1240.79 2215.28 1236.19 2217.65 C 1229.42 2204.19 1236.27 2210.4 1223.84 2206.1 L 1222 2205.5 C 1218.74 2204.41 1214.24 2203.04 1210.9 2202.03 z" fill="rgb(255,255,255)" transform="translate(0,0)"></path>
<path d="M 509.817 540.684 C 511.887 540.784 513.956 540.923 516.021 541.101 C 520.975 541.556 527.433 542.823 530.699 546.706 C 540.047 557.822 549.397 572.343 557.673 584.292 L 607.168 655.515 C 615.603 667.566 626.012 683.284 635.219 694.416 C 641.856 672.071 644.942 647.974 652.556 626.605 C 664.072 617.231 682.648 610.12 696.638 618.311 C 698.538 619.399 700.15 620.927 701.339 622.766 C 709.634 635.649 693.518 664.269 694.839 675.24 C 697.272 695.444 704.191 722.162 708.775 742.206 L 674.03 796.318 L 703.221 856.65 C 656.274 868.205 608.629 878.538 561.522 889.76 L 550.456 852.872 L 546.009 836.259 C 531.182 824.066 514.251 814.776 499.038 803.13 C 494.938 799.99 491.656 796.71 488.604 792.541 C 478.625 778.915 393.801 647.364 393.799 641.523 C 393.799 637.361 395.204 633.621 398.445 630.945 C 404.473 625.966 413.982 625.278 421.416 626.201 C 425.217 626.673 427.908 627.417 430.847 630.013 C 438.34 636.632 444.556 648.533 450.054 656.912 C 463.629 677.601 476.524 699.484 491.683 719.032 C 504.301 711.533 511.93 707.429 524.93 701.29 C 538.649 694.81 577.285 681.195 587.001 673.129 C 582.197 673.298 578.711 675.363 574.264 677.359 C 556.475 650.372 538.443 623.546 520.169 596.885 C 511.599 584.265 502.293 571.373 494.551 558.275 C 488.919 548.747 503.459 542.613 509.817 540.684 z" fill="rgb(217,160,102)" transform="translate(0,0)"></path>
<path d="M 609.81 706.303 C 609.929 706.427 611.295 707.801 611.259 707.948 C 608.006 721.37 592.815 764.658 588.757 774.809 C 588.477 774.568 586.785 773.253 586.875 772.91 C 590.226 760.185 605.087 715.856 609.81 706.303 z" fill="rgb(15,27,45)" transform="translate(0,0)"></path>
<path d="M 1134.75 890.416 C 1149.24 890.355 1205.75 889.322 1217.18 891.38 C 1205.57 915.878 1195.06 945.534 1182.13 968.906 C 1178.96 981.78 1161.39 1009.61 1160.48 1019.91 C 1152.31 1112.47 1146.29 1207.56 1139.93 1300.17 L 1053.82 1300.07 C 1056.08 1276.53 1061.27 1246.02 1064.8 1222.22 L 1079.16 1122.2 C 1085 1083.17 1086.76 1043.39 1099.03 1005.81 C 1104.27 989.783 1109.15 973.491 1114.26 957.404 L 1134.75 890.416 z" fill="rgb(217,160,102)" transform="translate(0,0)"></path>
<path d="M 1143.07 892.047 C 1157.35 891.714 1207.58 893.105 1217.18 891.38 C 1205.57 915.878 1195.06 945.534 1182.13 968.906 C 1182.05 968.767 1180.85 966.919 1180.88 966.825 C 1182.88 961.865 1186.1 953.624 1188.69 948.813 C 1193.77 939.357 1197.4 928.013 1201.97 918.673 L 1204.35 913.92 C 1205.37 911.877 1212.67 895.463 1212.37 893.842 C 1211.12 892.922 1187.08 892.925 1183.42 893.09 L 1184.58 893.075 C 1184.85 894.211 1187.4 902.74 1186.73 903.768 C 1186.52 904.096 1179.61 905.776 1178.61 905.879 C 1173.84 906.371 1174.21 898.703 1173.77 898.466 C 1173.62 898.485 1155.74 911.216 1147.9 908 C 1145.48 907.004 1142.01 909.812 1137.16 904.674 C 1137.17 904.689 1132.13 903.585 1134.65 904.131 C 1141.5 901.033 1140.5 899.015 1143.07 892.047 z" fill="rgb(251,191,92)" transform="translate(0,0)"></path>
<path d="M 1189.03 907.445 C 1193.74 897.609 1190.15 899.017 1198.68 901.916 C 1192.89 906.424 1193.22 909.912 1189.03 907.445 z" fill="rgb(251,191,92)" transform="translate(0,0)"></path>
<path d="M 1316.84 750.519 C 1322.07 747.783 1327.96 744.442 1333.43 742.418 L 1333.76 748.966 C 1333.52 753.704 1333.24 764.244 1332.53 768.43 C 1332.67 777.892 1332.92 810.675 1329.56 817.835 C 1327.6 819.049 1327.35 819.375 1325.21 820.159 L 1232.62 856.856 L 1218.24 888.394 L 1135.84 888.197 L 1143.65 861.11 C 1139.85 859.5 1134.4 857.377 1130.89 855.459 C 1158.58 824.844 1153.81 820.405 1159.79 778.824 C 1221.05 780.248 1259.9 772.566 1316.84 750.519 z" fill="rgb(217,160,102)" transform="translate(0,0)"></path>
<path d="M 1114.53 857.962 C 1121.76 858.825 1132.67 861.434 1140.09 862.988 L 1107.12 969.653 C 1102.13 985.827 1091.3 1017.92 1088.67 1033.05 C 1082.72 1067.32 1078.39 1105.03 1073.37 1139.71 C 1062.14 1221.24 1050.08 1302.65 1037.19 1383.93 L 1009.42 1383.68 C 1014.32 1360.19 1018.46 1324.86 1022.04 1300.33 L 1050.88 1107 C 1056.1 1072.83 1058.35 1036.87 1069.21 1004.02 C 1085.15 955.833 1097.81 905.808 1114.53 857.962 z" fill="rgb(248,91,27)" transform="translate(0,0)"></path>
<path d="M 1234.86 859.206 L 1260.09 858.167 C 1244.03 891.389 1229.49 928.952 1214.31 962.836 C 1205.6 982.294 1194.61 1007.91 1188.04 1028.06 C 1186.01 1034.28 1184.6 1058.88 1184.02 1066.72 L 1179.42 1128.91 C 1173.03 1212.21 1167.5 1300.55 1159.48 1383.16 C 1155.59 1383.95 1141.72 1383.7 1137.09 1383.71 L 1157.03 1106.23 C 1158.85 1081.75 1159 1043.75 1163.48 1020.92 C 1164.9 1013.71 1184.17 972.432 1188.04 963.84 L 1234.86 859.206 z" fill="rgb(248,91,27)" transform="translate(0,0)"></path>
<path d="M 457.376 534.665 C 463.967 534.786 473.57 535.291 477.961 540.84 C 488.105 553.658 497.091 568.304 506.234 581.873 L 571.426 678.584 C 565.162 681.759 556.15 685.291 549.492 688.11 L 532.9 694.792 C 510.771 662.586 488.885 630.213 467.243 597.678 C 457.996 583.814 447.094 569.076 439.933 554.215 C 434.741 543.44 449.849 536.789 457.376 534.665 z" fill="rgb(217,160,102)" transform="translate(0,0)"></path>
<path d="M 721.245 855.276 C 728.149 853.611 735.179 851.816 742.123 850.389 C 745.016 859.172 747.834 866.571 751.268 875.171 C 669.858 895.508 586.773 912.534 505.545 932.73 C 502.093 926.306 498.616 919.509 494.788 913.336 C 493.65 910.086 493.531 911.607 494.25 908.661 C 499.991 904.906 514.949 903.991 523.107 901.897 C 588.763 885.049 655.452 871.518 721.245 855.276 z" fill="rgb(248,91,27)" transform="translate(0,0)"></path>
<path d="M 1444.95 1403.06 C 1458.01 1405.8 1469.66 1408.22 1482.91 1410.13 C 1501.53 1413.71 1676.72 1443.56 1680.02 1446.67 C 1676.91 1454.55 1673.93 1463.08 1670.98 1471.08 C 1658.76 1468.66 1646.43 1466.61 1634.12 1464.64 C 1568.01 1454.05 1502.11 1440.96 1436.08 1430.06 L 1444.95 1403.06 z" fill="rgb(248,91,27)" transform="translate(0,0)"></path>
<path d="M 431.701 574.973 C 438.416 574.63 441.966 575.453 448.476 576.576 C 455.652 584.947 470.942 608.989 477.609 618.934 L 529.638 696.059 C 521.89 699.604 514.206 703.285 506.588 707.102 L 492.936 715.419 C 479.988 698.148 464.059 672.502 451.964 654.172 C 441.257 637.947 423.418 612.413 414.332 595.856 C 413.325 582.056 419.318 578.966 431.701 574.973 z" fill="rgb(217,160,102)" transform="translate(0,0)"></path>
<path d="M 1260.21 957.512 C 1276.93 964.574 1297.18 972.939 1313.36 980.321 C 1313.7 993.535 1313.24 1014.59 1314.84 1026.6 C 1309.82 1026.62 1266.29 1006.78 1258.53 1003.2 C 1258.63 997.283 1257.73 959.764 1260.21 957.512 z" fill="rgb(34,211,238)" transform="translate(0,0)"></path>
<path d="M 1369.99 956.129 C 1373.25 959.196 1371.99 996.581 1372.01 1003.4 L 1317.83 1027.86 C 1317.9 1019.48 1317.88 1011.11 1317.75 1002.74 C 1318.04 995.52 1317.86 987.198 1317.89 979.878 C 1334.68 971.998 1351.4 965.324 1368.12 957.04 L 1369.99 956.129 z" fill="rgb(34,211,238)" transform="translate(0,0)"></path>
<path d="M 1315.28 930.435 C 1330.62 937.443 1346.2 943.863 1361.97 949.826 C 1366.37 951.489 1367.1 950.409 1367.77 954.17 C 1350.81 961.941 1332.55 969.965 1315.39 977.492 C 1307.73 974.03 1265.85 957.188 1262.49 954.785 C 1265.09 951.148 1307.1 934.44 1315.28 930.435 z" fill="rgb(34,211,238)" transform="translate(0,0)"></path>
<path d="M 1479.37 1184.05 C 1487.87 1195.94 1492.07 1209.03 1500.44 1220.81 C 1500.42 1228.15 1499.55 1244.12 1495.47 1249.98 C 1487.19 1261.86 1496.61 1269.52 1483.18 1273.74 C 1483.3 1259.03 1481.9 1243.18 1481.97 1228.48 C 1482.04 1214.18 1478.45 1197.56 1479.37 1184.05 z" fill="rgb(255,255,255)" fill-opacity="0.0823529" transform="translate(0,0)"></path>
<path d="M 1459.03 1436.02 C 1479.07 1439.68 1476.34 1441.24 1493.88 1449.29 C 1490.78 1459.33 1487.37 1469.91 1483.12 1479.52 C 1481.56 1485.01 1479.57 1490.38 1477.79 1495.83 C 1471.24 1478.06 1463.59 1454.29 1459.03 1436.02 z M 1484.29 1460 C 1486 1456.82 1490.83 1447.89 1484.81 1448.29 C 1473.07 1449.09 1476.64 1446.03 1468.8 1443.64 C 1466.99 1457.64 1472.32 1450.86 1477.91 1456.69 C 1479.86 1458.72 1480.51 1462.98 1484.29 1460 z" fill="rgb(255,255,255)" fill-opacity="0.529412" transform="translate(0,0)"></path>
<path d="M 1468.8 1443.64 C 1476.64 1446.03 1473.07 1449.09 1484.81 1448.29 C 1490.83 1447.89 1486 1456.82 1484.29 1460 C 1480.51 1462.98 1479.86 1458.72 1477.91 1456.69 C 1472.32 1450.86 1466.99 1457.64 1468.8 1443.64 z M 1485.7 1455.22 C 1486.42 1450.75 1486.16 1450.88 1481.78 1449.57 C 1481.18 1454.46 1480.59 1455.33 1485.7 1455.22 z" fill="rgb(255,255,255)" fill-opacity="0.341176" transform="translate(0,0)"></path>
<path d="M 1481.78 1449.57 C 1486.16 1450.88 1486.42 1450.75 1485.7 1455.22 C 1480.59 1455.33 1481.18 1454.46 1481.78 1449.57 z" fill="rgb(255,255,255)" fill-opacity="0.258824" transform="translate(0,0)"></path>
<path d="M 1085.53 127.188 C 1100.56 120.606 1161.76 114.003 1180.4 114.677 C 1198.07 115.317 1219.18 118.646 1238.55 118.355 C 1254.53 118.116 1270.81 113.372 1285.59 115.252 C 1320.4 119.984 1354.52 128.867 1387.22 141.711 C 1453.88 167.789 1520.58 211.272 1552.79 278.18 C 1553.44 279.535 1553.65 280.274 1554.1 281.593 C 1579.7 318.893 1582.47 377.386 1570.25 420.281 C 1563.54 443.861 1552.31 451.857 1585.71 450.64 L 1586.9 451.382 C 1615.51 468.974 1608.49 456.398 1629.62 489.562 C 1629.66 510.74 1631 520.71 1617.55 538.656 C 1588.84 576.954 1536.29 594.611 1490.57 594.265 C 1485.31 594.232 1480.06 594.164 1474.8 594.062 C 1472.36 595.675 1464.43 600.408 1462.93 601.889 C 1447.73 616.915 1394.3 669.844 1374.3 673.922 L 1373.44 674.086 C 1336.94 694.105 1309.9 706.029 1270.39 718.915 C 1257.24 721.728 1244.37 725.031 1231.1 727.604 C 1228.28 728.151 1207.51 731.974 1206.33 732.407 C 1188.55 733.5 1173.05 736.111 1154.47 736.177 C 1127.86 736.271 1105.19 732.668 1079.03 728.6 C 1077.53 727.874 1063.39 724.821 1060.89 724.255 L 1054.66 726.349 C 1042.95 721.144 1027.99 718.105 1015.69 713.587 C 999.215 707.534 983.974 699.312 968.563 690.691 C 936.478 672.361 906.355 643.246 885.318 613.036 C 873.756 596.432 871.247 578.058 853.858 565.699 C 843.776 558.535 837.196 540.598 834.255 528.681 C 828.141 503.907 838.473 480.483 853.331 461.13 C 854.813 459.182 853.739 457.1 852.907 455.352 C 850.335 434.642 857.328 423.934 854.221 404.17 C 854.052 403.094 850.2 402.097 848.807 402.601 C 844.604 404.121 846.056 417.474 840.37 409.806 C 840.528 399.092 840.786 382.971 841.538 372.727 C 843.199 350.104 857.973 297.942 873.282 281.404 C 875.164 268.632 922.826 226.469 935.404 218.628 C 938.804 217.381 941.174 215.73 944.085 213.464 C 951.505 207.69 955.433 210.222 962.789 204.089 C 959.075 199.646 952.216 200.717 946.703 200.633 L 944.752 200.586 C 938.986 202.205 919.875 208.486 914.971 209.075 C 912.242 209.455 912.419 209.432 909.953 210.875 L 907.65 207.326 C 910.981 205.129 914.618 202.954 918.024 200.833 C 923.343 197.628 925.214 196.373 931.047 194.446 L 932.343 192.704 C 978.685 167.482 1062.57 141.644 1115.37 139.247 L 1118.14 137.444 C 1116.74 135.036 1112.32 134.456 1108.92 133.415 C 1103.56 132.61 1087.94 131.536 1085.53 127.188 z M 891.658 500.427 L 892.459 502.512 C 893.07 504.252 902.059 515.949 903.927 517.754 C 922.019 535.236 946.12 549.656 970.734 555 C 977.07 556.375 996.189 563.729 983.748 550.306 C 978.17 547.614 979.473 543.596 976.157 540.924 C 968.618 534.848 970.509 531.932 966.984 525.236 C 959.793 517.438 960.991 509.059 959.064 501.733 C 955.858 489.545 967.618 471.845 963.573 466.631 C 960.882 463.164 941.375 466.809 936.291 467.443 C 933.732 469.707 929.06 474.728 925.083 474.866 C 920.003 475.043 906.124 484.098 903.045 487.387 C 897.34 493.482 893.964 493.285 891.658 500.427 z M 1058.87 558.36 C 1085.92 570.541 1090.33 537.366 1073.04 539.42 C 1070.39 546.01 1063.35 551.689 1058.87 558.36 z M 1211.64 306.038 C 1213.63 305.582 1215.23 304.353 1217.14 303.667 C 1219.29 302.298 1221.44 300.943 1223.6 299.602 C 1220.22 297.453 1219.45 297.121 1215.76 295.471 C 1207.78 298.315 1199.39 300.548 1191.16 302.616 C 1197.38 303.303 1205.36 304.909 1211.64 306.038 z M 1380.77 393.212 C 1370.45 389.235 1359.45 383.747 1348.73 381.223 C 1303.84 370.656 1253.19 378.501 1213.28 401.488 C 1216.73 403.968 1216.84 403.86 1217.51 407.977 L 1215.63 408.842 C 1209.73 411.492 1198.11 410.657 1213.83 421.135 C 1251.35 398.315 1297.15 388.357 1340.71 395.644 C 1353.32 397.754 1380.45 413.86 1390.15 406.441 L 1390.17 403.714 C 1387.95 399.274 1388.16 399.409 1384.37 396.293 L 1380.77 393.212 z M 1085.51 644.37 C 1121.58 653.299 1153.72 652.181 1188.41 638.213 C 1201.27 633.032 1201.1 625.877 1215.51 628.671 L 1216.17 627.124 C 1212.78 623.839 1206.87 620.351 1202.41 619.066 C 1203.09 620.584 1205 623.407 1203.99 624.4 C 1176.85 651.264 1106.18 652.211 1077.01 637.684 L 1075.08 638.497 C 1077.27 641.407 1081.94 642.852 1085.51 644.37 z M 1308.91 557.764 C 1306.33 552.23 1303.41 551.994 1297.56 549.7 C 1286.55 538.932 1275.19 513.143 1277.93 497.721 C 1279.24 490.29 1282.51 489.036 1282.26 479.339 C 1283.68 474.876 1285.38 472.254 1283.94 468.544 C 1274.69 463.568 1271.83 471.731 1263.8 474.444 C 1226.2 487.141 1195.12 516.67 1180.2 553.429 C 1179.51 555.112 1179.39 556.615 1179.18 558.418 C 1207.89 567.816 1282.79 570.464 1308.91 557.764 z M 1510.23 462.276 C 1505.61 464.596 1502.24 466.434 1498.12 469.589 C 1502.86 477.101 1511.06 471.542 1510.23 462.276 z" fill="rgb(217,160,102)" transform="translate(0,0)"></path>
<path d="M 936.291 467.443 C 941.375 466.809 960.882 463.164 963.573 466.631 C 967.618 471.845 955.858 489.545 959.064 501.733 C 960.991 509.059 959.793 517.438 966.984 525.236 C 970.509 531.932 968.618 534.848 976.157 540.924 C 979.473 543.596 978.17 547.614 983.748 550.306 C 996.189 563.729 977.07 556.375 970.734 555 C 946.12 549.656 922.019 535.236 903.927 517.754 C 902.059 515.949 893.07 504.252 892.459 502.512 L 891.658 500.427 C 893.964 493.285 897.34 493.482 903.045 487.387 C 906.124 484.098 920.003 475.043 925.083 474.866 C 929.06 474.728 933.732 469.707 936.291 467.443 z" fill="rgb(255,255,255)" fill-opacity="0.0392157" transform="translate(0,0)"></path>
<path d="M 1073.04 539.42 C 1090.33 537.366 1085.92 570.541 1058.87 558.36 C 1063.35 551.689 1070.39 546.01 1073.04 539.42 z" fill="rgb(255,255,255)" fill-opacity="0.00784314" transform="translate(0,0)"></path>
<path d="M 1191.16 302.616 C 1199.39 300.548 1207.78 298.315 1215.76 295.471 C 1219.45 297.121 1220.22 297.453 1223.6 299.602 C 1221.44 300.943 1219.29 302.298 1217.14 303.667 C 1215.23 304.353 1213.63 305.582 1211.64 306.038 C 1205.36 304.909 1197.38 303.303 1191.16 302.616 z" fill="rgb(239,157,114)" fill-opacity="0.772549" transform="translate(0,0)"></path>
<path d="M 1498.12 469.589 C 1502.24 466.434 1505.61 464.596 1510.23 462.276 C 1511.06 471.542 1502.86 477.101 1498.12 469.589 z" fill="rgb(239,157,114)" fill-opacity="0.768627" transform="translate(0,0)"></path>
<path d="M 1085.53 127.188 C 1100.56 120.606 1161.76 114.003 1180.4 114.677 C 1198.07 115.317 1219.18 118.646 1238.55 118.355 C 1254.53 118.116 1270.81 113.372 1285.59 115.252 C 1320.4 119.984 1354.52 128.867 1387.22 141.711 C 1453.88 167.789 1520.58 211.272 1552.79 278.18 C 1553.44 279.535 1553.65 280.274 1554.1 281.593 C 1579.7 318.893 1582.47 377.386 1570.25 420.281 C 1563.54 443.861 1552.31 451.857 1585.71 450.64 L 1586.9 451.382 C 1615.51 468.974 1608.49 456.398 1629.62 489.562 C 1629.66 510.74 1631 520.71 1617.55 538.656 C 1588.84 576.954 1536.29 594.611 1490.57 594.265 C 1485.31 594.232 1480.06 594.164 1474.8 594.062 C 1472.36 595.675 1464.43 600.408 1462.93 601.889 C 1447.73 616.915 1394.3 669.844 1374.3 673.922 C 1375.86 672.547 1400.79 653.85 1402.35 653.163 C 1426.53 636.77 1444.77 610.675 1468.13 594.227 C 1470.42 592.617 1487.99 592.049 1491.01 591.977 C 1530.09 590.92 1578.26 576.982 1606.04 547.402 C 1655.7 494.508 1610.37 449.586 1550.01 451.521 C 1534.11 453.532 1524.97 455.481 1510.23 462.276 C 1505.61 464.596 1502.24 466.434 1498.12 469.589 C 1491.54 473.313 1489.44 474.836 1483.53 479.453 C 1477.5 479.41 1467.91 479.107 1462.15 479.582 C 1458.61 479.634 1456.71 480.045 1453.7 478.222 C 1452.24 471.638 1452.69 449.829 1452.64 441.65 C 1452.42 412.113 1452.51 382.573 1452.9 353.037 C 1427.68 352.742 1402.45 352.691 1377.22 352.886 L 1377.32 278.762 C 1346.18 293.917 1298.45 310.955 1263.44 312.146 C 1257.5 313.034 1253.45 313.873 1247.39 313.608 C 1238.79 315.172 1206.51 316.224 1198.54 313.874 L 1198.96 312.463 L 1201.99 311.574 L 1211.64 306.038 C 1213.63 305.582 1215.23 304.353 1217.14 303.667 C 1219.29 302.298 1221.44 300.943 1223.6 299.602 C 1220.22 297.453 1219.45 297.121 1215.76 295.471 C 1207.78 298.315 1199.39 300.548 1191.16 302.616 C 1186.34 303.926 1182.88 304.97 1177.9 305.611 C 1171.18 308.325 1156.28 310.492 1148.62 311.713 C 1089.85 320.831 1037.17 318.561 978.866 310.065 C 1003.1 304.443 1020.64 300.033 1042.85 288.172 C 1052.38 283.859 1060.32 278.588 1068.72 272.406 C 1047.82 279.901 1032.08 284.549 1010.47 289.871 C 987.362 293.994 973.292 293.977 952.346 296.784 L 936.918 296.907 C 925.124 310.083 919.17 317.772 909.85 332.821 C 905.914 339.177 899.816 354.008 896.451 357.392 L 895.65 356.72 C 896.646 349.667 899.912 341.318 902.292 334.455 C 894.663 341.886 876.738 358.651 871.797 366.997 C 858.696 389.125 852.972 454.349 858.669 478.777 C 859.841 512.195 859.824 544.817 871.877 576.556 C 903.01 658.542 980.002 703.125 1060.89 724.255 L 1054.66 726.349 C 1042.95 721.144 1027.99 718.105 1015.69 713.587 C 999.215 707.534 983.974 699.312 968.563 690.691 C 936.478 672.361 906.355 643.246 885.318 613.036 C 873.756 596.432 871.247 578.058 853.858 565.699 C 843.776 558.535 837.196 540.598 834.255 528.681 C 828.141 503.907 838.473 480.483 853.331 461.13 C 854.813 459.182 853.739 457.1 852.907 455.352 C 850.335 434.642 857.328 423.934 854.221 404.17 C 854.052 403.094 850.2 402.097 848.807 402.601 C 844.604 404.121 846.056 417.474 840.37 409.806 C 840.528 399.092 840.786 382.971 841.538 372.727 C 843.199 350.104 857.973 297.942 873.282 281.404 C 875.164 268.632 922.826 226.469 935.404 218.628 C 938.804 217.381 941.174 215.73 944.085 213.464 C 951.505 207.69 955.433 210.222 962.789 204.089 C 959.075 199.646 952.216 200.717 946.703 200.633 L 944.752 200.586 C 938.986 202.205 919.875 208.486 914.971 209.075 C 912.242 209.455 912.419 209.432 909.953 210.875 L 907.65 207.326 C 910.981 205.129 914.618 202.954 918.024 200.833 C 923.343 197.628 925.214 196.373 931.047 194.446 L 932.343 192.704 C 978.685 167.482 1062.57 141.644 1115.37 139.247 L 1118.14 137.444 C 1116.74 135.036 1112.32 134.456 1108.92 133.415 C 1103.56 132.61 1087.94 131.536 1085.53 127.188 z" fill="rgb(15,27,45)" transform="translate(0,0)"></path>
<path d="M 1215.76 295.471 C 1225.91 292.366 1233.86 288.608 1243.55 284.323 C 1236.4 290.253 1231.46 294.433 1223.6 299.602 C 1220.22 297.453 1219.45 297.121 1215.76 295.471 z" fill="rgb(217,160,102)" transform="translate(0,0)"></path>
<path d="M 1434.28 262.187 C 1459.3 260.781 1540.88 256.051 1551.8 282.636 C 1580.23 330.951 1583.4 400.099 1554.1 448.794 C 1521.41 451.579 1509.2 458.576 1481.7 476.657 L 1456.04 477.066 L 1456.09 350.703 L 1380.48 350.894 C 1380.44 341.484 1379.05 294.734 1382.31 289.802 L 1383.21 289.495 C 1403.45 283.595 1417.81 274.938 1434.28 262.187 z" fill="rgb(245,158,11)" transform="translate(0,0)"></path>
<path d="M 872.162 288.95 C 892.689 294.893 912.36 296.337 933.611 297.062 C 924.363 307.931 916.29 320.852 907.793 330.677 L 907.794 330.677 C 907.458 329.947 907.042 328.763 906.529 328.276 C 904.133 327.869 880.746 353.195 877.568 356.261 C 866.83 366.619 859.298 378.087 851.739 390.726 C 850.256 394.142 847.194 398.751 845.216 402.072 C 844.031 385.5 843.995 369.785 847.946 353.482 C 849.752 335.454 862.654 304.278 872.162 288.95 z" fill="rgb(245,158,11)" transform="translate(0,0)"></path>
<path d="M 854.025 469.891 C 854.804 472.32 854.856 472.424 855.003 474.982 C 856.701 504.456 855.39 532.586 864.098 561.356 C 865.058 564.529 866.204 569.278 867.126 572.635 C 863.76 569.582 860.094 566.544 856.943 563.321 C 830.609 534.255 828.384 500.286 854.025 469.891 z" fill="rgb(217,160,102)" transform="translate(0,0)"></path>
<path d="M 936.918 296.907 L 952.346 296.784 C 956.981 297.02 962.356 296.478 965.366 300.259 C 980.548 319.328 981.609 362.255 970.112 382.613 C 967.171 383.391 966.088 383.448 963.032 383.739 L 962.187 384.398 C 947.905 385.372 889.513 393.554 886.59 410.57 C 888.786 413.96 888.713 413.673 892.435 415.381 C 899.988 415.533 917.98 408.387 926.441 406.263 C 936.805 403.662 941.436 403.335 951.874 402.07 L 960.021 403.347 C 960.52 409.257 951.476 419.311 947.511 423.99 C 938.983 434.244 929.463 443.629 919.088 452.009 C 915.044 455.337 906.099 461.448 903.237 464.794 C 890.234 471.352 874.46 477.287 860.151 480.059 L 858.669 478.777 C 852.972 454.349 858.696 389.125 871.797 366.997 C 876.738 358.651 894.663 341.886 902.292 334.455 C 899.912 341.318 896.646 349.667 895.65 356.72 L 896.451 357.392 C 899.816 354.008 905.914 339.177 909.85 332.821 C 919.17 317.772 925.124 310.083 936.918 296.907 z" fill="rgb(251,191,92)" transform="translate(0,0)"></path>
<path d="M 903.237 464.794 C 942.281 450.717 977.113 443.929 1016.8 462.188 C 1041.79 473.685 1065.34 498.198 1075 524.151 C 1074.47 527.122 1072.37 537.001 1073.04 539.42 C 1070.39 546.01 1063.35 551.689 1058.87 558.36 L 1057.69 557.672 C 1029.36 572.103 1009.89 567.401 983.748 550.306 C 978.17 547.614 979.473 543.596 976.157 540.924 C 968.618 534.848 970.509 531.932 966.984 525.236 C 959.793 517.438 960.991 509.059 959.064 501.733 C 955.858 489.545 967.618 471.845 963.573 466.631 C 960.882 463.164 941.375 466.809 936.291 467.443 C 933.732 469.707 929.06 474.728 925.083 474.866 C 920.003 475.043 906.124 484.098 903.045 487.387 C 897.34 493.482 893.964 493.285 891.658 500.427 L 891.393 499.686 L 888.173 501.259 C 881.164 500.329 864.896 486.158 860.151 480.059 C 874.46 477.287 890.234 471.352 903.237 464.794 z" fill="rgb(15,27,45)" transform="translate(0,0)"></path>
<path d="M 962.187 384.398 C 997.791 385.084 1022.78 390.741 1053.63 409.746 C 1052.17 415.899 1051.17 419.924 1056.26 424.115 C 1045.46 426.812 1033.48 418.333 1023.11 413.967 C 1000.64 404.404 976.226 400.326 951.874 402.07 C 941.436 403.335 936.805 403.662 926.441 406.263 C 917.98 408.387 899.988 415.533 892.435 415.381 C 888.713 413.673 888.786 413.96 886.59 410.57 C 889.513 393.554 947.905 385.372 962.187 384.398 z" fill="rgb(24,74,87)" transform="translate(0,0)"></path>
<path d="M 1053.63 409.746 L 1055.28 410.929 C 1062.11 415.638 1061.4 418.899 1056.26 424.115 C 1051.17 419.924 1052.17 415.899 1053.63 409.746 z" fill="rgb(15,27,45)" transform="translate(0,0)"></path>
<path d="M 1284.82 448.176 C 1338.02 436.044 1368.13 446.644 1416.17 472.145 C 1416.75 472.455 1419.03 473.987 1419.33 474.274 L 1431.68 479.999 C 1426.57 484.876 1422.88 488.568 1417.07 492.71 C 1413.96 495.273 1408.35 500.452 1404.85 501.577 C 1402.57 499.926 1400.61 498.43 1398.41 496.674 C 1395.88 498.259 1395.18 503.538 1393.81 507.311 C 1387.6 524.412 1357.98 541.974 1342.58 549.143 C 1340.26 550.216 1337.88 551.172 1335.46 552.007 C 1329.02 554.565 1324.59 556.154 1317.93 558.136 C 1314.02 557.018 1312.21 555.698 1309.08 556.746 L 1308.91 557.764 C 1306.33 552.23 1303.41 551.994 1297.56 549.7 C 1286.55 538.932 1275.19 513.143 1277.93 497.721 C 1279.24 490.29 1282.51 489.036 1282.26 479.339 C 1283.68 474.876 1285.38 472.254 1283.94 468.544 C 1274.69 463.568 1271.83 471.731 1263.8 474.444 C 1226.2 487.141 1195.12 516.67 1180.2 553.429 C 1179.51 555.112 1179.39 556.615 1179.18 558.418 C 1178.24 556.805 1177.57 554.482 1178.28 552.651 C 1194.94 509.71 1215.51 482.916 1255.19 459.471 C 1266.15 454.584 1273.39 451.803 1284.82 448.176 z" fill="rgb(15,27,45)" transform="translate(0,0)"></path>
<path d="M 1179.18 558.418 C 1179.39 556.615 1179.51 555.112 1180.2 553.429 C 1195.12 516.67 1226.2 487.141 1263.8 474.444 C 1271.83 471.731 1274.69 463.568 1283.94 468.544 C 1285.38 472.254 1283.68 474.876 1282.26 479.339 C 1282.51 489.036 1279.24 490.29 1277.93 497.721 C 1275.19 513.143 1286.55 538.932 1297.56 549.7 C 1303.41 551.994 1306.33 552.23 1308.91 557.764 C 1282.79 570.464 1207.89 567.816 1179.18 558.418 z" fill="rgb(255,255,255)" fill-opacity="0.0117647" transform="translate(0,0)"></path>
<path d="M 1213.28 401.488 C 1253.19 378.501 1303.84 370.656 1348.73 381.223 C 1359.45 383.747 1370.45 389.235 1380.77 393.212 L 1379.11 393.794 C 1366.1 397.8 1382.54 408.825 1384.37 396.293 C 1388.16 399.409 1387.95 399.274 1390.17 403.714 L 1390.15 406.441 C 1380.45 413.86 1353.32 397.754 1340.71 395.644 C 1297.15 388.357 1251.35 398.315 1213.83 421.135 C 1198.11 410.657 1209.73 411.492 1215.63 408.842 L 1217.51 407.977 C 1216.84 403.86 1216.73 403.968 1213.28 401.488 z" fill="url(#Gradient4)" transform="translate(0,0)"></path>
<path d="M 1202.41 619.066 C 1206.87 620.351 1212.78 623.839 1216.17 627.124 L 1215.51 628.671 C 1201.1 625.877 1201.27 633.032 1188.41 638.213 C 1153.72 652.181 1121.58 653.299 1085.51 644.37 C 1081.94 642.852 1077.27 641.407 1075.08 638.497 L 1077.01 637.684 C 1106.18 652.211 1176.85 651.264 1203.99 624.4 C 1205 623.407 1203.09 620.584 1202.41 619.066 z" fill="rgb(81,52,40)" fill-opacity="0.968627" transform="translate(0,0)"></path>
<path d="M 1596.32 485.757 C 1595.29 485.884 1602.05 485.033 1598.72 486.841 C 1585.01 494.304 1562.4 502.876 1548.2 508.453 C 1554.28 524.418 1555.44 540.577 1544.27 555.109 C 1542.93 556.852 1538.74 556.391 1541.99 552.618 C 1546.16 547.775 1547.91 540.993 1549.1 534.895 C 1549.29 530.844 1549.49 513.646 1544.77 510.874 C 1542.35 509.456 1522.04 521.245 1520.19 519.267 C 1520.32 516.086 1542.88 507.869 1547.29 506.034 L 1596.32 485.757 z" fill="rgb(15,27,45)" transform="translate(0,0)"></path>
<path d="M 1112.8 537.37 C 1113.75 537.751 1114.56 537.884 1115.04 538.662 C 1114.23 542.154 1085.54 578.558 1081.43 583.661 C 1087.8 588.84 1111.61 601.896 1112.6 605.548 C 1102.39 603.375 1085.76 590.654 1077.44 584.274 C 1089.18 569.175 1100.9 551.517 1112.8 537.37 z" fill="rgb(15,27,45)" transform="translate(0,0)"></path>
<path d="M 1206.56 405.629 C 1208.91 404.085 1210.82 402.861 1213.28 401.488 C 1216.73 403.968 1216.84 403.86 1217.51 407.977 L 1215.63 408.842 C 1209.73 411.492 1198.11 410.657 1213.83 421.135 C 1201.72 428.032 1184.85 419.358 1206.56 405.629 z" fill="rgb(15,27,45)" transform="translate(0,0)"></path>
<path d="M 1384.37 396.293 C 1382.54 408.825 1366.1 397.8 1379.11 393.794 L 1380.77 393.212 L 1384.37 396.293 z" fill="rgb(15,27,45)" fill-opacity="0.545098" transform="translate(0,0)"></path>
<path d="M 1084.74 2206.74 C 1088.76 2207.01 1094.09 2206.47 1098.21 2206.22 L 1090.44 2204.52 C 1092.29 2202.51 1095.9 2202.72 1099.4 2202.19 L 1095.42 2200.16 C 1097.95 2190.07 1108.38 2194.12 1117.86 2193.3 C 1121.28 2197.74 1112.93 2199.81 1121.3 2205.36 C 1122.26 2205.99 1122.7 2209.79 1121.92 2211.18 C 1120.69 2213.35 1124.16 2222.58 1123.87 2224.07 L 1123.75 2224.17 C 1122.51 2223.2 1122.23 2221.67 1121.5 2220.31 L 1121.53 2220.3 C 1121.3 2219.93 1121.46 2220.1 1121.04 2219.79 C 1116.61 2220.26 1119.18 2229.11 1117.05 2228.84 C 1115.8 2228.69 1102.3 2229.69 1101.27 2230.37 C 1101.69 2231.47 1108.88 2229.8 1108.77 2232.75 C 1108.36 2233.34 1108.62 2233.05 1107.94 2233.56 L 1108.03 2233.34 L 1107.08 2233.91 L 1106.97 2233.85 C 1106.75 2233.96 1106.53 2234.08 1106.32 2234.19 C 1109.17 2234.38 1117.55 2234.68 1120.28 2234.21 C 1120.06 2233.84 1119.83 2233.47 1119.61 2233.1 C 1123.05 2227.03 1134.91 2237.5 1140.63 2232.13 C 1141.6 2231.22 1140.78 2226.05 1141.38 2222.89 C 1157.38 2239.89 1178.19 2240.42 1195.99 2225.61 L 1199.78 2221.75 C 1200.71 2226.6 1200.25 2228.77 1199.99 2232.62 C 1201.21 2234.86 1205.33 2234.71 1206.56 2233.71 C 1210.85 2230.24 1205.98 2225.47 1211.82 2225.29 C 1216.38 2225.15 1217.58 2225.42 1221.75 2226.11 C 1222.54 2226.24 1226.67 2223.46 1227.41 2222.04 C 1228.49 2219.95 1228.74 2217.51 1228.08 2215.24 C 1227.8 2214.25 1227.06 2212.53 1228.1 2211.72 L 1228.11 2211.79 C 1233 2213.81 1230.71 2224.57 1233.44 2225.87 C 1233.62 2225.95 1233.83 2225.96 1234.01 2225.87 C 1236.17 2224.87 1237.11 2220.36 1236.19 2217.65 C 1240.79 2215.28 1237.44 2220.65 1239.06 2222.61 L 1239.3 2222.62 C 1240.19 2221.2 1240.61 2219.55 1241.48 2218.01 C 1242.7 2225.19 1244.19 2233 1245.17 2240.17 C 1244.25 2240.21 1244.54 2240.13 1244.14 2240.31 C 1244.26 2240.15 1241.82 2256.37 1241.82 2257.92 C 1235.46 2258.65 1236.88 2259.27 1233.58 2265.09 C 1230.29 2270.18 1238.57 2279.48 1237.27 2284.02 C 1237.12 2284.07 1236.96 2284.13 1236.81 2284.18 C 1235.53 2282.65 1233.37 2274.58 1230.9 2274.35 C 1230.31 2278.41 1222.3 2278.07 1219.96 2279.01 C 1219.74 2279.35 1219.65 2279.32 1219.79 2279.73 C 1220.01 2280.41 1220.48 2280.97 1221.1 2281.31 C 1224.35 2283.04 1226.83 2279.35 1228.98 2280 C 1229.13 2280.18 1232.42 2291.78 1230.77 2291.71 C 1223.29 2291.38 1226.73 2283.24 1221.14 2289.31 C 1220.28 2289.53 1216.44 2288.21 1214.57 2291.56 C 1215.78 2292.79 1220.04 2292.42 1221.14 2293.62 C 1216.88 2294.94 1186.53 2291.51 1183.12 2295.16 C 1161.23 2295.96 1134.87 2295.33 1112.7 2295.35 L 974.58 2295.34 L 872.594 2295.5 C 864.538 2295.52 818.518 2296.42 814.591 2294.22 C 814.256 2290.48 816.658 2287.14 818.496 2283.6 C 819.24 2287.02 820.243 2295.67 825.751 2291.37 C 832.356 2286.2 851.985 2289.97 854.889 2284.73 C 854.057 2281.07 844.688 2272.21 840.728 2272.64 C 829.507 2273.83 832.624 2282.7 819.688 2282.12 C 827.78 2270.88 840.142 2264.43 853.306 2260.99 C 863.072 2263.79 894.536 2266.01 896.512 2254.47 C 896.692 2253.42 909.088 2253.16 910.813 2253.42 C 916.76 2254.3 925.339 2253.53 930.867 2251.08 C 937.406 2244.64 926.539 2245.51 924.892 2245.56 L 922.539 2245.62 C 927.498 2244.21 931.697 2243.28 936.747 2242.23 C 946.075 2243.18 958.898 2243.99 967.868 2241.03 C 969.147 2240.61 970.625 2237.52 969.267 2236.71 C 967.013 2235.36 961.8 2236.12 959.262 2236.1 L 974.164 2231.7 C 975.102 2240.08 1014.48 2229.83 991.264 2225.81 C 998.814 2223.03 1009.02 2218.3 1016.65 2215.06 C 1018.45 2219.22 1018.42 2217.2 1016.96 2221.33 C 1013.52 2224.31 1007.85 2225.92 1003.38 2226.71 C 998.932 2227.53 1000.34 2232.5 1001.79 2234.42 C 1005.58 2237.21 1014 2232.82 1017.49 2237.35 C 1025.49 2247.69 1030.22 2232.8 1036.04 2232.44 C 1045.68 2231.84 1057.01 2223.92 1066.26 2220.4 C 1071.29 2218.48 1069.13 2217.4 1075.42 2217.02 C 1077.58 2216.89 1075.5 2214.29 1075.36 2214.06 C 1078.78 2211.15 1080.34 2212.13 1083.34 2208.4 L 1084.74 2206.74 z" fill="url(#Gradient3)" transform="translate(0,0)"></path>
<path d="M 807.231 2298.15 C 810.617 2285.84 815.369 2274.92 827.036 2267.82 C 855.783 2250.91 889.227 2248.86 921.357 2241.09 C 959.538 2231.25 1002.7 2222.09 1034.49 2197.55 C 1046.7 2188.12 1054.43 2164.05 1074.74 2166.83 C 1054.37 2178.08 1053.66 2185.09 1038.02 2201.32 C 1034.82 2204.64 1021.47 2212.1 1016.65 2215.06 C 1009.02 2218.3 998.814 2223.03 991.264 2225.81 C 985.439 2228.04 979.907 2229.5 974.164 2231.7 L 959.262 2236.1 C 954.457 2237.59 949.594 2238.88 944.685 2239.99 C 942.007 2240.61 939.358 2241.36 936.747 2242.23 C 931.697 2243.28 927.498 2244.21 922.539 2245.62 C 899.36 2251.7 875.932 2255.46 853.306 2260.99 C 840.142 2264.43 827.78 2270.88 819.688 2282.12 C 818.986 2282.82 819.414 2282.36 818.496 2283.6 C 816.658 2287.14 814.256 2290.48 814.591 2294.22 C 818.518 2296.42 864.538 2295.52 872.594 2295.5 L 974.58 2295.34 L 1112.7 2295.35 C 1134.87 2295.33 1161.23 2295.96 1183.12 2295.16 C 1200.28 2296.23 1233.9 2295.41 1252.2 2295.34 C 1251.32 2286.19 1251.22 2280.26 1249.31 2271.06 C 1249 2263.88 1246.17 2248.37 1245.17 2240.17 C 1244.19 2233 1242.7 2225.19 1241.48 2218.01 C 1240.1 2209.19 1240.69 2208.28 1236 2200.97 L 1237.83 2199.11 C 1236.75 2195.96 1237.22 2197.09 1234.81 2194.44 C 1237.34 2194.84 1236.61 2194.7 1238.98 2195.82 C 1251.89 2217.18 1247.95 2233.37 1252.68 2255.01 C 1275.61 2360.06 1201.87 2346.86 1124.91 2346.87 L 1002.59 2346.77 L 917.277 2346.86 C 895.057 2346.94 870.765 2348.38 848.894 2344.34 C 835.545 2341.89 822.928 2331.9 815.473 2320.93 C 810.332 2313.37 809.353 2307.01 807.231 2298.15 z" fill="rgb(48,47,47)" fill-opacity="0.698039" transform="translate(0,0)"></path>
<path d="M 813.414 2297.81 C 845.29 2299.26 890.773 2297.88 923.477 2297.87 L 1146.23 2297.75 C 1178.28 2297.74 1220.63 2296.36 1251.31 2298.27 C 1258.85 2306.18 1243.33 2323.9 1237.51 2329.21 C 1213.04 2347.95 1166.83 2342.81 1136.65 2342.81 L 1013.8 2342.79 L 918.386 2342.88 C 899.475 2342.9 873.664 2343.76 855.548 2341.13 C 844.571 2339.61 834.313 2334.8 826.131 2327.32 C 816.058 2318.16 813.863 2310.55 813.414 2297.81 z" fill="rgb(34,211,238)" transform="translate(0,0)"></path>
<path d="M 1295.21 1758.5 C 1297.11 1761.76 1298.99 1766.38 1302.2 1768.08 C 1319.18 1805.95 1335.15 1846.22 1351.02 1884.71 L 1413.44 2035.19 L 1441.09 2102.4 C 1443.9 2109.2 1452.43 2130.61 1455.97 2136.08 L 1460.59 2137.38 L 1462.05 2139.01 L 1465.15 2143.83 C 1466.23 2152.91 1468.22 2157.85 1470.32 2166.58 L 1471.5 2171.33 L 1472.88 2176.67 C 1474.4 2182.58 1475.64 2188.43 1477.2 2194.36 C 1502.08 2203.35 1488.79 2205.73 1501.7 2222.62 C 1505.71 2227.87 1512.01 2217.56 1509.53 2213.5 C 1509.02 2198.77 1517.48 2188.09 1530.86 2181.55 L 1534.43 2181.95 C 1525.62 2187.44 1517.34 2191.51 1515.01 2202.05 C 1513.6 2208.4 1512.75 2222.65 1508.08 2225.99 C 1500.82 2226.69 1496.72 2222.67 1493.37 2216.77 C 1493.27 2212.14 1493 2211.79 1491.79 2207.37 C 1489.24 2197.22 1479.77 2198.39 1472.52 2198.13 L 1471.44 2198.08 C 1462.72 2203.16 1462.46 2204.66 1460.17 2215.2 C 1458.06 2224.91 1454.93 2234.89 1453.41 2244.72 C 1450.51 2254.69 1448.45 2265.27 1445.59 2275.48 C 1444.68 2278.83 1443.93 2282.22 1443.01 2285.56 C 1442.11 2291.01 1441.21 2290.71 1443.21 2294.61 C 1449.37 2297.54 1683.74 2295.55 1713.05 2295.52 C 1730.75 2296.18 1752.72 2295.58 1770.78 2295.6 C 1769.04 2290.77 1767 2285.74 1765.15 2280.93 C 1766.15 2275.32 1763.07 2267.8 1758.89 2273.03 C 1749.83 2263.17 1731.02 2256.29 1718.49 2251.09 L 1720.51 2249.03 L 1719.8 2245.65 C 1745.45 2256.55 1776.23 2266.32 1774.51 2300.27 C 1774.03 2311.92 1768.82 2322.87 1760.09 2330.59 C 1739.21 2349.18 1707.63 2347.13 1681.56 2347.17 L 1613.95 2347.1 L 1532.73 2347.17 C 1486.67 2347.19 1470.33 2353.23 1438.4 2315.5 C 1438.08 2311.39 1435.72 2296.7 1436.34 2293.93 C 1442.88 2264.78 1450.54 2234.84 1457.78 2205.82 C 1458.64 2202.94 1470.76 2191.98 1470.46 2190.23 C 1467.35 2172.04 1461.59 2162.45 1461.39 2143.54 L 1449.23 2134.17 C 1439.27 2105.27 1421.29 2065.84 1409.31 2036.69 L 1324.71 1831.6 C 1320 1820.14 1295.83 1766.13 1295.21 1758.5 z" fill="rgb(48,47,47)" fill-opacity="0.666667" transform="translate(0,0)"></path>
<path d="M 1441.48 2298.21 C 1507.11 2296.57 1577.64 2297.87 1643.74 2297.9 L 1719.83 2297.86 C 1734.63 2297.83 1753.61 2297.24 1768.13 2298.26 C 1776.57 2306.85 1761.52 2323.66 1754.64 2329.76 C 1740.98 2339.51 1727.42 2342.78 1710.85 2342.85 C 1645.8 2343.12 1580.77 2342.87 1515.72 2342.94 C 1493.34 2342.96 1469.91 2343.13 1452.82 2326.1 C 1443.93 2317.23 1441.75 2310.37 1441.48 2298.21 z" fill="rgb(34,211,238)" transform="translate(0,0)"></path>
<path d="M 1534.43 2181.95 C 1560.24 2169.83 1572.07 2167.23 1600.5 2166.88 L 1603.87 2167.94 C 1585.59 2174.52 1612.07 2180.13 1619.76 2176.01 C 1622.18 2178.11 1623.46 2178.76 1625.01 2181.45 C 1622.61 2186.44 1624.18 2196.63 1631.04 2190.67 L 1632.38 2192.69 C 1628.81 2195.54 1630.79 2194.81 1626.21 2194.95 C 1620.69 2191.46 1622.26 2188.06 1617.69 2185.81 L 1615.36 2187.2 C 1614.49 2192.46 1618.05 2195.24 1621.48 2199.09 C 1625.85 2223.97 1629.02 2219.24 1644.94 2239.43 C 1647.7 2242.92 1647.42 2249.82 1651.79 2252.46 C 1655.71 2254.83 1660.98 2256.07 1663.77 2259.31 L 1666.66 2258.16 C 1668.42 2262.49 1668.44 2262.38 1668.83 2267.01 C 1681.34 2285.13 1704.78 2263 1717.03 2269.87 L 1718.49 2272.81 C 1714.5 2281.03 1680.05 2275.82 1671.39 2275.85 C 1656.07 2275.91 1642.68 2279.59 1626.87 2279.63 C 1606.4 2278.4 1574.68 2283.29 1553.09 2282.96 C 1524.73 2282.53 1501.16 2277.79 1472.67 2275.88 C 1469.98 2271.57 1466.23 2276.32 1459.57 2273.5 C 1457.66 2264.27 1455.94 2254.3 1454.49 2244.96 C 1460.33 2240.5 1456.31 2234.97 1459.61 2234.24 C 1462.37 2237.1 1461.7 2237.68 1465.83 2240.28 C 1465.18 2242.26 1460.34 2241.91 1459.95 2247.22 C 1458.81 2253.18 1467.83 2253.89 1470.54 2257.96 C 1474.4 2263.76 1472.48 2252.99 1478.92 2255.8 C 1482.55 2257.61 1485.34 2255.43 1489.68 2255.38 C 1492.89 2255.35 1497.66 2252.66 1495.28 2248.59 C 1493.53 2246.16 1495.14 2237.94 1496.71 2236.2 C 1497.23 2235.62 1504.41 2239.02 1506.01 2237.82 C 1505.2 2235.39 1500.78 2236.16 1500.18 2233.69 C 1498.57 2227.04 1491.66 2224.05 1493.37 2216.77 C 1496.72 2222.67 1500.82 2226.69 1508.08 2225.99 C 1512.75 2222.65 1513.6 2208.4 1515.01 2202.05 C 1517.34 2191.51 1525.62 2187.44 1534.43 2181.95 z M 1529.12 2206.92 C 1537.64 2192.81 1529.05 2196.76 1544.17 2199.42 C 1543.47 2199.29 1553.15 2192.95 1552.38 2193.8 C 1552.87 2191.68 1550.76 2187.63 1556.8 2188.23 C 1562.11 2188.75 1563.27 2189.7 1568.33 2186.66 C 1572.51 2184.15 1570.73 2176.1 1566.73 2176.3 C 1551.66 2179.03 1540.55 2181.12 1528.67 2191.59 C 1521.03 2198.32 1514.55 2203.66 1529.12 2206.92 z" fill="url(#Gradient2)" transform="translate(0,0)"></path>
<path d="M 1566.73 2176.3 C 1570.73 2176.1 1572.51 2184.15 1568.33 2186.66 C 1563.27 2189.7 1562.11 2188.75 1556.8 2188.23 C 1550.76 2187.63 1552.87 2191.68 1552.38 2193.8 C 1553.15 2192.95 1543.47 2199.29 1544.17 2199.42 C 1529.05 2196.76 1537.64 2192.81 1529.12 2206.92 C 1514.55 2203.66 1521.03 2198.32 1528.67 2191.59 C 1540.55 2181.12 1551.66 2179.03 1566.73 2176.3 z M 1539.69 2194.58 C 1545.11 2187.92 1541.87 2188.46 1534.51 2187.92 C 1530.92 2194.52 1532.6 2193.58 1539.69 2194.58 z" fill="rgb(255,255,255)" fill-opacity="0.541176" transform="translate(0,0)"></path>
<path d="M 1534.51 2187.92 C 1541.87 2188.46 1545.11 2187.92 1539.69 2194.58 C 1532.6 2193.58 1530.92 2194.52 1534.51 2187.92 z" fill="rgb(255,255,255)" fill-opacity="0.435294" transform="translate(0,0)"></path>
<path d="M 1626.87 2279.63 C 1642.68 2279.59 1656.07 2275.91 1671.39 2275.85 C 1680.05 2275.82 1714.5 2281.03 1718.49 2272.81 L 1717.03 2269.87 C 1704.78 2263 1681.34 2285.13 1668.83 2267.01 C 1668.44 2262.38 1668.42 2262.49 1666.66 2258.16 L 1663.77 2259.31 C 1660.98 2256.07 1655.71 2254.83 1651.79 2252.46 C 1647.42 2249.82 1647.7 2242.92 1644.94 2239.43 C 1629.02 2219.24 1625.85 2223.97 1621.48 2199.09 C 1618.05 2195.24 1614.49 2192.46 1615.36 2187.2 L 1617.69 2185.81 C 1622.26 2188.06 1620.69 2191.46 1626.21 2194.95 C 1630.79 2194.81 1628.81 2195.54 1632.38 2192.69 C 1650.7 2228.34 1681.27 2237.87 1718.49 2251.09 C 1731.02 2256.29 1749.83 2263.17 1758.89 2273.03 C 1760.93 2275.7 1763.02 2278.33 1765.15 2280.93 C 1767 2285.74 1769.04 2290.77 1770.78 2295.6 C 1752.72 2295.58 1730.75 2296.18 1713.05 2295.52 C 1708.98 2294.35 1704.9 2293.24 1700.8 2292.19 C 1703.61 2291.37 1709.83 2291.89 1713.13 2291.84 C 1727.1 2291.63 1744.57 2292.81 1757.49 2287.28 C 1757.08 2283.85 1755.86 2281.43 1754.56 2278.24 C 1751.98 2269.43 1745.06 2273.43 1740.23 2278.23 C 1737.28 2279.51 1731.44 2281.55 1728.29 2281.17 C 1694.89 2277.14 1659.84 2281.93 1626.87 2279.63 z M 1689.31 2243.47 C 1682.44 2243.94 1670.76 2243.21 1681.22 2252.19 C 1687.44 2256.62 1689.71 2254.27 1695.11 2259.72 C 1696.48 2261.1 1705.45 2259.28 1707.04 2259.48 C 1708.99 2259.72 1715.11 2261.78 1716.79 2259.79 C 1717.31 2253.19 1704.87 2254.25 1700.11 2253.65 C 1695.37 2246.76 1696.85 2245.57 1689.31 2243.47 z M 1737.63 2270.65 C 1735.46 2262.88 1734.1 2264.41 1725.81 2264.65 C 1727.42 2271.79 1731.07 2271 1737.63 2270.65 z M 1660.16 2236.01 L 1661.42 2237.82 C 1664.51 2242.43 1666.48 2242.66 1671.64 2242.12 L 1671.3 2240.02 C 1670.34 2233.45 1665.54 2235.53 1660.16 2236.01 z M 1628.91 2205.91 L 1629.83 2204.84 C 1633.23 2201.16 1630.75 2198.84 1628.03 2196.59 C 1624.07 2200.85 1624.17 2201.48 1628.91 2205.91 z" fill="rgb(255,255,255)" fill-opacity="0.415686" transform="translate(0,0)"></path>
<path d="M 1689.31 2243.47 C 1696.85 2245.57 1695.37 2246.76 1700.11 2253.65 C 1704.87 2254.25 1717.31 2253.19 1716.79 2259.79 C 1715.11 2261.78 1708.99 2259.72 1707.04 2259.48 C 1705.45 2259.28 1696.48 2261.1 1695.11 2259.72 C 1689.71 2254.27 1687.44 2256.62 1681.22 2252.19 C 1690.58 2251.71 1695.2 2252.93 1689.31 2243.47 z" fill="rgb(255,255,255)" fill-opacity="0.25098" transform="translate(0,0)"></path>
<path d="M 1681.22 2252.19 C 1670.76 2243.21 1682.44 2243.94 1689.31 2243.47 C 1695.2 2252.93 1690.58 2251.71 1681.22 2252.19 z" fill="rgb(255,255,255)" fill-opacity="0.0862745" transform="translate(0,0)"></path>
<path d="M 1725.81 2264.65 C 1734.1 2264.41 1735.46 2262.88 1737.63 2270.65 C 1731.07 2271 1727.42 2271.79 1725.81 2264.65 z" fill="rgb(255,255,255)" fill-opacity="0.282353" transform="translate(0,0)"></path>
<path d="M 1660.16 2236.01 C 1665.54 2235.53 1670.34 2233.45 1671.3 2240.02 L 1671.64 2242.12 C 1666.48 2242.66 1664.51 2242.43 1661.42 2237.82 L 1660.16 2236.01 z" fill="rgb(255,255,255)" fill-opacity="0.160784" transform="translate(0,0)"></path>
<path d="M 1628.03 2196.59 C 1630.75 2198.84 1633.23 2201.16 1629.83 2204.84 L 1628.91 2205.91 C 1624.17 2201.48 1624.07 2200.85 1628.03 2196.59 z" fill="rgb(255,255,255)" fill-opacity="0.4" transform="translate(0,0)"></path>
<path d="M 1472.67 2275.88 C 1501.16 2277.79 1524.73 2282.53 1553.09 2282.96 C 1574.68 2283.29 1606.4 2278.4 1626.87 2279.63 C 1659.84 2281.93 1694.89 2277.14 1728.29 2281.17 C 1731.44 2281.55 1737.28 2279.51 1740.23 2278.23 C 1746.93 2281.36 1735.41 2282.24 1734.91 2284.28 C 1733.98 2288.05 1755.55 2288.43 1752.4 2281.01 C 1752.87 2280.3 1753.04 2279.45 1752.89 2278.62 L 1754.56 2278.24 C 1755.86 2281.43 1757.08 2283.85 1757.49 2287.28 C 1744.57 2292.81 1727.1 2291.63 1713.13 2291.84 C 1709.83 2291.89 1703.61 2291.37 1700.8 2292.19 C 1704.9 2293.24 1708.98 2294.35 1713.05 2295.52 C 1683.74 2295.55 1449.37 2297.54 1443.21 2294.61 C 1441.21 2290.71 1442.11 2291.01 1443.01 2285.56 C 1451.79 2296.42 1451.13 2287.11 1460.01 2289.64 C 1469.48 2293.85 1473.67 2287.58 1482.57 2286.67 C 1483.32 2286.6 1492.39 2285.7 1493.25 2285.16 L 1493.21 2284.94 C 1492.47 2284.37 1482.09 2284.96 1480.19 2284.77 C 1479.49 2284.69 1476.05 2284.11 1476.67 2282.82 C 1478.11 2279.83 1484.86 2281.98 1486.69 2280.79 C 1486.13 2280.57 1485.51 2280.62 1484.91 2280.59 C 1483.26 2280.5 1481.9 2280.63 1480.29 2280.11 C 1479.9 2279.99 1479.52 2279.85 1479.14 2279.73 C 1476.13 2278.77 1475.11 2277.94 1472.67 2275.88 z" fill="url(#Gradient1)" transform="translate(0,0)"></path>
<path d="M 1074.74 2166.83 L 1078.52 2166.07 C 1099.16 2164.17 1125.98 2171.43 1139.03 2188.33 C 1139.5 2196.29 1138.69 2210.77 1136.93 2218.88 C 1133.45 2234.9 1128.79 2216.38 1127.26 2214.19 C 1122.62 2207.54 1131.98 2187.32 1117.86 2193.3 C 1108.38 2194.12 1097.95 2190.07 1095.42 2200.16 L 1099.4 2202.19 C 1095.9 2202.72 1092.29 2202.51 1090.44 2204.52 L 1098.21 2206.22 C 1094.09 2206.47 1088.76 2207.01 1084.74 2206.74 C 1080.2 2206.93 1065.56 2213.77 1061.67 2216.57 C 1057.03 2220.23 1051.41 2221.57 1046.54 2224.64 C 1036.48 2231.01 1031.28 2223.12 1020.1 2230.84 C 1015.4 2234.07 1006.34 2233.39 1003.38 2226.71 C 1007.85 2225.92 1013.52 2224.31 1016.96 2221.33 C 1018.42 2217.2 1018.45 2219.22 1016.65 2215.06 C 1021.47 2212.1 1034.82 2204.64 1038.02 2201.32 C 1053.66 2185.09 1054.37 2178.08 1074.74 2166.83 z M 1036.73 2208.16 C 1034.71 2210.57 1031.92 2214.36 1028.32 2214.8 C 1024.55 2215.27 1018.04 2219.79 1024.2 2222.91 C 1027.71 2224.69 1034.32 2223.92 1038.01 2222.39 C 1045.16 2220.79 1048.63 2214.82 1054 2211.81 C 1059.14 2211.14 1061.12 2201.24 1063.29 2202.38 C 1071.61 2206.75 1073.2 2198.51 1079.9 2195.31 C 1082.91 2193.88 1089.08 2191.8 1090.66 2190.19 C 1091.7 2185.84 1073.06 2183.36 1088.24 2179.5 C 1096.28 2177.46 1099.71 2181.75 1105.09 2186.38 C 1106.43 2187.53 1109.79 2186.36 1111.1 2185.95 C 1115.37 2186.08 1122.54 2187.13 1126.25 2185.08 C 1127.71 2184.27 1125.53 2181.4 1124.67 2180.69 C 1119.5 2176.29 1113.08 2180.35 1108.4 2174.72 C 1105.71 2171.5 1096.09 2169.62 1091.93 2168.58 C 1089.08 2167.87 1080.71 2166.35 1078.32 2169.67 C 1077.05 2171.93 1077.63 2175.3 1074.63 2176.72 C 1071.05 2178.42 1065.71 2175.35 1064.4 2181.4 C 1063.44 2185.83 1056.81 2185.32 1056.33 2188.03 C 1054.76 2196.93 1051.23 2192.9 1046.79 2197.65 C 1045.15 2199.66 1046.44 2203.87 1041.99 2205.07 C 1041.19 2205.25 1040.39 2205.42 1039.6 2205.6 C 1037.99 2205.84 1037.37 2206.72 1036.73 2208.16 z M 1136.11 2204.98 C 1138.18 2194.84 1139.16 2191.34 1129.7 2188.44 C 1130.01 2194.94 1128.34 2207.01 1136.11 2204.98 z" fill="rgb(255,255,255)" fill-opacity="0.388235" transform="translate(0,0)"></path>
<path d="M 1036.73 2208.16 C 1037.37 2206.72 1037.99 2205.84 1039.6 2205.6 C 1040.39 2205.42 1041.19 2205.25 1041.99 2205.07 C 1046.44 2203.87 1045.15 2199.66 1046.79 2197.65 C 1051.23 2192.9 1054.76 2196.93 1056.33 2188.03 C 1056.81 2185.32 1063.44 2185.83 1064.4 2181.4 C 1065.71 2175.35 1071.05 2178.42 1074.63 2176.72 C 1077.63 2175.3 1077.05 2171.93 1078.32 2169.67 C 1080.71 2166.35 1089.08 2167.87 1091.93 2168.58 C 1096.09 2169.62 1105.71 2171.5 1108.4 2174.72 C 1113.08 2180.35 1119.5 2176.29 1124.67 2180.69 C 1125.53 2181.4 1127.71 2184.27 1126.25 2185.08 C 1122.54 2187.13 1115.37 2186.08 1111.1 2185.95 C 1109.88 2184.57 1109.91 2184.37 1107.98 2184.55 C 1105.27 2184.8 1100.65 2178.9 1099.03 2177.29 C 1091.71 2177.31 1078.38 2174.32 1078.97 2183.88 C 1079.36 2190.02 1071.43 2186.48 1069.35 2189.16 C 1065.79 2193.83 1069.39 2194.01 1066.15 2199.73 C 1065.25 2199.38 1065.58 2199.93 1065.06 2199.31 C 1062.97 2196.85 1058.72 2201.59 1058.31 2202.88 C 1056.72 2207.93 1055.19 2208.19 1051.01 2210.63 C 1047.13 2212.9 1048.42 2215.4 1042.74 2216.79 C 1037.73 2218.49 1032.81 2223.57 1027.18 2220.94 C 1026.37 2220.56 1024.73 2219.15 1025.72 2218.15 C 1028.33 2215.49 1033.21 2216.53 1034.97 2212.77 C 1035.65 2211.31 1036.16 2209.69 1036.73 2208.16 z M 1108.38 2179.65 C 1112.23 2183.44 1118.51 2184.96 1123.62 2183.58 C 1120.2 2178.31 1114.06 2179.64 1108.38 2179.65 z M 1051.6 2205.19 L 1052.72 2203.2 C 1055.91 2197.91 1054.42 2197.72 1049.6 2196.17 C 1047.54 2200.71 1045.69 2203.88 1051.6 2205.19 z M 1043.16 2206.02 L 1041.51 2206.84 C 1037.14 2208.87 1036.59 2212.09 1041.37 2214.25 C 1045.15 2210.33 1047.52 2209.58 1043.16 2206.02 z M 1061.14 2193.74 C 1062.7 2193.3 1063.63 2191.71 1063.26 2190.14 C 1062.9 2188.56 1061.35 2187.56 1059.76 2187.85 C 1058.67 2188.06 1057.78 2188.85 1057.44 2189.91 C 1057.1 2190.97 1057.37 2192.13 1058.14 2192.93 C 1058.92 2193.73 1060.07 2194.04 1061.14 2193.74 z" fill="rgb(255,255,255)" fill-opacity="0.172549" transform="translate(0,0)"></path>
<path d="M 1108.38 2179.65 C 1114.06 2179.64 1120.2 2178.31 1123.62 2183.58 C 1118.51 2184.96 1112.23 2183.44 1108.38 2179.65 z" fill="rgb(255,255,255)" fill-opacity="0.164706" transform="translate(0,0)"></path>
<path d="M 1049.6 2196.17 C 1054.42 2197.72 1055.91 2197.91 1052.72 2203.2 L 1051.6 2205.19 C 1045.69 2203.88 1047.54 2200.71 1049.6 2196.17 z" fill="rgb(255,255,255)" fill-opacity="0.0745098" transform="translate(0,0)"></path>
<path d="M 1043.16 2206.02 C 1047.52 2209.58 1045.15 2210.33 1041.37 2214.25 C 1036.59 2212.09 1037.14 2208.87 1041.51 2206.84 L 1043.16 2206.02 z" fill="rgb(255,255,255)" fill-opacity="0.0941176" transform="translate(0,0)"></path>
<path d="M 1059.76 2187.85 C 1061.35 2187.56 1062.9 2188.56 1063.26 2190.14 C 1063.63 2191.71 1062.7 2193.3 1061.14 2193.74 C 1060.07 2194.04 1058.92 2193.73 1058.14 2192.93 C 1057.37 2192.13 1057.1 2190.97 1057.44 2189.91 C 1057.78 2188.85 1058.67 2188.06 1059.76 2187.85 z" fill="rgb(255,255,255)" fill-opacity="0.0941176" transform="translate(0,0)"></path>
<path d="M 1036.73 2208.16 C 1036.16 2209.69 1035.65 2211.31 1034.97 2212.77 C 1033.21 2216.53 1028.33 2215.49 1025.72 2218.15 C 1024.73 2219.15 1026.37 2220.56 1027.18 2220.94 C 1032.81 2223.57 1037.73 2218.49 1042.74 2216.79 C 1048.42 2215.4 1047.13 2212.9 1051.01 2210.63 C 1055.19 2208.19 1056.72 2207.93 1058.31 2202.88 C 1058.72 2201.59 1062.97 2196.85 1065.06 2199.31 C 1065.58 2199.93 1065.25 2199.38 1066.15 2199.73 C 1069.39 2194.01 1065.79 2193.83 1069.35 2189.16 C 1071.43 2186.48 1079.36 2190.02 1078.97 2183.88 C 1078.38 2174.32 1091.71 2177.31 1099.03 2177.29 C 1100.65 2178.9 1105.27 2184.8 1107.98 2184.55 C 1109.91 2184.37 1109.88 2184.57 1111.1 2185.95 C 1109.79 2186.36 1106.43 2187.53 1105.09 2186.38 C 1099.71 2181.75 1096.28 2177.46 1088.24 2179.5 C 1073.06 2183.36 1091.7 2185.84 1090.66 2190.19 C 1089.08 2191.8 1082.91 2193.88 1079.9 2195.31 C 1073.2 2198.51 1071.61 2206.75 1063.29 2202.38 C 1061.12 2201.24 1059.14 2211.14 1054 2211.81 C 1048.63 2214.82 1045.16 2220.79 1038.01 2222.39 C 1034.32 2223.92 1027.71 2224.69 1024.2 2222.91 C 1018.04 2219.79 1024.55 2215.27 1028.32 2214.8 C 1031.92 2214.36 1034.71 2210.57 1036.73 2208.16 z" fill="rgb(255,255,255)" fill-opacity="0.317647" transform="translate(0,0)"></path>
<path d="M 1129.7 2188.44 C 1139.16 2191.34 1138.18 2194.84 1136.11 2204.98 C 1128.34 2207.01 1130.01 2194.94 1129.7 2188.44 z" fill="rgb(255,255,255)" fill-opacity="0.152941" transform="translate(0,0)"></path>
<path d="M 1190.87 1591.28 C 1190.7 1567.1 1190.55 1542.35 1189.94 1518.13 C 1189.89 1516.03 1191.01 1514.04 1192.38 1512.49 L 1194.28 1512.41 C 1199.47 1519.06 1206.87 1536.47 1206.75 1545.39 C 1203.78 1542.69 1201.38 1528.86 1196.04 1524.25 C 1193.94 1526.24 1195.07 1596.66 1194.49 1605.86 C 1192.69 1634.43 1190.88 1663.95 1190.5 1692.54 L 1189.28 1760.31 C 1189.18 1770.69 1189.81 1788.95 1188.7 1798.36 C 1185.07 1785.82 1186.67 1766.65 1186.79 1753.13 C 1187.18 1711.68 1187.4 1670.13 1188.22 1628.68 C 1188.47 1616.14 1191.19 1603.94 1190.87 1591.28 z" fill="rgb(255,255,255)" fill-opacity="0.0705882" transform="translate(0,0)"></path>
<path d="M 1091 138.057 C 1085.33 136.462 1078.02 135.515 1076.32 129.242 C 1080.03 126.734 1080.29 127.555 1085.53 127.188 C 1087.94 131.536 1103.56 132.61 1108.92 133.415 C 1112.32 134.456 1116.74 135.036 1118.14 137.444 L 1115.37 139.247 C 1062.57 141.644 978.685 167.482 932.343 192.704 L 931.047 194.446 C 925.214 196.373 923.343 197.628 918.024 200.833 C 914.618 202.954 910.981 205.129 907.65 207.326 L 907.073 205.886 C 908.255 202.526 909.008 202.38 911.578 199.637 L 915.549 198.257 C 928.372 193.937 943.953 182.217 956.49 176.983 C 992.983 161.749 1052.71 142.316 1091 138.057 z" fill="rgb(255,255,255)" fill-opacity="0.207843" transform="translate(0,0)"></path>
<path d="M 1233.58 2265.09 C 1236.88 2259.27 1235.46 2258.65 1241.82 2257.92 C 1241.82 2256.37 1244.26 2240.15 1244.14 2240.31 C 1244.54 2240.13 1244.25 2240.21 1245.17 2240.17 C 1246.17 2248.37 1249 2263.88 1249.31 2271.06 C 1251.22 2280.26 1251.32 2286.19 1252.2 2295.34 C 1233.9 2295.41 1200.28 2296.23 1183.12 2295.16 C 1186.53 2291.51 1216.88 2294.94 1221.14 2293.62 C 1220.04 2292.42 1215.78 2292.79 1214.57 2291.56 C 1216.44 2288.21 1220.28 2289.53 1221.14 2289.31 C 1226.73 2283.24 1223.29 2291.38 1230.77 2291.71 C 1232.42 2291.78 1229.13 2280.18 1228.98 2280 C 1226.83 2279.35 1224.35 2283.04 1221.1 2281.31 C 1220.48 2280.97 1220.01 2280.41 1219.79 2279.73 C 1219.65 2279.32 1219.74 2279.35 1219.96 2279.01 C 1222.3 2278.07 1230.31 2278.41 1230.9 2274.35 C 1233.37 2274.58 1235.53 2282.65 1236.81 2284.18 C 1236.96 2284.13 1237.12 2284.07 1237.27 2284.02 C 1238.57 2279.48 1230.29 2270.18 1233.58 2265.09 z" fill="rgb(255,255,255)" transform="translate(0,0)"></path>
<path d="M 1591.48 2153.65 C 1605.5 2167.29 1610.15 2161.03 1623.07 2172.23 C 1630.23 2178.44 1638.98 2197.48 1644.54 2204.99 C 1659.7 2225.45 1696.8 2236.35 1719.8 2245.65 L 1720.51 2249.03 L 1718.49 2251.09 C 1681.27 2237.87 1650.7 2228.34 1632.38 2192.69 L 1631.04 2190.67 C 1628.76 2186.57 1627.9 2185.19 1625.01 2181.45 C 1623.46 2178.76 1622.18 2178.11 1619.76 2176.01 C 1614.07 2171.24 1611.01 2169.8 1603.87 2167.94 L 1600.5 2166.88 C 1596.3 2164.59 1596.43 2166.84 1592.1 2161.96 C 1591 2157.92 1590.82 2158 1591.48 2153.65 z" fill="rgb(48,47,47)" fill-opacity="0.745098" transform="translate(0,0)"></path>
<path d="M 1453.41 2244.72 C 1454.93 2234.89 1458.06 2224.91 1460.17 2215.2 C 1462.46 2204.66 1462.72 2203.16 1471.44 2198.08 L 1474.21 2200.24 C 1471.01 2205.36 1465.94 2206.17 1465.42 2208.67 C 1463.98 2215.54 1462.16 2227.01 1463.12 2233.89 C 1467.95 2238.53 1469.26 2235.44 1474.73 2238.22 C 1477.73 2244.02 1460.59 2246.28 1476.18 2253.19 C 1478.93 2253.85 1486.95 2248.03 1488.31 2246.07 C 1497.16 2233.35 1490.03 2221.19 1491.79 2207.37 C 1493 2211.79 1493.27 2212.14 1493.37 2216.77 C 1491.66 2224.05 1498.57 2227.04 1500.18 2233.69 C 1500.78 2236.16 1505.2 2235.39 1506.01 2237.82 C 1504.41 2239.02 1497.23 2235.62 1496.71 2236.2 C 1495.14 2237.94 1493.53 2246.16 1495.28 2248.59 C 1497.66 2252.66 1492.89 2255.35 1489.68 2255.38 C 1485.34 2255.43 1482.55 2257.61 1478.92 2255.8 C 1472.48 2252.99 1474.4 2263.76 1470.54 2257.96 C 1467.83 2253.89 1458.81 2253.18 1459.95 2247.22 C 1460.34 2241.91 1465.18 2242.26 1465.83 2240.28 C 1461.7 2237.68 1462.37 2237.1 1459.61 2234.24 C 1456.31 2234.97 1460.33 2240.5 1454.49 2244.96 L 1453.41 2244.72 z" fill="rgb(255,255,255)" fill-opacity="0.584314" transform="translate(0,0)"></path>
<path d="M 1471.44 2198.08 L 1472.52 2198.13 C 1479.77 2198.39 1489.24 2197.22 1491.79 2207.37 C 1490.03 2221.19 1497.16 2233.35 1488.31 2246.07 C 1486.95 2248.03 1478.93 2253.85 1476.18 2253.19 C 1460.59 2246.28 1477.73 2244.02 1474.73 2238.22 C 1469.26 2235.44 1467.95 2238.53 1463.12 2233.89 L 1464.28 2233.95 C 1470.53 2234.32 1476.07 2234.39 1474.89 2224.83 C 1474.57 2222.23 1472.52 2216.96 1477.32 2216.87 C 1481.38 2216.8 1483.35 2227.4 1488.48 2222.77 C 1490.07 2221.24 1489.93 2214.98 1489.83 2212.9 C 1489.59 2208.29 1486.26 2205.96 1482.84 2203.54 C 1479.05 2200.69 1478.86 2198.85 1474.21 2200.24 L 1471.44 2198.08 z" fill="rgb(255,255,255)" fill-opacity="0.513725" transform="translate(0,0)"></path>
<path d="M 1199.78 2221.75 C 1202.94 2216.56 1207.78 2205.33 1210.9 2202.03 C 1214.24 2203.04 1218.74 2204.41 1222 2205.5 L 1223.84 2206.1 C 1236.27 2210.4 1229.42 2204.19 1236.19 2217.65 C 1237.11 2220.36 1236.17 2224.87 1234.01 2225.87 C 1233.83 2225.96 1233.62 2225.95 1233.44 2225.87 C 1230.71 2224.57 1233 2213.81 1228.11 2211.79 L 1228.1 2211.72 C 1227.06 2212.53 1227.8 2214.25 1228.08 2215.24 C 1228.74 2217.51 1228.49 2219.95 1227.41 2222.04 C 1226.67 2223.46 1222.54 2226.24 1221.75 2226.11 C 1217.58 2225.42 1216.38 2225.15 1211.82 2225.29 C 1205.98 2225.47 1210.85 2230.24 1206.56 2233.71 C 1205.33 2234.71 1201.21 2234.86 1199.99 2232.62 C 1200.25 2228.77 1200.71 2226.6 1199.78 2221.75 z M 1223.83 2223.73 C 1225.52 2217.92 1227.84 2215.47 1220.3 2212.85 C 1216.34 2219.07 1215.79 2222.34 1223.83 2223.73 z M 1214.43 2217.95 C 1216.81 2210.66 1218.69 2208.63 1210.89 2206.5 C 1209.26 2212.32 1207.49 2216.07 1214.43 2217.95 z" fill="rgb(255,255,255)" fill-opacity="0.729412" transform="translate(0,0)"></path>
<path d="M 1220.3 2212.85 C 1227.84 2215.47 1225.52 2217.92 1223.83 2223.73 C 1215.79 2222.34 1216.34 2219.07 1220.3 2212.85 z" fill="rgb(255,255,255)" fill-opacity="0.85098" transform="translate(0,0)"></path>
<path d="M 1210.89 2206.5 C 1218.69 2208.63 1216.81 2210.66 1214.43 2217.95 C 1207.49 2216.07 1209.26 2212.32 1210.89 2206.5 z" fill="rgb(255,255,255)" fill-opacity="0.537255" transform="translate(0,0)"></path>
<path d="M 1474.21 2200.24 C 1478.86 2198.85 1479.05 2200.69 1482.84 2203.54 C 1486.26 2205.96 1489.59 2208.29 1489.83 2212.9 C 1489.93 2214.98 1490.07 2221.24 1488.48 2222.77 C 1483.35 2227.4 1481.38 2216.8 1477.32 2216.87 C 1472.52 2216.96 1474.57 2222.23 1474.89 2224.83 C 1476.07 2234.39 1470.53 2234.32 1464.28 2233.95 L 1463.12 2233.89 C 1462.16 2227.01 1463.98 2215.54 1465.42 2208.67 C 1465.94 2206.17 1471.01 2205.36 1474.21 2200.24 z M 1483.74 2214.02 C 1485.52 2214.62 1486.8 2215.03 1486.42 2212.37 C 1485.76 2207.58 1480.9 2205.71 1477.35 2202.92 L 1475.69 2204.64 C 1465.6 2213.7 1475.28 2210.53 1483.74 2214.02 z M 1470.11 2231.44 C 1472.05 2225.67 1472.17 2223.34 1466.23 2220.83 C 1464.84 2227.47 1462.96 2229.74 1470.11 2231.44 z" fill="rgb(255,255,255)" fill-opacity="0.207843" transform="translate(0,0)"></path>
<path d="M 1477.35 2202.92 C 1480.9 2205.71 1485.76 2207.58 1486.42 2212.37 C 1486.8 2215.03 1485.52 2214.62 1483.74 2214.02 C 1475.28 2210.53 1465.6 2213.7 1475.69 2204.64 L 1477.35 2202.92 z" fill="rgb(255,255,255)" fill-opacity="0.0784314" transform="translate(0,0)"></path>
<path d="M 1466.23 2220.83 C 1472.17 2223.34 1472.05 2225.67 1470.11 2231.44 C 1462.96 2229.74 1464.84 2227.47 1466.23 2220.83 z" fill="rgb(255,255,255)" fill-opacity="0.0196078" transform="translate(0,0)"></path>
<path d="M 1139.03 2188.33 C 1144.06 2202.26 1141.02 2202.14 1139.34 2215.99 C 1139.87 2219.16 1140.41 2219.94 1141.38 2222.89 C 1140.78 2226.05 1141.6 2231.22 1140.63 2232.13 C 1134.91 2237.5 1123.05 2227.03 1119.61 2233.1 C 1119.83 2233.47 1120.06 2233.84 1120.28 2234.21 C 1117.55 2234.68 1109.17 2234.38 1106.32 2234.19 C 1106.53 2234.08 1106.75 2233.96 1106.97 2233.85 L 1107.08 2233.91 L 1108.03 2233.34 L 1107.94 2233.56 C 1108.62 2233.05 1108.36 2233.34 1108.77 2232.75 C 1108.88 2229.8 1101.69 2231.47 1101.27 2230.37 C 1102.3 2229.69 1115.8 2228.69 1117.05 2228.84 C 1119.18 2229.11 1116.61 2220.26 1121.04 2219.79 C 1121.46 2220.1 1121.3 2219.93 1121.53 2220.3 L 1121.5 2220.31 C 1122.23 2221.67 1122.51 2223.2 1123.75 2224.17 L 1123.87 2224.07 C 1124.16 2222.58 1120.69 2213.35 1121.92 2211.18 C 1122.7 2209.79 1122.26 2205.99 1121.3 2205.36 C 1112.93 2199.81 1121.28 2197.74 1117.86 2193.3 C 1131.98 2187.32 1122.62 2207.54 1127.26 2214.19 C 1128.79 2216.38 1133.45 2234.9 1136.93 2218.88 C 1138.69 2210.77 1139.5 2196.29 1139.03 2188.33 z" fill="rgb(255,255,255)" fill-opacity="0.607843" transform="translate(0,0)"></path>
<path d="M 1003.38 2226.71 C 1006.34 2233.39 1015.4 2234.07 1020.1 2230.84 C 1031.28 2223.12 1036.48 2231.01 1046.54 2224.64 C 1051.41 2221.57 1057.03 2220.23 1061.67 2216.57 C 1065.56 2213.77 1080.2 2206.93 1084.74 2206.74 L 1083.34 2208.4 C 1080.34 2212.13 1078.78 2211.15 1075.36 2214.06 C 1075.5 2214.29 1077.58 2216.89 1075.42 2217.02 C 1069.13 2217.4 1071.29 2218.48 1066.26 2220.4 C 1057.01 2223.92 1045.68 2231.84 1036.04 2232.44 C 1030.22 2232.8 1025.49 2247.69 1017.49 2237.35 C 1014 2232.82 1005.58 2237.21 1001.79 2234.42 C 1000.34 2232.5 998.932 2227.53 1003.38 2226.71 z" fill="rgb(255,255,255)" fill-opacity="0.607843" transform="translate(0,0)"></path>
<path d="M 1445.59 2275.48 C 1448.8 2287.66 1456.88 2275.13 1459.57 2273.5 C 1466.23 2276.32 1469.98 2271.57 1472.67 2275.88 C 1475.11 2277.94 1476.13 2278.77 1479.14 2279.73 C 1479.52 2279.85 1479.9 2279.99 1480.29 2280.11 C 1481.9 2280.63 1483.26 2280.5 1484.91 2280.59 C 1485.51 2280.62 1486.13 2280.57 1486.69 2280.79 C 1484.86 2281.98 1478.11 2279.83 1476.67 2282.82 C 1476.05 2284.11 1479.49 2284.69 1480.19 2284.77 C 1482.09 2284.96 1492.47 2284.37 1493.21 2284.94 L 1493.25 2285.16 C 1492.39 2285.7 1483.32 2286.6 1482.57 2286.67 C 1473.67 2287.58 1469.48 2293.85 1460.01 2289.64 C 1451.13 2287.11 1451.79 2296.42 1443.01 2285.56 C 1443.93 2282.22 1444.68 2278.83 1445.59 2275.48 z" fill="rgb(255,255,255)" fill-opacity="0.521569" transform="translate(0,0)"></path>
<path d="M 922.539 2245.62 L 924.892 2245.56 C 926.539 2245.51 937.406 2244.64 930.867 2251.08 C 925.339 2253.53 916.76 2254.3 910.813 2253.42 C 909.088 2253.16 896.692 2253.42 896.512 2254.47 C 894.536 2266.01 863.072 2263.79 853.306 2260.99 C 875.932 2255.46 899.36 2251.7 922.539 2245.62 z" fill="rgb(255,255,255)" fill-opacity="0.819608" transform="translate(0,0)"></path>
<path d="M 840.37 409.806 C 846.056 417.474 844.604 404.121 848.807 402.601 C 850.2 402.097 854.052 403.094 854.221 404.17 C 857.328 423.934 850.335 434.642 852.907 455.352 C 852.641 455.214 848.953 453.411 848.638 453.067 C 845.485 449.619 848.4 441.042 847.053 436.391 C 846.543 434.628 846.703 432.252 846.637 430.466 C 846.721 430.047 847.033 421.914 846.334 421.747 C 840.205 420.28 839.467 422.58 840.37 409.806 z" fill="rgb(255,255,255)" fill-opacity="0.0196078" transform="translate(0,0)"></path>
<path d="M 819.688 2282.12 C 832.624 2282.7 829.507 2273.83 840.728 2272.64 C 844.688 2272.21 854.057 2281.07 854.889 2284.73 C 851.985 2289.97 832.356 2286.2 825.751 2291.37 C 820.243 2295.67 819.24 2287.02 818.496 2283.6 C 819.414 2282.36 818.986 2282.82 819.688 2282.12 z" fill="rgb(255,255,255)" fill-opacity="0.286275" transform="translate(0,0)"></path>
<path d="M 944.752 200.586 L 946.703 200.633 C 952.216 200.717 959.075 199.646 962.789 204.089 C 955.433 210.222 951.505 207.69 944.085 213.464 C 941.174 215.73 938.804 217.381 935.404 218.628 C 938.65 203.636 919.725 214.969 909.953 210.875 C 912.419 209.432 912.242 209.455 914.971 209.075 C 919.875 208.486 938.986 202.205 944.752 200.586 z" fill="rgb(255,255,255)" fill-opacity="0.0745098" transform="translate(0,0)"></path>
<path d="M 1453.41 2244.72 L 1454.49 2244.96 C 1455.94 2254.3 1457.66 2264.27 1459.57 2273.5 C 1456.88 2275.13 1448.8 2287.66 1445.59 2275.48 C 1448.45 2265.27 1450.51 2254.69 1453.41 2244.72 z" fill="rgb(255,255,255)" fill-opacity="0.760784" transform="translate(0,0)"></path>
<path d="M 1142.43 2213.65 C 1143.98 2228.52 1159.9 2234.28 1173.19 2233.14 C 1185.14 2232.12 1185.62 2228.1 1194.17 2223.96 L 1195.99 2225.61 C 1178.19 2240.42 1157.38 2239.89 1141.38 2222.89 C 1140.41 2219.94 1139.87 2219.16 1139.34 2215.99 C 1140.38 2215.21 1141.41 2214.47 1142.43 2213.65 z" fill="rgb(81,52,40)" fill-opacity="0.952941" transform="translate(0,0)"></path>
<path d="M 1740.23 2278.23 C 1745.06 2273.43 1751.98 2269.43 1754.56 2278.24 L 1752.89 2278.62 C 1752.62 2277.07 1751.28 2275.94 1749.71 2275.92 C 1748.14 2275.9 1746.77 2277 1746.45 2278.54 C 1746.14 2280.08 1746.96 2281.62 1748.41 2282.23 C 1749.86 2282.83 1751.53 2282.32 1752.4 2281.01 C 1755.55 2288.43 1733.98 2288.05 1734.91 2284.28 C 1735.41 2282.24 1746.93 2281.36 1740.23 2278.23 z" fill="rgb(255,255,255)" fill-opacity="0.313725" transform="translate(0,0)"></path>
<path d="M 959.262 2236.1 C 961.8 2236.12 967.013 2235.36 969.267 2236.71 C 970.625 2237.52 969.147 2240.61 967.868 2241.03 C 958.898 2243.99 946.075 2243.18 936.747 2242.23 C 939.358 2241.36 942.007 2240.61 944.685 2239.99 C 949.594 2238.88 954.457 2237.59 959.262 2236.1 z" fill="rgb(255,255,255)" fill-opacity="0.760784" transform="translate(0,0)"></path>
<path d="M 1603.87 2167.94 C 1611.01 2169.8 1614.07 2171.24 1619.76 2176.01 C 1612.07 2180.13 1585.59 2174.52 1603.87 2167.94 z" fill="rgb(255,255,255)" transform="translate(0,0)"></path>
<path d="M 991.264 2225.81 C 1014.48 2229.83 975.102 2240.08 974.164 2231.7 C 979.907 2229.5 985.439 2228.04 991.264 2225.81 z" fill="rgb(255,255,255)" fill-opacity="0.784314" transform="translate(0,0)"></path>
<path d="M 1625.01 2181.45 C 1627.9 2185.19 1628.76 2186.57 1631.04 2190.67 C 1624.18 2196.63 1622.61 2186.44 1625.01 2181.45 z" fill="rgb(255,255,255)" fill-opacity="0.811765" transform="translate(0,0)"></path>
<path d="M 1752.4 2281.01 C 1751.53 2282.32 1749.86 2282.83 1748.41 2282.23 C 1746.96 2281.62 1746.14 2280.08 1746.45 2278.54 C 1746.77 2277 1748.14 2275.9 1749.71 2275.92 C 1751.28 2275.94 1752.62 2277.07 1752.89 2278.62 C 1753.04 2279.45 1752.87 2280.3 1752.4 2281.01 z" fill="rgb(255,255,255)" fill-opacity="0.239216" transform="translate(0,0)"></path>
<path d="M 1758.89 2273.03 C 1763.07 2267.8 1766.15 2275.32 1765.15 2280.93 C 1763.02 2278.33 1760.93 2275.7 1758.89 2273.03 z" fill="rgb(15,27,45)" transform="translate(0,0)"></path>
<metadata><recraft-signature>{"signed_by": "recraft", "signature_b64": "JVlq2GrU0MoSzlx7EZ+6+HVfKZBGBDVWj/HHpsGz95JZpEy9dxYgSFmj74eD8HPCIt7fFLe4H7o66jUeUSFGBg==", "signing_algo": "Ed25519", "generation_timestamp": 1783863827, "identifier": "f4bac9e8-bad7-4675-9b6b-4363f1020cf7"}</recraft-signature></metadata></svg>